<svg width="487" height="616" viewBox="0 0 487 616" fill="none" xmlns="http://www.w3.org/2000/svg">
<rect width="486.38" height="616" fill="#FFF4EC"/>
<rect x="75" y="43" width="336.38" height="530" rx="1" fill="#FFF4EC"/>
<g filter="url(#filter0_di)">
<rect x="115" y="48" width="256.38" height="520" rx="30.1624" fill="white"/>
</g>
<g clip-path="url(#clip0)">
<rect width="226.218" height="489.838" transform="translate(130.082 63.0811)" fill="#938FA8"/>
<g clip-path="url(#clip1)">
<rect width="226.218" height="489.838" transform="translate(130.082 63.0811)" fill="white"/>
<rect width="226.218" height="66.3573" transform="translate(130.082 63.0811)" fill="black"/>
<path d="M139.733 95.6565C139.733 95.6565 139.733 95.6565 139.733 95.6565C139.733 92.3249 142.434 89.624 145.766 89.624C145.766 89.624 145.766 89.624 145.766 89.624H340.397C340.397 89.624 340.397 89.624 340.397 89.624C343.729 89.624 346.429 92.3249 346.429 95.6565C346.429 95.6565 346.429 95.6565 346.429 95.6565V95.6565H139.733V95.6565Z" fill="#A6A6A6"/>
<path d="M130 105.652C130 102.273 130 100.584 130.658 99.2938C131.236 98.1587 132.159 97.2359 133.294 96.6575C134.584 96 136.273 96 139.652 96H347.348C350.727 96 352.416 96 353.706 96.6575C354.841 97.2359 355.764 98.1587 356.342 99.2938C357 100.584 357 102.273 357 105.652V132H130V105.652Z" fill="white"/>
<rect width="226" height="26.5429" transform="translate(130.082 100.482)" fill="white"/>
<path d="M317.763 115.685C319.3 115.685 320.442 114.829 320.682 113.502H319.766C319.535 114.338 318.769 114.854 317.763 114.854C316.371 114.854 315.499 113.717 315.499 111.905C315.499 110.092 316.371 108.95 317.758 108.95C318.754 108.95 319.525 109.536 319.766 110.467H320.682C320.467 109.075 319.28 108.119 317.758 108.119C315.795 108.119 314.573 109.571 314.573 111.905C314.573 114.233 315.8 115.685 317.763 115.685ZM323.381 115.61C324.102 115.61 324.693 115.295 325.044 114.719H325.124V115.515H325.945V111.819C325.945 110.698 325.209 110.022 323.892 110.022C322.74 110.022 321.889 110.593 321.774 111.459H322.645C322.765 111.033 323.216 110.788 323.862 110.788C324.668 110.788 325.084 111.153 325.084 111.819V112.31L323.526 112.405C322.27 112.48 321.559 113.036 321.559 114.003C321.559 114.989 322.335 115.61 323.381 115.61ZM323.541 114.854C322.916 114.854 322.45 114.533 322.45 113.983C322.45 113.442 322.81 113.156 323.632 113.101L325.084 113.006V113.502C325.084 114.273 324.428 114.854 323.541 114.854ZM327.332 115.515H328.194V112.32C328.194 111.374 328.749 110.798 329.611 110.798C330.472 110.798 330.883 111.259 330.883 112.23V115.515H331.744V112.02C331.744 110.738 331.068 110.022 329.856 110.022C329.03 110.022 328.504 110.372 328.234 110.968H328.154V110.117H327.332V115.515ZM337.583 111.769C337.432 110.808 336.631 110.022 335.319 110.022C333.807 110.022 332.846 111.113 332.846 112.796C332.846 114.513 333.812 115.61 335.324 115.61C336.621 115.61 337.427 114.879 337.583 113.887H336.711C336.551 114.498 336.045 114.834 335.319 114.834C334.358 114.834 333.737 114.043 333.737 112.796C333.737 111.574 334.348 110.798 335.319 110.798C336.095 110.798 336.571 111.234 336.711 111.769H337.583ZM342.225 114.118C341.999 114.594 341.529 114.849 340.833 114.849C339.916 114.849 339.32 114.173 339.275 113.106V113.066H343.156V112.736C343.156 111.058 342.27 110.022 340.813 110.022C339.33 110.022 338.379 111.123 338.379 112.821C338.379 114.528 339.315 115.61 340.813 115.61C341.994 115.61 342.836 115.039 343.086 114.118H342.225ZM340.803 110.783C341.659 110.783 342.23 111.414 342.25 112.37H339.275C339.341 111.414 339.941 110.783 340.803 110.783ZM344.353 115.515H345.214V107.974H344.353V115.515Z" fill="#5E3DC2"/>
<path opacity="0.35" d="M334.164 73.839H344.218C344.94 73.839 345.525 74.4242 345.525 75.146V78.7655C345.525 79.4874 344.94 80.0725 344.218 80.0725H334.164C333.442 80.0725 332.857 79.4874 332.857 78.7655V75.146C332.857 74.4242 333.442 73.839 334.164 73.839Z" stroke="white" stroke-width="0.603248"/>
<path opacity="0.4" d="M346.43 75.7493V78.1623C346.915 77.9579 347.231 77.4825 347.231 76.9558C347.231 76.429 346.915 75.9536 346.43 75.7493" fill="white"/>
<path d="M333.762 75.5482C333.762 75.104 334.122 74.7439 334.566 74.7439H343.816C344.26 74.7439 344.62 75.104 344.62 75.5482V78.3634C344.62 78.8076 344.26 79.1677 343.816 79.1677H334.566C334.122 79.1677 333.762 78.8076 333.762 78.3634V75.5482Z" fill="white"/>
<path fill-rule="evenodd" clip-rule="evenodd" d="M324.912 74.9096C326.249 74.9096 327.534 75.4232 328.503 76.3443C328.576 76.4154 328.693 76.4145 328.764 76.3423L329.462 75.6385C329.498 75.6019 329.519 75.5522 329.518 75.5006C329.518 75.449 329.497 75.3996 329.46 75.3634C326.917 72.9266 322.906 72.9266 320.363 75.3634C320.326 75.3996 320.306 75.4489 320.305 75.5006C320.305 75.5522 320.325 75.6018 320.361 75.6385L321.059 76.3423C321.131 76.4146 321.247 76.4155 321.32 76.3443C322.289 75.4232 323.575 74.9096 324.912 74.9096ZM324.912 77.1993C325.646 77.1993 326.355 77.4722 326.899 77.9652C326.973 78.0352 327.089 78.0337 327.16 77.9618L327.857 77.258C327.894 77.2211 327.914 77.171 327.913 77.119C327.913 77.0669 327.891 77.0173 327.854 76.9811C326.196 75.439 323.629 75.439 321.971 76.9811C321.934 77.0173 321.912 77.067 321.912 77.119C321.911 77.1711 321.932 77.2212 321.968 77.258L322.665 77.9618C322.737 78.0337 322.853 78.0352 322.926 77.9652C323.47 77.4726 324.178 77.1996 324.912 77.1993ZM326.307 78.7399C326.308 78.7921 326.288 78.8424 326.25 78.8789L325.046 80.0949C325.01 80.1306 324.962 80.1507 324.912 80.1507C324.862 80.1507 324.813 80.1306 324.778 80.0949L323.573 78.8789C323.536 78.8424 323.515 78.792 323.516 78.7398C323.518 78.6877 323.54 78.6382 323.579 78.6033C324.348 77.9524 325.475 77.9524 326.245 78.6033C326.284 78.6383 326.306 78.6877 326.307 78.7399Z" fill="white"/>
<path fill-rule="evenodd" clip-rule="evenodd" d="M316.669 73.7384H316.066C315.733 73.7384 315.463 74.0085 315.463 74.3417V79.5698C315.463 79.903 315.733 80.1731 316.066 80.1731H316.669C317.002 80.1731 317.272 79.903 317.272 79.5698V74.3417C317.272 74.0085 317.002 73.7384 316.669 73.7384ZM313.251 75.146H313.854C314.187 75.146 314.457 75.4161 314.457 75.7493V79.5698C314.457 79.903 314.187 80.1731 313.854 80.1731H313.251C312.918 80.1731 312.648 79.903 312.648 79.5698V75.7493C312.648 75.4161 312.918 75.146 313.251 75.146ZM311.039 76.5535H310.436C310.103 76.5535 309.832 76.8236 309.832 77.1568V79.5698C309.832 79.9029 310.103 80.173 310.436 80.173H311.039C311.372 80.173 311.642 79.9029 311.642 79.5698V77.1568C311.642 76.8236 311.372 76.5535 311.039 76.5535ZM308.224 77.76H307.62C307.287 77.76 307.017 78.0301 307.017 78.3633V79.5698C307.017 79.9029 307.287 80.173 307.62 80.173H308.224C308.557 80.173 308.827 79.9029 308.827 79.5698V78.3633C308.827 78.0301 308.557 77.76 308.224 77.76Z" fill="white"/>
<path d="M143.112 83.7052C143.155 84.5508 143.864 85.0887 144.937 85.0887C146.071 85.0887 146.774 84.5249 146.774 83.6177C146.774 82.9081 146.375 82.5128 145.426 82.2957L144.888 82.1726C144.308 82.0365 144.071 81.8518 144.071 81.5311C144.071 81.126 144.428 80.8604 144.966 80.8604C145.478 80.8604 145.841 81.1228 145.899 81.5408H146.699C146.66 80.7405 145.951 80.1799 144.969 80.1799C143.922 80.1799 143.229 80.7437 143.229 81.5861C143.229 82.2795 143.628 82.6975 144.476 82.8919L145.082 83.0312C145.682 83.1705 145.938 83.3779 145.938 83.7181C145.938 84.1167 145.539 84.405 144.988 84.405C144.395 84.405 143.981 84.1329 143.929 83.7052H143.112ZM148.638 85.0304C149.102 85.0304 149.49 84.8295 149.688 84.486H149.743V84.972H150.518V82.5517C150.518 81.8032 150.006 81.3626 149.095 81.3626C148.253 81.3626 147.666 81.7579 147.602 82.3767H148.36C148.434 82.1337 148.687 82.0009 149.056 82.0009C149.49 82.0009 149.724 82.1985 149.724 82.5517V82.8563L148.81 82.9113C147.948 82.9599 147.465 83.3326 147.465 83.9676C147.465 84.6156 147.955 85.0304 148.638 85.0304ZM148.875 84.4115C148.518 84.4115 148.262 84.2333 148.262 83.9287C148.262 83.6339 148.473 83.4686 148.923 83.4395L149.724 83.3844V83.6728C149.724 84.094 149.361 84.4115 148.875 84.4115ZM151.812 84.972H152.612V82.0786H153.374V81.4533H152.603V81.126C152.603 80.7891 152.752 80.6206 153.131 80.6206C153.244 80.6206 153.341 80.6303 153.406 80.64V80.0601C153.276 80.0374 153.131 80.0276 152.959 80.0276C152.172 80.0276 151.812 80.3743 151.812 81.0807V81.4533H151.232V82.0786H151.812V84.972ZM155.083 85.0304C155.546 85.0304 155.935 84.8295 156.133 84.486H156.188V84.972H156.962V82.5517C156.962 81.8032 156.45 81.3626 155.54 81.3626C154.697 81.3626 154.111 81.7579 154.046 82.3767H154.804C154.879 82.1337 155.131 82.0009 155.501 82.0009C155.935 82.0009 156.168 82.1985 156.168 82.5517V82.8563L155.254 82.9113C154.393 82.9599 153.91 83.3326 153.91 83.9676C153.91 84.6156 154.399 85.0304 155.083 85.0304ZM155.319 84.4115C154.963 84.4115 154.707 84.2333 154.707 83.9287C154.707 83.6339 154.918 83.4686 155.368 83.4395L156.168 83.3844V83.6728C156.168 84.094 155.805 84.4115 155.319 84.4115ZM157.997 84.972H158.801V82.9146C158.801 82.4156 159.164 82.0916 159.685 82.0916C159.821 82.0916 160.035 82.1143 160.097 82.137V81.4047C160.022 81.3853 159.88 81.3723 159.763 81.3723C159.306 81.3723 158.924 81.6315 158.827 81.9814H158.772V81.4306H157.997V84.972ZM161.232 80.8377C161.498 80.8377 161.715 80.6271 161.715 80.3614C161.715 80.0989 161.498 79.8851 161.232 79.8851C160.97 79.8851 160.753 80.0989 160.753 80.3614C160.753 80.6271 160.97 80.8377 161.232 80.8377ZM160.834 84.972H161.634V81.4306H160.834V84.972Z" fill="white"/>
<path d="M136.052 84.0123C135.829 83.9012 135.829 83.5835 136.052 83.4724L140.051 81.4783C140.252 81.3783 140.488 81.5242 140.488 81.7483L140.488 85.7365C140.488 85.9605 140.252 86.1064 140.051 86.0064L136.052 84.0123Z" fill="white"/>
<path d="M147.972 75.7006H149.112V69.3249H147.977L146.311 70.4958V71.5694L147.897 70.4472H147.972V75.7006ZM152.246 72.8552H153.046C153.832 72.8552 154.309 73.2484 154.309 73.889C154.309 74.5076 153.792 74.9229 153.059 74.9229C152.321 74.9229 151.822 74.543 151.773 73.9509H150.682C150.735 75.1041 151.685 75.8596 153.072 75.8596C154.451 75.8596 155.476 75.0643 155.476 73.9686C155.476 73.0982 154.932 72.537 154.066 72.4045V72.3294C154.742 72.1482 155.224 71.6401 155.228 70.8713C155.233 69.9567 154.468 69.1659 153.112 69.1659C151.729 69.1659 150.863 69.9479 150.806 71.0657H151.875C151.923 70.4295 152.356 70.076 153.05 70.076C153.726 70.076 154.128 70.4914 154.128 71.0171C154.128 71.5959 153.677 72.0024 153.023 72.0024H152.246V72.8552ZM157.377 71.5738C157.796 71.5738 158.084 71.2822 158.084 70.889C158.084 70.4958 157.796 70.2042 157.377 70.2042C156.961 70.2042 156.67 70.4958 156.67 70.889C156.67 71.2822 156.961 71.5738 157.377 71.5738ZM157.377 74.8169C157.796 74.8169 158.084 74.5209 158.084 74.1321C158.084 73.7388 157.796 73.4472 157.377 73.4472C156.961 73.4472 156.67 73.7388 156.67 74.1321C156.67 74.5209 156.961 74.8169 157.377 74.8169ZM160.926 75.7006H162.065V69.3249H160.93L159.264 70.4958V71.5694L160.85 70.4472H160.926V75.7006ZM163.67 71.2115H164.74C164.74 70.54 165.181 70.0805 165.875 70.0805C166.542 70.0805 166.94 70.5267 166.94 71.1055C166.94 71.5915 166.745 71.8964 165.941 72.7094L163.732 74.9318V75.7006H168.159V74.755H165.279V74.6799L166.648 73.3323C167.744 72.2587 168.067 71.7417 168.067 70.9995C168.067 69.9391 167.205 69.1659 165.937 69.1659C164.607 69.1659 163.67 70.0053 163.67 71.2115Z" fill="white"/>
<path d="M150.284 147.715V157.916H154.009C157.063 157.916 158.859 156.022 158.859 152.791C158.859 149.56 157.056 147.715 154.009 147.715H150.284ZM152.107 149.256H153.818C155.854 149.256 156.999 150.515 156.999 152.798C156.999 155.124 155.868 156.375 153.818 156.375H152.107V149.256ZM163.688 158.065C165.886 158.065 167.314 156.601 167.314 154.17C167.314 151.745 165.872 150.267 163.688 150.267C161.503 150.267 160.061 151.752 160.061 154.17C160.061 156.601 161.489 158.065 163.688 158.065ZM163.688 156.672C162.571 156.672 161.85 155.767 161.85 154.17C161.85 152.579 162.578 151.667 163.688 151.667C164.805 151.667 165.526 152.579 165.526 154.17C165.526 155.767 164.805 156.672 163.688 156.672ZM172.668 160.702C174.379 160.702 175.206 160.073 175.842 158.213L178.557 150.423H176.704L174.937 156.418H174.902L173.141 150.423H171.219L173.884 157.923C173.891 157.945 173.778 158.319 173.778 158.341C173.587 159.033 173.212 159.309 172.484 159.309C172.378 159.309 172.067 159.302 171.975 159.281V160.673C172.067 160.695 172.562 160.702 172.668 160.702ZM182.735 158.065C184.934 158.065 186.362 156.601 186.362 154.17C186.362 151.745 184.92 150.267 182.735 150.267C180.551 150.267 179.109 151.752 179.109 154.17C179.109 156.601 180.537 158.065 182.735 158.065ZM182.735 156.672C181.619 156.672 180.897 155.767 180.897 154.17C180.897 152.579 181.626 151.667 182.735 151.667C183.852 151.667 184.573 152.579 184.573 154.17C184.573 155.767 183.852 156.672 182.735 156.672ZM194.38 150.423H192.619V154.756C192.619 155.845 191.99 156.566 190.972 156.566C189.982 156.566 189.459 155.986 189.459 154.912V150.423H187.699V155.265C187.699 156.997 188.731 158.051 190.357 158.051C191.495 158.051 192.252 157.528 192.648 156.616H192.683V157.916H194.38V150.423ZM209.368 150.423H207.629L206.364 156.177H206.322L204.858 150.423H203.169L201.705 156.177H201.67L200.405 150.423H198.637L200.666 157.916H202.504L203.975 152.438H204.01L205.487 157.916H207.34L209.368 150.423ZM212.565 158.037C213.526 158.037 214.466 157.535 214.898 156.722H214.933V157.916H216.63V152.756C216.63 151.25 215.421 150.267 213.561 150.267C211.653 150.267 210.458 151.271 210.38 152.671H212.013C212.126 152.049 212.657 151.646 213.491 151.646C214.36 151.646 214.89 152.098 214.89 152.883V153.42L212.911 153.533C211.087 153.647 210.062 154.445 210.062 155.774C210.062 157.125 211.115 158.037 212.565 158.037ZM213.095 156.708C212.331 156.708 211.822 156.319 211.822 155.704C211.822 155.11 212.31 154.728 213.159 154.672L214.89 154.566V155.138C214.89 156.043 214.092 156.708 213.095 156.708ZM218.292 157.916H220.052V153.576C220.052 152.501 220.695 151.773 221.706 151.773C222.71 151.773 223.205 152.367 223.205 153.427V157.916H224.965V153.074C224.965 151.342 224.025 150.282 222.371 150.282C221.218 150.282 220.42 150.819 220.017 151.71H219.981V150.423H218.292V157.916ZM227.108 148.67V150.423H226.034V151.78H227.108V155.923C227.108 157.379 227.744 157.952 229.363 157.952C229.738 157.952 230.084 157.923 230.275 157.881V156.538C230.162 156.559 229.936 156.573 229.773 156.573C229.151 156.573 228.868 156.29 228.868 155.675V151.78H230.282V150.423H228.868V148.67H227.108ZM235.353 148.67V150.423H234.278V151.78H235.353V155.923C235.353 157.379 235.989 157.952 237.608 157.952C237.983 157.952 238.329 157.923 238.52 157.881V156.538C238.407 156.559 238.181 156.573 238.018 156.573C237.396 156.573 237.113 156.29 237.113 155.675V151.78H238.527V150.423H237.113V148.67H235.353ZM243.144 158.065C245.343 158.065 246.771 156.601 246.771 154.17C246.771 151.745 245.329 150.267 243.144 150.267C240.96 150.267 239.518 151.752 239.518 154.17C239.518 156.601 240.946 158.065 243.144 158.065ZM243.144 156.672C242.027 156.672 241.306 155.767 241.306 154.17C241.306 152.579 242.034 151.667 243.144 151.667C244.261 151.667 244.982 152.579 244.982 154.17C244.982 155.767 244.261 156.672 243.144 156.672ZM251.332 157.916H253.093V147.715H251.332V157.916ZM258.148 158.065C260.347 158.065 261.775 156.601 261.775 154.17C261.775 151.745 260.333 150.267 258.148 150.267C255.964 150.267 254.522 151.752 254.522 154.17C254.522 156.601 255.95 158.065 258.148 158.065ZM258.148 156.672C257.031 156.672 256.31 155.767 256.31 154.17C256.31 152.579 257.038 151.667 258.148 151.667C259.265 151.667 259.986 152.579 259.986 154.17C259.986 155.767 259.265 156.672 258.148 156.672ZM266.448 160.744C268.633 160.744 270.068 159.585 270.068 157.796V150.423H268.343V151.71H268.315C267.883 150.847 267.021 150.296 265.954 150.296C264.038 150.296 262.836 151.773 262.836 154.141C262.836 156.474 264.066 157.923 265.918 157.923C266.993 157.923 267.876 157.386 268.265 156.58H268.308V157.846C268.308 158.8 267.65 159.443 266.505 159.443C265.671 159.443 265.027 159.055 264.837 158.482H263.09C263.267 159.797 264.596 160.744 266.448 160.744ZM266.455 156.524C265.346 156.524 264.639 155.633 264.639 154.148C264.639 152.678 265.346 151.745 266.455 151.745C267.58 151.745 268.308 152.692 268.308 154.148C268.308 155.612 267.58 156.524 266.455 156.524ZM275.803 149.292C276.34 149.292 276.764 148.861 276.764 148.337C276.764 147.807 276.34 147.383 275.803 147.383C275.266 147.383 274.835 147.807 274.835 148.337C274.835 148.861 275.266 149.292 275.803 149.292ZM274.926 157.916H276.687V150.423H274.926V157.916ZM278.405 157.916H280.166V153.576C280.166 152.501 280.809 151.773 281.82 151.773C282.824 151.773 283.319 152.367 283.319 153.427V157.916H285.079V153.074C285.079 151.342 284.139 150.282 282.484 150.282C281.332 150.282 280.533 150.819 280.13 151.71H280.095V150.423H278.405V157.916ZM290.362 148.67V150.423H289.287V151.78H290.362V155.923C290.362 157.379 290.998 157.952 292.617 157.952C292.991 157.952 293.338 157.923 293.529 157.881V156.538C293.416 156.559 293.189 156.573 293.027 156.573C292.405 156.573 292.122 156.29 292.122 155.675V151.78H293.536V150.423H292.122V148.67H290.362ZM298.153 158.065C300.351 158.065 301.779 156.601 301.779 154.17C301.779 151.745 300.337 150.267 298.153 150.267C295.968 150.267 294.526 151.752 294.526 154.17C294.526 156.601 295.954 158.065 298.153 158.065ZM298.153 156.672C297.036 156.672 296.315 155.767 296.315 154.17C296.315 152.579 297.043 151.667 298.153 151.667C299.27 151.667 299.991 152.579 299.991 154.17C299.991 155.767 299.27 156.672 298.153 156.672ZM160.81 174.916V164.715H158.703L155.578 172.499H155.522L152.397 164.715H150.284V174.916H151.931V167.677H151.98L154.928 174.916H156.172L159.12 167.677H159.17V174.916H160.81ZM164.699 175.037C165.66 175.037 166.6 174.535 167.032 173.722H167.067V174.916H168.764V169.756C168.764 168.25 167.555 167.267 165.696 167.267C163.787 167.267 162.592 168.271 162.514 169.671H164.147C164.261 169.049 164.791 168.646 165.625 168.646C166.494 168.646 167.025 169.098 167.025 169.883V170.42L165.045 170.533C163.221 170.647 162.196 171.445 162.196 172.774C162.196 174.125 163.25 175.037 164.699 175.037ZM165.229 173.708C164.466 173.708 163.957 173.319 163.957 172.704C163.957 172.11 164.444 171.728 165.293 171.672L167.025 171.566V172.138C167.025 173.043 166.226 173.708 165.229 173.708ZM173.727 177.744C175.912 177.744 177.347 176.585 177.347 174.796V167.423H175.622V168.71H175.594C175.162 167.847 174.3 167.296 173.232 167.296C171.317 167.296 170.115 168.773 170.115 171.141C170.115 173.474 171.345 174.923 173.197 174.923C174.272 174.923 175.155 174.386 175.544 173.58H175.587V174.846C175.587 175.8 174.929 176.443 173.784 176.443C172.95 176.443 172.306 176.055 172.115 175.482H170.369C170.546 176.797 171.875 177.744 173.727 177.744ZM173.734 173.524C172.624 173.524 171.918 172.633 171.918 171.148C171.918 169.678 172.624 168.745 173.734 168.745C174.858 168.745 175.587 169.692 175.587 171.148C175.587 172.612 174.858 173.524 173.734 173.524ZM181.229 175.037C182.19 175.037 183.13 174.535 183.562 173.722H183.597V174.916H185.294V169.756C185.294 168.25 184.085 167.267 182.226 167.267C180.317 167.267 179.122 168.271 179.044 169.671H180.677C180.79 169.049 181.321 168.646 182.155 168.646C183.024 168.646 183.555 169.098 183.555 169.883V170.42L181.575 170.533C179.751 170.647 178.726 171.445 178.726 172.774C178.726 174.125 179.78 175.037 181.229 175.037ZM181.759 173.708C180.995 173.708 180.486 173.319 180.486 172.704C180.486 172.11 180.974 171.728 181.823 171.672L183.555 171.566V172.138C183.555 173.043 182.756 173.708 181.759 173.708ZM186.822 169.572C186.822 170.682 187.543 171.389 188.978 171.707L190.222 171.983C191.007 172.159 191.275 172.414 191.275 172.866C191.275 173.425 190.745 173.778 189.89 173.778C188.999 173.778 188.497 173.411 188.363 172.682H186.631C186.772 174.132 187.931 175.065 189.89 175.065C191.728 175.065 193.028 174.11 193.028 172.697C193.028 171.608 192.428 171.007 190.872 170.661L189.628 170.385C188.843 170.208 188.532 169.911 188.532 169.48C188.532 168.929 189.048 168.561 189.826 168.561C190.639 168.561 191.141 168.992 191.212 169.671H192.852C192.809 168.25 191.65 167.267 189.826 167.267C188.016 167.267 186.822 168.201 186.822 169.572ZM195.313 166.292C195.85 166.292 196.274 165.861 196.274 165.337C196.274 164.807 195.85 164.383 195.313 164.383C194.775 164.383 194.344 164.807 194.344 165.337C194.344 165.861 194.775 166.292 195.313 166.292ZM194.436 174.916H196.196V167.423H194.436V174.916ZM197.915 174.916H199.675V170.576C199.675 169.501 200.319 168.773 201.33 168.773C202.333 168.773 202.828 169.367 202.828 170.427V174.916H204.589V170.074C204.589 168.342 203.648 167.282 201.994 167.282C200.842 167.282 200.043 167.819 199.64 168.71H199.605V167.423H197.915V174.916ZM211.206 172.675C211.016 173.298 210.393 173.708 209.573 173.708C208.421 173.708 207.686 172.902 207.686 171.7V171.594H212.924V171.021C212.924 168.745 211.595 167.267 209.467 167.267C207.304 167.267 205.933 168.83 205.933 171.198C205.933 173.587 207.29 175.065 209.538 175.065C211.312 175.065 212.627 174.089 212.854 172.675H211.206ZM209.474 168.632C210.485 168.632 211.164 169.374 211.199 170.434H207.7C207.771 169.388 208.485 168.632 209.474 168.632ZM214.792 165.67V167.423H213.717V168.78H214.792V172.923C214.792 174.379 215.428 174.952 217.047 174.952C217.421 174.952 217.768 174.923 217.959 174.881V173.538C217.845 173.559 217.619 173.573 217.457 173.573C216.835 173.573 216.552 173.29 216.552 172.675V168.78H217.966V167.423H216.552V165.67H214.792ZM219.069 167.508H220.731C220.787 166.631 221.374 166.073 222.286 166.073C223.177 166.073 223.77 166.617 223.77 167.366C223.77 168.066 223.474 168.448 222.597 168.978C221.621 169.551 221.211 170.187 221.275 171.233L221.282 171.735H222.922V171.325C222.922 170.618 223.184 170.251 224.11 169.713C225.071 169.141 225.609 168.384 225.609 167.303C225.609 165.747 224.315 164.631 222.378 164.631C220.278 164.631 219.126 165.846 219.069 167.508ZM222.123 175.058C222.696 175.058 223.148 174.612 223.148 174.054C223.148 173.495 222.696 173.057 222.123 173.057C221.551 173.057 221.091 173.495 221.091 174.054C221.091 174.612 221.551 175.058 222.123 175.058Z" fill="black"/>
<g clip-path="url(#clip2)">
<path d="M151.316 206.388H153.198L154.836 209.415H155.955L154.184 206.239C155.144 205.937 155.722 205.11 155.722 204.044C155.722 202.666 154.757 201.764 153.283 201.764H150.361V209.415H151.316V206.388ZM151.316 202.613H153.155C154.142 202.613 154.735 203.159 154.735 204.076C154.735 205.015 154.179 205.539 153.198 205.539H151.316V202.613ZM160.845 207.936C160.606 208.44 160.108 208.71 159.371 208.71C158.4 208.71 157.769 207.994 157.722 206.865V206.822H161.831V206.473C161.831 204.696 160.892 203.599 159.349 203.599C157.78 203.599 156.773 204.765 156.773 206.563C156.773 208.371 157.764 209.516 159.349 209.516C160.601 209.516 161.491 208.911 161.757 207.936H160.845ZM159.339 204.405C160.246 204.405 160.85 205.073 160.871 206.086H157.722C157.791 205.073 158.427 204.405 159.339 204.405ZM163.142 209.415H164.054V205.873C164.054 205.068 164.632 204.421 165.379 204.421C166.1 204.421 166.572 204.855 166.572 205.534V209.415H167.484V205.741C167.484 205.015 168.014 204.421 168.81 204.421C169.615 204.421 170.013 204.834 170.013 205.677V209.415H170.925V205.465C170.925 204.267 170.273 203.599 169.106 203.599C168.316 203.599 167.664 203.997 167.357 204.601H167.272C167.007 204.007 166.466 203.599 165.692 203.599C164.928 203.599 164.356 203.965 164.096 204.601H164.011V203.7H163.142V209.415ZM176.255 207.936C176.016 208.44 175.518 208.71 174.781 208.71C173.811 208.71 173.18 207.994 173.132 206.865V206.822H177.241V206.473C177.241 204.696 176.303 203.599 174.76 203.599C173.19 203.599 172.183 204.765 172.183 206.563C172.183 208.371 173.174 209.516 174.76 209.516C176.011 209.516 176.902 208.911 177.167 207.936H176.255ZM174.749 204.405C175.656 204.405 176.26 205.073 176.281 206.086H173.132C173.201 205.073 173.837 204.405 174.749 204.405ZM178.552 209.415H179.464V205.873C179.464 205.068 180.042 204.421 180.789 204.421C181.51 204.421 181.982 204.855 181.982 205.534V209.415H182.894V205.741C182.894 205.015 183.424 204.421 184.22 204.421C185.026 204.421 185.423 204.834 185.423 205.677V209.415H186.335V205.465C186.335 204.267 185.683 203.599 184.517 203.599C183.727 203.599 183.074 203.997 182.767 204.601H182.682C182.417 204.007 181.876 203.599 181.102 203.599C180.339 203.599 179.766 203.965 179.506 204.601H179.421V203.7H178.552V209.415ZM190.721 209.516C192.169 209.516 193.118 208.344 193.118 206.557C193.118 204.76 192.174 203.599 190.721 203.599C189.937 203.599 189.242 203.986 188.929 204.601H188.844V201.43H187.932V209.415H188.802V208.503H188.887C189.247 209.139 189.926 209.516 190.721 209.516ZM190.509 204.421C191.554 204.421 192.174 205.221 192.174 206.557C192.174 207.893 191.554 208.694 190.509 208.694C189.47 208.694 188.823 207.878 188.823 206.557C188.823 205.237 189.47 204.421 190.509 204.421ZM198.214 207.936C197.976 208.44 197.477 208.71 196.74 208.71C195.77 208.71 195.139 207.994 195.091 206.865V206.822H199.2V206.473C199.2 204.696 198.262 203.599 196.719 203.599C195.15 203.599 194.142 204.765 194.142 206.563C194.142 208.371 195.134 209.516 196.719 209.516C197.97 209.516 198.861 208.911 199.126 207.936H198.214ZM196.708 204.405C197.615 204.405 198.22 205.073 198.241 206.086H195.091C195.16 205.073 195.797 204.405 196.708 204.405ZM200.511 209.415H201.423V205.873C201.423 205.068 202.054 204.484 202.924 204.484C203.104 204.484 203.433 204.516 203.507 204.537V203.625C203.39 203.609 203.199 203.599 203.051 203.599C202.293 203.599 201.635 203.991 201.466 204.548H201.381V203.7H200.511V209.415ZM207.47 209.415H208.382V205.873C208.382 205.068 208.96 204.421 209.708 204.421C210.429 204.421 210.9 204.855 210.9 205.534V209.415H211.812V205.741C211.812 205.015 212.343 204.421 213.138 204.421C213.944 204.421 214.341 204.834 214.341 205.677V209.415H215.253V205.465C215.253 204.267 214.601 203.599 213.435 203.599C212.645 203.599 211.993 203.997 211.685 204.601H211.6C211.335 204.007 210.794 203.599 210.02 203.599C209.257 203.599 208.684 203.965 208.424 204.601H208.34V203.7H207.47V209.415ZM220.583 207.936C220.345 208.44 219.846 208.71 219.109 208.71C218.139 208.71 217.508 207.994 217.46 206.865V206.822H221.569V206.473C221.569 204.696 220.631 203.599 219.088 203.599C217.519 203.599 216.511 204.765 216.511 206.563C216.511 208.371 217.503 209.516 219.088 209.516C220.339 209.516 221.23 208.911 221.495 207.936H220.583ZM219.077 204.405C219.984 204.405 220.588 205.073 220.61 206.086H217.46C217.529 205.073 218.165 204.405 219.077 204.405Z" fill="#161225"/>
<path d="M152.466 225.306C153.732 225.306 154.483 224.683 154.483 223.636C154.483 222.848 153.967 222.292 153.155 222.189V222.123C153.728 222.02 154.182 221.459 154.182 220.84C154.182 219.929 153.514 219.356 152.421 219.356H150.145V225.306H152.466ZM150.887 220.011H152.264C153.002 220.011 153.431 220.362 153.431 220.968C153.431 221.599 152.973 221.921 152.074 221.921H150.887V220.011ZM150.887 224.65V222.56H152.285C153.233 222.56 153.72 222.91 153.72 223.599C153.72 224.288 153.25 224.65 152.355 224.65H150.887ZM158.549 224.156C158.363 224.547 157.976 224.758 157.402 224.758C156.648 224.758 156.157 224.201 156.12 223.323V223.29H159.316V223.017C159.316 221.636 158.586 220.782 157.386 220.782C156.165 220.782 155.382 221.69 155.382 223.088C155.382 224.494 156.153 225.385 157.386 225.385C158.359 225.385 159.052 224.914 159.258 224.156H158.549ZM157.378 221.409C158.083 221.409 158.553 221.929 158.569 222.716H156.12C156.173 221.929 156.668 221.409 157.378 221.409ZM162.813 225.306H163.522V222.551C163.522 221.925 164.013 221.471 164.689 221.471C164.829 221.471 165.085 221.496 165.143 221.512V220.803C165.052 220.791 164.903 220.782 164.788 220.782C164.198 220.782 163.687 221.088 163.555 221.521H163.489V220.861H162.813V225.306ZM168.85 224.156C168.664 224.547 168.277 224.758 167.704 224.758C166.949 224.758 166.458 224.201 166.421 223.323V223.29H169.617V223.017C169.617 221.636 168.887 220.782 167.687 220.782C166.466 220.782 165.683 221.69 165.683 223.088C165.683 224.494 166.454 225.385 167.687 225.385C168.66 225.385 169.353 224.914 169.559 224.156H168.85ZM167.679 221.409C168.384 221.409 168.854 221.929 168.871 222.716H166.421C166.475 221.929 166.969 221.409 167.679 221.409ZM170.73 225.306H171.44V222.551C171.44 221.925 171.889 221.422 172.471 221.422C173.031 221.422 173.398 221.76 173.398 222.288V225.306H174.108V222.448C174.108 221.883 174.52 221.422 175.139 221.422C175.765 221.422 176.075 221.743 176.075 222.399V225.306H176.784V222.234C176.784 221.302 176.277 220.782 175.37 220.782C174.755 220.782 174.248 221.092 174.009 221.562H173.943C173.737 221.1 173.316 220.782 172.714 220.782C172.12 220.782 171.675 221.067 171.473 221.562H171.407V220.861H170.73V225.306ZM181.023 224.156C180.838 224.547 180.45 224.758 179.877 224.758C179.122 224.758 178.631 224.201 178.594 223.323V223.29H181.79V223.017C181.79 221.636 181.06 220.782 179.86 220.782C178.64 220.782 177.856 221.69 177.856 223.088C177.856 224.494 178.627 225.385 179.86 225.385C180.834 225.385 181.526 224.914 181.733 224.156H181.023ZM179.852 221.409C180.557 221.409 181.027 221.929 181.044 222.716H178.594C178.648 221.929 179.143 221.409 179.852 221.409ZM182.904 225.306H183.613V222.551C183.613 221.925 184.062 221.422 184.644 221.422C185.205 221.422 185.572 221.76 185.572 222.288V225.306H186.281V222.448C186.281 221.883 186.693 221.422 187.312 221.422C187.939 221.422 188.248 221.743 188.248 222.399V225.306H188.957V222.234C188.957 221.302 188.45 220.782 187.543 220.782C186.929 220.782 186.421 221.092 186.182 221.562H186.116C185.91 221.1 185.489 220.782 184.887 220.782C184.293 220.782 183.848 221.067 183.646 221.562H183.58V220.861H182.904V225.306ZM192.463 225.385C193.588 225.385 194.327 224.473 194.327 223.083C194.327 221.685 193.593 220.782 192.463 220.782C191.852 220.782 191.312 221.083 191.069 221.562H191.003V219.096H190.294V225.306H190.97V224.597H191.036C191.316 225.092 191.844 225.385 192.463 225.385ZM192.298 221.422C193.11 221.422 193.593 222.044 193.593 223.083C193.593 224.123 193.11 224.745 192.298 224.745C191.489 224.745 190.986 224.11 190.986 223.083C190.986 222.057 191.489 221.422 192.298 221.422ZM198.384 224.156C198.199 224.547 197.811 224.758 197.238 224.758C196.483 224.758 195.993 224.201 195.955 223.323V223.29H199.151V223.017C199.151 221.636 198.421 220.782 197.221 220.782C196.001 220.782 195.217 221.69 195.217 223.088C195.217 224.494 195.988 225.385 197.221 225.385C198.195 225.385 198.887 224.914 199.094 224.156H198.384ZM197.213 221.409C197.918 221.409 198.388 221.929 198.405 222.716H195.955C196.009 221.929 196.504 221.409 197.213 221.409ZM200.265 225.306H200.974V222.551C200.974 221.925 201.465 221.471 202.141 221.471C202.281 221.471 202.537 221.496 202.595 221.512V220.803C202.504 220.791 202.356 220.782 202.24 220.782C201.65 220.782 201.139 221.088 201.007 221.521H200.941V220.861H200.265V225.306ZM206.302 224.156C206.116 224.547 205.729 224.758 205.156 224.758C204.401 224.758 203.91 224.201 203.873 223.323V223.29H207.069V223.017C207.069 221.636 206.339 220.782 205.139 220.782C203.918 220.782 203.135 221.69 203.135 223.088C203.135 224.494 203.906 225.385 205.139 225.385C206.112 225.385 206.805 224.914 207.011 224.156H206.302ZM205.131 221.409C205.836 221.409 206.306 221.929 206.323 222.716H203.873C203.927 221.929 204.422 221.409 205.131 221.409ZM209.828 225.385C210.442 225.385 210.97 225.092 211.25 224.597H211.316V225.306H211.993V219.096H211.283V221.562H211.222C210.97 221.075 210.446 220.782 209.828 220.782C208.698 220.782 207.96 221.69 207.96 223.083C207.96 224.481 208.69 225.385 209.828 225.385ZM209.993 221.422C210.797 221.422 211.3 222.065 211.3 223.083C211.3 224.11 210.801 224.745 209.993 224.745C209.18 224.745 208.694 224.123 208.694 223.083C208.694 222.048 209.184 221.422 209.993 221.422ZM216.125 220.003C216.397 220.003 216.62 219.78 216.62 219.508C216.62 219.236 216.397 219.013 216.125 219.013C215.853 219.013 215.63 219.236 215.63 219.508C215.63 219.78 215.853 220.003 216.125 220.003ZM215.77 225.306H216.479V220.861H215.77V225.306ZM217.832 225.306H218.541V222.675C218.541 221.896 218.999 221.422 219.708 221.422C220.418 221.422 220.756 221.801 220.756 222.601V225.306H221.465V222.428C221.465 221.372 220.908 220.782 219.91 220.782C219.23 220.782 218.797 221.071 218.574 221.562H218.508V220.861H217.832V225.306ZM225.444 219.71V220.861H224.727V221.455H225.444V224.151C225.444 225.001 225.812 225.339 226.727 225.339C226.867 225.339 227.003 225.323 227.143 225.298V224.7C227.012 224.712 226.941 224.716 226.814 224.716C226.352 224.716 226.154 224.494 226.154 223.97V221.455H227.143V220.861H226.154V219.71H225.444ZM228.257 225.306H228.966V222.675C228.966 221.925 229.403 221.422 230.199 221.422C230.871 221.422 231.226 221.813 231.226 222.601V225.306H231.935V222.428C231.935 221.384 231.341 220.782 230.401 220.782C229.721 220.782 229.255 221.071 229.032 221.562H228.966V219.096H228.257V225.306ZM236.175 224.156C235.989 224.547 235.601 224.758 235.028 224.758C234.273 224.758 233.783 224.201 233.746 223.323V223.29H236.942V223.017C236.942 221.636 236.212 220.782 235.012 220.782C233.791 220.782 233.007 221.69 233.007 223.088C233.007 224.494 233.779 225.385 235.012 225.385C235.985 225.385 236.678 224.914 236.884 224.156H236.175ZM235.003 221.409C235.709 221.409 236.179 221.929 236.195 222.716H233.746C233.799 221.929 234.294 221.409 235.003 221.409ZM242.649 225.385C243.775 225.385 244.513 224.473 244.513 223.083C244.513 221.685 243.779 220.782 242.649 220.782C242.039 220.782 241.498 221.083 241.255 221.562H241.189V219.096H240.48V225.306H241.156V224.597H241.222C241.502 225.092 242.03 225.385 242.649 225.385ZM242.484 221.422C243.296 221.422 243.779 222.044 243.779 223.083C243.779 224.123 243.296 224.745 242.484 224.745C241.676 224.745 241.173 224.11 241.173 223.083C241.173 222.057 241.676 221.422 242.484 221.422ZM245.626 225.306H246.335V222.551C246.335 221.925 246.826 221.471 247.503 221.471C247.643 221.471 247.898 221.496 247.956 221.512V220.803C247.865 220.791 247.717 220.782 247.601 220.782C247.012 220.782 246.5 221.088 246.368 221.521H246.303V220.861H245.626V225.306ZM250.546 225.385C251.812 225.385 252.595 224.51 252.595 223.083C252.595 221.652 251.812 220.782 250.546 220.782C249.28 220.782 248.496 221.652 248.496 223.083C248.496 224.51 249.28 225.385 250.546 225.385ZM250.546 224.745C249.705 224.745 249.23 224.135 249.23 223.083C249.23 222.028 249.705 221.422 250.546 221.422C251.387 221.422 251.861 222.028 251.861 223.083C251.861 224.135 251.387 224.745 250.546 224.745ZM259.136 220.861H258.422L257.548 224.415H257.482L256.488 220.861H255.808L254.814 224.415H254.748L253.874 220.861H253.156L254.402 225.306H255.119L256.109 221.867H256.175L257.169 225.306H257.89L259.136 220.861ZM259.857 222.077C259.857 222.721 260.237 223.079 261.07 223.281L261.833 223.467C262.307 223.582 262.538 223.789 262.538 224.094C262.538 224.502 262.109 224.787 261.511 224.787C260.942 224.787 260.587 224.547 260.468 224.172H259.738C259.816 224.91 260.497 225.385 261.486 225.385C262.497 225.385 263.268 224.836 263.268 224.04C263.268 223.401 262.864 223.038 262.026 222.836L261.342 222.671C260.818 222.543 260.571 222.354 260.571 222.048C260.571 221.652 260.983 221.384 261.511 221.384C262.047 221.384 262.393 221.62 262.488 221.974H263.189C263.094 221.244 262.447 220.782 261.515 220.782C260.571 220.782 259.857 221.339 259.857 222.077ZM267.325 224.156C267.14 224.547 266.752 224.758 266.179 224.758C265.424 224.758 264.934 224.201 264.897 223.323V223.29H268.092V223.017C268.092 221.636 267.363 220.782 266.163 220.782C264.942 220.782 264.158 221.69 264.158 223.088C264.158 224.494 264.93 225.385 266.163 225.385C267.136 225.385 267.829 224.914 268.035 224.156H267.325ZM266.154 221.409C266.859 221.409 267.33 221.929 267.346 222.716H264.897C264.95 221.929 265.445 221.409 266.154 221.409ZM269.206 225.306H269.915V222.551C269.915 221.925 270.406 221.471 271.082 221.471C271.222 221.471 271.478 221.496 271.536 221.512V220.803C271.445 220.791 271.297 220.782 271.181 220.782C270.592 220.782 270.08 221.088 269.948 221.521H269.882V220.861H269.206V225.306ZM276.633 225.385C277.899 225.385 278.682 224.51 278.682 223.083C278.682 221.652 277.899 220.782 276.633 220.782C275.367 220.782 274.583 221.652 274.583 223.083C274.583 224.51 275.367 225.385 276.633 225.385ZM276.633 224.745C275.792 224.745 275.317 224.135 275.317 223.083C275.317 222.028 275.792 221.422 276.633 221.422C277.474 221.422 277.948 222.028 277.948 223.083C277.948 224.135 277.474 224.745 276.633 224.745ZM279.796 225.306H280.505V222.675C280.505 221.896 280.963 221.422 281.672 221.422C282.381 221.422 282.72 221.801 282.72 222.601V225.306H283.429V222.428C283.429 221.372 282.872 220.782 281.874 220.782C281.194 220.782 280.761 221.071 280.538 221.562H280.472V220.861H279.796V225.306ZM150.351 231.71V232.861H149.633V233.455H150.351V236.151C150.351 237.001 150.718 237.339 151.633 237.339C151.773 237.339 151.909 237.323 152.05 237.298V236.7C151.918 236.712 151.848 236.716 151.72 236.716C151.258 236.716 151.06 236.494 151.06 235.97V233.455H152.05V232.861H151.06V231.71H150.351ZM153.163 237.306H153.872V234.675C153.872 233.925 154.31 233.422 155.105 233.422C155.778 233.422 156.132 233.813 156.132 234.601V237.306H156.842V234.428C156.842 233.384 156.248 232.782 155.307 232.782C154.627 232.782 154.161 233.071 153.938 233.562H153.872V231.096H153.163V237.306ZM158.508 232.003C158.78 232.003 159.002 231.78 159.002 231.508C159.002 231.236 158.78 231.013 158.508 231.013C158.235 231.013 158.013 231.236 158.013 231.508C158.013 231.78 158.235 232.003 158.508 232.003ZM158.153 237.306H158.862V232.861H158.153V237.306ZM160.112 234.077C160.112 234.721 160.491 235.079 161.324 235.281L162.087 235.467C162.561 235.582 162.792 235.789 162.792 236.094C162.792 236.502 162.363 236.787 161.765 236.787C161.196 236.787 160.842 236.547 160.722 236.172H159.992C160.07 236.91 160.751 237.385 161.741 237.385C162.751 237.385 163.522 236.836 163.522 236.04C163.522 235.401 163.118 235.038 162.281 234.836L161.596 234.671C161.072 234.543 160.825 234.354 160.825 234.048C160.825 233.652 161.237 233.384 161.765 233.384C162.301 233.384 162.648 233.62 162.743 233.974H163.444C163.349 233.244 162.701 232.782 161.769 232.782C160.825 232.782 160.112 233.339 160.112 234.077ZM168.664 237.385C169.279 237.385 169.807 237.092 170.087 236.597H170.153V237.306H170.829V231.096H170.12V233.562H170.058C169.807 233.075 169.283 232.782 168.664 232.782C167.534 232.782 166.796 233.69 166.796 235.083C166.796 236.481 167.526 237.385 168.664 237.385ZM168.829 233.422C169.633 233.422 170.137 234.065 170.137 235.083C170.137 236.11 169.638 236.745 168.829 236.745C168.017 236.745 167.53 236.123 167.53 235.083C167.53 234.048 168.021 233.422 168.829 233.422ZM175.151 236.156C174.965 236.547 174.578 236.758 174.005 236.758C173.25 236.758 172.759 236.201 172.722 235.323V235.29H175.918V235.017C175.918 233.636 175.188 232.782 173.988 232.782C172.768 232.782 171.984 233.69 171.984 235.088C171.984 236.494 172.755 237.385 173.988 237.385C174.961 237.385 175.654 236.914 175.86 236.156H175.151ZM173.98 233.409C174.685 233.409 175.155 233.929 175.172 234.716H172.722C172.776 233.929 173.271 233.409 173.98 233.409ZM180.578 232.861H179.819L178.603 236.523H178.537L177.32 232.861H176.561L178.207 237.306H178.933L180.578 232.861ZM181.898 232.003C182.17 232.003 182.392 231.78 182.392 231.508C182.392 231.236 182.17 231.013 181.898 231.013C181.625 231.013 181.403 231.236 181.403 231.508C181.403 231.78 181.625 232.003 181.898 232.003ZM181.543 237.306H182.252V232.861H181.543V237.306ZM187.283 234.222C187.159 233.43 186.5 232.782 185.419 232.782C184.174 232.782 183.382 233.681 183.382 235.067C183.382 236.481 184.178 237.385 185.423 237.385C186.491 237.385 187.155 236.782 187.283 235.966H186.566C186.434 236.469 186.017 236.745 185.419 236.745C184.627 236.745 184.116 236.094 184.116 235.067C184.116 234.061 184.619 233.422 185.419 233.422C186.058 233.422 186.45 233.78 186.566 234.222H187.283ZM191.275 236.156C191.089 236.547 190.702 236.758 190.129 236.758C189.374 236.758 188.883 236.201 188.846 235.323V235.29H192.042V235.017C192.042 233.636 191.312 232.782 190.112 232.782C188.891 232.782 188.108 233.69 188.108 235.088C188.108 236.494 188.879 237.385 190.112 237.385C191.085 237.385 191.778 236.914 191.984 236.156H191.275ZM190.104 233.409C190.809 233.409 191.279 233.929 191.296 234.716H188.846C188.9 233.929 189.395 233.409 190.104 233.409ZM195.836 231.71V232.861H195.118V233.455H195.836V236.151C195.836 237.001 196.203 237.339 197.118 237.339C197.259 237.339 197.395 237.323 197.535 237.298V236.7C197.403 236.712 197.333 236.716 197.205 236.716C196.743 236.716 196.545 236.494 196.545 235.97V233.455H197.535V232.861H196.545V231.71H195.836ZM200.368 237.385C201.634 237.385 202.417 236.51 202.417 235.083C202.417 233.652 201.634 232.782 200.368 232.782C199.102 232.782 198.318 233.652 198.318 235.083C198.318 236.51 199.102 237.385 200.368 237.385ZM200.368 236.745C199.527 236.745 199.052 236.135 199.052 235.083C199.052 234.028 199.527 233.422 200.368 233.422C201.209 233.422 201.683 234.028 201.683 235.083C201.683 236.135 201.209 236.745 200.368 236.745ZM205.811 234.077C205.811 234.721 206.191 235.079 207.024 235.281L207.787 235.467C208.261 235.582 208.492 235.789 208.492 236.094C208.492 236.502 208.063 236.787 207.465 236.787C206.896 236.787 206.541 236.547 206.422 236.172H205.692C205.77 236.91 206.45 237.385 207.44 237.385C208.45 237.385 209.222 236.836 209.222 236.04C209.222 235.401 208.817 235.038 207.98 234.836L207.296 234.671C206.772 234.543 206.525 234.354 206.525 234.048C206.525 233.652 206.937 233.384 207.465 233.384C208.001 233.384 208.347 233.62 208.442 233.974H209.143C209.048 233.244 208.401 232.782 207.469 232.782C206.525 232.782 205.811 233.339 205.811 234.077ZM210.706 232.003C210.978 232.003 211.201 231.78 211.201 231.508C211.201 231.236 210.978 231.013 210.706 231.013C210.434 231.013 210.211 231.236 210.211 231.508C210.211 231.78 210.434 232.003 210.706 232.003ZM210.352 237.306H211.061V232.861H210.352V237.306ZM214.244 239.013C215.457 239.013 216.224 238.378 216.224 237.385V232.861H215.547V233.566H215.481C215.226 233.088 214.677 232.782 214.055 232.782C212.912 232.782 212.191 233.685 212.191 235.017C212.191 236.349 212.904 237.24 214.055 237.24C214.665 237.24 215.168 236.964 215.448 236.473H215.514V237.347C215.514 238.003 215.04 238.395 214.244 238.395C213.605 238.395 213.209 238.16 213.131 237.797H212.38C212.488 238.531 213.172 239.013 214.244 239.013ZM214.211 236.613C213.387 236.613 212.925 235.987 212.925 235.017C212.925 234.048 213.387 233.422 214.211 233.422C215.032 233.422 215.531 234.048 215.531 235.017C215.531 235.987 215.036 236.613 214.211 236.613ZM217.56 237.306H218.269V234.675C218.269 233.896 218.727 233.422 219.436 233.422C220.145 233.422 220.484 233.801 220.484 234.601V237.306H221.193V234.428C221.193 233.372 220.636 232.782 219.638 232.782C218.958 232.782 218.525 233.071 218.302 233.562H218.236V232.861H217.56V237.306ZM225.247 232.003C225.519 232.003 225.741 231.78 225.741 231.508C225.741 231.236 225.519 231.013 225.247 231.013C224.974 231.013 224.752 231.236 224.752 231.508C224.752 231.78 224.974 232.003 225.247 232.003ZM224.892 237.306H225.601V232.861H224.892V237.306ZM226.954 237.306H227.663V234.675C227.663 233.896 228.121 233.422 228.83 233.422C229.539 233.422 229.878 233.801 229.878 234.601V237.306H230.587V234.428C230.587 233.372 230.03 232.782 229.032 232.782C228.352 232.782 227.919 233.071 227.696 233.562H227.63V232.861H226.954V237.306ZM234.566 231.71V232.861H233.849V233.455H234.566V236.151C234.566 237.001 234.933 237.339 235.849 237.339C235.989 237.339 236.125 237.323 236.265 237.298V236.7C236.133 236.712 236.063 236.716 235.935 236.716C235.474 236.716 235.276 236.494 235.276 235.97V233.455H236.265V232.861H235.276V231.71H234.566ZM239.098 237.385C240.364 237.385 241.148 236.51 241.148 235.083C241.148 233.652 240.364 232.782 239.098 232.782C237.832 232.782 237.049 233.652 237.049 235.083C237.049 236.51 237.832 237.385 239.098 237.385ZM239.098 236.745C238.257 236.745 237.783 236.135 237.783 235.083C237.783 234.028 238.257 233.422 239.098 233.422C239.94 233.422 240.414 234.028 240.414 235.083C240.414 236.135 239.94 236.745 239.098 236.745ZM250.237 232.861H249.523L248.649 236.415H248.583L247.589 232.861H246.909L245.915 236.415H245.849L244.975 232.861H244.257L245.503 237.306H246.22L247.21 233.867H247.276L248.27 237.306H248.991L250.237 232.861ZM253.964 236.156C253.779 236.547 253.391 236.758 252.818 236.758C252.063 236.758 251.573 236.201 251.536 235.323V235.29H254.731V235.017C254.731 233.636 254.002 232.782 252.802 232.782C251.581 232.782 250.797 233.69 250.797 235.088C250.797 236.494 251.569 237.385 252.802 237.385C253.775 237.385 254.468 236.914 254.674 236.156H253.964ZM252.793 233.409C253.498 233.409 253.969 233.929 253.985 234.716H251.536C251.589 233.929 252.084 233.409 252.793 233.409ZM258.055 237.385C259.181 237.385 259.919 236.473 259.919 235.083C259.919 233.685 259.185 232.782 258.055 232.782C257.445 232.782 256.905 233.083 256.661 233.562H256.595V231.096H255.886V237.306H256.562V236.597H256.628C256.909 237.092 257.437 237.385 258.055 237.385ZM257.89 233.422C258.703 233.422 259.185 234.044 259.185 235.083C259.185 236.123 258.703 236.745 257.89 236.745C257.082 236.745 256.579 236.11 256.579 235.083C256.579 234.057 257.082 233.422 257.89 233.422ZM260.93 234.077C260.93 234.721 261.309 235.079 262.142 235.281L262.905 235.467C263.379 235.582 263.61 235.789 263.61 236.094C263.61 236.502 263.181 236.787 262.583 236.787C262.014 236.787 261.659 236.547 261.54 236.172H260.81C260.888 236.91 261.569 237.385 262.558 237.385C263.569 237.385 264.34 236.836 264.34 236.04C264.34 235.401 263.936 235.038 263.099 234.836L262.414 234.671C261.89 234.543 261.643 234.354 261.643 234.048C261.643 233.652 262.055 233.384 262.583 233.384C263.119 233.384 263.466 233.62 263.56 233.974H264.262C264.167 233.244 263.519 232.782 262.587 232.782C261.643 232.782 260.93 233.339 260.93 234.077ZM265.824 232.003C266.097 232.003 266.319 231.78 266.319 231.508C266.319 231.236 266.097 231.013 265.824 231.013C265.552 231.013 265.33 231.236 265.33 231.508C265.33 231.78 265.552 232.003 265.824 232.003ZM265.47 237.306H266.179V232.861H265.47V237.306ZM267.829 231.71V232.861H267.111V233.455H267.829V236.151C267.829 237.001 268.196 237.339 269.111 237.339C269.251 237.339 269.387 237.323 269.528 237.298V236.7C269.396 236.712 269.326 236.716 269.198 236.716C268.736 236.716 268.538 236.494 268.538 235.97V233.455H269.528V232.861H268.538V231.71H267.829ZM273.478 236.156C273.293 236.547 272.905 236.758 272.332 236.758C271.577 236.758 271.086 236.201 271.049 235.323V235.29H274.245V235.017C274.245 233.636 273.515 232.782 272.315 232.782C271.095 232.782 270.311 233.69 270.311 235.088C270.311 236.494 271.082 237.385 272.315 237.385C273.288 237.385 273.981 236.914 274.187 236.156H273.478ZM272.307 233.409C273.012 233.409 273.482 233.929 273.499 234.716H271.049C271.103 233.929 271.598 233.409 272.307 233.409ZM275.255 234.077C275.255 234.721 275.635 235.079 276.468 235.281L277.231 235.467C277.705 235.582 277.936 235.789 277.936 236.094C277.936 236.502 277.507 236.787 276.909 236.787C276.34 236.787 275.985 236.547 275.866 236.172H275.136C275.214 236.91 275.895 237.385 276.884 237.385C277.895 237.385 278.666 236.836 278.666 236.04C278.666 235.401 278.262 235.038 277.425 234.836L276.74 234.671C276.216 234.543 275.969 234.354 275.969 234.048C275.969 233.652 276.381 233.384 276.909 233.384C277.445 233.384 277.792 233.62 277.886 233.974H278.587C278.493 233.244 277.845 232.782 276.913 232.782C275.969 232.782 275.255 233.339 275.255 234.077ZM283.4 237.385C283.994 237.385 284.48 237.125 284.769 236.65H284.835V237.306H285.511V234.263C285.511 233.339 284.905 232.782 283.821 232.782C282.872 232.782 282.171 233.252 282.076 233.966H282.794C282.893 233.615 283.264 233.413 283.796 233.413C284.46 233.413 284.802 233.714 284.802 234.263V234.667L283.52 234.745C282.484 234.807 281.899 235.265 281.899 236.061C281.899 236.873 282.538 237.385 283.4 237.385ZM283.532 236.762C283.016 236.762 282.633 236.498 282.633 236.044C282.633 235.599 282.93 235.364 283.606 235.318L284.802 235.24V235.648C284.802 236.283 284.262 236.762 283.532 236.762ZM286.823 237.306H287.532V234.675C287.532 233.896 287.99 233.422 288.699 233.422C289.408 233.422 289.746 233.801 289.746 234.601V237.306H290.456V234.428C290.456 233.372 289.899 232.782 288.901 232.782C288.221 232.782 287.788 233.071 287.565 233.562H287.499V232.861H286.823V237.306ZM293.4 237.385C294.014 237.385 294.542 237.092 294.823 236.597H294.889V237.306H295.565V231.096H294.856V233.562H294.794C294.542 233.075 294.019 232.782 293.4 232.782C292.27 232.782 291.532 233.69 291.532 235.083C291.532 236.481 292.262 237.385 293.4 237.385ZM293.565 233.422C294.369 233.422 294.872 234.065 294.872 235.083C294.872 236.11 294.373 236.745 293.565 236.745C292.753 236.745 292.266 236.123 292.266 235.083C292.266 234.048 292.757 233.422 293.565 233.422ZM151.291 249.385C151.885 249.385 152.371 249.125 152.66 248.65H152.726V249.306H153.402V246.263C153.402 245.339 152.796 244.782 151.712 244.782C150.763 244.782 150.062 245.252 149.967 245.966H150.685C150.784 245.615 151.155 245.413 151.687 245.413C152.351 245.413 152.693 245.714 152.693 246.263V246.667L151.411 246.745C150.375 246.807 149.79 247.265 149.79 248.061C149.79 248.873 150.429 249.385 151.291 249.385ZM151.423 248.762C150.907 248.762 150.524 248.498 150.524 248.044C150.524 247.599 150.821 247.364 151.497 247.318L152.693 247.24V247.648C152.693 248.283 152.153 248.762 151.423 248.762ZM156.879 244.782C156.272 244.782 155.74 245.092 155.456 245.603H155.39V244.861H154.714V250.791H155.423V248.638H155.489C155.732 249.108 156.244 249.385 156.879 249.385C158.009 249.385 158.747 248.473 158.747 247.083C158.747 245.685 158.013 244.782 156.879 244.782ZM156.71 248.745C155.91 248.745 155.402 248.102 155.402 247.083C155.402 246.061 155.91 245.422 156.714 245.422C157.526 245.422 158.013 246.044 158.013 247.083C158.013 248.123 157.526 248.745 156.71 248.745ZM162.025 244.782C161.419 244.782 160.887 245.092 160.602 245.603H160.536V244.861H159.86V250.791H160.569V248.638H160.635C160.879 249.108 161.39 249.385 162.025 249.385C163.155 249.385 163.893 248.473 163.893 247.083C163.893 245.685 163.159 244.782 162.025 244.782ZM161.856 248.745C161.056 248.745 160.549 248.102 160.549 247.083C160.549 246.061 161.056 245.422 161.86 245.422C162.673 245.422 163.159 246.044 163.159 247.083C163.159 248.123 162.673 248.745 161.856 248.745ZM164.903 246.077C164.903 246.721 165.283 247.079 166.116 247.281L166.879 247.467C167.353 247.582 167.584 247.789 167.584 248.094C167.584 248.502 167.155 248.787 166.557 248.787C165.988 248.787 165.633 248.547 165.514 248.172H164.784C164.862 248.91 165.543 249.385 166.532 249.385C167.543 249.385 168.314 248.836 168.314 248.04C168.314 247.401 167.91 247.038 167.073 246.836L166.388 246.671C165.864 246.543 165.617 246.354 165.617 246.048C165.617 245.652 166.029 245.384 166.557 245.384C167.093 245.384 167.44 245.62 167.534 245.974H168.235C168.141 245.244 167.493 244.782 166.561 244.782C165.617 244.782 164.903 245.339 164.903 246.077ZM177.403 244.861H176.689L175.815 248.415H175.749L174.755 244.861H174.075L173.081 248.415H173.015L172.141 244.861H171.423L172.669 249.306H173.386L174.376 245.867H174.442L175.436 249.306H176.157L177.403 244.861ZM178.722 244.003C178.994 244.003 179.217 243.78 179.217 243.508C179.217 243.236 178.994 243.013 178.722 243.013C178.45 243.013 178.227 243.236 178.227 243.508C178.227 243.78 178.45 244.003 178.722 244.003ZM178.368 249.306H179.077V244.861H178.368V249.306ZM180.726 243.71V244.861H180.009V245.455H180.726V248.151C180.726 249.001 181.093 249.339 182.009 249.339C182.149 249.339 182.285 249.323 182.425 249.298V248.7C182.293 248.712 182.223 248.716 182.095 248.716C181.634 248.716 181.436 248.494 181.436 247.97V245.455H182.425V244.861H181.436V243.71H180.726ZM183.539 249.306H184.248V246.675C184.248 245.925 184.685 245.422 185.481 245.422C186.153 245.422 186.508 245.813 186.508 246.601V249.306H187.217V246.428C187.217 245.384 186.623 244.782 185.683 244.782C185.003 244.782 184.537 245.071 184.314 245.562H184.248V243.096H183.539V249.306ZM192.722 249.385C193.988 249.385 194.772 248.51 194.772 247.083C194.772 245.652 193.988 244.782 192.722 244.782C191.456 244.782 190.673 245.652 190.673 247.083C190.673 248.51 191.456 249.385 192.722 249.385ZM192.722 248.745C191.881 248.745 191.407 248.135 191.407 247.083C191.407 246.028 191.881 245.422 192.722 245.422C193.564 245.422 194.038 246.028 194.038 247.083C194.038 248.135 193.564 248.745 192.722 248.745ZM195.885 249.306H196.595V246.675C196.595 245.896 197.052 245.422 197.762 245.422C198.471 245.422 198.809 245.801 198.809 246.601V249.306H199.518V246.428C199.518 245.372 198.962 244.782 197.964 244.782C197.283 244.782 196.85 245.071 196.628 245.562H196.562V244.861H195.885V249.306ZM203.762 248.156C203.576 248.547 203.189 248.758 202.615 248.758C201.861 248.758 201.37 248.201 201.333 247.323V247.29H204.529V247.017C204.529 245.636 203.799 244.782 202.599 244.782C201.378 244.782 200.595 245.69 200.595 247.088C200.595 248.494 201.366 249.385 202.599 249.385C203.572 249.385 204.265 248.914 204.471 248.156H203.762ZM202.591 245.409C203.296 245.409 203.766 245.929 203.782 246.716H201.333C201.386 245.929 201.881 245.409 202.591 245.409ZM208.323 243.71V244.861H207.605V245.455H208.323V248.151C208.323 249.001 208.69 249.339 209.605 249.339C209.745 249.339 209.881 249.323 210.022 249.298V248.7C209.89 248.712 209.82 248.716 209.692 248.716C209.23 248.716 209.032 248.494 209.032 247.97V245.455H210.022V244.861H209.032V243.71H208.323ZM212.331 249.385C212.925 249.385 213.411 249.125 213.7 248.65H213.766V249.306H214.442V246.263C214.442 245.339 213.836 244.782 212.752 244.782C211.803 244.782 211.102 245.252 211.007 245.966H211.725C211.824 245.615 212.195 245.413 212.727 245.413C213.391 245.413 213.733 245.714 213.733 246.263V246.667L212.451 246.745C211.415 246.807 210.83 247.265 210.83 248.061C210.83 248.873 211.469 249.385 212.331 249.385ZM212.463 248.762C211.947 248.762 211.564 248.498 211.564 248.044C211.564 247.599 211.861 247.364 212.537 247.318L213.733 247.24V247.648C213.733 248.283 213.193 248.762 212.463 248.762ZM217.919 244.782C217.312 244.782 216.78 245.092 216.496 245.603H216.43V244.861H215.754V250.791H216.463V248.638H216.529C216.772 249.108 217.284 249.385 217.919 249.385C219.049 249.385 219.787 248.473 219.787 247.083C219.787 245.685 219.053 244.782 217.919 244.782ZM217.75 248.745C216.95 248.745 216.442 248.102 216.442 247.083C216.442 246.061 216.95 245.422 217.754 245.422C218.566 245.422 219.053 246.044 219.053 247.083C219.053 248.123 218.566 248.745 217.75 248.745ZM221.403 249.347C221.7 249.347 221.939 249.104 221.939 248.811C221.939 248.514 221.7 248.275 221.403 248.275C221.11 248.275 220.867 248.514 220.867 248.811C220.867 249.104 221.11 249.347 221.403 249.347Z" fill="#3C3C43" fill-opacity="0.6"/>
</g>
<path fill-rule="evenodd" clip-rule="evenodd" d="M315.796 216.663C316.846 216.603 317.894 216.608 318.944 216.608C318.951 216.608 324.263 216.608 324.263 216.608C325.333 216.608 326.381 216.603 327.43 216.663C328.384 216.718 329.313 216.833 330.238 217.092C332.185 217.636 333.885 218.773 335.113 220.384C336.335 221.985 336.996 223.945 336.996 225.958C336.996 227.972 336.335 229.931 335.113 231.532C333.885 233.143 332.185 234.28 330.238 234.824C329.313 235.083 328.384 235.198 327.43 235.253C326.381 235.313 325.333 235.308 324.283 235.308C324.276 235.308 318.963 235.309 318.963 235.309C317.894 235.308 316.846 235.313 315.796 235.253C314.843 235.198 313.914 235.083 312.989 234.824C311.043 234.28 309.343 233.143 308.114 231.532C306.892 229.931 306.23 227.972 306.23 225.958C306.23 223.945 306.892 221.985 308.114 220.384C309.343 218.773 311.043 217.636 312.989 217.092C313.914 216.833 314.843 216.718 315.796 216.663Z" fill="#FF5B24"/>
<mask id="mask0" mask-type="alpha" maskUnits="userSpaceOnUse" x="306" y="216" width="31" height="20">
<path fill-rule="evenodd" clip-rule="evenodd" d="M315.796 216.663C316.846 216.603 317.894 216.608 318.944 216.608C318.951 216.608 324.263 216.608 324.263 216.608C325.333 216.608 326.381 216.603 327.43 216.663C328.384 216.718 329.313 216.833 330.238 217.092C332.185 217.636 333.885 218.773 335.113 220.384C336.335 221.985 336.996 223.945 336.996 225.958C336.996 227.972 336.335 229.931 335.113 231.532C333.885 233.143 332.185 234.28 330.238 234.824C329.313 235.083 328.384 235.198 327.43 235.253C326.381 235.313 325.333 235.308 324.283 235.308C324.276 235.308 318.963 235.309 318.963 235.309C317.894 235.308 316.846 235.313 315.796 235.253C314.843 235.198 313.914 235.083 312.989 234.824C311.043 234.28 309.343 233.143 308.114 231.532C306.892 229.931 306.23 227.972 306.23 225.958C306.23 223.945 306.892 221.985 308.114 220.384C309.343 218.773 311.043 217.636 312.989 217.092C313.914 216.833 314.843 216.718 315.796 216.663Z" fill="white"/>
</mask>
<g mask="url(#mask0)">
<g filter="url(#filter1_dd)">
<path fill-rule="evenodd" clip-rule="evenodd" d="M326.961 234.754C331.459 234.754 335.105 231.108 335.105 226.61C335.105 222.112 331.459 218.466 326.961 218.466C322.464 218.466 318.817 222.112 318.817 226.61C318.817 231.108 322.464 234.754 326.961 234.754Z" fill="white"/>
</g>
</g>
<rect width="226.218" height="74.8028" transform="translate(130.082 478.116)" fill="white"/>
<path fill-rule="evenodd" clip-rule="evenodd" d="M203.075 546.782C203.075 545.949 203.75 545.274 204.583 545.274H282.402C283.235 545.274 283.91 545.949 283.91 546.782V546.782C283.91 547.615 283.235 548.29 282.402 548.29H204.583C203.75 548.29 203.075 547.615 203.075 546.782V546.782Z" fill="black"/>
<g filter="url(#filter2_d)">
<path d="M204.302 507.072C204.302 499.076 210.784 492.594 218.78 492.594H266.78C274.776 492.594 281.258 499.076 281.258 507.072V507.404C281.258 515.4 274.776 521.882 266.78 521.882H218.78C210.784 521.882 204.302 515.4 204.302 507.404V507.072Z" fill="#FF5B24"/>
<path d="M223.367 510.929C225.133 510.929 226.427 509.884 226.607 508.336H225.26C225.075 509.195 224.338 509.741 223.367 509.741C222.063 509.741 221.252 508.654 221.252 506.91C221.252 505.171 222.063 504.084 223.362 504.084C224.327 504.084 225.064 504.683 225.255 505.605H226.602C226.442 504.02 225.101 502.896 223.362 502.896C221.194 502.896 219.852 504.428 219.852 506.915C219.852 509.391 221.199 510.929 223.367 510.929ZM230.342 510.854C232.076 510.854 233.131 509.72 233.131 507.837C233.131 505.966 232.071 504.831 230.342 504.831C228.619 504.831 227.554 505.971 227.554 507.837C227.554 509.72 228.603 510.854 230.342 510.854ZM230.342 509.778C229.425 509.778 228.9 509.068 228.9 507.843C228.9 506.618 229.425 505.908 230.342 505.908C231.254 505.908 231.779 506.618 231.779 507.843C231.779 509.068 231.26 509.778 230.342 509.778ZM234.306 510.738H235.621V507.36C235.621 506.491 236.114 505.945 236.899 505.945C237.699 505.945 238.07 506.395 238.07 507.297V510.738H239.385V506.989C239.385 505.611 238.68 504.831 237.386 504.831C236.522 504.831 235.939 505.224 235.663 505.87H235.573V504.943H234.306V510.738ZM241.212 503.522V504.98H240.295V506.003H241.212V509.2C241.212 510.319 241.742 510.764 243.073 510.764C243.328 510.764 243.571 510.743 243.762 510.706V509.698C243.603 509.714 243.503 509.725 243.317 509.725C242.766 509.725 242.522 509.465 242.522 508.887V506.003H243.762V504.98H242.522V503.522H241.212ZM245.594 503.972C246.029 503.972 246.384 503.628 246.384 503.193C246.384 502.763 246.029 502.414 245.594 502.414C245.165 502.414 244.81 502.763 244.81 503.193C244.81 503.628 245.165 503.972 245.594 503.972ZM244.942 510.738H246.252V504.943H244.942V510.738ZM247.734 510.738H249.049V507.36C249.049 506.491 249.542 505.945 250.327 505.945C251.127 505.945 251.499 506.395 251.499 507.297V510.738H252.813V506.989C252.813 505.611 252.108 504.831 250.815 504.831C249.95 504.831 249.367 505.224 249.091 505.87H249.001V504.943H247.734V510.738ZM259.269 504.943H257.954V508.32C257.954 509.195 257.487 509.725 256.634 509.725C255.849 509.725 255.483 509.29 255.483 508.389V504.943H254.168V508.707C254.168 510.064 254.911 510.854 256.178 510.854C257.063 510.854 257.631 510.478 257.912 509.815H258.002V510.738H259.269V504.943ZM264.51 509.152C264.319 509.587 263.869 509.831 263.216 509.831C262.352 509.831 261.796 509.216 261.764 508.235V508.166H265.814V507.747C265.814 505.929 264.823 504.831 263.169 504.831C261.488 504.831 260.444 506.003 260.444 507.864C260.444 509.72 261.472 510.854 263.179 510.854C264.547 510.854 265.518 510.197 265.756 509.152H264.51ZM263.163 505.855C263.953 505.855 264.473 506.411 264.5 507.291H261.769C261.827 506.422 262.379 505.855 263.163 505.855Z" fill="white"/>
</g>
</g>
</g>
<path fill-rule="evenodd" clip-rule="evenodd" d="M130 94.3534C130 83.1777 130 77.5899 132.244 73.3521C134.054 69.9323 136.851 67.1355 140.271 65.3248C144.509 63.0811 150.097 63.0811 161.272 63.0811H130V94.3534ZM130 521.646V552.919H161.272C150.097 552.919 144.509 552.919 140.271 550.675C136.851 548.864 134.054 546.067 132.244 542.648C130 538.41 130 532.822 130 521.646ZM324.946 552.919H356.218V521.646C356.218 532.822 356.218 538.41 353.974 542.648C352.164 546.067 349.367 548.864 345.947 550.675C341.709 552.919 336.121 552.919 324.946 552.919ZM356.218 94.3534V63.0811H324.946C336.121 63.0811 341.709 63.0811 345.947 65.3248C349.367 67.1355 352.164 69.9323 353.974 73.3521C356.218 77.5899 356.218 83.1777 356.218 94.3534ZM309.768 63.0811H305.545H180.673H176.45C178.782 63.0811 180.673 64.2876 180.673 66.0973V63.0811C180.673 67.5705 180.673 69.8152 181.21 71.646C182.483 75.9795 185.872 79.3685 190.205 80.6409C192.036 81.1785 194.281 81.1785 198.77 81.1785H287.448C291.937 81.1785 294.182 81.1785 296.013 80.6409C300.346 79.3685 303.735 75.9795 305.008 71.646C305.545 69.8152 305.545 67.5705 305.545 63.0811V66.0973C305.545 64.2876 307.436 63.0811 309.768 63.0811Z" fill="white"/>
<rect x="213.33" y="64.5968" width="42.4417" height="5.45679" rx="2.7284" fill="#F0F3F5"/>
<path d="M268.807 71.5694C271.151 71.5694 273.051 69.6692 273.051 67.3252C273.051 64.9812 271.151 63.0811 268.807 63.0811C266.463 63.0811 264.563 64.9812 264.563 67.3252C264.563 69.6692 266.463 71.5694 268.807 71.5694Z" fill="#F0F3F5"/>
<defs>
<filter id="filter0_di" x="112.587" y="42.0034" width="264.79" height="529.616" filterUnits="userSpaceOnUse" color-interpolation-filters="sRGB">
<feFlood flood-opacity="0" result="BackgroundImageFix"/>
<feColorMatrix in="SourceAlpha" type="matrix" values="0 0 0 0 0 0 0 0 0 0 0 0 0 0 0 0 0 0 127 0"/>
<feOffset dy="1.2065"/>
<feGaussianBlur stdDeviation="1.2065"/>
<feColorMatrix type="matrix" values="0 0 0 0 0 0 0 0 0 0 0 0 0 0 0 0 0 0 0.25 0"/>
<feBlend mode="normal" in2="BackgroundImageFix" result="effect1_dropShadow"/>
<feBlend mode="normal" in="SourceGraphic" in2="effect1_dropShadow" result="shape"/>
<feColorMatrix in="SourceAlpha" type="matrix" values="0 0 0 0 0 0 0 0 0 0 0 0 0 0 0 0 0 0 127 0" result="hardAlpha"/>
<feOffset dx="10.2799" dy="-8.85216"/>
<feGaussianBlur stdDeviation="2.99831"/>
<feComposite in2="hardAlpha" operator="arithmetic" k2="-1" k3="1"/>
<feColorMatrix type="matrix" values="0 0 0 0 1 0 0 0 0 1 0 0 0 0 1 0 0 0 0.05 0"/>
<feBlend mode="normal" in2="shape" result="effect2_innerShadow"/>
</filter>
<filter id="filter1_dd" x="313.991" y="215.45" width="25.9397" height="25.9397" filterUnits="userSpaceOnUse" color-interpolation-filters="sRGB">
<feFlood flood-opacity="0" result="BackgroundImageFix"/>
<feColorMatrix in="SourceAlpha" type="matrix" values="0 0 0 0 0 0 0 0 0 0 0 0 0 0 0 0 0 0 127 0"/>
<feOffset dy="1.80974"/>
<feGaussianBlur stdDeviation="0.301624"/>
<feColorMatrix type="matrix" values="0 0 0 0 0 0 0 0 0 0 0 0 0 0 0 0 0 0 0.06 0"/>
<feBlend mode="normal" in2="BackgroundImageFix" result="effect1_dropShadow"/>
<feColorMatrix in="SourceAlpha" type="matrix" values="0 0 0 0 0 0 0 0 0 0 0 0 0 0 0 0 0 0 127 0"/>
<feOffset dy="1.80974"/>
<feGaussianBlur stdDeviation="2.41299"/>
<feColorMatrix type="matrix" values="0 0 0 0 0 0 0 0 0 0 0 0 0 0 0 0 0 0 0.15 0"/>
<feBlend mode="normal" in2="effect1_dropShadow" result="effect2_dropShadow"/>
<feBlend mode="normal" in="SourceGraphic" in2="effect2_dropShadow" result="shape"/>
</filter>
<filter id="filter2_d" x="203.096" y="491.991" width="79.3689" height="31.7007" filterUnits="userSpaceOnUse" color-interpolation-filters="sRGB">
<feFlood flood-opacity="0" result="BackgroundImageFix"/>
<feColorMatrix in="SourceAlpha" type="matrix" values="0 0 0 0 0 0 0 0 0 0 0 0 0 0 0 0 0 0 127 0"/>
<feOffset dy="0.603248"/>
<feGaussianBlur stdDeviation="0.603248"/>
<feColorMatrix type="matrix" values="0 0 0 0 0.0862745 0 0 0 0 0.0705882 0 0 0 0 0.145098 0 0 0 0.07 0"/>
<feBlend mode="normal" in2="BackgroundImageFix" result="effect1_dropShadow"/>
<feBlend mode="normal" in="SourceGraphic" in2="effect1_dropShadow" result="shape"/>
</filter>
<clipPath id="clip0">
<rect width="226.218" height="489.838" fill="white" transform="translate(130.082 63.0811)"/>
</clipPath>
<clipPath id="clip1">
<rect width="226.218" height="489.838" fill="white" transform="translate(130.082 63.0811)"/>
</clipPath>
<clipPath id="clip2">
<rect width="147.193" height="53.0858" fill="white" transform="translate(149.386 199.415)"/>
</clipPath>
</defs>
</svg>
