<svg width="487" height="616" viewBox="0 0 487 616" fill="none" xmlns="http://www.w3.org/2000/svg">
<rect width="486.381" height="616" rx="1" fill="#FFF4EC"/>
<g filter="url(#filter0_di)">
<rect x="115" y="48" width="256.381" height="520" rx="30.1624" fill="white"/>
</g>
<g clip-path="url(#clip0)">
<rect width="226.218" height="489.838" transform="translate(130.081 63.0813)" fill="#938FA8"/>
<g clip-path="url(#clip1)">
<rect width="226.218" height="489.838" transform="translate(130.081 63.0813)" fill="white"/>
<g filter="url(#filter1_dd)">
<rect x="130.081" y="119.787" width="226.218" height="44.6404" fill="white"/>
</g>
<path fill-rule="evenodd" clip-rule="evenodd" d="M143.552 133.058C142.776 133.058 142.146 133.687 142.146 134.464V147.132C142.146 147.908 142.776 148.537 143.552 148.537H148.124L149.385 149.792C149.517 149.925 149.696 150 149.883 150C150.07 150 150.249 149.925 150.381 149.792L151.641 148.531H156.214C156.99 148.531 157.62 147.902 157.62 147.126V134.458C157.616 133.684 156.988 133.058 156.214 133.058H143.552ZM146.767 137.281H153.005C153.32 137.28 153.583 137.522 153.608 137.836L154.109 143.868C154.122 144.036 154.065 144.203 153.95 144.326C153.836 144.45 153.674 144.52 153.506 144.52H146.267C146.098 144.52 145.937 144.45 145.822 144.326C145.708 144.203 145.65 144.036 145.663 143.868L146.164 137.836C146.189 137.522 146.452 137.28 146.767 137.281ZM147.473 139.091C147.473 138.757 147.743 138.487 148.076 138.487C148.409 138.487 148.679 138.757 148.679 139.091V139.694C148.679 140.36 149.22 140.9 149.886 140.9C150.552 140.9 151.092 140.36 151.092 139.694V139.091C151.092 138.757 151.363 138.487 151.696 138.487C152.029 138.487 152.299 138.757 152.299 139.091V139.694C152.299 141.026 151.219 142.107 149.886 142.107C148.553 142.107 147.473 141.026 147.473 139.694V139.091Z" fill="#6770E0"/>
<path d="M166.667 137.29L169.141 143.865L171.61 137.29H173.536V145.868H172.052V143.04L172.199 139.258L169.666 145.868H168.599L166.072 139.264L166.219 143.04V145.868H164.735V137.29H166.667ZM178.974 145.868C178.911 145.746 178.856 145.548 178.809 145.273C178.353 145.748 177.795 145.986 177.136 145.986C176.496 145.986 175.973 145.803 175.569 145.438C175.164 145.073 174.962 144.621 174.962 144.083C174.962 143.403 175.213 142.883 175.716 142.522C176.223 142.157 176.945 141.974 177.884 141.974H178.762V141.556C178.762 141.226 178.669 140.963 178.485 140.766C178.3 140.566 178.019 140.466 177.642 140.466C177.316 140.466 177.049 140.548 176.841 140.713C176.633 140.874 176.529 141.08 176.529 141.332H175.097C175.097 140.982 175.213 140.656 175.445 140.354C175.677 140.048 175.991 139.808 176.388 139.635C176.788 139.462 177.234 139.376 177.725 139.376C178.471 139.376 179.066 139.564 179.51 139.941C179.954 140.315 180.181 140.841 180.193 141.52V144.395C180.193 144.969 180.274 145.426 180.435 145.768V145.868H178.974ZM177.401 144.837C177.684 144.837 177.949 144.768 178.196 144.631C178.447 144.493 178.636 144.309 178.762 144.077V142.875H177.99C177.46 142.875 177.061 142.968 176.794 143.152C176.527 143.337 176.393 143.598 176.393 143.936C176.393 144.211 176.484 144.43 176.664 144.595C176.849 144.756 177.094 144.837 177.401 144.837ZM181.442 142.634C181.442 141.644 181.674 140.855 182.137 140.265C182.605 139.672 183.223 139.376 183.993 139.376C184.719 139.376 185.291 139.629 185.707 140.136L185.772 139.494H187.062V145.674C187.062 146.51 186.801 147.17 186.279 147.653C185.76 148.136 185.059 148.378 184.176 148.378C183.708 148.378 183.251 148.279 182.803 148.083C182.359 147.891 182.021 147.637 181.79 147.323L182.467 146.463C182.907 146.985 183.449 147.246 184.093 147.246C184.568 147.246 184.943 147.117 185.218 146.858C185.493 146.602 185.631 146.225 185.631 145.727V145.296C185.218 145.756 184.668 145.986 183.981 145.986C183.235 145.986 182.624 145.689 182.149 145.096C181.678 144.503 181.442 143.682 181.442 142.634ZM182.868 142.757C182.868 143.398 182.997 143.902 183.257 144.271C183.52 144.637 183.883 144.819 184.346 144.819C184.924 144.819 185.352 144.572 185.631 144.077V141.273C185.36 140.79 184.935 140.548 184.358 140.548C183.887 140.548 183.52 140.735 183.257 141.108C182.997 141.481 182.868 142.031 182.868 142.757ZM192.346 145.868C192.284 145.746 192.229 145.548 192.182 145.273C191.726 145.748 191.168 145.986 190.508 145.986C189.868 145.986 189.346 145.803 188.941 145.438C188.537 145.073 188.335 144.621 188.335 144.083C188.335 143.403 188.586 142.883 189.089 142.522C189.595 142.157 190.318 141.974 191.257 141.974H192.134V141.556C192.134 141.226 192.042 140.963 191.858 140.766C191.673 140.566 191.392 140.466 191.015 140.466C190.689 140.466 190.422 140.548 190.214 140.713C190.006 140.874 189.902 141.08 189.902 141.332H188.47C188.47 140.982 188.586 140.656 188.818 140.354C189.049 140.048 189.364 139.808 189.76 139.635C190.161 139.462 190.607 139.376 191.098 139.376C191.844 139.376 192.439 139.564 192.883 139.941C193.326 140.315 193.554 140.841 193.566 141.52V144.395C193.566 144.969 193.646 145.426 193.807 145.768V145.868H192.346ZM190.774 144.837C191.056 144.837 191.321 144.768 191.569 144.631C191.82 144.493 192.009 144.309 192.134 144.077V142.875H191.363C190.832 142.875 190.434 142.968 190.167 143.152C189.9 143.337 189.766 143.598 189.766 143.936C189.766 144.211 189.857 144.43 190.037 144.595C190.222 144.756 190.467 144.837 190.774 144.837ZM198.638 144.136C198.638 143.881 198.532 143.686 198.32 143.553C198.112 143.419 197.764 143.301 197.277 143.199C196.79 143.097 196.384 142.968 196.058 142.81C195.343 142.465 194.986 141.964 194.986 141.308C194.986 140.758 195.217 140.299 195.681 139.93C196.144 139.561 196.733 139.376 197.448 139.376C198.21 139.376 198.825 139.564 199.292 139.941C199.763 140.319 199.999 140.807 199.999 141.408H198.567C198.567 141.133 198.465 140.906 198.261 140.725C198.057 140.54 197.786 140.448 197.448 140.448C197.134 140.448 196.877 140.521 196.676 140.666C196.48 140.811 196.382 141.006 196.382 141.249C196.382 141.469 196.474 141.64 196.659 141.762C196.843 141.884 197.216 142.007 197.778 142.133C198.34 142.255 198.78 142.402 199.098 142.575C199.42 142.744 199.657 142.948 199.811 143.187C199.968 143.427 200.046 143.718 200.046 144.059C200.046 144.633 199.809 145.098 199.333 145.456C198.858 145.809 198.236 145.986 197.466 145.986C196.944 145.986 196.478 145.891 196.07 145.703C195.661 145.514 195.343 145.255 195.115 144.925C194.888 144.595 194.774 144.24 194.774 143.859H196.164C196.184 144.197 196.311 144.458 196.547 144.643C196.782 144.823 197.095 144.914 197.484 144.914C197.861 144.914 198.147 144.843 198.344 144.701C198.54 144.556 198.638 144.368 198.638 144.136ZM202.821 145.868H201.389V139.494H202.821V145.868ZM201.301 137.838C201.301 137.618 201.37 137.436 201.507 137.29C201.649 137.145 201.849 137.073 202.108 137.073C202.367 137.073 202.568 137.145 202.709 137.29C202.85 137.436 202.921 137.618 202.921 137.838C202.921 138.054 202.85 138.235 202.709 138.38C202.568 138.522 202.367 138.592 202.108 138.592C201.849 138.592 201.649 138.522 201.507 138.38C201.37 138.235 201.301 138.054 201.301 137.838ZM205.713 139.494L205.755 140.23C206.226 139.661 206.844 139.376 207.61 139.376C208.938 139.376 209.613 140.136 209.637 141.656V145.868H208.205V141.738C208.205 141.334 208.117 141.035 207.94 140.843C207.767 140.646 207.483 140.548 207.086 140.548C206.509 140.548 206.079 140.809 205.796 141.332V145.868H204.364V139.494H205.713ZM213.908 145.986C213.001 145.986 212.264 145.701 211.699 145.132C211.137 144.558 210.856 143.796 210.856 142.846V142.669C210.856 142.033 210.978 141.465 211.222 140.967C211.469 140.464 211.815 140.073 212.258 139.794C212.702 139.515 213.197 139.376 213.743 139.376C214.611 139.376 215.281 139.653 215.752 140.207C216.227 140.76 216.465 141.544 216.465 142.557V143.134H212.3C212.343 143.661 212.518 144.077 212.824 144.383C213.134 144.69 213.523 144.843 213.99 144.843C214.646 144.843 215.18 144.578 215.593 144.048L216.364 144.784C216.109 145.165 215.768 145.461 215.339 145.674C214.915 145.882 214.438 145.986 213.908 145.986ZM213.737 140.525C213.344 140.525 213.026 140.662 212.783 140.937C212.543 141.212 212.39 141.595 212.323 142.086H215.051V141.98C215.019 141.501 214.892 141.139 214.668 140.896C214.444 140.648 214.134 140.525 213.737 140.525ZM219.375 137.944V139.494H220.5V140.554H219.375V144.112C219.375 144.356 219.422 144.533 219.516 144.643C219.614 144.749 219.787 144.802 220.035 144.802C220.2 144.802 220.366 144.782 220.535 144.743V145.85C220.209 145.941 219.895 145.986 219.593 145.986C218.493 145.986 217.943 145.379 217.943 144.165V140.554H216.895V139.494H217.943V137.944H219.375Z" fill="black"/>
<path d="M149.981 230.513H148.271V222.249L145.747 223.111V221.662L149.762 220.185H149.981V230.513ZM159.949 228.053L161.504 222.864H163.335L160.296 231.672C159.829 232.959 159.037 233.602 157.92 233.602C157.671 233.602 157.395 233.56 157.093 233.475V232.146L157.418 232.167C157.852 232.167 158.177 232.087 158.394 231.927C158.615 231.771 158.79 231.507 158.917 231.135L159.165 230.478L156.478 222.864H158.33L159.949 228.053ZM167.598 230.654C166.51 230.654 165.626 230.313 164.947 229.629C164.273 228.941 163.936 228.027 163.936 226.886V226.674C163.936 225.911 164.082 225.23 164.375 224.631C164.672 224.028 165.086 223.559 165.619 223.224C166.151 222.89 166.745 222.723 167.4 222.723C168.442 222.723 169.245 223.055 169.811 223.719C170.381 224.384 170.666 225.324 170.666 226.54V227.233H165.668C165.72 227.864 165.93 228.364 166.297 228.731C166.67 229.099 167.136 229.283 167.697 229.283C168.484 229.283 169.125 228.965 169.62 228.329L170.546 229.212C170.24 229.669 169.83 230.025 169.316 230.28C168.807 230.529 168.234 230.654 167.598 230.654ZM167.393 224.101C166.922 224.101 166.54 224.266 166.248 224.596C165.961 224.926 165.777 225.385 165.697 225.974H168.97V225.847C168.932 225.272 168.779 224.839 168.51 224.546C168.242 224.25 167.869 224.101 167.393 224.101ZM176.576 230.513C176.501 230.367 176.435 230.129 176.378 229.799C175.832 230.369 175.162 230.654 174.371 230.654C173.602 230.654 172.976 230.435 172.49 229.997C172.005 229.559 171.762 229.017 171.762 228.371C171.762 227.556 172.064 226.931 172.667 226.498C173.275 226.059 174.142 225.84 175.268 225.84H176.322V225.338C176.322 224.942 176.211 224.627 175.99 224.391C175.768 224.151 175.431 224.03 174.979 224.03C174.587 224.03 174.267 224.129 174.017 224.327C173.767 224.521 173.642 224.768 173.642 225.07H171.925C171.925 224.65 172.064 224.259 172.342 223.896C172.62 223.528 172.997 223.241 173.473 223.034C173.954 222.826 174.488 222.723 175.078 222.723C175.973 222.723 176.687 222.949 177.22 223.401C177.752 223.849 178.025 224.48 178.04 225.296V228.746C178.04 229.434 178.136 229.983 178.329 230.393V230.513H176.576ZM174.689 229.276C175.028 229.276 175.346 229.193 175.643 229.028C175.945 228.863 176.171 228.642 176.322 228.364V226.922H175.396C174.759 226.922 174.281 227.032 173.961 227.254C173.64 227.475 173.48 227.789 173.48 228.194C173.48 228.524 173.588 228.788 173.805 228.986C174.027 229.179 174.321 229.276 174.689 229.276ZM183.844 224.433C183.617 224.396 183.384 224.377 183.144 224.377C182.357 224.377 181.826 224.678 181.553 225.282V230.513H179.835V222.864H181.475L181.518 223.719C181.932 223.055 182.507 222.723 183.243 222.723C183.488 222.723 183.69 222.756 183.851 222.822L183.844 224.433ZM192.822 228.435C192.822 228.128 192.694 227.895 192.44 227.735C192.19 227.574 191.773 227.433 191.189 227.311C190.604 227.188 190.116 227.032 189.725 226.844C188.867 226.429 188.439 225.828 188.439 225.041C188.439 224.381 188.717 223.83 189.273 223.387C189.829 222.944 190.536 222.723 191.394 222.723C192.308 222.723 193.045 222.949 193.606 223.401C194.172 223.854 194.455 224.44 194.455 225.161H192.737C192.737 224.832 192.614 224.558 192.369 224.341C192.124 224.12 191.799 224.009 191.394 224.009C191.017 224.009 190.708 224.096 190.467 224.271C190.232 224.445 190.114 224.678 190.114 224.971C190.114 225.235 190.225 225.44 190.446 225.586C190.668 225.732 191.115 225.88 191.789 226.031C192.463 226.177 192.991 226.354 193.373 226.561C193.759 226.764 194.045 227.009 194.228 227.296C194.417 227.584 194.511 227.933 194.511 228.343C194.511 229.031 194.226 229.589 193.656 230.018C193.085 230.442 192.338 230.654 191.415 230.654C190.788 230.654 190.229 230.541 189.739 230.315C189.249 230.089 188.867 229.778 188.594 229.382C188.321 228.986 188.184 228.559 188.184 228.102H189.852C189.876 228.508 190.029 228.821 190.312 229.043C190.595 229.259 190.969 229.368 191.436 229.368C191.888 229.368 192.232 229.283 192.468 229.113C192.704 228.939 192.822 228.713 192.822 228.435ZM200.647 229.764C200.143 230.357 199.427 230.654 198.498 230.654C197.669 230.654 197.04 230.412 196.611 229.926C196.187 229.441 195.974 228.739 195.974 227.82V222.864H197.692V227.798C197.692 228.769 198.095 229.255 198.901 229.255C199.735 229.255 200.299 228.955 200.591 228.357V222.864H202.309V230.513H200.69L200.647 229.764ZM210.771 226.766C210.771 227.954 210.504 228.899 209.972 229.601C209.444 230.303 208.716 230.654 207.787 230.654C206.892 230.654 206.194 230.331 205.695 229.686L205.61 230.513H204.055V219.654H205.773V223.599C206.267 223.015 206.934 222.723 207.773 222.723C208.706 222.723 209.439 223.069 209.972 223.762C210.504 224.455 210.771 225.423 210.771 226.667V226.766ZM209.053 226.618C209.053 225.788 208.907 225.166 208.614 224.751C208.322 224.337 207.898 224.129 207.342 224.129C206.597 224.129 206.074 224.455 205.773 225.105V228.258C206.079 228.922 206.607 229.255 207.356 229.255C207.893 229.255 208.308 229.054 208.6 228.654C208.892 228.253 209.043 227.648 209.053 226.837V226.618ZM216.504 228.435C216.504 228.128 216.377 227.895 216.122 227.735C215.872 227.574 215.455 227.433 214.871 227.311C214.286 227.188 213.799 227.032 213.407 226.844C212.55 226.429 212.121 225.828 212.121 225.041C212.121 224.381 212.399 223.83 212.955 223.387C213.511 222.944 214.218 222.723 215.076 222.723C215.99 222.723 216.728 222.949 217.288 223.401C217.854 223.854 218.137 224.44 218.137 225.161H216.419C216.419 224.832 216.296 224.558 216.051 224.341C215.806 224.12 215.481 224.009 215.076 224.009C214.699 224.009 214.39 224.096 214.15 224.271C213.914 224.445 213.796 224.678 213.796 224.971C213.796 225.235 213.907 225.44 214.128 225.586C214.35 225.732 214.798 225.88 215.472 226.031C216.146 226.177 216.673 226.354 217.055 226.561C217.442 226.764 217.727 227.009 217.911 227.296C218.099 227.584 218.193 227.933 218.193 228.343C218.193 229.031 217.908 229.589 217.338 230.018C216.768 230.442 216.021 230.654 215.097 230.654C214.47 230.654 213.912 230.541 213.422 230.315C212.931 230.089 212.55 229.778 212.276 229.382C212.003 228.986 211.866 228.559 211.866 228.102H213.535C213.558 228.508 213.711 228.821 213.994 229.043C214.277 229.259 214.652 229.368 215.118 229.368C215.571 229.368 215.915 229.283 216.15 229.113C216.386 228.939 216.504 228.713 216.504 228.435ZM222.838 229.283C223.267 229.283 223.623 229.158 223.905 228.908C224.188 228.658 224.339 228.35 224.358 227.982H225.977C225.958 228.458 225.809 228.903 225.531 229.318C225.253 229.728 224.876 230.053 224.4 230.294C223.924 230.534 223.41 230.654 222.859 230.654C221.789 230.654 220.941 230.308 220.314 229.615C219.687 228.922 219.374 227.966 219.374 226.745V226.568C219.374 225.404 219.685 224.473 220.307 223.776C220.929 223.074 221.777 222.723 222.852 222.723C223.762 222.723 224.502 222.989 225.072 223.521C225.647 224.049 225.948 224.744 225.977 225.607H224.358C224.339 225.169 224.188 224.808 223.905 224.525C223.627 224.242 223.271 224.101 222.838 224.101C222.282 224.101 221.853 224.304 221.551 224.709C221.25 225.11 221.096 225.72 221.092 226.54V226.816C221.092 227.645 221.24 228.265 221.537 228.675C221.839 229.08 222.272 229.283 222.838 229.283ZM231.279 224.433C231.052 224.396 230.819 224.377 230.579 224.377C229.792 224.377 229.262 224.678 228.988 225.282V230.513H227.27V222.864H228.91L228.953 223.719C229.368 223.055 229.943 222.723 230.678 222.723C230.923 222.723 231.125 222.756 231.286 222.822L231.279 224.433ZM234.191 230.513H232.473V222.864H234.191V230.513ZM232.367 220.877C232.367 220.614 232.45 220.394 232.615 220.22C232.784 220.046 233.025 219.958 233.336 219.958C233.647 219.958 233.887 220.046 234.057 220.22C234.227 220.394 234.311 220.614 234.311 220.877C234.311 221.137 234.227 221.353 234.057 221.528C233.887 221.698 233.647 221.782 233.336 221.782C233.025 221.782 232.784 221.698 232.615 221.528C232.45 221.353 232.367 221.137 232.367 220.877ZM242.766 226.766C242.766 227.949 242.498 228.894 241.96 229.601C241.423 230.303 240.702 230.654 239.797 230.654C238.958 230.654 238.287 230.379 237.782 229.827V233.454H236.065V222.864H237.648L237.719 223.642C238.223 223.029 238.909 222.723 239.776 222.723C240.709 222.723 241.44 223.071 241.967 223.769C242.5 224.462 242.766 225.425 242.766 226.66V226.766ZM241.055 226.618C241.055 225.854 240.902 225.249 240.596 224.801C240.294 224.353 239.861 224.129 239.295 224.129C238.593 224.129 238.089 224.419 237.782 224.999V228.392C238.093 228.986 238.602 229.283 239.309 229.283C239.856 229.283 240.283 229.064 240.589 228.625C240.9 228.182 241.055 227.513 241.055 226.618ZM246.379 221.005V222.864H247.729V224.136H246.379V228.406C246.379 228.698 246.435 228.911 246.548 229.043C246.666 229.17 246.874 229.233 247.17 229.233C247.368 229.233 247.569 229.21 247.771 229.163V230.492C247.38 230.6 247.003 230.654 246.64 230.654C245.321 230.654 244.661 229.926 244.661 228.47V224.136H243.402V222.864H244.661V221.005H246.379ZM250.875 230.513H249.157V222.864H250.875V230.513ZM249.051 220.877C249.051 220.614 249.133 220.394 249.298 220.22C249.468 220.046 249.708 219.958 250.019 219.958C250.33 219.958 250.571 220.046 250.74 220.22C250.91 220.394 250.995 220.614 250.995 220.877C250.995 221.137 250.91 221.353 250.74 221.528C250.571 221.698 250.33 221.782 250.019 221.782C249.708 221.782 249.468 221.698 249.298 221.528C249.133 221.353 249.051 221.137 249.051 220.877ZM252.43 226.618C252.43 225.868 252.578 225.194 252.875 224.596C253.172 223.993 253.589 223.531 254.127 223.21C254.664 222.885 255.281 222.723 255.979 222.723C257.011 222.723 257.847 223.055 258.488 223.719C259.134 224.384 259.483 225.265 259.535 226.363L259.542 226.766C259.542 227.52 259.396 228.194 259.103 228.788C258.816 229.382 258.401 229.841 257.859 230.167C257.322 230.492 256.7 230.654 255.993 230.654C254.914 230.654 254.049 230.296 253.399 229.58C252.753 228.859 252.43 227.9 252.43 226.703V226.618ZM254.148 226.766C254.148 227.553 254.31 228.171 254.636 228.618C254.961 229.061 255.413 229.283 255.993 229.283C256.573 229.283 257.023 229.057 257.343 228.604C257.668 228.152 257.831 227.49 257.831 226.618C257.831 225.845 257.664 225.232 257.329 224.78C256.999 224.327 256.549 224.101 255.979 224.101C255.418 224.101 254.973 224.325 254.643 224.773C254.313 225.216 254.148 225.88 254.148 226.766ZM262.589 222.864L262.638 223.748C263.204 223.064 263.946 222.723 264.865 222.723C266.458 222.723 267.269 223.634 267.297 225.458V230.513H265.579V225.557C265.579 225.072 265.473 224.714 265.261 224.483C265.053 224.247 264.712 224.129 264.236 224.129C263.543 224.129 263.027 224.443 262.688 225.07V230.513H260.97V222.864H262.589Z" fill="black"/>
<g filter="url(#filter2_d)">
<rect x="144.559" y="367.722" width="197.262" height="26.5429" rx="3.01624" fill="#49367E"/>
</g>
<path d="M224.754 382.138C224.754 381.827 224.644 381.587 224.424 381.419C224.207 381.25 223.813 381.08 223.243 380.909C222.673 380.737 222.219 380.546 221.882 380.335C221.237 379.93 220.915 379.402 220.915 378.751C220.915 378.18 221.146 377.711 221.61 377.341C222.076 376.972 222.681 376.787 223.423 376.787C223.915 376.787 224.354 376.878 224.74 377.059C225.125 377.241 225.428 377.5 225.649 377.837C225.869 378.171 225.979 378.542 225.979 378.95H224.754C224.754 378.581 224.638 378.292 224.404 378.085C224.174 377.874 223.844 377.769 223.413 377.769C223.011 377.769 222.698 377.855 222.475 378.026C222.255 378.198 222.144 378.438 222.144 378.746C222.144 379.005 222.264 379.222 222.504 379.397C222.744 379.569 223.139 379.737 223.69 379.902C224.241 380.064 224.683 380.251 225.017 380.461C225.351 380.669 225.595 380.909 225.751 381.181C225.906 381.45 225.984 381.766 225.984 382.128C225.984 382.718 225.757 383.188 225.304 383.538C224.853 383.885 224.241 384.058 223.466 384.058C222.954 384.058 222.483 383.964 222.052 383.776C221.624 383.585 221.291 383.322 221.051 382.989C220.814 382.655 220.696 382.266 220.696 381.822H221.926C221.926 382.224 222.059 382.535 222.324 382.755C222.59 382.976 222.971 383.086 223.466 383.086C223.894 383.086 224.215 383 224.429 382.828C224.646 382.653 224.754 382.423 224.754 382.138ZM230.014 383.446C229.667 383.854 229.175 384.058 228.536 384.058C227.966 384.058 227.534 383.891 227.239 383.557C226.947 383.224 226.801 382.741 226.801 382.109V378.702H227.982V382.094C227.982 382.762 228.259 383.096 228.813 383.096C229.387 383.096 229.774 382.89 229.975 382.478V378.702H231.156V383.961H230.043L230.014 383.446ZM236.853 381.385C236.853 382.201 236.67 382.851 236.304 383.334C235.941 383.817 235.44 384.058 234.802 384.058C234.186 384.058 233.707 383.836 233.363 383.392L233.305 383.961H232.236V376.495H233.417V379.207C233.757 378.806 234.216 378.605 234.792 378.605C235.434 378.605 235.938 378.843 236.304 379.319C236.67 379.796 236.853 380.461 236.853 381.317V381.385ZM235.672 381.283C235.672 380.712 235.572 380.285 235.371 380C235.17 379.715 234.878 379.572 234.496 379.572C233.984 379.572 233.624 379.796 233.417 380.243V382.41C233.627 382.867 233.99 383.096 234.506 383.096C234.875 383.096 235.16 382.958 235.361 382.682C235.562 382.407 235.665 381.991 235.672 381.433V381.283ZM240.674 382.532C240.674 382.321 240.586 382.161 240.411 382.051C240.24 381.94 239.953 381.843 239.551 381.759C239.149 381.675 238.814 381.568 238.545 381.438C237.955 381.153 237.661 380.74 237.661 380.199C237.661 379.745 237.852 379.366 238.234 379.062C238.616 378.757 239.102 378.605 239.692 378.605C240.321 378.605 240.828 378.76 241.213 379.071C241.602 379.382 241.797 379.786 241.797 380.282H240.616C240.616 380.055 240.531 379.867 240.363 379.718C240.194 379.565 239.971 379.489 239.692 379.489C239.433 379.489 239.221 379.549 239.055 379.669C238.893 379.789 238.812 379.949 238.812 380.15C238.812 380.332 238.889 380.473 239.041 380.573C239.193 380.674 239.501 380.776 239.964 380.879C240.428 380.98 240.791 381.101 241.053 381.244C241.319 381.383 241.515 381.552 241.641 381.749C241.771 381.947 241.835 382.187 241.835 382.469C241.835 382.942 241.639 383.326 241.247 383.62C240.855 383.912 240.342 384.058 239.707 384.058C239.276 384.058 238.892 383.98 238.555 383.825C238.218 383.669 237.955 383.455 237.768 383.183C237.58 382.911 237.486 382.618 237.486 382.303H238.633C238.649 382.582 238.754 382.797 238.949 382.95C239.143 383.099 239.401 383.173 239.721 383.173C240.032 383.173 240.269 383.115 240.431 382.998C240.593 382.878 240.674 382.723 240.674 382.532ZM244.908 383.115C245.203 383.115 245.447 383.029 245.642 382.857C245.836 382.686 245.94 382.473 245.953 382.221H247.066C247.053 382.548 246.951 382.854 246.76 383.139C246.568 383.421 246.309 383.645 245.982 383.81C245.655 383.975 245.302 384.058 244.923 384.058C244.187 384.058 243.604 383.82 243.173 383.343C242.742 382.867 242.526 382.209 242.526 381.37V381.249C242.526 380.448 242.74 379.809 243.168 379.329C243.596 378.846 244.179 378.605 244.918 378.605C245.543 378.605 246.052 378.788 246.444 379.154C246.839 379.517 247.046 379.995 247.066 380.588H245.953C245.94 380.286 245.836 380.039 245.642 379.844C245.451 379.65 245.206 379.553 244.908 379.553C244.526 379.553 244.231 379.692 244.023 379.971C243.816 380.246 243.711 380.666 243.707 381.229V381.419C243.707 381.989 243.81 382.415 244.014 382.697C244.221 382.976 244.519 383.115 244.908 383.115ZM250.59 379.781C250.435 379.755 250.274 379.742 250.109 379.742C249.568 379.742 249.204 379.949 249.016 380.364V383.961H247.835V378.702H248.962L248.991 379.29C249.276 378.833 249.672 378.605 250.177 378.605C250.346 378.605 250.485 378.627 250.595 378.673L250.59 379.781ZM252.472 383.961H251.291V378.702H252.472V383.961ZM251.218 377.336C251.218 377.155 251.275 377.004 251.388 376.884C251.505 376.764 251.67 376.704 251.884 376.704C252.098 376.704 252.263 376.764 252.38 376.884C252.496 377.004 252.555 377.155 252.555 377.336C252.555 377.515 252.496 377.664 252.38 377.783C252.263 377.9 252.098 377.958 251.884 377.958C251.67 377.958 251.505 377.9 251.388 377.783C251.275 377.664 251.218 377.515 251.218 377.336ZM258.256 381.385C258.256 382.201 258.073 382.851 257.707 383.334C257.344 383.817 256.844 384.058 256.206 384.058C255.59 384.058 255.11 383.836 254.767 383.392L254.709 383.961H253.639V376.495H254.82V379.207C255.161 378.806 255.619 378.605 256.196 378.605C256.837 378.605 257.341 378.843 257.707 379.319C258.073 379.796 258.256 380.461 258.256 381.317V381.385ZM257.075 381.283C257.075 380.712 256.975 380.285 256.774 380C256.573 379.715 256.282 379.572 255.899 379.572C255.387 379.572 255.028 379.796 254.82 380.243V382.41C255.031 382.867 255.394 383.096 255.909 383.096C256.278 383.096 256.564 382.958 256.764 382.682C256.965 382.407 257.069 381.991 257.075 381.433V381.283ZM261.446 384.058C260.697 384.058 260.09 383.823 259.623 383.353C259.16 382.88 258.928 382.252 258.928 381.467V381.322C258.928 380.797 259.028 380.329 259.229 379.917C259.433 379.502 259.719 379.18 260.085 378.95C260.451 378.72 260.859 378.605 261.31 378.605C262.026 378.605 262.578 378.833 262.967 379.29C263.359 379.747 263.555 380.393 263.555 381.229V381.706H260.119C260.154 382.14 260.299 382.483 260.551 382.736C260.807 382.989 261.128 383.115 261.514 383.115C262.055 383.115 262.495 382.896 262.836 382.459L263.472 383.066C263.262 383.381 262.98 383.625 262.627 383.8C262.277 383.972 261.883 384.058 261.446 384.058ZM261.305 379.553C260.981 379.553 260.718 379.666 260.517 379.893C260.32 380.12 260.193 380.435 260.138 380.84H262.388V380.753C262.363 380.358 262.257 380.06 262.073 379.859C261.888 379.655 261.632 379.553 261.305 379.553Z" fill="white"/>
<path d="M145 408.992C145 407.245 145 406.371 145.34 405.704C145.639 405.116 146.116 404.639 146.704 404.34C147.371 404 148.245 404 149.992 404H337.008C338.755 404 339.629 404 340.296 404.34C340.883 404.639 341.361 405.116 341.66 405.704C342 406.371 342 407.245 342 408.992V426.008C342 427.755 342 428.629 341.66 429.296C341.361 429.884 340.883 430.361 340.296 430.66C339.629 431 338.755 431 337.008 431H149.992C148.245 431 147.371 431 146.704 430.66C146.116 430.361 145.639 429.884 145.34 429.296C145 428.629 145 427.755 145 426.008V408.992Z" fill="#FF5B24"/>
<path d="M186.214 421.344H187.668V418.283H189.28L190.875 421.344H192.538L190.762 418.063C191.726 417.714 192.296 416.823 192.296 415.747V415.735C192.296 414.185 191.247 413.21 189.5 413.21H186.214V421.344ZM187.668 417.167V414.388H189.319C190.244 414.388 190.802 414.918 190.802 415.769V415.781C190.802 416.654 190.266 417.167 189.348 417.167H187.668ZM196.235 421.468C197.909 421.468 198.732 420.504 198.929 419.709L198.946 419.659H197.61L197.593 419.698C197.458 419.98 197.024 420.363 196.263 420.363C195.31 420.363 194.713 419.721 194.696 418.616H199.002V418.154C199.002 416.293 197.92 415.065 196.167 415.065C194.414 415.065 193.292 416.333 193.292 418.272V418.278C193.292 420.239 194.403 421.468 196.235 421.468ZM196.184 416.164C196.968 416.164 197.537 416.666 197.633 417.674H194.707C194.814 416.694 195.401 416.164 196.184 416.164ZM202.93 423.508C204.729 423.508 205.867 422.612 205.867 421.192V415.183H204.464V416.198H204.39C204.041 415.499 203.376 415.082 202.525 415.082C200.935 415.082 199.966 416.31 199.966 418.092V418.103C199.966 419.85 200.935 421.057 202.496 421.057C203.348 421.057 204.018 420.696 204.373 420.036H204.469V421.214C204.469 422.003 203.911 422.449 202.953 422.449C202.169 422.449 201.702 422.173 201.606 421.778L201.6 421.761H200.197L200.191 421.778C200.332 422.815 201.307 423.508 202.93 423.508ZM202.93 419.94C201.955 419.94 201.403 419.191 201.403 418.103V418.092C201.403 417.004 201.955 416.248 202.93 416.248C203.9 416.248 204.492 417.004 204.492 418.092V418.103C204.492 419.191 203.906 419.94 202.93 419.94ZM208.183 414.152C208.64 414.152 209.017 413.785 209.017 413.323C209.017 412.866 208.64 412.494 208.183 412.494C207.721 412.494 207.343 412.866 207.343 413.323C207.343 413.785 207.721 414.152 208.183 414.152ZM207.478 421.344H208.882V415.183H207.478V421.344ZM212.81 421.468C214.326 421.468 215.425 420.684 215.425 419.512V419.501C215.425 418.605 214.856 418.092 213.65 417.821L212.652 417.601C211.987 417.449 211.728 417.229 211.728 416.868V416.863C211.728 416.401 212.179 416.096 212.804 416.096C213.464 416.096 213.87 416.412 213.971 416.801L213.977 416.818H215.296V416.806C215.206 415.809 214.309 415.065 212.81 415.065C211.356 415.065 210.341 415.831 210.341 416.942V416.947C210.341 417.855 210.899 418.407 212.072 418.667L213.069 418.892C213.746 419.044 214.016 419.281 214.016 419.642V419.653C214.016 420.115 213.532 420.431 212.833 420.431C212.134 420.431 211.722 420.132 211.576 419.704L211.57 419.692H210.178V419.704C210.296 420.747 211.243 421.468 212.81 421.468ZM219.094 421.372C219.365 421.372 219.624 421.35 219.827 421.31V420.228C219.658 420.245 219.551 420.25 219.353 420.25C218.767 420.25 218.525 419.991 218.525 419.377V416.271H219.827V415.183H218.525V413.672H217.099V415.183H216.141V416.271H217.099V419.709C217.099 420.899 217.679 421.372 219.094 421.372ZM223.682 421.468C225.356 421.468 226.179 420.504 226.376 419.709L226.393 419.659H225.057L225.04 419.698C224.905 419.98 224.471 420.363 223.71 420.363C222.757 420.363 222.16 419.721 222.143 418.616H226.449V418.154C226.449 416.293 225.367 415.065 223.614 415.065C221.861 415.065 220.739 416.333 220.739 418.272V418.278C220.739 420.239 221.85 421.468 223.682 421.468ZM223.631 416.164C224.414 416.164 224.984 416.666 225.08 417.674H222.154C222.261 416.694 222.847 416.164 223.631 416.164ZM227.728 421.344H229.132V417.765C229.132 416.885 229.746 416.327 230.682 416.327C230.924 416.327 231.155 416.361 231.381 416.406V415.149C231.245 415.11 231.026 415.082 230.811 415.082C230 415.082 229.436 415.471 229.227 416.13H229.132V415.183H227.728V421.344ZM236.531 421.344H237.985L239.18 416.88H239.276L240.477 421.344H241.948L243.616 415.183H242.224L241.204 419.811H241.108L239.913 415.183H238.577L237.393 419.811H237.298L236.272 415.183H234.863L236.531 421.344ZM245.436 414.152C245.893 414.152 246.27 413.785 246.27 413.323C246.27 412.866 245.893 412.494 245.436 412.494C244.974 412.494 244.596 412.866 244.596 413.323C244.596 413.785 244.974 414.152 245.436 414.152ZM244.732 421.344H246.135V415.183H244.732V421.344ZM250.159 421.372C250.43 421.372 250.689 421.35 250.892 421.31V420.228C250.723 420.245 250.616 420.25 250.418 420.25C249.832 420.25 249.59 419.991 249.59 419.377V416.271H250.892V415.183H249.59V413.672H248.164V415.183H247.205V416.271H248.164V419.709C248.164 420.899 248.744 421.372 250.159 421.372ZM252.221 421.344H253.625V417.753C253.625 416.829 254.143 416.243 254.978 416.243C255.829 416.243 256.218 416.728 256.218 417.686V421.344H257.621V417.359C257.621 415.893 256.872 415.065 255.496 415.065C254.606 415.065 254.014 415.465 253.721 416.124H253.625V412.799H252.221V421.344Z" fill="white"/>
<path fill-rule="evenodd" clip-rule="evenodd" d="M302.184 416.307C301.734 414.593 300.643 413.912 299.154 413.912C297.947 413.912 296.433 414.593 296.433 416.232C296.433 417.29 297.165 418.123 298.358 418.337L299.488 418.539C300.258 418.677 300.476 418.967 300.476 419.358C300.476 419.799 300.001 420.051 299.295 420.051C298.371 420.051 297.794 419.724 297.704 418.803L296.074 419.055C296.33 420.833 297.922 421.564 299.359 421.564C300.72 421.564 302.171 420.782 302.171 419.207C302.171 418.135 301.516 417.354 300.297 417.126L299.052 416.9C298.358 416.774 298.127 416.433 298.127 416.106C298.127 415.689 298.576 415.425 299.193 415.425C299.976 415.425 300.528 415.689 300.553 416.559L302.184 416.307ZM265.945 419.005L267.639 414.101H269.629L266.676 421.375H265.2L262.248 414.101H264.237L265.945 419.005ZM276.355 416.181C276.355 416.761 275.893 417.164 275.354 417.164C274.815 417.164 274.353 416.761 274.353 416.181C274.353 415.601 274.815 415.198 275.354 415.198C275.893 415.198 276.356 415.601 276.356 416.181H276.355ZM276.663 418.753C275.996 419.61 275.29 420.202 274.045 420.202C272.774 420.202 271.786 419.446 271.015 418.337C270.707 417.883 270.232 417.782 269.886 418.022C269.565 418.249 269.488 418.728 269.783 419.144C270.848 420.745 272.325 421.677 274.045 421.677C275.624 421.677 276.856 420.921 277.819 419.66C278.178 419.194 278.165 418.715 277.819 418.45C277.498 418.198 277.023 418.287 276.663 418.753ZM281.093 417.719C281.093 419.207 281.965 419.988 282.941 419.988C283.865 419.988 284.815 419.257 284.815 417.719C284.815 416.206 283.865 415.475 282.954 415.475C281.965 415.475 281.093 416.169 281.093 417.719ZM281.093 415.11V414.114H279.283V423.896H281.093V420.417C281.696 421.224 282.479 421.564 283.365 421.564C285.021 421.564 286.638 420.278 286.638 417.631C286.638 415.097 284.956 413.912 283.519 413.912C282.376 413.912 281.593 414.429 281.093 415.11ZM289.783 417.719C289.783 419.207 290.656 419.988 291.632 419.988C292.556 419.988 293.506 419.257 293.506 417.719C293.506 416.206 292.556 415.475 291.644 415.475C290.656 415.475 289.783 416.169 289.783 417.719H289.783ZM289.783 415.11V414.114H289.783H287.973V423.896H289.783V420.417C290.387 421.224 291.17 421.564 292.055 421.564C293.711 421.564 295.329 420.278 295.329 417.631C295.329 415.097 293.647 413.912 292.209 413.912C291.067 413.912 290.284 414.429 289.783 415.11Z" fill="white"/>
<path d="M150.422 257.1C150.19 257.433 149.864 257.683 149.447 257.849C149.032 258.013 148.548 258.094 147.995 258.094C147.436 258.094 146.939 257.964 146.506 257.703C146.072 257.439 145.736 257.065 145.497 256.581C145.262 256.098 145.141 255.537 145.134 254.899V254.3C145.134 253.267 145.375 252.466 145.855 251.897C146.339 251.328 147.018 251.044 147.891 251.044C148.608 251.044 149.184 251.228 149.621 251.595C150.058 251.96 150.325 252.478 150.422 253.15H149.517C149.348 252.242 148.807 251.788 147.896 251.788C147.29 251.788 146.829 252.002 146.515 252.429C146.204 252.854 146.047 253.469 146.044 254.277V254.838C146.044 255.607 146.22 256.22 146.572 256.676C146.924 257.128 147.4 257.354 148 257.354C148.339 257.354 148.636 257.317 148.89 257.241C149.145 257.166 149.355 257.039 149.522 256.859V255.318H147.934V254.583H150.422V257.1ZM153.794 258.094C153.103 258.094 152.54 257.868 152.107 257.416C151.673 256.96 151.456 256.352 151.456 255.592V255.431C151.456 254.926 151.552 254.475 151.744 254.079C151.938 253.68 152.209 253.369 152.554 253.146C152.903 252.92 153.28 252.806 153.685 252.806C154.348 252.806 154.864 253.025 155.231 253.461C155.599 253.898 155.783 254.523 155.783 255.337V255.7H152.328C152.341 256.203 152.487 256.61 152.766 256.921C153.049 257.229 153.407 257.383 153.841 257.383C154.149 257.383 154.41 257.32 154.623 257.194C154.837 257.068 155.024 256.902 155.184 256.695L155.717 257.109C155.289 257.766 154.648 258.094 153.794 258.094ZM153.685 253.523C153.333 253.523 153.038 253.652 152.799 253.909C152.561 254.164 152.413 254.522 152.356 254.984H154.911V254.918C154.886 254.475 154.766 254.132 154.553 253.89C154.339 253.645 154.05 253.523 153.685 253.523ZM157.858 251.666V252.901H158.81V253.575H157.858V256.737C157.858 256.941 157.901 257.095 157.985 257.199C158.07 257.299 158.215 257.35 158.419 257.35C158.519 257.35 158.658 257.331 158.834 257.293V258C158.604 258.063 158.381 258.094 158.164 258.094C157.775 258.094 157.481 257.976 157.283 257.741C157.085 257.505 156.986 257.171 156.986 256.737V253.575H156.058V252.901H156.986V251.666H157.858ZM165.318 251.133V251.873H165.157C164.479 251.886 163.938 252.087 163.536 252.477C163.134 252.866 162.902 253.414 162.839 254.121C163.2 253.707 163.693 253.499 164.319 253.499C164.915 253.499 165.391 253.71 165.747 254.131C166.105 254.552 166.284 255.095 166.284 255.761C166.284 256.468 166.091 257.034 165.704 257.458C165.321 257.882 164.806 258.094 164.158 258.094C163.502 258.094 162.969 257.843 162.561 257.34C162.152 256.834 161.948 256.184 161.948 255.389V255.054C161.948 253.791 162.217 252.827 162.754 252.161C163.294 251.492 164.097 251.149 165.162 251.133H165.318ZM164.172 254.225C163.874 254.225 163.599 254.315 163.348 254.494C163.096 254.673 162.922 254.897 162.825 255.168V255.488C162.825 256.054 162.952 256.509 163.206 256.855C163.461 257.2 163.778 257.373 164.158 257.373C164.551 257.373 164.859 257.229 165.082 256.94C165.308 256.651 165.421 256.272 165.421 255.804C165.421 255.333 165.307 254.952 165.077 254.663C164.851 254.371 164.549 254.225 164.172 254.225ZM171.674 258.094C170.983 258.094 170.421 257.868 169.987 257.416C169.554 256.96 169.337 256.352 169.337 255.592V255.431C169.337 254.926 169.433 254.475 169.624 254.079C169.819 253.68 170.089 253.369 170.435 253.146C170.784 252.92 171.161 252.806 171.566 252.806C172.229 252.806 172.744 253.025 173.112 253.461C173.479 253.898 173.663 254.523 173.663 255.337V255.7H170.209C170.221 256.203 170.367 256.61 170.647 256.921C170.93 257.229 171.288 257.383 171.722 257.383C172.029 257.383 172.29 257.32 172.504 257.194C172.718 257.068 172.904 256.902 173.065 256.695L173.597 257.109C173.17 257.766 172.529 258.094 171.674 258.094ZM171.566 253.523C171.214 253.523 170.919 253.652 170.68 253.909C170.441 254.164 170.294 254.522 170.237 254.984H172.791V254.918C172.766 254.475 172.647 254.132 172.433 253.89C172.22 253.645 171.93 253.523 171.566 253.523ZM174.344 255.408C174.344 254.626 174.529 253.997 174.9 253.523C175.271 253.045 175.756 252.806 176.356 252.806C176.953 252.806 177.426 253.011 177.775 253.419V250.761H178.647V258H177.845L177.803 257.453C177.454 257.881 176.969 258.094 176.347 258.094C175.756 258.094 175.274 257.852 174.9 257.368C174.529 256.885 174.344 256.253 174.344 255.474V255.408ZM175.216 255.507C175.216 256.085 175.335 256.537 175.574 256.864C175.813 257.191 176.143 257.354 176.564 257.354C177.117 257.354 177.52 257.106 177.775 256.61V254.267C177.514 253.787 177.113 253.546 176.573 253.546C176.146 253.546 175.813 253.711 175.574 254.041C175.335 254.371 175.216 254.86 175.216 255.507ZM180.831 258H179.959V252.901H180.831V258ZM179.888 251.548C179.888 251.407 179.93 251.287 180.015 251.19C180.103 251.092 180.232 251.044 180.402 251.044C180.571 251.044 180.7 251.092 180.788 251.19C180.876 251.287 180.92 251.407 180.92 251.548C180.92 251.689 180.876 251.807 180.788 251.902C180.7 251.996 180.571 252.043 180.402 252.043C180.232 252.043 180.103 251.996 180.015 251.902C179.93 251.807 179.888 251.689 179.888 251.548ZM183.293 251.666V252.901H184.245V253.575H183.293V256.737C183.293 256.941 183.335 257.095 183.42 257.199C183.505 257.299 183.649 257.35 183.853 257.35C183.954 257.35 184.092 257.331 184.268 257.293V258C184.039 258.063 183.816 258.094 183.599 258.094C183.209 258.094 182.916 257.976 182.718 257.741C182.52 257.505 182.421 257.171 182.421 256.737V253.575H181.492V252.901H182.421V251.666H183.293ZM186.094 258H185.222V252.901H186.094V258ZM185.151 251.548C185.151 251.407 185.194 251.287 185.279 251.19C185.367 251.092 185.495 251.044 185.665 251.044C185.835 251.044 185.964 251.092 186.051 251.19C186.139 251.287 186.183 251.407 186.183 251.548C186.183 251.689 186.139 251.807 186.051 251.902C185.964 251.996 185.835 252.043 185.665 252.043C185.495 252.043 185.367 251.996 185.279 251.902C185.194 251.807 185.151 251.689 185.151 251.548ZM187.142 255.403C187.142 254.904 187.239 254.454 187.434 254.055C187.632 253.656 187.906 253.348 188.254 253.132C188.606 252.915 189.007 252.806 189.456 252.806C190.15 252.806 190.711 253.047 191.139 253.527C191.569 254.008 191.784 254.648 191.784 255.446V255.507C191.784 256.003 191.688 256.449 191.497 256.845C191.308 257.238 191.036 257.544 190.681 257.764C190.33 257.984 189.924 258.094 189.466 258.094C188.774 258.094 188.213 257.854 187.783 257.373C187.356 256.892 187.142 256.256 187.142 255.464V255.403ZM188.019 255.507C188.019 256.072 188.149 256.526 188.41 256.869C188.674 257.211 189.026 257.383 189.466 257.383C189.909 257.383 190.26 257.21 190.521 256.864C190.782 256.515 190.912 256.028 190.912 255.403C190.912 254.844 190.779 254.392 190.512 254.046C190.248 253.697 189.896 253.523 189.456 253.523C189.026 253.523 188.678 253.694 188.415 254.036C188.151 254.379 188.019 254.869 188.019 255.507ZM193.582 252.901L193.61 253.542C194 253.051 194.509 252.806 195.137 252.806C196.215 252.806 196.758 253.414 196.768 254.63V258H195.896V254.626C195.893 254.258 195.808 253.986 195.641 253.81C195.478 253.634 195.222 253.546 194.873 253.546C194.59 253.546 194.342 253.622 194.128 253.773C193.915 253.923 193.748 254.121 193.629 254.366V258H192.757V252.901H193.582ZM200.931 256.647C200.931 256.412 200.841 256.23 200.662 256.101C200.486 255.969 200.177 255.856 199.734 255.761C199.294 255.667 198.944 255.554 198.683 255.422C198.425 255.29 198.234 255.133 198.108 254.951C197.985 254.769 197.924 254.552 197.924 254.3C197.924 253.883 198.1 253.529 198.452 253.24C198.807 252.951 199.259 252.806 199.809 252.806C200.387 252.806 200.856 252.956 201.214 253.254C201.575 253.553 201.756 253.934 201.756 254.399H200.879C200.879 254.161 200.777 253.955 200.573 253.782C200.372 253.609 200.117 253.523 199.809 253.523C199.492 253.523 199.244 253.592 199.065 253.73C198.886 253.868 198.796 254.049 198.796 254.272C198.796 254.483 198.879 254.641 199.046 254.748C199.212 254.855 199.512 254.957 199.946 255.054C200.383 255.152 200.736 255.268 201.006 255.403C201.277 255.538 201.476 255.702 201.605 255.893C201.737 256.082 201.803 256.313 201.803 256.586C201.803 257.042 201.621 257.408 201.256 257.684C200.892 257.958 200.419 258.094 199.838 258.094C199.429 258.094 199.068 258.022 198.754 257.877C198.439 257.733 198.193 257.532 198.014 257.274C197.838 257.013 197.75 256.732 197.75 256.431H198.622C198.637 256.723 198.754 256.955 198.97 257.128C199.19 257.298 199.479 257.383 199.838 257.383C200.168 257.383 200.431 257.317 200.629 257.185C200.83 257.05 200.931 256.87 200.931 256.647ZM204.861 255.403C204.861 254.904 204.958 254.454 205.153 254.055C205.351 253.656 205.624 253.348 205.973 253.132C206.325 252.915 206.725 252.806 207.175 252.806C207.869 252.806 208.43 253.047 208.857 253.527C209.288 254.008 209.503 254.648 209.503 255.446V255.507C209.503 256.003 209.407 256.449 209.215 256.845C209.027 257.238 208.755 257.544 208.4 257.764C208.048 257.984 207.643 258.094 207.184 258.094C206.493 258.094 205.932 257.854 205.502 257.373C205.074 256.892 204.861 256.256 204.861 255.464V255.403ZM205.737 255.507C205.737 256.072 205.868 256.526 206.128 256.869C206.392 257.211 206.744 257.383 207.184 257.383C207.627 257.383 207.979 257.21 208.24 256.864C208.5 256.515 208.631 256.028 208.631 255.403C208.631 254.844 208.497 254.392 208.23 254.046C207.966 253.697 207.614 253.523 207.175 253.523C206.744 253.523 206.397 253.694 206.133 254.036C205.869 254.379 205.737 254.869 205.737 255.507ZM210.904 258V253.575H210.098V252.901H210.904V252.378C210.904 251.831 211.05 251.408 211.343 251.11C211.635 250.811 212.048 250.662 212.582 250.662C212.783 250.662 212.983 250.689 213.181 250.742L213.134 251.449C212.986 251.421 212.829 251.407 212.662 251.407C212.38 251.407 212.161 251.49 212.007 251.656C211.853 251.82 211.776 252.055 211.776 252.363V252.901H212.865V253.575H211.776V258H210.904ZM215.753 255.403C215.753 254.904 215.85 254.454 216.045 254.055C216.243 253.656 216.516 253.348 216.865 253.132C217.217 252.915 217.618 252.806 218.067 252.806C218.761 252.806 219.322 253.047 219.75 253.527C220.18 254.008 220.395 254.648 220.395 255.446V255.507C220.395 256.003 220.299 256.449 220.108 256.845C219.919 257.238 219.647 257.544 219.292 257.764C218.94 257.984 218.535 258.094 218.076 258.094C217.385 258.094 216.824 257.854 216.394 257.373C215.967 256.892 215.753 256.256 215.753 255.464V255.403ZM216.63 255.507C216.63 256.072 216.76 256.526 217.021 256.869C217.285 257.211 217.637 257.383 218.076 257.383C218.519 257.383 218.871 257.21 219.132 256.864C219.393 256.515 219.523 256.028 219.523 255.403C219.523 254.844 219.39 254.392 219.123 254.046C218.859 253.697 218.507 253.523 218.067 253.523C217.637 253.523 217.289 253.694 217.025 254.036C216.762 254.379 216.63 254.869 216.63 255.507ZM224.516 257.496C224.177 257.895 223.679 258.094 223.022 258.094C222.479 258.094 222.064 257.937 221.778 257.623C221.495 257.306 221.352 256.837 221.349 256.219V252.901H222.221V256.195C222.221 256.968 222.535 257.354 223.164 257.354C223.83 257.354 224.273 257.106 224.493 256.61V252.901H225.364V258H224.535L224.516 257.496ZM229.038 253.683C228.906 253.661 228.763 253.65 228.609 253.65C228.037 253.65 227.649 253.894 227.445 254.381V258H226.573V252.901H227.421L227.435 253.49C227.721 253.034 228.126 252.806 228.651 252.806C228.821 252.806 228.95 252.828 229.038 252.872V253.683ZM232.816 252.901L232.84 253.466C233.214 253.026 233.718 252.806 234.353 252.806C235.066 252.806 235.551 253.08 235.809 253.626C235.979 253.381 236.199 253.183 236.469 253.033C236.742 252.882 237.064 252.806 237.435 252.806C238.554 252.806 239.122 253.399 239.141 254.583V258H238.269V254.635C238.269 254.271 238.186 253.999 238.019 253.82C237.853 253.637 237.573 253.546 237.181 253.546C236.857 253.546 236.588 253.644 236.375 253.839C236.161 254.03 236.037 254.289 236.002 254.616V258H235.126V254.659C235.126 253.917 234.763 253.546 234.037 253.546C233.465 253.546 233.074 253.79 232.864 254.277V258H231.992V252.901H232.816ZM243.488 258C243.438 257.899 243.397 257.72 243.366 257.463C242.96 257.884 242.477 258.094 241.914 258.094C241.411 258.094 240.998 257.953 240.675 257.67C240.354 257.384 240.194 257.023 240.194 256.586C240.194 256.055 240.395 255.644 240.797 255.351C241.203 255.056 241.771 254.908 242.503 254.908H243.352V254.508C243.352 254.203 243.26 253.961 243.078 253.782C242.896 253.6 242.627 253.509 242.272 253.509C241.961 253.509 241.701 253.587 241.49 253.744C241.279 253.901 241.174 254.091 241.174 254.315H240.298C240.298 254.06 240.387 253.815 240.566 253.579C240.749 253.341 240.994 253.152 241.301 253.014C241.613 252.876 241.953 252.806 242.324 252.806C242.912 252.806 243.372 252.954 243.705 253.249C244.038 253.542 244.211 253.945 244.223 254.461V256.808C244.223 257.276 244.283 257.648 244.403 257.925V258H243.488ZM242.041 257.335C242.315 257.335 242.574 257.265 242.819 257.123C243.064 256.982 243.242 256.798 243.352 256.572V255.526H242.668C241.6 255.526 241.066 255.838 241.066 256.464C241.066 256.737 241.157 256.951 241.339 257.105C241.521 257.259 241.755 257.335 242.041 257.335ZM245.262 255.408C245.262 254.613 245.446 253.981 245.814 253.513C246.181 253.042 246.668 252.806 247.275 252.806C247.897 252.806 248.382 253.026 248.731 253.466L248.773 252.901H249.57V257.877C249.57 258.537 249.373 259.057 248.981 259.437C248.591 259.818 248.066 260.008 247.407 260.008C247.039 260.008 246.679 259.929 246.327 259.772C245.975 259.615 245.707 259.4 245.521 259.126L245.974 258.603C246.348 259.065 246.805 259.296 247.345 259.296C247.769 259.296 248.099 259.177 248.335 258.938C248.574 258.699 248.693 258.363 248.693 257.929V257.491C248.344 257.893 247.868 258.094 247.265 258.094C246.668 258.094 246.184 257.854 245.814 257.373C245.446 256.892 245.262 256.237 245.262 255.408ZM246.139 255.507C246.139 256.082 246.257 256.534 246.492 256.864C246.728 257.191 247.058 257.354 247.482 257.354C248.032 257.354 248.436 257.105 248.693 256.605V254.277C248.426 253.79 248.026 253.546 247.491 253.546C247.067 253.546 246.736 253.711 246.497 254.041C246.258 254.371 246.139 254.86 246.139 255.507ZM253.917 258C253.867 257.899 253.826 257.72 253.794 257.463C253.389 257.884 252.905 258.094 252.343 258.094C251.84 258.094 251.427 257.953 251.103 257.67C250.783 257.384 250.623 257.023 250.623 256.586C250.623 256.055 250.824 255.644 251.226 255.351C251.631 255.056 252.2 254.908 252.932 254.908H253.78V254.508C253.78 254.203 253.689 253.961 253.507 253.782C253.325 253.6 253.056 253.509 252.701 253.509C252.39 253.509 252.129 253.587 251.919 253.744C251.708 253.901 251.603 254.091 251.603 254.315H250.726C250.726 254.06 250.816 253.815 250.995 253.579C251.177 253.341 251.422 253.152 251.73 253.014C252.041 252.876 252.382 252.806 252.753 252.806C253.34 252.806 253.801 252.954 254.134 253.249C254.467 253.542 254.64 253.945 254.652 254.461V256.808C254.652 257.276 254.712 257.648 254.831 257.925V258H253.917ZM252.47 257.335C252.743 257.335 253.003 257.265 253.248 257.123C253.493 256.982 253.67 256.798 253.78 256.572V255.526H253.097C252.029 255.526 251.495 255.838 251.495 256.464C251.495 256.737 251.586 256.951 251.768 257.105C251.95 257.259 252.184 257.335 252.47 257.335ZM256.718 257.288H259.702V258H255.653V257.359L258.467 253.622H255.696V252.901H259.56V253.518L256.718 257.288ZM261.513 258H260.641V252.901H261.513V258ZM260.571 251.548C260.571 251.407 260.613 251.287 260.698 251.19C260.786 251.092 260.915 251.044 261.084 251.044C261.254 251.044 261.383 251.092 261.471 251.19C261.559 251.287 261.603 251.407 261.603 251.548C261.603 251.689 261.559 251.807 261.471 251.902C261.383 251.996 261.254 252.043 261.084 252.043C260.915 252.043 260.786 251.996 260.698 251.902C260.613 251.807 260.571 251.689 260.571 251.548ZM263.617 252.901L263.645 253.542C264.035 253.051 264.544 252.806 265.172 252.806C266.25 252.806 266.793 253.414 266.803 254.63V258H265.931V254.626C265.928 254.258 265.843 253.986 265.676 253.81C265.513 253.634 265.257 253.546 264.908 253.546C264.626 253.546 264.377 253.622 264.164 253.773C263.95 253.923 263.783 254.121 263.664 254.366V258H262.792V252.901H263.617ZM270.113 258.094C269.422 258.094 268.86 257.868 268.426 257.416C267.992 256.96 267.776 256.352 267.776 255.592V255.431C267.776 254.926 267.871 254.475 268.063 254.079C268.258 253.68 268.528 253.369 268.874 253.146C269.222 252.92 269.599 252.806 270.005 252.806C270.668 252.806 271.183 253.025 271.551 253.461C271.918 253.898 272.102 254.523 272.102 255.337V255.7H268.647C268.66 256.203 268.806 256.61 269.086 256.921C269.369 257.229 269.727 257.383 270.16 257.383C270.468 257.383 270.729 257.32 270.943 257.194C271.156 257.068 271.343 256.902 271.503 256.695L272.036 257.109C271.609 257.766 270.968 258.094 270.113 258.094ZM270.005 253.523C269.653 253.523 269.358 253.652 269.119 253.909C268.88 254.164 268.732 254.522 268.676 254.984H271.23V254.918C271.205 254.475 271.086 254.132 270.872 253.89C270.658 253.645 270.369 253.523 270.005 253.523ZM275.697 258V253.575H274.891V252.901H275.697V252.378C275.697 251.831 275.843 251.408 276.135 251.11C276.428 250.811 276.841 250.662 277.375 250.662C277.576 250.662 277.775 250.689 277.973 250.742L277.926 251.449C277.779 251.421 277.621 251.407 277.455 251.407C277.172 251.407 276.954 251.49 276.8 251.656C276.646 251.82 276.569 252.055 276.569 252.363V252.901H277.658V253.575H276.569V258H275.697ZM278.272 255.403C278.272 254.904 278.37 254.454 278.564 254.055C278.762 253.656 279.036 253.348 279.384 253.132C279.736 252.915 280.137 252.806 280.586 252.806C281.281 252.806 281.841 253.047 282.269 253.527C282.699 254.008 282.914 254.648 282.914 255.446V255.507C282.914 256.003 282.818 256.449 282.627 256.845C282.438 257.238 282.167 257.544 281.812 257.764C281.46 257.984 281.054 258.094 280.596 258.094C279.904 258.094 279.344 257.854 278.913 257.373C278.486 256.892 278.272 256.256 278.272 255.464V255.403ZM279.149 255.507C279.149 256.072 279.279 256.526 279.54 256.869C279.804 257.211 280.156 257.383 280.596 257.383C281.039 257.383 281.39 257.21 281.651 256.864C281.912 256.515 282.042 256.028 282.042 255.403C282.042 254.844 281.909 254.392 281.642 254.046C281.378 253.697 281.026 253.523 280.586 253.523C280.156 253.523 279.809 253.694 279.545 254.036C279.281 254.379 279.149 254.869 279.149 255.507ZM286.352 253.683C286.22 253.661 286.077 253.65 285.923 253.65C285.351 253.65 284.963 253.894 284.759 254.381V258H283.887V252.901H284.735L284.75 253.49C285.035 253.034 285.441 252.806 285.965 252.806C286.135 252.806 286.264 252.828 286.352 252.872V253.683ZM289.08 255.403C289.08 254.904 289.177 254.454 289.372 254.055C289.57 253.656 289.843 253.348 290.192 253.132C290.544 252.915 290.944 252.806 291.394 252.806C292.088 252.806 292.649 253.047 293.076 253.527C293.507 254.008 293.722 254.648 293.722 255.446V255.507C293.722 256.003 293.626 256.449 293.434 256.845C293.246 257.238 292.974 257.544 292.619 257.764C292.267 257.984 291.862 258.094 291.403 258.094C290.712 258.094 290.151 257.854 289.721 257.373C289.293 256.892 289.08 256.256 289.08 255.464V255.403ZM289.956 255.507C289.956 256.072 290.087 256.526 290.347 256.869C290.611 257.211 290.963 257.383 291.403 257.383C291.846 257.383 292.198 257.21 292.459 256.864C292.72 256.515 292.85 256.028 292.85 255.403C292.85 254.844 292.716 254.392 292.449 254.046C292.185 253.697 291.834 253.523 291.394 253.523C290.963 253.523 290.616 253.694 290.352 254.036C290.088 254.379 289.956 254.869 289.956 255.507ZM295.519 252.901L295.548 253.542C295.937 253.051 296.446 252.806 297.075 252.806C298.152 252.806 298.696 253.414 298.705 254.63V258H297.833V254.626C297.83 254.258 297.745 253.986 297.579 253.81C297.416 253.634 297.159 253.546 296.811 253.546C296.528 253.546 296.28 253.622 296.066 253.773C295.852 253.923 295.686 254.121 295.567 254.366V258H294.695V252.901H295.519ZM300.847 258H299.975V250.761H300.847V258ZM303.794 256.723L304.982 252.901H305.915L303.865 258.787C303.548 259.635 303.043 260.06 302.352 260.06L302.187 260.045L301.862 259.984V259.277L302.098 259.296C302.393 259.296 302.622 259.236 302.786 259.117C302.952 258.998 303.089 258.779 303.196 258.462L303.389 257.943L301.57 252.901H302.522L303.794 256.723ZM146.642 268.639L146.096 269.209V271H145.224V263.761H146.096V268.139L146.562 267.578L148.151 265.901H149.211L147.227 268.031L149.442 271H148.419L146.642 268.639ZM152.455 266.683C152.323 266.661 152.18 266.65 152.026 266.65C151.455 266.65 151.067 266.894 150.862 267.381V271H149.99V265.901H150.839L150.853 266.49C151.139 266.034 151.544 265.806 152.069 265.806C152.238 265.806 152.367 265.828 152.455 265.872V266.683ZM155.725 267.56L156.074 264.138H159.59V264.944H156.814L156.606 266.815C156.943 266.617 157.324 266.518 157.752 266.518C158.377 266.518 158.873 266.725 159.241 267.14C159.608 267.552 159.792 268.109 159.792 268.813C159.792 269.52 159.601 270.078 159.217 270.486C158.837 270.892 158.305 271.094 157.62 271.094C157.013 271.094 156.518 270.926 156.135 270.59C155.752 270.254 155.533 269.789 155.48 269.195H156.305C156.358 269.588 156.498 269.885 156.724 270.086C156.95 270.284 157.249 270.383 157.62 270.383C158.025 270.383 158.342 270.244 158.572 269.968C158.804 269.691 158.92 269.31 158.92 268.823C158.92 268.364 158.795 267.996 158.543 267.72C158.295 267.44 157.964 267.3 157.549 267.3C157.169 267.3 156.87 267.384 156.654 267.55L156.423 267.739L155.725 267.56ZM163.965 267.984C163.783 268.201 163.564 268.375 163.31 268.507C163.059 268.639 162.782 268.705 162.481 268.705C162.085 268.705 161.739 268.607 161.444 268.413C161.151 268.218 160.925 267.944 160.765 267.593C160.605 267.238 160.525 266.846 160.525 266.419C160.525 265.96 160.611 265.547 160.784 265.18C160.96 264.812 161.208 264.531 161.529 264.336C161.849 264.141 162.223 264.044 162.65 264.044C163.329 264.044 163.863 264.298 164.253 264.807C164.645 265.313 164.842 266.004 164.842 266.881V267.135C164.842 268.471 164.578 269.446 164.05 270.062C163.522 270.675 162.726 270.989 161.66 271.005H161.491V270.27H161.675C162.394 270.257 162.947 270.07 163.334 269.709C163.72 269.344 163.931 268.769 163.965 267.984ZM162.622 267.984C162.914 267.984 163.183 267.894 163.428 267.715C163.676 267.536 163.857 267.315 163.97 267.051V266.702C163.97 266.13 163.846 265.665 163.597 265.307C163.349 264.949 163.035 264.77 162.655 264.77C162.272 264.77 161.964 264.917 161.731 265.213C161.499 265.505 161.382 265.891 161.382 266.372C161.382 266.84 161.494 267.227 161.717 267.531C161.943 267.833 162.245 267.984 162.622 267.984ZM169.264 267.984C169.082 268.201 168.864 268.375 168.609 268.507C168.358 268.639 168.081 268.705 167.78 268.705C167.384 268.705 167.038 268.607 166.743 268.413C166.451 268.218 166.224 267.944 166.064 267.593C165.904 267.238 165.824 266.846 165.824 266.419C165.824 265.96 165.91 265.547 166.083 265.18C166.259 264.812 166.507 264.531 166.828 264.336C167.148 264.141 167.522 264.044 167.949 264.044C168.628 264.044 169.162 264.298 169.552 264.807C169.944 265.313 170.141 266.004 170.141 266.881V267.135C170.141 268.471 169.877 269.446 169.349 270.062C168.821 270.675 168.025 270.989 166.96 271.005H166.79V270.27H166.974C167.693 270.257 168.246 270.07 168.633 269.709C169.019 269.344 169.23 268.769 169.264 267.984ZM167.921 267.984C168.213 267.984 168.482 267.894 168.727 267.715C168.975 267.536 169.156 267.315 169.269 267.051V266.702C169.269 266.13 169.145 265.665 168.897 265.307C168.648 264.949 168.334 264.77 167.954 264.77C167.571 264.77 167.263 264.917 167.03 265.213C166.798 265.505 166.682 265.891 166.682 266.372C166.682 266.84 166.793 267.227 167.016 267.531C167.242 267.833 167.544 267.984 167.921 267.984ZM171.283 272.367L170.788 272.027C171.084 271.616 171.238 271.192 171.25 270.755V269.968H172.103V270.651C172.103 270.969 172.025 271.286 171.868 271.603C171.714 271.921 171.519 272.175 171.283 272.367ZM174.9 268.441H172.6V267.729H174.9V268.441ZM181.054 271C181.004 270.899 180.963 270.72 180.931 270.463C180.526 270.884 180.042 271.094 179.48 271.094C178.977 271.094 178.564 270.953 178.24 270.67C177.92 270.384 177.76 270.023 177.76 269.586C177.76 269.055 177.961 268.644 178.363 268.351C178.768 268.056 179.337 267.908 180.069 267.908H180.917V267.508C180.917 267.203 180.826 266.961 180.644 266.782C180.462 266.6 180.193 266.509 179.838 266.509C179.527 266.509 179.266 266.587 179.056 266.744C178.845 266.901 178.74 267.091 178.74 267.315H177.863C177.863 267.06 177.953 266.815 178.132 266.579C178.314 266.341 178.559 266.152 178.867 266.014C179.178 265.876 179.519 265.806 179.89 265.806C180.477 265.806 180.938 265.954 181.271 266.249C181.604 266.542 181.777 266.945 181.789 267.461V269.808C181.789 270.276 181.849 270.648 181.968 270.925V271H181.054ZM179.607 270.335C179.88 270.335 180.14 270.265 180.385 270.123C180.63 269.982 180.807 269.798 180.917 269.572V268.526H180.234C179.166 268.526 178.632 268.838 178.632 269.464C178.632 269.737 178.723 269.951 178.905 270.105C179.087 270.259 179.321 270.335 179.607 270.335ZM184.642 269.817L185.905 265.901H186.796L184.968 271H184.303L182.456 265.901H183.346L184.642 269.817ZM191.456 269.723L192.644 265.901H193.577L191.527 271.787C191.21 272.635 190.705 273.06 190.014 273.06L189.849 273.045L189.524 272.984V272.277L189.76 272.296C190.055 272.296 190.284 272.236 190.448 272.117C190.614 271.998 190.751 271.779 190.858 271.462L191.051 270.943L189.232 265.901H190.184L191.456 269.723ZM196.289 271.094C195.598 271.094 195.035 270.868 194.602 270.416C194.168 269.96 193.951 269.352 193.951 268.592V268.431C193.951 267.926 194.047 267.475 194.239 267.079C194.434 266.68 194.704 266.369 195.049 266.146C195.398 265.92 195.775 265.806 196.18 265.806C196.843 265.806 197.359 266.025 197.726 266.461C198.094 266.898 198.278 267.523 198.278 268.337V268.7H194.823C194.836 269.203 194.982 269.61 195.261 269.921C195.544 270.229 195.902 270.383 196.336 270.383C196.644 270.383 196.905 270.32 197.118 270.194C197.332 270.068 197.519 269.902 197.679 269.695L198.212 270.109C197.784 270.766 197.143 271.094 196.289 271.094ZM196.18 266.523C195.829 266.523 195.533 266.652 195.294 266.909C195.056 267.164 194.908 267.522 194.851 267.984H197.406V267.918C197.381 267.475 197.261 267.132 197.048 266.89C196.834 266.645 196.545 266.523 196.18 266.523ZM202.318 271C202.268 270.899 202.227 270.72 202.196 270.463C201.791 270.884 201.307 271.094 200.744 271.094C200.242 271.094 199.828 270.953 199.505 270.67C199.184 270.384 199.024 270.023 199.024 269.586C199.024 269.055 199.225 268.644 199.627 268.351C200.033 268.056 200.601 267.908 201.333 267.908H202.182V267.508C202.182 267.203 202.091 266.961 201.908 266.782C201.726 266.6 201.458 266.509 201.103 266.509C200.791 266.509 200.531 266.587 200.32 266.744C200.11 266.901 200.004 267.091 200.004 267.315H199.128C199.128 267.06 199.217 266.815 199.396 266.579C199.579 266.341 199.824 266.152 200.132 266.014C200.443 265.876 200.784 265.806 201.154 265.806C201.742 265.806 202.202 265.954 202.535 266.249C202.868 266.542 203.041 266.945 203.054 267.461V269.808C203.054 270.276 203.113 270.648 203.233 270.925V271H202.318ZM200.872 270.335C201.145 270.335 201.404 270.265 201.649 270.123C201.894 269.982 202.072 269.798 202.182 269.572V268.526H201.498C200.43 268.526 199.896 268.838 199.896 269.464C199.896 269.737 199.987 269.951 200.169 270.105C200.352 270.259 200.586 270.335 200.872 270.335ZM206.765 266.683C206.633 266.661 206.49 266.65 206.336 266.65C205.764 266.65 205.376 266.894 205.172 267.381V271H204.3V265.901H205.148L205.162 266.49C205.448 266.034 205.853 265.806 206.378 265.806C206.548 265.806 206.677 265.828 206.765 265.872V266.683ZM206.884 270.543C206.884 270.392 206.928 270.266 207.016 270.166C207.107 270.065 207.242 270.015 207.422 270.015C207.601 270.015 207.736 270.065 207.827 270.166C207.921 270.266 207.968 270.392 207.968 270.543C207.968 270.687 207.921 270.808 207.827 270.906C207.736 271.003 207.601 271.052 207.422 271.052C207.242 271.052 207.107 271.003 207.016 270.906C206.928 270.808 206.884 270.687 206.884 270.543Z" fill="#444444"/>
<g filter="url(#filter3_b)">
<path fill-rule="evenodd" clip-rule="evenodd" d="M130.081 63.0813H356.299V119.787H130.081V63.0813Z" fill="#F9F9F9" fill-opacity="0.94"/>
</g>
<line opacity="0.3" x1="130.081" y1="119.938" x2="356.299" y2="119.938" stroke="black" stroke-width="0.301624"/>
<mask id="mask0" mask-type="alpha" maskUnits="userSpaceOnUse" x="136" y="92" width="215" height="22">
<path fill-rule="evenodd" clip-rule="evenodd" d="M136.114 98.0696C136.114 94.7379 138.815 92.0371 142.146 92.0371H344.016C347.348 92.0371 350.049 94.7379 350.049 98.0696V107.722C350.049 111.053 347.348 113.754 344.016 113.754H142.146C138.815 113.754 136.114 111.053 136.114 107.722V98.0696Z" fill="white"/>
</mask>
<g mask="url(#mask0)">
<path fill-rule="evenodd" clip-rule="evenodd" d="M136.114 101.689C136.114 98.3106 136.114 96.6213 136.771 95.3309C137.35 94.1958 138.272 93.273 139.408 92.6946C140.698 92.0371 142.387 92.0371 145.766 92.0371H340.397C343.775 92.0371 345.465 92.0371 346.755 92.6946C347.89 93.273 348.813 94.1958 349.391 95.3309C350.049 96.6213 350.049 98.3106 350.049 101.689V104.102C350.049 107.481 350.049 109.17 349.391 110.46C348.813 111.595 347.89 112.518 346.755 113.097C345.465 113.754 343.775 113.754 340.397 113.754H145.766C142.387 113.754 140.698 113.754 139.408 113.097C138.272 112.518 137.35 111.595 136.771 110.46C136.114 109.17 136.114 107.481 136.114 104.102V101.689Z" fill="#767680" fill-opacity="0.12"/>
<path d="M147.679 106.547C147.93 106.547 148.055 106.447 148.155 106.171L148.796 104.398H151.75L152.396 106.171C152.492 106.447 152.622 106.547 152.872 106.547C153.143 106.547 153.318 106.386 153.318 106.136C153.318 106.051 153.303 105.976 153.268 105.866L150.914 99.6164C150.799 99.3059 150.594 99.1557 150.278 99.1557C149.963 99.1557 149.758 99.3059 149.647 99.6114L147.294 105.871C147.254 105.981 147.239 106.056 147.239 106.141C147.239 106.391 147.409 106.547 147.679 106.547ZM149.041 103.632L150.258 100.262H150.288L151.5 103.632H149.041ZM142.642 106.547C142.847 106.547 142.987 106.447 143.073 106.186L143.473 105.029H145.306L145.707 106.186C145.802 106.452 145.942 106.547 146.142 106.547C146.398 106.547 146.573 106.386 146.573 106.151C146.573 106.066 146.553 105.976 146.508 105.851L145.016 101.885C144.91 101.594 144.705 101.409 144.385 101.409C144.079 101.409 143.879 101.594 143.774 101.885L142.276 105.851C142.226 105.976 142.216 106.066 142.216 106.151C142.216 106.386 142.387 106.547 142.642 106.547ZM143.699 104.348L144.36 102.396H144.425L145.086 104.348H143.699Z" fill="black"/>
<path d="M340.199 102.468C340.324 102.468 340.419 102.428 340.489 102.353L342.552 100.28C342.642 100.194 342.677 100.094 342.677 99.9791C342.677 99.8689 342.632 99.7587 342.552 99.6786L340.489 97.5855C340.419 97.5054 340.319 97.4653 340.199 97.4653C339.973 97.4653 339.803 97.6456 339.803 97.8759C339.803 97.9811 339.843 98.0812 339.913 98.1614L341.25 99.4733C340.965 99.4232 340.674 99.3932 340.384 99.3932C337.93 99.3932 335.957 101.361 335.957 103.815C335.957 106.273 337.93 108.246 340.384 108.246C342.837 108.246 344.805 106.273 344.805 103.815C344.805 103.574 344.635 103.399 344.39 103.399C344.154 103.399 343.999 103.574 343.999 103.815C343.999 105.828 342.392 107.44 340.384 107.44C338.376 107.44 336.763 105.828 336.763 103.815C336.763 101.807 338.376 100.199 340.384 100.199C340.764 100.199 341.115 100.229 341.415 100.295L339.918 101.782C339.843 101.862 339.803 101.962 339.803 102.067C339.803 102.297 339.973 102.468 340.199 102.468Z" fill="black"/>
<path d="M208.25 107.651H212.456C213.026 107.651 213.304 107.368 213.304 106.75V103.506C213.304 102.95 213.075 102.663 212.602 102.614V101.501C212.602 99.8348 211.511 99.0307 210.353 99.0307C209.195 99.0307 208.104 99.8348 208.104 101.501V102.636C207.671 102.702 207.402 102.985 207.402 103.506V106.75C207.402 107.368 207.68 107.651 208.25 107.651ZM208.815 101.408C208.815 100.299 209.527 99.7111 210.353 99.7111C211.179 99.7111 211.891 100.299 211.891 101.408V102.61L208.815 102.614V101.408ZM218.409 106.657H219.27V103.312C219.27 102.551 219.816 101.94 220.522 101.94C221.203 101.94 221.649 102.35 221.649 102.991V106.657H222.51V103.187C222.51 102.501 223.011 101.94 223.762 101.94C224.523 101.94 224.899 102.33 224.899 103.126V106.657H225.76V102.926C225.76 101.795 225.144 101.164 224.042 101.164C223.296 101.164 222.68 101.539 222.39 102.11H222.31C222.059 101.549 221.549 101.164 220.818 101.164C220.096 101.164 219.556 101.509 219.31 102.11H219.23V101.259H218.409V106.657ZM228.587 106.752C229.308 106.752 229.899 106.436 230.25 105.861H230.33V106.657H231.151V102.961C231.151 101.84 230.415 101.164 229.098 101.164C227.946 101.164 227.095 101.734 226.98 102.601H227.851C227.971 102.175 228.422 101.93 229.068 101.93C229.874 101.93 230.29 102.295 230.29 102.961V103.452L228.732 103.547C227.475 103.622 226.764 104.178 226.764 105.144C226.764 106.131 227.541 106.752 228.587 106.752ZM228.747 105.996C228.121 105.996 227.656 105.675 227.656 105.124C227.656 104.584 228.016 104.298 228.837 104.243L230.29 104.148V104.644C230.29 105.415 229.634 105.996 228.747 105.996ZM234.719 108.73C236.191 108.73 237.123 107.959 237.123 106.752V101.259H236.302V102.115H236.221C235.911 101.534 235.245 101.164 234.489 101.164C233.102 101.164 232.226 102.26 232.226 103.878C232.226 105.495 233.092 106.577 234.489 106.577C235.23 106.577 235.841 106.241 236.181 105.645H236.262V106.707C236.262 107.503 235.686 107.979 234.719 107.979C233.943 107.979 233.462 107.693 233.367 107.253H232.456C232.586 108.144 233.417 108.73 234.719 108.73ZM234.679 105.815C233.678 105.815 233.117 105.054 233.117 103.878C233.117 102.701 233.678 101.94 234.679 101.94C235.676 101.94 236.282 102.701 236.282 103.878C236.282 105.054 235.681 105.815 234.679 105.815ZM240 106.752C240.721 106.752 241.312 106.436 241.663 105.861H241.743V106.657H242.564V102.961C242.564 101.84 241.828 101.164 240.511 101.164C239.359 101.164 238.508 101.734 238.393 102.601H239.264C239.384 102.175 239.835 101.93 240.481 101.93C241.287 101.93 241.703 102.295 241.703 102.961V103.452L240.145 103.547C238.888 103.622 238.177 104.178 238.177 105.144C238.177 106.131 238.954 106.752 240 106.752ZM240.16 105.996C239.534 105.996 239.069 105.675 239.069 105.124C239.069 104.584 239.429 104.298 240.25 104.243L241.703 104.148V104.644C241.703 105.415 241.047 105.996 240.16 105.996ZM243.784 102.736C243.784 103.517 244.244 103.953 245.256 104.198L246.182 104.423C246.758 104.564 247.039 104.814 247.039 105.185C247.039 105.68 246.518 106.026 245.792 106.026C245.101 106.026 244.67 105.735 244.525 105.28H243.639C243.734 106.176 244.56 106.752 245.762 106.752C246.989 106.752 247.925 106.086 247.925 105.119C247.925 104.343 247.434 103.903 246.418 103.657L245.586 103.457C244.95 103.302 244.65 103.071 244.65 102.701C244.65 102.22 245.151 101.895 245.792 101.895C246.443 101.895 246.863 102.18 246.978 102.611H247.83C247.715 101.724 246.928 101.164 245.797 101.164C244.65 101.164 243.784 101.84 243.784 102.736ZM249.48 100.217C249.811 100.217 250.081 99.9468 250.081 99.6163C250.081 99.2858 249.811 99.0154 249.48 99.0154C249.15 99.0154 248.879 99.2858 248.879 99.6163C248.879 99.9468 249.15 100.217 249.48 100.217ZM249.05 106.657H249.911V101.259H249.05V106.657ZM251.306 106.657H252.167V103.462C252.167 102.516 252.723 101.94 253.584 101.94C254.446 101.94 254.856 102.4 254.856 103.372V106.657H255.718V103.162C255.718 101.88 255.042 101.164 253.83 101.164C253.004 101.164 252.478 101.514 252.207 102.11H252.127V101.259H251.306V106.657ZM260.623 105.26C260.398 105.735 259.927 105.991 259.231 105.991C258.314 105.991 257.719 105.315 257.673 104.248V104.208H261.554V103.878C261.554 102.2 260.668 101.164 259.211 101.164C257.729 101.164 256.777 102.265 256.777 103.963C256.777 105.67 257.714 106.752 259.211 106.752C260.393 106.752 261.234 106.181 261.484 105.26H260.623ZM259.201 101.925C260.057 101.925 260.628 102.556 260.648 103.512H257.673C257.739 102.556 258.339 101.925 259.201 101.925ZM263.019 99.8617V101.259H262.148V101.98H263.019V105.255C263.019 106.286 263.465 106.697 264.577 106.697C264.747 106.697 264.912 106.677 265.083 106.647V105.921C264.922 105.936 264.837 105.941 264.682 105.941C264.121 105.941 263.881 105.67 263.881 105.034V101.98H265.083V101.259H263.881V99.8617H263.019ZM266.848 106.707C267.209 106.707 267.499 106.411 267.499 106.056C267.499 105.695 267.209 105.405 266.848 105.405C266.493 105.405 266.197 105.695 266.197 106.056C266.197 106.411 266.493 106.707 266.848 106.707ZM268.934 106.657H269.796V103.462C269.796 102.516 270.351 101.94 271.213 101.94C272.074 101.94 272.485 102.4 272.485 103.372V106.657H273.346V103.162C273.346 101.88 272.67 101.164 271.458 101.164C270.632 101.164 270.106 101.514 269.836 102.11H269.756V101.259H268.934V106.657ZM276.894 106.752C278.431 106.752 279.383 105.69 279.383 103.958C279.383 102.22 278.431 101.164 276.894 101.164C275.357 101.164 274.405 102.22 274.405 103.958C274.405 105.69 275.357 106.752 276.894 106.752ZM276.894 105.976C275.873 105.976 275.297 105.235 275.297 103.958C275.297 102.676 275.873 101.94 276.894 101.94C277.916 101.94 278.492 102.676 278.492 103.958C278.492 105.235 277.916 105.976 276.894 105.976Z" fill="black"/>
</g>
<path opacity="0.35" d="M333.074 75.1463C333.074 74.4244 333.66 73.8392 334.381 73.8392H344.436C345.157 73.8392 345.743 74.4244 345.743 75.1463V78.7657C345.743 79.4876 345.157 80.0728 344.436 80.0728H334.381C333.66 80.0728 333.074 79.4876 333.074 78.7657V75.1463Z" stroke="black" stroke-width="0.603248"/>
<path opacity="0.4" d="M346.647 75.7495V78.1625C347.133 77.9581 347.449 77.4827 347.449 76.956C347.449 76.4293 347.133 75.9539 346.647 75.7495Z" fill="black"/>
<path d="M333.979 75.5485C333.979 75.1043 334.339 74.7441 334.784 74.7441H344.033C344.478 74.7441 344.838 75.1043 344.838 75.5485V78.3636C344.838 78.8079 344.478 79.168 344.033 79.168H334.784C334.339 79.168 333.979 78.8078 333.979 78.3636V75.5485Z" fill="black"/>
<path fill-rule="evenodd" clip-rule="evenodd" d="M325.13 74.9097C326.466 74.9097 327.752 75.4234 328.721 76.3444C328.794 76.4155 328.91 76.4146 328.982 76.3424L329.68 75.6386C329.716 75.602 329.736 75.5524 329.736 75.5007C329.736 75.4491 329.715 75.3997 329.678 75.3635C327.135 72.9267 323.124 72.9267 320.581 75.3635C320.544 75.3997 320.523 75.4491 320.523 75.5007C320.523 75.5523 320.543 75.6019 320.579 75.6386L321.277 76.3424C321.349 76.4147 321.465 76.4156 321.538 76.3444C322.507 75.4233 323.793 74.9097 325.13 74.9097ZM325.13 77.1994C325.864 77.1993 326.573 77.4723 327.117 77.9653C327.191 78.0352 327.307 78.0337 327.378 77.9619L328.075 77.2581C328.112 77.2212 328.132 77.1711 328.131 77.119C328.131 77.067 328.11 77.0173 328.072 76.9812C326.414 75.439 323.847 75.439 322.189 76.9812C322.152 77.0173 322.13 77.067 322.13 77.1191C322.129 77.1711 322.15 77.2212 322.186 77.2581L322.883 77.9619C322.955 78.0337 323.071 78.0352 323.144 77.9653C323.688 77.4726 324.396 77.1997 325.13 77.1994ZM326.525 78.7399C326.526 78.7921 326.506 78.8424 326.469 78.879L325.264 80.0949C325.228 80.1307 325.18 80.1508 325.13 80.1508C325.08 80.1508 325.032 80.1307 324.996 80.0949L323.791 78.879C323.754 78.8424 323.733 78.7921 323.735 78.7399C323.736 78.6877 323.758 78.6383 323.797 78.6033C324.566 77.9525 325.693 77.9525 326.463 78.6033C326.502 78.6383 326.524 78.6878 326.525 78.7399Z" fill="black"/>
<path fill-rule="evenodd" clip-rule="evenodd" d="M316.887 73.7388H316.284C315.951 73.7388 315.681 74.0089 315.681 74.342V79.5702C315.681 79.9033 315.951 80.1734 316.284 80.1734H316.887C317.22 80.1734 317.49 79.9033 317.49 79.5702V74.342C317.49 74.0089 317.22 73.7388 316.887 73.7388ZM313.468 75.1463H314.072C314.405 75.1463 314.675 75.4164 314.675 75.7495V79.5701C314.675 79.9033 314.405 80.1734 314.072 80.1734H313.468C313.135 80.1734 312.865 79.9033 312.865 79.5701V75.7495C312.865 75.4164 313.135 75.1463 313.468 75.1463ZM311.257 76.554H310.653C310.32 76.554 310.05 76.8241 310.05 77.1572V79.5702C310.05 79.9034 310.32 80.1735 310.653 80.1735H311.257C311.59 80.1735 311.86 79.9034 311.86 79.5702V77.1572C311.86 76.8241 311.59 76.554 311.257 76.554ZM308.442 77.7605H307.838C307.505 77.7605 307.235 78.0306 307.235 78.3637V79.5702C307.235 79.9034 307.505 80.1735 307.838 80.1735H308.442C308.775 80.1735 309.045 79.9034 309.045 79.5702V78.3637C309.045 78.0306 308.775 77.7605 308.442 77.7605Z" fill="black"/>
<path d="M148.575 79.9236H149.715V73.5479H148.579L146.914 74.7188V75.7925L148.5 74.6702H148.575V79.9236ZM152.848 77.0782H153.648C154.435 77.0782 154.912 77.4714 154.912 78.1121C154.912 78.7306 154.395 79.146 153.661 79.146C152.924 79.146 152.424 78.766 152.376 78.1739H151.284C151.337 79.3271 152.287 80.0826 153.675 80.0826C155.053 80.0826 156.078 79.2873 156.078 78.1916C156.078 77.3212 155.535 76.7601 154.669 76.6275V76.5524C155.345 76.3713 155.826 75.8631 155.831 75.0944C155.835 74.1798 155.071 73.3889 153.714 73.3889C152.331 73.3889 151.465 74.1709 151.408 75.2888H152.477C152.526 74.6525 152.959 74.2991 153.653 74.2991C154.329 74.2991 154.731 74.7144 154.731 75.2402C154.731 75.819 154.28 76.2254 153.626 76.2254H152.848V77.0782ZM157.979 75.7969C158.399 75.7969 158.686 75.5053 158.686 75.112C158.686 74.7188 158.399 74.4272 157.979 74.4272C157.564 74.4272 157.272 74.7188 157.272 75.112C157.272 75.5053 157.564 75.7969 157.979 75.7969ZM157.979 79.0399C158.399 79.0399 158.686 78.7439 158.686 78.3551C158.686 77.9618 158.399 77.6702 157.979 77.6702C157.564 77.6702 157.272 77.9618 157.272 78.3551C157.272 78.7439 157.564 79.0399 157.979 79.0399ZM161.528 79.9236H162.668V73.5479H161.532L159.867 74.7188V75.7925L161.453 74.6702H161.528V79.9236ZM164.273 75.4346H165.342C165.342 74.763 165.784 74.3035 166.478 74.3035C167.145 74.3035 167.542 74.7497 167.542 75.3285C167.542 75.8145 167.348 76.1194 166.544 76.9324L164.335 79.1548V79.9236H168.762V78.9781H165.881V78.903L167.251 77.5554C168.347 76.4817 168.669 75.9648 168.669 75.2225C168.669 74.1621 167.808 73.3889 166.539 73.3889C165.21 73.3889 164.273 74.2284 164.273 75.4346Z" fill="black"/>
<g filter="url(#filter4_b)">
<path fill-rule="evenodd" clip-rule="evenodd" d="M130.081 502.849H356.299V552.919H130.081V502.849Z" fill="#F9F9F9" fill-opacity="0.94"/>
</g>
<line opacity="0.3" x1="130.081" y1="502.699" x2="356.299" y2="502.699" stroke="black" stroke-width="0.301624"/>
<path fill-rule="evenodd" clip-rule="evenodd" d="M202.664 546.515C202.664 545.682 203.339 545.007 204.172 545.007H281.991C282.824 545.007 283.499 545.682 283.499 546.515C283.499 547.348 282.824 548.023 281.991 548.023H204.172C203.339 548.023 202.664 547.348 202.664 546.515Z" fill="black"/>
<path d="M332.934 519.981H334.132V521.096C334.132 522.431 334.813 523.104 336.167 523.104H343.088C344.443 523.104 345.123 522.431 345.123 521.096V514.207C345.123 512.879 344.443 512.205 343.088 512.205H341.889V511.155C341.889 509.82 341.202 509.146 339.855 509.146H332.934C331.573 509.146 330.899 509.82 330.899 511.155V517.979C330.899 519.314 331.573 519.981 332.934 519.981ZM332.947 518.938C332.299 518.938 331.942 518.594 331.942 517.92V511.213C331.942 510.539 332.299 510.189 332.947 510.189H339.835C340.477 510.189 340.846 510.539 340.846 511.213V512.205H336.167C334.813 512.205 334.132 512.872 334.132 514.207V518.938H332.947ZM336.187 522.061C335.539 522.061 335.176 521.711 335.176 521.037V514.265C335.176 513.592 335.539 513.248 336.187 513.248H343.075C343.717 513.248 344.08 513.592 344.08 514.265V521.044C344.08 521.711 343.717 522.061 343.075 522.061H336.187Z" fill="#007AFF"/>
<path d="M290.397 511.609C289.905 510.986 288.68 510.436 287.312 510.436C285.517 510.436 284.066 511.362 283.709 512.231V521.284C283.709 521.776 284.027 521.964 284.383 521.964C284.662 521.964 284.831 521.88 285.006 521.744C285.375 521.426 286.12 520.998 287.312 520.998C288.511 520.998 289.347 521.413 289.671 521.705C289.84 521.841 290.041 521.964 290.397 521.964C290.753 521.964 290.954 521.828 291.123 521.705C291.473 521.433 292.289 520.998 293.482 520.998C294.68 520.998 295.426 521.433 295.795 521.744C295.97 521.88 296.132 521.964 296.411 521.964C296.767 521.964 297.091 521.776 297.091 521.284V512.231C296.735 511.362 295.277 510.436 293.482 510.436C292.121 510.436 290.896 510.986 290.397 511.609ZM284.753 512.542C284.902 512.14 285.841 511.414 287.312 511.414C288.79 511.414 289.749 512.146 289.879 512.542V520.739C289.263 520.279 288.323 520.02 287.312 520.02C286.308 520.02 285.368 520.279 284.753 520.765V512.542ZM296.048 512.542V520.765C295.426 520.279 294.493 520.02 293.482 520.02C292.471 520.02 291.538 520.279 290.922 520.739V512.542C291.052 512.146 292.011 511.414 293.482 511.414C294.959 511.414 295.899 512.14 296.048 512.542Z" fill="#007AFF"/>
<path d="M243.395 517.933C243.674 517.933 243.907 517.7 243.907 517.428V510.773L243.869 509.801L244.303 510.261L245.288 511.311C245.378 511.414 245.515 511.466 245.638 511.466C245.903 511.466 246.111 511.272 246.111 511.006C246.111 510.87 246.052 510.766 245.955 510.669L243.765 508.556C243.635 508.427 243.525 508.381 243.395 508.381C243.259 508.381 243.149 508.427 243.02 508.556L240.829 510.669C240.732 510.766 240.674 510.87 240.674 511.006C240.674 511.272 240.868 511.466 241.14 511.466C241.263 511.466 241.406 511.414 241.497 511.311L242.482 510.261L242.916 509.801L242.877 510.773V517.428C242.877 517.7 243.117 517.933 243.395 517.933ZM239.676 523.007H247.109C248.463 523.007 249.143 522.333 249.143 520.998V514.531C249.143 513.196 248.463 512.522 247.109 512.522H245.301V513.566H247.089C247.731 513.566 248.1 513.916 248.1 514.589V520.94C248.1 521.614 247.731 521.964 247.089 521.964H239.689C239.041 521.964 238.684 521.614 238.684 520.94V514.589C238.684 513.916 239.041 513.566 239.689 513.566H241.484V512.522H239.676C238.321 512.522 237.641 513.196 237.641 514.531V520.998C237.641 522.333 238.321 523.007 239.676 523.007Z" fill="#007AFF"/>
<path d="M193.206 521.802C193.374 521.802 193.517 521.737 193.627 521.627L198.766 516.605C198.889 516.482 198.953 516.333 198.953 516.171C198.953 516.002 198.889 515.847 198.766 515.736L193.633 510.721C193.517 510.604 193.374 510.539 193.206 510.539C192.869 510.539 192.616 510.799 192.616 511.136C192.616 511.291 192.681 511.447 192.784 511.557L197.502 516.171L192.784 520.785C192.681 520.895 192.616 521.044 192.616 521.206C192.616 521.543 192.869 521.802 193.206 521.802Z" fill="#CBCBCB"/>
<path d="M150.332 521.621C150.442 521.731 150.585 521.795 150.753 521.795C151.09 521.795 151.343 521.543 151.343 521.206C151.343 521.044 151.278 520.895 151.174 520.785L146.457 516.171L151.174 511.557C151.278 511.447 151.343 511.291 151.343 511.136C151.343 510.799 151.09 510.539 150.753 510.539C150.585 510.539 150.442 510.604 150.332 510.714L145.2 515.736C145.077 515.84 145.005 516.002 145.005 516.171C145.005 516.333 145.07 516.482 145.193 516.605L150.332 521.621Z" fill="#007AFF"/>
</g>
</g>
<path fill-rule="evenodd" clip-rule="evenodd" d="M130.081 94.3537C130.081 83.178 130.081 77.5901 132.325 73.3524C134.136 69.9325 136.933 67.1358 140.352 65.3251C144.59 63.0813 150.178 63.0813 161.354 63.0813H130.081V94.3537ZM130.081 521.646V552.919H161.354C150.178 552.919 144.59 552.919 140.352 550.675C136.933 548.864 134.136 546.068 132.325 542.648C130.081 538.41 130.081 532.822 130.081 521.646ZM325.027 552.919H356.299V521.646C356.299 532.822 356.299 538.41 354.056 542.648C352.245 546.068 349.448 548.864 346.028 550.675C341.791 552.919 336.203 552.919 325.027 552.919ZM356.299 94.3537V63.0813H325.027C336.203 63.0813 341.791 63.0813 346.028 65.3251C349.448 67.1358 352.245 69.9325 354.056 73.3524C356.299 77.5901 356.299 83.178 356.299 94.3537ZM309.849 63.0813H305.627H180.754H176.531C178.864 63.0813 180.754 64.2878 180.754 66.0975V63.0813C180.754 67.5707 180.754 69.8154 181.292 71.6463C182.564 75.9798 185.953 79.3687 190.287 80.6412C192.117 81.1787 194.362 81.1787 198.852 81.1787H287.529C292.019 81.1787 294.263 81.1787 296.094 80.6412C300.428 79.3687 303.817 75.9798 305.089 71.6463C305.627 69.8154 305.627 67.5707 305.627 63.0813V66.0975C305.627 64.2878 307.517 63.0813 309.849 63.0813Z" fill="white"/>
<rect x="213" y="64.5171" width="42.4774" height="5.46138" rx="2.73069" fill="#F0F3F5"/>
<path d="M268.524 71.4955C270.87 71.4955 272.772 69.5937 272.772 67.2477C272.772 64.9018 270.87 63 268.524 63C266.178 63 264.276 64.9018 264.276 67.2477C264.276 69.5937 266.178 71.4955 268.524 71.4955Z" fill="#F0F3F5"/>
<defs>
<filter id="filter0_di" x="112.587" y="42.0034" width="264.79" height="529.616" filterUnits="userSpaceOnUse" color-interpolation-filters="sRGB">
<feFlood flood-opacity="0" result="BackgroundImageFix"/>
<feColorMatrix in="SourceAlpha" type="matrix" values="0 0 0 0 0 0 0 0 0 0 0 0 0 0 0 0 0 0 127 0"/>
<feOffset dy="1.2065"/>
<feGaussianBlur stdDeviation="1.2065"/>
<feColorMatrix type="matrix" values="0 0 0 0 0 0 0 0 0 0 0 0 0 0 0 0 0 0 0.25 0"/>
<feBlend mode="normal" in2="BackgroundImageFix" result="effect1_dropShadow"/>
<feBlend mode="normal" in="SourceGraphic" in2="effect1_dropShadow" result="shape"/>
<feColorMatrix in="SourceAlpha" type="matrix" values="0 0 0 0 0 0 0 0 0 0 0 0 0 0 0 0 0 0 127 0" result="hardAlpha"/>
<feOffset dx="10.2799" dy="-8.85216"/>
<feGaussianBlur stdDeviation="2.99831"/>
<feComposite in2="hardAlpha" operator="arithmetic" k2="-1" k3="1"/>
<feColorMatrix type="matrix" values="0 0 0 0 1 0 0 0 0 1 0 0 0 0 1 0 0 0 0.05 0"/>
<feBlend mode="normal" in2="shape" result="effect2_innerShadow"/>
</filter>
<filter id="filter1_dd" x="127.668" y="117.977" width="231.044" height="49.4664" filterUnits="userSpaceOnUse" color-interpolation-filters="sRGB">
<feFlood flood-opacity="0" result="BackgroundImageFix"/>
<feColorMatrix in="SourceAlpha" type="matrix" values="0 0 0 0 0 0 0 0 0 0 0 0 0 0 0 0 0 0 127 0"/>
<feOffset dy="0.603248"/>
<feGaussianBlur stdDeviation="1.2065"/>
<feColorMatrix type="matrix" values="0 0 0 0 0.0862745 0 0 0 0 0.0705882 0 0 0 0 0.145098 0 0 0 0.17 0"/>
<feBlend mode="normal" in2="BackgroundImageFix" result="effect1_dropShadow"/>
<feColorMatrix in="SourceAlpha" type="matrix" values="0 0 0 0 0 0 0 0 0 0 0 0 0 0 0 0 0 0 127 0"/>
<feOffset dy="0.603248"/>
<feGaussianBlur stdDeviation="0.301624"/>
<feColorMatrix type="matrix" values="0 0 0 0 0.0862745 0 0 0 0 0.0705882 0 0 0 0 0.145098 0 0 0 0.0498188 0"/>
<feBlend mode="normal" in2="effect1_dropShadow" result="effect2_dropShadow"/>
<feBlend mode="normal" in="SourceGraphic" in2="effect2_dropShadow" result="shape"/>
</filter>
<filter id="filter2_d" x="143.353" y="367.118" width="199.675" height="28.9559" filterUnits="userSpaceOnUse" color-interpolation-filters="sRGB">
<feFlood flood-opacity="0" result="BackgroundImageFix"/>
<feColorMatrix in="SourceAlpha" type="matrix" values="0 0 0 0 0 0 0 0 0 0 0 0 0 0 0 0 0 0 127 0"/>
<feOffset dy="0.603248"/>
<feGaussianBlur stdDeviation="0.603248"/>
<feColorMatrix type="matrix" values="0 0 0 0 0.0862745 0 0 0 0 0.0705882 0 0 0 0 0.145098 0 0 0 0.07 0"/>
<feBlend mode="normal" in2="BackgroundImageFix" result="effect1_dropShadow"/>
<feBlend mode="normal" in="SourceGraphic" in2="effect1_dropShadow" result="shape"/>
</filter>
<filter id="filter3_b" x="118.016" y="51.0163" width="250.348" height="80.8353" filterUnits="userSpaceOnUse" color-interpolation-filters="sRGB">
<feFlood flood-opacity="0" result="BackgroundImageFix"/>
<feGaussianBlur in="BackgroundImage" stdDeviation="6.03248"/>
<feComposite in2="SourceAlpha" operator="in" result="effect1_backgroundBlur"/>
<feBlend mode="normal" in="SourceGraphic" in2="effect1_backgroundBlur" result="shape"/>
</filter>
<filter id="filter4_b" x="118.016" y="490.784" width="250.348" height="74.1995" filterUnits="userSpaceOnUse" color-interpolation-filters="sRGB">
<feFlood flood-opacity="0" result="BackgroundImageFix"/>
<feGaussianBlur in="BackgroundImage" stdDeviation="6.03248"/>
<feComposite in2="SourceAlpha" operator="in" result="effect1_backgroundBlur"/>
<feBlend mode="normal" in="SourceGraphic" in2="effect1_backgroundBlur" result="shape"/>
</filter>
<clipPath id="clip0">
<rect width="226.218" height="489.838" fill="white" transform="translate(130.081 63.0813)"/>
</clipPath>
<clipPath id="clip1">
<rect width="226.218" height="489.838" fill="white" transform="translate(130.081 63.0813)"/>
</clipPath>
</defs>
</svg>
