<svg width="487" height="616" viewBox="0 0 487 616" fill="none" xmlns="http://www.w3.org/2000/svg">
<rect width="486.381" height="616" rx="1" fill="#FFF4EC"/>
<g filter="url(#filter0_di)">
<rect x="115" y="48" width="256.381" height="520" rx="30.1624" fill="white"/>
</g>
<g clip-path="url(#clip0)">
<rect width="226.218" height="489.838" transform="translate(130.082 63.0813)" fill="#938FA8"/>
<g clip-path="url(#clip1)">
<rect width="226.218" height="489.838" transform="translate(130.082 63.0813)" fill="white"/>
<g filter="url(#filter1_dd)">
<rect x="130.082" y="119.787" width="226.218" height="44.6404" fill="white"/>
</g>
<path fill-rule="evenodd" clip-rule="evenodd" d="M143.552 133.058C142.776 133.058 142.146 133.687 142.146 134.464V147.132C142.146 147.908 142.776 148.537 143.552 148.537H148.125L149.385 149.792C149.517 149.925 149.696 150 149.883 150C150.07 150 150.249 149.925 150.381 149.792L151.642 148.531H156.214C156.991 148.531 157.62 147.902 157.62 147.126V134.458C157.616 133.684 156.988 133.058 156.214 133.058H143.552ZM146.768 137.281H153.005C153.32 137.28 153.583 137.522 153.609 137.836L154.109 143.868C154.123 144.036 154.065 144.203 153.951 144.326C153.836 144.45 153.675 144.52 153.506 144.52H146.267C146.098 144.52 145.937 144.45 145.822 144.326C145.708 144.203 145.65 144.036 145.664 143.868L146.164 137.836C146.19 137.522 146.452 137.28 146.768 137.281ZM147.473 139.091C147.473 138.757 147.743 138.487 148.076 138.487C148.41 138.487 148.68 138.757 148.68 139.091V139.694C148.68 140.36 149.22 140.9 149.886 140.9C150.553 140.9 151.093 140.36 151.093 139.694V139.091C151.093 138.757 151.363 138.487 151.696 138.487C152.029 138.487 152.299 138.757 152.299 139.091V139.694C152.299 141.026 151.219 142.107 149.886 142.107C148.554 142.107 147.473 141.026 147.473 139.694V139.091Z" fill="#6770E0"/>
<path d="M166.667 137.29L169.142 143.865L171.61 137.29H173.536V145.868H172.052V143.04L172.199 139.258L169.666 145.868H168.6L166.072 139.264L166.22 143.04V145.868H164.735V137.29H166.667ZM178.974 145.868C178.911 145.746 178.856 145.548 178.809 145.273C178.353 145.748 177.796 145.986 177.136 145.986C176.496 145.986 175.973 145.803 175.569 145.438C175.164 145.073 174.962 144.621 174.962 144.083C174.962 143.403 175.213 142.883 175.716 142.522C176.223 142.157 176.945 141.974 177.884 141.974H178.762V141.556C178.762 141.226 178.67 140.963 178.485 140.766C178.3 140.566 178.02 140.466 177.643 140.466C177.317 140.466 177.05 140.548 176.841 140.713C176.633 140.874 176.529 141.08 176.529 141.332H175.098C175.098 140.982 175.213 140.656 175.445 140.354C175.677 140.048 175.991 139.808 176.388 139.635C176.788 139.462 177.234 139.376 177.725 139.376C178.471 139.376 179.066 139.564 179.51 139.941C179.954 140.315 180.182 140.841 180.193 141.52V144.395C180.193 144.969 180.274 145.426 180.435 145.768V145.868H178.974ZM177.401 144.837C177.684 144.837 177.949 144.768 178.196 144.631C178.448 144.493 178.636 144.309 178.762 144.077V142.875H177.99C177.46 142.875 177.061 142.968 176.794 143.152C176.527 143.337 176.394 143.598 176.394 143.936C176.394 144.211 176.484 144.43 176.665 144.595C176.849 144.756 177.095 144.837 177.401 144.837ZM181.442 142.634C181.442 141.644 181.674 140.855 182.137 140.265C182.605 139.672 183.223 139.376 183.993 139.376C184.72 139.376 185.291 139.629 185.707 140.136L185.772 139.494H187.062V145.674C187.062 146.51 186.801 147.17 186.279 147.653C185.76 148.136 185.059 148.378 184.176 148.378C183.708 148.378 183.251 148.279 182.803 148.083C182.359 147.891 182.022 147.637 181.79 147.323L182.467 146.463C182.907 146.985 183.449 147.246 184.093 147.246C184.569 147.246 184.944 147.117 185.219 146.858C185.493 146.602 185.631 146.225 185.631 145.727V145.296C185.219 145.756 184.669 145.986 183.981 145.986C183.235 145.986 182.624 145.689 182.149 145.096C181.678 144.503 181.442 143.682 181.442 142.634ZM182.868 142.757C182.868 143.398 182.998 143.902 183.257 144.271C183.52 144.637 183.883 144.819 184.347 144.819C184.924 144.819 185.352 144.572 185.631 144.077V141.273C185.36 140.79 184.936 140.548 184.358 140.548C183.887 140.548 183.52 140.735 183.257 141.108C182.998 141.481 182.868 142.031 182.868 142.757ZM192.347 145.868C192.284 145.746 192.229 145.548 192.182 145.273C191.726 145.748 191.169 145.986 190.509 145.986C189.869 145.986 189.346 145.803 188.942 145.438C188.537 145.073 188.335 144.621 188.335 144.083C188.335 143.403 188.586 142.883 189.089 142.522C189.596 142.157 190.318 141.974 191.257 141.974H192.135V141.556C192.135 141.226 192.042 140.963 191.858 140.766C191.673 140.566 191.392 140.466 191.015 140.466C190.689 140.466 190.422 140.548 190.214 140.713C190.006 140.874 189.902 141.08 189.902 141.332H188.47C188.47 140.982 188.586 140.656 188.818 140.354C189.05 140.048 189.364 139.808 189.761 139.635C190.161 139.462 190.607 139.376 191.098 139.376C191.844 139.376 192.439 139.564 192.883 139.941C193.327 140.315 193.554 140.841 193.566 141.52V144.395C193.566 144.969 193.647 145.426 193.808 145.768V145.868H192.347ZM190.774 144.837C191.057 144.837 191.322 144.768 191.569 144.631C191.82 144.493 192.009 144.309 192.135 144.077V142.875H191.363C190.833 142.875 190.434 142.968 190.167 143.152C189.9 143.337 189.766 143.598 189.766 143.936C189.766 144.211 189.857 144.43 190.037 144.595C190.222 144.756 190.467 144.837 190.774 144.837ZM198.638 144.136C198.638 143.881 198.532 143.686 198.32 143.553C198.112 143.419 197.765 143.301 197.278 143.199C196.791 143.097 196.384 142.968 196.058 142.81C195.343 142.465 194.986 141.964 194.986 141.308C194.986 140.758 195.218 140.299 195.681 139.93C196.145 139.561 196.734 139.376 197.448 139.376C198.21 139.376 198.825 139.564 199.292 139.941C199.764 140.319 199.999 140.807 199.999 141.408H198.568C198.568 141.133 198.466 140.906 198.261 140.725C198.057 140.54 197.786 140.448 197.448 140.448C197.134 140.448 196.877 140.521 196.677 140.666C196.48 140.811 196.382 141.006 196.382 141.249C196.382 141.469 196.474 141.64 196.659 141.762C196.844 141.884 197.217 142.007 197.778 142.133C198.34 142.255 198.78 142.402 199.098 142.575C199.42 142.744 199.658 142.948 199.811 143.187C199.968 143.427 200.046 143.718 200.046 144.059C200.046 144.633 199.809 145.098 199.334 145.456C198.858 145.809 198.236 145.986 197.466 145.986C196.944 145.986 196.478 145.891 196.07 145.703C195.661 145.514 195.343 145.255 195.116 144.925C194.888 144.595 194.774 144.24 194.774 143.859H196.164C196.184 144.197 196.311 144.458 196.547 144.643C196.783 144.823 197.095 144.914 197.484 144.914C197.861 144.914 198.147 144.843 198.344 144.701C198.54 144.556 198.638 144.368 198.638 144.136ZM202.821 145.868H201.39V139.494H202.821V145.868ZM201.301 137.838C201.301 137.618 201.37 137.436 201.507 137.29C201.649 137.145 201.849 137.073 202.108 137.073C202.367 137.073 202.568 137.145 202.709 137.29C202.851 137.436 202.921 137.618 202.921 137.838C202.921 138.054 202.851 138.235 202.709 138.38C202.568 138.522 202.367 138.592 202.108 138.592C201.849 138.592 201.649 138.522 201.507 138.38C201.37 138.235 201.301 138.054 201.301 137.838ZM205.714 139.494L205.755 140.23C206.226 139.661 206.845 139.376 207.611 139.376C208.938 139.376 209.614 140.136 209.637 141.656V145.868H208.206V141.738C208.206 141.334 208.117 141.035 207.94 140.843C207.768 140.646 207.483 140.548 207.086 140.548C206.509 140.548 206.079 140.809 205.796 141.332V145.868H204.365V139.494H205.714ZM213.908 145.986C213.001 145.986 212.265 145.701 211.699 145.132C211.137 144.558 210.857 143.796 210.857 142.846V142.669C210.857 142.033 210.978 141.465 211.222 140.967C211.469 140.464 211.815 140.073 212.259 139.794C212.702 139.515 213.197 139.376 213.743 139.376C214.611 139.376 215.281 139.653 215.752 140.207C216.227 140.76 216.465 141.544 216.465 142.557V143.134H212.3C212.343 143.661 212.518 144.077 212.824 144.383C213.134 144.69 213.523 144.843 213.991 144.843C214.646 144.843 215.181 144.578 215.593 144.048L216.365 144.784C216.109 145.165 215.768 145.461 215.34 145.674C214.916 145.882 214.438 145.986 213.908 145.986ZM213.737 140.525C213.345 140.525 213.026 140.662 212.783 140.937C212.543 141.212 212.39 141.595 212.323 142.086H215.051V141.98C215.02 141.501 214.892 141.139 214.668 140.896C214.444 140.648 214.134 140.525 213.737 140.525ZM219.375 137.944V139.494H220.5V140.554H219.375V144.112C219.375 144.356 219.422 144.533 219.516 144.643C219.615 144.749 219.787 144.802 220.035 144.802C220.2 144.802 220.367 144.782 220.536 144.743V145.85C220.21 145.941 219.895 145.986 219.593 145.986C218.493 145.986 217.944 145.379 217.944 144.165V140.554H216.895V139.494H217.944V137.944H219.375Z" fill="black"/>
<path d="M153.82 225.635C153.82 226.644 153.646 227.53 153.297 228.293C152.948 229.052 152.449 229.636 151.799 230.046C151.153 230.452 150.408 230.654 149.565 230.654C148.73 230.654 147.986 230.452 147.331 230.046C146.68 229.636 146.176 229.054 145.818 228.3C145.464 227.546 145.285 226.677 145.281 225.692V225.112C145.281 224.108 145.457 223.222 145.811 222.454C146.169 221.686 146.671 221.099 147.317 220.694C147.967 220.284 148.712 220.079 149.551 220.079C150.389 220.079 151.132 220.281 151.777 220.687C152.428 221.087 152.93 221.667 153.283 222.426C153.637 223.18 153.816 224.059 153.82 225.062V225.635ZM152.032 225.098C152.032 223.957 151.815 223.083 151.381 222.475C150.953 221.867 150.342 221.563 149.551 221.563C148.778 221.563 148.172 221.867 147.734 222.475C147.3 223.078 147.079 223.934 147.069 225.041V225.635C147.069 226.766 147.288 227.64 147.727 228.258C148.17 228.875 148.782 229.184 149.565 229.184C150.356 229.184 150.964 228.882 151.389 228.279C151.817 227.676 152.032 226.794 152.032 225.635V225.098ZM157.03 222.864L157.079 223.748C157.645 223.064 158.387 222.723 159.306 222.723C160.899 222.723 161.71 223.634 161.738 225.458V230.513H160.02V225.557C160.02 225.072 159.914 224.714 159.702 224.483C159.495 224.247 159.153 224.129 158.677 224.129C157.984 224.129 157.468 224.443 157.129 225.07V230.513H155.411V222.864H157.03ZM166.863 230.654C165.775 230.654 164.891 230.313 164.212 229.629C163.538 228.941 163.201 228.027 163.201 226.886V226.674C163.201 225.911 163.347 225.23 163.64 224.631C163.937 224.028 164.351 223.559 164.884 223.224C165.416 222.89 166.01 222.723 166.665 222.723C167.707 222.723 168.51 223.055 169.076 223.719C169.646 224.384 169.931 225.324 169.931 226.54V227.233H164.933C164.985 227.864 165.195 228.364 165.563 228.731C165.935 229.099 166.401 229.283 166.962 229.283C167.749 229.283 168.39 228.965 168.885 228.329L169.811 229.212C169.505 229.669 169.095 230.025 168.581 230.28C168.072 230.529 167.499 230.654 166.863 230.654ZM166.658 224.101C166.187 224.101 165.805 224.266 165.513 224.596C165.226 224.926 165.042 225.385 164.962 225.974H168.235V225.847C168.197 225.272 168.044 224.839 167.775 224.546C167.507 224.25 167.134 224.101 166.658 224.101ZM177.552 228.053L179.107 222.864H180.938L177.898 231.672C177.432 232.959 176.64 233.602 175.523 233.602C175.273 233.602 174.998 233.56 174.696 233.475V232.146L175.021 232.167C175.455 232.167 175.78 232.087 175.997 231.927C176.218 231.771 176.393 231.507 176.52 231.135L176.767 230.478L174.081 222.864H175.933L177.552 228.053ZM185.201 230.654C184.112 230.654 183.229 230.313 182.55 229.629C181.876 228.941 181.539 228.027 181.539 226.886V226.674C181.539 225.911 181.685 225.23 181.977 224.631C182.274 224.028 182.689 223.559 183.222 223.224C183.754 222.89 184.348 222.723 185.003 222.723C186.045 222.723 186.848 223.055 187.414 223.719C187.984 224.384 188.269 225.324 188.269 226.54V227.233H183.271C183.323 227.864 183.533 228.364 183.9 228.731C184.273 229.099 184.739 229.283 185.3 229.283C186.087 229.283 186.728 228.965 187.223 228.329L188.149 229.212C187.843 229.669 187.433 230.025 186.919 230.28C186.41 230.529 185.837 230.654 185.201 230.654ZM184.996 224.101C184.525 224.101 184.143 224.266 183.851 224.596C183.563 224.926 183.38 225.385 183.299 225.974H186.573V225.847C186.535 225.272 186.382 224.839 186.113 224.546C185.844 224.25 185.472 224.101 184.996 224.101ZM194.179 230.513C194.104 230.367 194.038 230.129 193.981 229.799C193.434 230.369 192.765 230.654 191.973 230.654C191.205 230.654 190.578 230.435 190.093 229.997C189.608 229.559 189.365 229.017 189.365 228.371C189.365 227.556 189.667 226.931 190.27 226.498C190.878 226.059 191.745 225.84 192.871 225.84H193.925V225.338C193.925 224.942 193.814 224.627 193.592 224.391C193.371 224.151 193.034 224.03 192.581 224.03C192.19 224.03 191.87 224.129 191.62 224.327C191.37 224.521 191.245 224.768 191.245 225.07H189.527C189.527 224.65 189.667 224.259 189.945 223.896C190.223 223.528 190.6 223.241 191.076 223.034C191.556 222.826 192.091 222.723 192.68 222.723C193.576 222.723 194.29 222.949 194.822 223.401C195.355 223.849 195.628 224.48 195.642 225.296V228.746C195.642 229.434 195.739 229.983 195.932 230.393V230.513H194.179ZM192.292 229.276C192.631 229.276 192.949 229.193 193.246 229.028C193.548 228.863 193.774 228.642 193.925 228.364V226.922H192.999C192.362 226.922 191.884 227.032 191.563 227.254C191.243 227.475 191.083 227.789 191.083 228.194C191.083 228.524 191.191 228.788 191.408 228.986C191.629 229.179 191.924 229.276 192.292 229.276ZM201.446 224.433C201.22 224.396 200.987 224.377 200.746 224.377C199.959 224.377 199.429 224.678 199.156 225.282V230.513H197.438V222.864H199.078L199.121 223.719C199.535 223.055 200.11 222.723 200.845 222.723C201.091 222.723 201.293 222.756 201.453 222.822L201.446 224.433ZM210.424 228.435C210.424 228.128 210.297 227.895 210.043 227.735C209.793 227.574 209.376 227.433 208.791 227.311C208.207 227.188 207.719 227.032 207.328 226.844C206.47 226.429 206.041 225.828 206.041 225.041C206.041 224.381 206.319 223.83 206.876 223.387C207.432 222.944 208.139 222.723 208.996 222.723C209.911 222.723 210.648 222.949 211.209 223.401C211.775 223.854 212.057 224.44 212.057 225.161H210.34C210.34 224.832 210.217 224.558 209.972 224.341C209.727 224.12 209.402 224.009 208.996 224.009C208.619 224.009 208.311 224.096 208.07 224.271C207.835 224.445 207.717 224.678 207.717 224.971C207.717 225.235 207.828 225.44 208.049 225.586C208.271 225.732 208.718 225.88 209.392 226.031C210.066 226.177 210.594 226.354 210.976 226.561C211.362 226.764 211.647 227.009 211.831 227.296C212.02 227.584 212.114 227.933 212.114 228.343C212.114 229.031 211.829 229.589 211.259 230.018C210.688 230.442 209.941 230.654 209.018 230.654C208.391 230.654 207.832 230.541 207.342 230.315C206.852 230.089 206.47 229.778 206.197 229.382C205.924 228.986 205.787 228.559 205.787 228.102H207.455C207.479 228.508 207.632 228.821 207.915 229.043C208.198 229.259 208.572 229.368 209.039 229.368C209.491 229.368 209.835 229.283 210.071 229.113C210.307 228.939 210.424 228.713 210.424 228.435ZM218.25 229.764C217.746 230.357 217.029 230.654 216.101 230.654C215.272 230.654 214.642 230.412 214.214 229.926C213.789 229.441 213.577 228.739 213.577 227.82V222.864H215.295V227.798C215.295 228.769 215.698 229.255 216.504 229.255C217.338 229.255 217.901 228.955 218.194 228.357V222.864H219.911V230.513H218.293L218.25 229.764ZM228.373 226.766C228.373 227.954 228.107 228.899 227.575 229.601C227.047 230.303 226.319 230.654 225.39 230.654C224.495 230.654 223.797 230.331 223.298 229.686L223.213 230.513H221.658V219.654H223.375V223.599C223.87 223.015 224.537 222.723 225.376 222.723C226.309 222.723 227.042 223.069 227.575 223.762C228.107 224.455 228.373 225.423 228.373 226.667V226.766ZM226.656 226.618C226.656 225.788 226.509 225.166 226.217 224.751C225.925 224.337 225.501 224.129 224.945 224.129C224.2 224.129 223.677 224.455 223.375 225.105V228.258C223.682 228.922 224.21 229.255 224.959 229.255C225.496 229.255 225.911 229.054 226.203 228.654C226.495 228.253 226.646 227.648 226.656 226.837V226.618ZM234.107 228.435C234.107 228.128 233.979 227.895 233.725 227.735C233.475 227.574 233.058 227.433 232.474 227.311C231.889 227.188 231.401 227.032 231.01 226.844C230.152 226.429 229.724 225.828 229.724 225.041C229.724 224.381 230.002 223.83 230.558 223.387C231.114 222.944 231.821 222.723 232.679 222.723C233.593 222.723 234.33 222.949 234.891 223.401C235.457 223.854 235.74 224.44 235.74 225.161H234.022C234.022 224.832 233.899 224.558 233.654 224.341C233.409 224.12 233.084 224.009 232.679 224.009C232.302 224.009 231.993 224.096 231.753 224.271C231.517 224.445 231.399 224.678 231.399 224.971C231.399 225.235 231.51 225.44 231.731 225.586C231.953 225.732 232.401 225.88 233.074 226.031C233.748 226.177 234.276 226.354 234.658 226.561C235.044 226.764 235.33 227.009 235.513 227.296C235.702 227.584 235.796 227.933 235.796 228.343C235.796 229.031 235.511 229.589 234.941 230.018C234.371 230.442 233.624 230.654 232.7 230.654C232.073 230.654 231.515 230.541 231.024 230.315C230.534 230.089 230.152 229.778 229.879 229.382C229.606 228.986 229.469 228.559 229.469 228.102H231.137C231.161 228.508 231.314 228.821 231.597 229.043C231.88 229.259 232.254 229.368 232.721 229.368C233.173 229.368 233.517 229.283 233.753 229.113C233.989 228.939 234.107 228.713 234.107 228.435ZM240.441 229.283C240.87 229.283 241.225 229.158 241.508 228.908C241.791 228.658 241.942 228.35 241.961 227.982H243.579C243.561 228.458 243.412 228.903 243.134 229.318C242.856 229.728 242.479 230.053 242.003 230.294C241.527 230.534 241.013 230.654 240.462 230.654C239.392 230.654 238.544 230.308 237.917 229.615C237.29 228.922 236.977 227.966 236.977 226.745V226.568C236.977 225.404 237.288 224.473 237.91 223.776C238.532 223.074 239.38 222.723 240.455 222.723C241.364 222.723 242.104 222.989 242.675 223.521C243.25 224.049 243.551 224.744 243.579 225.607H241.961C241.942 225.169 241.791 224.808 241.508 224.525C241.23 224.242 240.874 224.101 240.441 224.101C239.885 224.101 239.456 224.304 239.154 224.709C238.852 225.11 238.699 225.72 238.695 226.54V226.816C238.695 227.645 238.843 228.265 239.14 228.675C239.442 229.08 239.875 229.283 240.441 229.283ZM248.881 224.433C248.655 224.396 248.422 224.377 248.182 224.377C247.395 224.377 246.864 224.678 246.591 225.282V230.513H244.873V222.864H246.513L246.556 223.719C246.97 223.055 247.545 222.723 248.281 222.723C248.526 222.723 248.728 222.756 248.889 222.822L248.881 224.433ZM251.794 230.513H250.076V222.864H251.794V230.513ZM249.97 220.877C249.97 220.614 250.053 220.394 250.218 220.22C250.387 220.046 250.628 219.958 250.939 219.958C251.25 219.958 251.49 220.046 251.66 220.22C251.829 220.394 251.914 220.614 251.914 220.877C251.914 221.137 251.829 221.353 251.66 221.528C251.49 221.698 251.25 221.782 250.939 221.782C250.628 221.782 250.387 221.698 250.218 221.528C250.053 221.353 249.97 221.137 249.97 220.877ZM260.369 226.766C260.369 227.949 260.1 228.894 259.563 229.601C259.026 230.303 258.305 230.654 257.4 230.654C256.561 230.654 255.89 230.379 255.385 229.827V233.454H253.667V222.864H255.251L255.322 223.642C255.826 223.029 256.512 222.723 257.379 222.723C258.312 222.723 259.042 223.071 259.57 223.769C260.103 224.462 260.369 225.425 260.369 226.66V226.766ZM258.658 226.618C258.658 225.854 258.505 225.249 258.199 224.801C257.897 224.353 257.464 224.129 256.898 224.129C256.196 224.129 255.692 224.419 255.385 224.999V228.392C255.696 228.986 256.205 229.283 256.912 229.283C257.459 229.283 257.885 229.064 258.192 228.625C258.503 228.182 258.658 227.513 258.658 226.618ZM263.982 221.005V222.864H265.332V224.136H263.982V228.406C263.982 228.698 264.038 228.911 264.151 229.043C264.269 229.17 264.476 229.233 264.773 229.233C264.971 229.233 265.172 229.21 265.374 229.163V230.492C264.983 230.6 264.606 230.654 264.243 230.654C262.923 230.654 262.264 229.926 262.264 228.47V224.136H261.005V222.864H262.264V221.005H263.982ZM268.478 230.513H266.76V222.864H268.478V230.513ZM266.654 220.877C266.654 220.614 266.736 220.394 266.901 220.22C267.071 220.046 267.311 219.958 267.622 219.958C267.933 219.958 268.174 220.046 268.343 220.22C268.513 220.394 268.598 220.614 268.598 220.877C268.598 221.137 268.513 221.353 268.343 221.528C268.174 221.698 267.933 221.782 267.622 221.782C267.311 221.782 267.071 221.698 266.901 221.528C266.736 221.353 266.654 221.137 266.654 220.877ZM270.033 226.618C270.033 225.868 270.181 225.194 270.478 224.596C270.775 223.993 271.192 223.531 271.729 223.21C272.267 222.885 272.884 222.723 273.582 222.723C274.614 222.723 275.45 223.055 276.091 223.719C276.737 224.384 277.086 225.265 277.138 226.363L277.145 226.766C277.145 227.52 276.998 228.194 276.706 228.788C276.419 229.382 276.004 229.841 275.462 230.167C274.925 230.492 274.303 230.654 273.596 230.654C272.517 230.654 271.652 230.296 271.001 229.58C270.356 228.859 270.033 227.9 270.033 226.703V226.618ZM271.751 226.766C271.751 227.553 271.913 228.171 272.238 228.618C272.564 229.061 273.016 229.283 273.596 229.283C274.175 229.283 274.626 229.057 274.946 228.604C275.271 228.152 275.434 227.49 275.434 226.618C275.434 225.845 275.266 225.232 274.932 224.78C274.602 224.327 274.152 224.101 273.582 224.101C273.021 224.101 272.575 224.325 272.246 224.773C271.916 225.216 271.751 225.88 271.751 226.766ZM280.191 222.864L280.241 223.748C280.806 223.064 281.549 222.723 282.468 222.723C284.061 222.723 284.871 223.634 284.9 225.458V230.513H283.182V225.557C283.182 225.072 283.076 224.714 282.864 224.483C282.656 224.247 282.315 224.129 281.839 224.129C281.146 224.129 280.63 224.443 280.29 225.07V230.513H278.573V222.864H280.191Z" fill="black"/>
<g filter="url(#filter2_d)">
<rect x="144.56" y="367.722" width="197.262" height="26.5429" rx="3.01624" fill="#49367E"/>
</g>
<path d="M224.755 382.138C224.755 381.827 224.645 381.587 224.424 381.419C224.207 381.25 223.814 381.08 223.243 380.909C222.673 380.737 222.219 380.546 221.882 380.335C221.238 379.93 220.915 379.402 220.915 378.751C220.915 378.18 221.147 377.711 221.61 377.341C222.077 376.972 222.681 376.787 223.423 376.787C223.916 376.787 224.355 376.878 224.74 377.059C225.126 377.241 225.429 377.5 225.649 377.837C225.869 378.171 225.98 378.542 225.98 378.95H224.755C224.755 378.581 224.638 378.292 224.405 378.085C224.175 377.874 223.844 377.769 223.413 377.769C223.012 377.769 222.699 377.855 222.475 378.026C222.255 378.198 222.145 378.438 222.145 378.746C222.145 379.005 222.265 379.222 222.505 379.397C222.744 379.569 223.14 379.737 223.69 379.902C224.241 380.064 224.684 380.251 225.017 380.461C225.351 380.669 225.596 380.909 225.751 381.181C225.907 381.45 225.984 381.766 225.984 382.128C225.984 382.718 225.758 383.188 225.304 383.538C224.854 383.885 224.241 384.058 223.467 384.058C222.955 384.058 222.484 383.964 222.053 383.776C221.625 383.585 221.291 383.322 221.051 382.989C220.815 382.655 220.697 382.266 220.697 381.822H221.926C221.926 382.224 222.059 382.535 222.325 382.755C222.59 382.976 222.971 383.086 223.467 383.086C223.895 383.086 224.215 383 224.429 382.828C224.646 382.653 224.755 382.423 224.755 382.138ZM230.014 383.446C229.668 383.854 229.175 384.058 228.537 384.058C227.967 384.058 227.534 383.891 227.239 383.557C226.948 383.224 226.802 382.741 226.802 382.109V378.702H227.983V382.094C227.983 382.762 228.26 383.096 228.814 383.096C229.387 383.096 229.775 382.89 229.975 382.478V378.702H231.156V383.961H230.044L230.014 383.446ZM236.853 381.385C236.853 382.201 236.67 382.851 236.304 383.334C235.941 383.817 235.441 384.058 234.802 384.058C234.187 384.058 233.707 383.836 233.364 383.392L233.306 383.961H232.236V376.495H233.417V379.207C233.758 378.806 234.216 378.605 234.793 378.605C235.434 378.605 235.938 378.843 236.304 379.319C236.67 379.796 236.853 380.461 236.853 381.317V381.385ZM235.672 381.283C235.672 380.712 235.572 380.285 235.371 380C235.17 379.715 234.879 379.572 234.496 379.572C233.984 379.572 233.625 379.796 233.417 380.243V382.41C233.628 382.867 233.991 383.096 234.506 383.096C234.875 383.096 235.16 382.958 235.361 382.682C235.562 382.407 235.666 381.991 235.672 381.433V381.283ZM240.674 382.532C240.674 382.321 240.587 382.161 240.412 382.051C240.24 381.94 239.953 381.843 239.552 381.759C239.15 381.675 238.815 381.568 238.546 381.438C237.956 381.153 237.661 380.74 237.661 380.199C237.661 379.745 237.852 379.366 238.235 379.062C238.617 378.757 239.103 378.605 239.693 378.605C240.321 378.605 240.828 378.76 241.214 379.071C241.603 379.382 241.797 379.786 241.797 380.282H240.616C240.616 380.055 240.532 379.867 240.363 379.718C240.195 379.565 239.971 379.489 239.693 379.489C239.433 379.489 239.221 379.549 239.056 379.669C238.894 379.789 238.813 379.949 238.813 380.15C238.813 380.332 238.889 380.473 239.041 380.573C239.194 380.674 239.501 380.776 239.965 380.879C240.428 380.98 240.791 381.101 241.053 381.244C241.319 381.383 241.515 381.552 241.642 381.749C241.771 381.947 241.836 382.187 241.836 382.469C241.836 382.942 241.64 383.326 241.248 383.62C240.856 383.912 240.342 384.058 239.707 384.058C239.276 384.058 238.892 383.98 238.555 383.825C238.218 383.669 237.956 383.455 237.768 383.183C237.58 382.911 237.486 382.618 237.486 382.303H238.633C238.649 382.582 238.755 382.797 238.949 382.95C239.143 383.099 239.401 383.173 239.722 383.173C240.033 383.173 240.269 383.115 240.431 382.998C240.593 382.878 240.674 382.723 240.674 382.532ZM244.908 383.115C245.203 383.115 245.448 383.029 245.642 382.857C245.837 382.686 245.94 382.473 245.953 382.221H247.066C247.053 382.548 246.951 382.854 246.76 383.139C246.569 383.421 246.31 383.645 245.983 383.81C245.655 383.975 245.302 384.058 244.923 384.058C244.188 384.058 243.604 383.82 243.173 383.343C242.742 382.867 242.527 382.209 242.527 381.37V381.249C242.527 380.448 242.741 379.809 243.168 379.329C243.596 378.846 244.179 378.605 244.918 378.605C245.543 378.605 246.052 378.788 246.444 379.154C246.84 379.517 247.047 379.995 247.066 380.588H245.953C245.94 380.286 245.837 380.039 245.642 379.844C245.451 379.65 245.207 379.553 244.908 379.553C244.526 379.553 244.231 379.692 244.024 379.971C243.817 380.246 243.711 380.666 243.708 381.229V381.419C243.708 381.989 243.81 382.415 244.014 382.697C244.222 382.976 244.52 383.115 244.908 383.115ZM250.591 379.781C250.435 379.755 250.275 379.742 250.11 379.742C249.569 379.742 249.204 379.949 249.016 380.364V383.961H247.835V378.702H248.963L248.992 379.29C249.277 378.833 249.672 378.605 250.178 378.605C250.346 378.605 250.486 378.627 250.596 378.673L250.591 379.781ZM252.473 383.961H251.292V378.702H252.473V383.961ZM251.219 377.336C251.219 377.155 251.275 377.004 251.389 376.884C251.505 376.764 251.671 376.704 251.884 376.704C252.098 376.704 252.264 376.764 252.38 376.884C252.497 377.004 252.555 377.155 252.555 377.336C252.555 377.515 252.497 377.664 252.38 377.783C252.264 377.9 252.098 377.958 251.884 377.958C251.671 377.958 251.505 377.9 251.389 377.783C251.275 377.664 251.219 377.515 251.219 377.336ZM258.257 381.385C258.257 382.201 258.074 382.851 257.708 383.334C257.345 383.817 256.844 384.058 256.206 384.058C255.59 384.058 255.111 383.836 254.767 383.392L254.709 383.961H253.64V376.495H254.821V379.207C255.161 378.806 255.62 378.605 256.196 378.605C256.838 378.605 257.342 378.843 257.708 379.319C258.074 379.796 258.257 380.461 258.257 381.317V381.385ZM257.076 381.283C257.076 380.712 256.976 380.285 256.775 380C256.574 379.715 256.282 379.572 255.9 379.572C255.388 379.572 255.028 379.796 254.821 380.243V382.41C255.031 382.867 255.394 383.096 255.91 383.096C256.279 383.096 256.564 382.958 256.765 382.682C256.966 382.407 257.069 381.991 257.076 381.433V381.283ZM261.446 384.058C260.698 384.058 260.09 383.823 259.624 383.353C259.16 382.88 258.929 382.252 258.929 381.467V381.322C258.929 380.797 259.029 380.329 259.23 379.917C259.434 379.502 259.719 379.18 260.085 378.95C260.451 378.72 260.86 378.605 261.31 378.605C262.026 378.605 262.579 378.833 262.967 379.29C263.359 379.747 263.555 380.393 263.555 381.229V381.706H260.119C260.155 382.14 260.299 382.483 260.552 382.736C260.808 382.989 261.129 383.115 261.514 383.115C262.055 383.115 262.496 382.896 262.836 382.459L263.473 383.066C263.262 383.381 262.98 383.625 262.627 383.8C262.277 383.972 261.884 384.058 261.446 384.058ZM261.305 379.553C260.981 379.553 260.719 379.666 260.518 379.893C260.32 380.12 260.194 380.435 260.139 380.84H262.389V380.753C262.363 380.358 262.258 380.06 262.073 379.859C261.888 379.655 261.632 379.553 261.305 379.553Z" fill="white"/>
<path d="M150.422 257.1C150.19 257.433 149.865 257.683 149.447 257.849C149.032 258.013 148.548 258.094 147.995 258.094C147.436 258.094 146.94 257.964 146.506 257.703C146.072 257.439 145.736 257.065 145.497 256.581C145.262 256.098 145.141 255.537 145.135 254.899V254.3C145.135 253.267 145.375 252.466 145.856 251.897C146.339 251.328 147.018 251.044 147.892 251.044C148.608 251.044 149.184 251.228 149.621 251.595C150.058 251.96 150.325 252.478 150.422 253.15H149.518C149.348 252.242 148.807 251.788 147.896 251.788C147.29 251.788 146.83 252.002 146.515 252.429C146.204 252.854 146.047 253.469 146.044 254.277V254.838C146.044 255.607 146.22 256.22 146.572 256.676C146.924 257.128 147.4 257.354 148 257.354C148.339 257.354 148.636 257.317 148.891 257.241C149.145 257.166 149.356 257.039 149.522 256.859V255.318H147.934V254.583H150.422V257.1ZM153.794 258.094C153.103 258.094 152.54 257.868 152.107 257.416C151.673 256.96 151.456 256.352 151.456 255.592V255.431C151.456 254.926 151.552 254.475 151.744 254.079C151.939 253.68 152.209 253.369 152.554 253.146C152.903 252.92 153.28 252.806 153.686 252.806C154.349 252.806 154.864 253.025 155.231 253.461C155.599 253.898 155.783 254.523 155.783 255.337V255.7H152.328C152.341 256.203 152.487 256.61 152.767 256.921C153.049 257.229 153.408 257.383 153.841 257.383C154.149 257.383 154.41 257.32 154.623 257.194C154.837 257.068 155.024 256.902 155.184 256.695L155.717 257.109C155.29 257.766 154.649 258.094 153.794 258.094ZM153.686 253.523C153.334 253.523 153.038 253.652 152.8 253.909C152.561 254.164 152.413 254.522 152.357 254.984H154.911V254.918C154.886 254.475 154.766 254.132 154.553 253.89C154.339 253.645 154.05 253.523 153.686 253.523ZM157.858 251.666V252.901H158.81V253.575H157.858V256.737C157.858 256.941 157.901 257.095 157.986 257.199C158.07 257.299 158.215 257.35 158.419 257.35C158.52 257.35 158.658 257.331 158.834 257.293V258C158.605 258.063 158.381 258.094 158.165 258.094C157.775 258.094 157.481 257.976 157.283 257.741C157.085 257.505 156.986 257.171 156.986 256.737V253.575H156.058V252.901H156.986V251.666H157.858ZM165.318 251.133V251.873H165.158C164.479 251.886 163.939 252.087 163.536 252.477C163.134 252.866 162.902 253.414 162.839 254.121C163.2 253.707 163.694 253.499 164.319 253.499C164.916 253.499 165.392 253.71 165.747 254.131C166.105 254.552 166.284 255.095 166.284 255.761C166.284 256.468 166.091 257.034 165.704 257.458C165.321 257.882 164.806 258.094 164.159 258.094C163.502 258.094 162.969 257.843 162.561 257.34C162.152 256.834 161.948 256.184 161.948 255.389V255.054C161.948 253.791 162.217 252.827 162.754 252.161C163.295 251.492 164.097 251.149 165.162 251.133H165.318ZM164.173 254.225C163.874 254.225 163.599 254.315 163.348 254.494C163.097 254.673 162.922 254.897 162.825 255.168V255.488C162.825 256.054 162.952 256.509 163.207 256.855C163.461 257.2 163.778 257.373 164.159 257.373C164.551 257.373 164.859 257.229 165.082 256.94C165.308 256.651 165.422 256.272 165.422 255.804C165.422 255.333 165.307 254.952 165.078 254.663C164.851 254.371 164.55 254.225 164.173 254.225ZM171.675 258.094C170.983 258.094 170.421 257.868 169.987 257.416C169.554 256.96 169.337 256.352 169.337 255.592V255.431C169.337 254.926 169.433 254.475 169.625 254.079C169.819 253.68 170.09 253.369 170.435 253.146C170.784 252.92 171.161 252.806 171.566 252.806C172.229 252.806 172.744 253.025 173.112 253.461C173.48 253.898 173.663 254.523 173.663 255.337V255.7H170.209C170.221 256.203 170.368 256.61 170.647 256.921C170.93 257.229 171.288 257.383 171.722 257.383C172.03 257.383 172.29 257.32 172.504 257.194C172.718 257.068 172.905 256.902 173.065 256.695L173.597 257.109C173.17 257.766 172.529 258.094 171.675 258.094ZM171.566 253.523C171.214 253.523 170.919 253.652 170.68 253.909C170.441 254.164 170.294 254.522 170.237 254.984H172.792V254.918C172.766 254.475 172.647 254.132 172.433 253.89C172.22 253.645 171.931 253.523 171.566 253.523ZM174.344 255.408C174.344 254.626 174.529 253.997 174.9 253.523C175.271 253.045 175.756 252.806 176.356 252.806C176.953 252.806 177.426 253.011 177.775 253.419V250.761H178.647V258H177.846L177.803 257.453C177.455 257.881 176.969 258.094 176.347 258.094C175.756 258.094 175.274 257.852 174.9 257.368C174.529 256.885 174.344 256.253 174.344 255.474V255.408ZM175.216 255.507C175.216 256.085 175.335 256.537 175.574 256.864C175.813 257.191 176.143 257.354 176.564 257.354C177.117 257.354 177.52 257.106 177.775 256.61V254.267C177.514 253.787 177.114 253.546 176.573 253.546C176.146 253.546 175.813 253.711 175.574 254.041C175.335 254.371 175.216 254.86 175.216 255.507ZM180.831 258H179.959V252.901H180.831V258ZM179.888 251.548C179.888 251.407 179.931 251.287 180.015 251.19C180.103 251.092 180.232 251.044 180.402 251.044C180.572 251.044 180.7 251.092 180.788 251.19C180.876 251.287 180.92 251.407 180.92 251.548C180.92 251.689 180.876 251.807 180.788 251.902C180.7 251.996 180.572 252.043 180.402 252.043C180.232 252.043 180.103 251.996 180.015 251.902C179.931 251.807 179.888 251.689 179.888 251.548ZM183.293 251.666V252.901H184.245V253.575H183.293V256.737C183.293 256.941 183.335 257.095 183.42 257.199C183.505 257.299 183.649 257.35 183.854 257.35C183.954 257.35 184.092 257.331 184.268 257.293V258C184.039 258.063 183.816 258.094 183.599 258.094C183.21 258.094 182.916 257.976 182.718 257.741C182.52 257.505 182.421 257.171 182.421 256.737V253.575H181.493V252.901H182.421V251.666H183.293ZM186.094 258H185.222V252.901H186.094V258ZM185.152 251.548C185.152 251.407 185.194 251.287 185.279 251.19C185.367 251.092 185.496 251.044 185.665 251.044C185.835 251.044 185.964 251.092 186.052 251.19C186.14 251.287 186.184 251.407 186.184 251.548C186.184 251.689 186.14 251.807 186.052 251.902C185.964 251.996 185.835 252.043 185.665 252.043C185.496 252.043 185.367 251.996 185.279 251.902C185.194 251.807 185.152 251.689 185.152 251.548ZM187.142 255.403C187.142 254.904 187.24 254.454 187.434 254.055C187.632 253.656 187.906 253.348 188.255 253.132C188.606 252.915 189.007 252.806 189.456 252.806C190.151 252.806 190.712 253.047 191.139 253.527C191.569 254.008 191.784 254.648 191.784 255.446V255.507C191.784 256.003 191.689 256.449 191.497 256.845C191.308 257.238 191.037 257.544 190.682 257.764C190.33 257.984 189.924 258.094 189.466 258.094C188.775 258.094 188.214 257.854 187.783 257.373C187.356 256.892 187.142 256.256 187.142 255.464V255.403ZM188.019 255.507C188.019 256.072 188.149 256.526 188.41 256.869C188.674 257.211 189.026 257.383 189.466 257.383C189.909 257.383 190.261 257.21 190.521 256.864C190.782 256.515 190.913 256.028 190.913 255.403C190.913 254.844 190.779 254.392 190.512 254.046C190.248 253.697 189.896 253.523 189.456 253.523C189.026 253.523 188.679 253.694 188.415 254.036C188.151 254.379 188.019 254.869 188.019 255.507ZM193.582 252.901L193.61 253.542C194 253.051 194.509 252.806 195.137 252.806C196.215 252.806 196.758 253.414 196.768 254.63V258H195.896V254.626C195.893 254.258 195.808 253.986 195.641 253.81C195.478 253.634 195.222 253.546 194.873 253.546C194.591 253.546 194.342 253.622 194.129 253.773C193.915 253.923 193.748 254.121 193.629 254.366V258H192.757V252.901H193.582ZM200.931 256.647C200.931 256.412 200.842 256.23 200.663 256.101C200.487 255.969 200.177 255.856 199.734 255.761C199.294 255.667 198.944 255.554 198.683 255.422C198.426 255.29 198.234 255.133 198.108 254.951C197.986 254.769 197.924 254.552 197.924 254.3C197.924 253.883 198.1 253.529 198.452 253.24C198.807 252.951 199.26 252.806 199.81 252.806C200.388 252.806 200.856 252.956 201.214 253.254C201.575 253.553 201.756 253.934 201.756 254.399H200.879C200.879 254.161 200.777 253.955 200.573 253.782C200.372 253.609 200.117 253.523 199.81 253.523C199.492 253.523 199.244 253.592 199.065 253.73C198.886 253.868 198.796 254.049 198.796 254.272C198.796 254.483 198.88 254.641 199.046 254.748C199.213 254.855 199.513 254.957 199.946 255.054C200.383 255.152 200.736 255.268 201.007 255.403C201.277 255.538 201.476 255.702 201.605 255.893C201.737 256.082 201.803 256.313 201.803 256.586C201.803 257.042 201.621 257.408 201.256 257.684C200.892 257.958 200.419 258.094 199.838 258.094C199.429 258.094 199.068 258.022 198.754 257.877C198.44 257.733 198.193 257.532 198.014 257.274C197.838 257.013 197.75 256.732 197.75 256.431H198.622C198.638 256.723 198.754 256.955 198.971 257.128C199.191 257.298 199.48 257.383 199.838 257.383C200.168 257.383 200.432 257.317 200.63 257.185C200.831 257.05 200.931 256.87 200.931 256.647ZM204.861 255.403C204.861 254.904 204.958 254.454 205.153 254.055C205.351 253.656 205.624 253.348 205.973 253.132C206.325 252.915 206.726 252.806 207.175 252.806C207.869 252.806 208.43 253.047 208.857 253.527C209.288 254.008 209.503 254.648 209.503 255.446V255.507C209.503 256.003 209.407 256.449 209.216 256.845C209.027 257.238 208.755 257.544 208.4 257.764C208.048 257.984 207.643 258.094 207.184 258.094C206.493 258.094 205.932 257.854 205.502 257.373C205.074 256.892 204.861 256.256 204.861 255.464V255.403ZM205.737 255.507C205.737 256.072 205.868 256.526 206.129 256.869C206.393 257.211 206.744 257.383 207.184 257.383C207.627 257.383 207.979 257.21 208.24 256.864C208.501 256.515 208.631 256.028 208.631 255.403C208.631 254.844 208.498 254.392 208.231 254.046C207.967 253.697 207.615 253.523 207.175 253.523C206.744 253.523 206.397 253.694 206.133 254.036C205.869 254.379 205.737 254.869 205.737 255.507ZM210.905 258V253.575H210.099V252.901H210.905V252.378C210.905 251.831 211.051 251.408 211.343 251.11C211.635 250.811 212.048 250.662 212.582 250.662C212.783 250.662 212.983 250.689 213.181 250.742L213.134 251.449C212.986 251.421 212.829 251.407 212.663 251.407C212.38 251.407 212.161 251.49 212.007 251.656C211.853 251.82 211.777 252.055 211.777 252.363V252.901H212.865V253.575H211.777V258H210.905ZM215.753 255.403C215.753 254.904 215.851 254.454 216.045 254.055C216.243 253.656 216.517 253.348 216.865 253.132C217.217 252.915 217.618 252.806 218.067 252.806C218.762 252.806 219.322 253.047 219.75 253.527C220.18 254.008 220.395 254.648 220.395 255.446V255.507C220.395 256.003 220.3 256.449 220.108 256.845C219.919 257.238 219.648 257.544 219.293 257.764C218.941 257.984 218.535 258.094 218.077 258.094C217.385 258.094 216.825 257.854 216.394 257.373C215.967 256.892 215.753 256.256 215.753 255.464V255.403ZM216.63 255.507C216.63 256.072 216.76 256.526 217.021 256.869C217.285 257.211 217.637 257.383 218.077 257.383C218.52 257.383 218.872 257.21 219.132 256.864C219.393 256.515 219.524 256.028 219.524 255.403C219.524 254.844 219.39 254.392 219.123 254.046C218.859 253.697 218.507 253.523 218.067 253.523C217.637 253.523 217.29 253.694 217.026 254.036C216.762 254.379 216.63 254.869 216.63 255.507ZM224.516 257.496C224.177 257.895 223.679 258.094 223.022 258.094C222.479 258.094 222.064 257.937 221.778 257.623C221.495 257.306 221.352 256.837 221.349 256.219V252.901H222.221V256.195C222.221 256.968 222.535 257.354 223.164 257.354C223.83 257.354 224.273 257.106 224.493 256.61V252.901H225.365V258H224.535L224.516 257.496ZM229.038 253.683C228.906 253.661 228.763 253.65 228.609 253.65C228.037 253.65 227.649 253.894 227.445 254.381V258H226.573V252.901H227.421L227.436 253.49C227.721 253.034 228.127 252.806 228.651 252.806C228.821 252.806 228.95 252.828 229.038 252.872V253.683ZM232.817 252.901L232.84 253.466C233.214 253.026 233.718 252.806 234.353 252.806C235.066 252.806 235.552 253.08 235.809 253.626C235.979 253.381 236.199 253.183 236.469 253.033C236.742 252.882 237.065 252.806 237.435 252.806C238.554 252.806 239.123 253.399 239.141 254.583V258H238.269V254.635C238.269 254.271 238.186 253.999 238.02 253.82C237.853 253.637 237.574 253.546 237.181 253.546C236.857 253.546 236.589 253.644 236.375 253.839C236.161 254.03 236.037 254.289 236.003 254.616V258H235.126V254.659C235.126 253.917 234.763 253.546 234.037 253.546C233.465 253.546 233.074 253.79 232.864 254.277V258H231.992V252.901H232.817ZM243.489 258C243.438 257.899 243.397 257.72 243.366 257.463C242.961 257.884 242.477 258.094 241.914 258.094C241.412 258.094 240.999 257.953 240.675 257.67C240.354 257.384 240.194 257.023 240.194 256.586C240.194 256.055 240.395 255.644 240.797 255.351C241.203 255.056 241.771 254.908 242.504 254.908H243.352V254.508C243.352 254.203 243.261 253.961 243.078 253.782C242.896 253.6 242.628 253.509 242.273 253.509C241.962 253.509 241.701 253.587 241.49 253.744C241.28 253.901 241.174 254.091 241.174 254.315H240.298C240.298 254.06 240.387 253.815 240.567 253.579C240.749 253.341 240.994 253.152 241.302 253.014C241.613 252.876 241.954 252.806 242.324 252.806C242.912 252.806 243.372 252.954 243.705 253.249C244.038 253.542 244.211 253.945 244.224 254.461V256.808C244.224 257.276 244.283 257.648 244.403 257.925V258H243.489ZM242.042 257.335C242.315 257.335 242.574 257.265 242.819 257.123C243.064 256.982 243.242 256.798 243.352 256.572V255.526H242.668C241.6 255.526 241.066 255.838 241.066 256.464C241.066 256.737 241.157 256.951 241.339 257.105C241.522 257.259 241.756 257.335 242.042 257.335ZM245.262 255.408C245.262 254.613 245.446 253.981 245.814 253.513C246.181 253.042 246.668 252.806 247.275 252.806C247.897 252.806 248.382 253.026 248.731 253.466L248.774 252.901H249.57V257.877C249.57 258.537 249.374 259.057 248.981 259.437C248.591 259.818 248.067 260.008 247.407 260.008C247.039 260.008 246.679 259.929 246.328 259.772C245.976 259.615 245.707 259.4 245.522 259.126L245.974 258.603C246.348 259.065 246.805 259.296 247.346 259.296C247.77 259.296 248.1 259.177 248.335 258.938C248.574 258.699 248.693 258.363 248.693 257.929V257.491C248.345 257.893 247.869 258.094 247.265 258.094C246.668 258.094 246.185 257.854 245.814 257.373C245.446 256.892 245.262 256.237 245.262 255.408ZM246.139 255.507C246.139 256.082 246.257 256.534 246.493 256.864C246.728 257.191 247.058 257.354 247.482 257.354C248.032 257.354 248.436 257.105 248.693 256.605V254.277C248.426 253.79 248.026 253.546 247.492 253.546C247.067 253.546 246.736 253.711 246.497 254.041C246.258 254.371 246.139 254.86 246.139 255.507ZM253.917 258C253.867 257.899 253.826 257.72 253.795 257.463C253.389 257.884 252.905 258.094 252.343 258.094C251.84 258.094 251.427 257.953 251.104 257.67C250.783 257.384 250.623 257.023 250.623 256.586C250.623 256.055 250.824 255.644 251.226 255.351C251.631 255.056 252.2 254.908 252.932 254.908H253.78V254.508C253.78 254.203 253.689 253.961 253.507 253.782C253.325 253.6 253.056 253.509 252.701 253.509C252.39 253.509 252.129 253.587 251.919 253.744C251.708 253.901 251.603 254.091 251.603 254.315H250.727C250.727 254.06 250.816 253.815 250.995 253.579C251.177 253.341 251.422 253.152 251.73 253.014C252.041 252.876 252.382 252.806 252.753 252.806C253.341 252.806 253.801 252.954 254.134 253.249C254.467 253.542 254.64 253.945 254.652 254.461V256.808C254.652 257.276 254.712 257.648 254.831 257.925V258H253.917ZM252.47 257.335C252.744 257.335 253.003 257.265 253.248 257.123C253.493 256.982 253.671 256.798 253.78 256.572V255.526H253.097C252.029 255.526 251.495 255.838 251.495 256.464C251.495 256.737 251.586 256.951 251.768 257.105C251.95 257.259 252.184 257.335 252.47 257.335ZM256.718 257.288H259.702V258H255.653V257.359L258.467 253.622H255.696V252.901H259.56V253.518L256.718 257.288ZM261.513 258H260.641V252.901H261.513V258ZM260.571 251.548C260.571 251.407 260.613 251.287 260.698 251.19C260.786 251.092 260.915 251.044 261.085 251.044C261.254 251.044 261.383 251.092 261.471 251.19C261.559 251.287 261.603 251.407 261.603 251.548C261.603 251.689 261.559 251.807 261.471 251.902C261.383 251.996 261.254 252.043 261.085 252.043C260.915 252.043 260.786 251.996 260.698 251.902C260.613 251.807 260.571 251.689 260.571 251.548ZM263.617 252.901L263.645 253.542C264.035 253.051 264.544 252.806 265.172 252.806C266.25 252.806 266.794 253.414 266.803 254.63V258H265.931V254.626C265.928 254.258 265.843 253.986 265.677 253.81C265.513 253.634 265.257 253.546 264.909 253.546C264.626 253.546 264.378 253.622 264.164 253.773C263.95 253.923 263.784 254.121 263.664 254.366V258H262.792V252.901H263.617ZM270.113 258.094C269.422 258.094 268.86 257.868 268.426 257.416C267.993 256.96 267.776 256.352 267.776 255.592V255.431C267.776 254.926 267.872 254.475 268.063 254.079C268.258 253.68 268.528 253.369 268.874 253.146C269.223 252.92 269.6 252.806 270.005 252.806C270.668 252.806 271.183 253.025 271.551 253.461C271.918 253.898 272.102 254.523 272.102 255.337V255.7H268.648C268.66 256.203 268.806 256.61 269.086 256.921C269.369 257.229 269.727 257.383 270.161 257.383C270.468 257.383 270.729 257.32 270.943 257.194C271.157 257.068 271.344 256.902 271.504 256.695L272.036 257.109C271.609 257.766 270.968 258.094 270.113 258.094ZM270.005 253.523C269.653 253.523 269.358 253.652 269.119 253.909C268.88 254.164 268.733 254.522 268.676 254.984H271.23V254.918C271.205 254.475 271.086 254.132 270.872 253.89C270.659 253.645 270.37 253.523 270.005 253.523ZM275.697 258V253.575H274.891V252.901H275.697V252.378C275.697 251.831 275.843 251.408 276.136 251.11C276.428 250.811 276.841 250.662 277.375 250.662C277.576 250.662 277.776 250.689 277.974 250.742L277.926 251.449C277.779 251.421 277.622 251.407 277.455 251.407C277.172 251.407 276.954 251.49 276.8 251.656C276.646 251.82 276.569 252.055 276.569 252.363V252.901H277.658V253.575H276.569V258H275.697ZM278.272 255.403C278.272 254.904 278.37 254.454 278.565 254.055C278.763 253.656 279.036 253.348 279.385 253.132C279.737 252.915 280.137 252.806 280.586 252.806C281.281 252.806 281.842 253.047 282.269 253.527C282.699 254.008 282.915 254.648 282.915 255.446V255.507C282.915 256.003 282.819 256.449 282.627 256.845C282.439 257.238 282.167 257.544 281.812 257.764C281.46 257.984 281.055 258.094 280.596 258.094C279.905 258.094 279.344 257.854 278.913 257.373C278.486 256.892 278.272 256.256 278.272 255.464V255.403ZM279.149 255.507C279.149 256.072 279.279 256.526 279.54 256.869C279.804 257.211 280.156 257.383 280.596 257.383C281.039 257.383 281.391 257.21 281.652 256.864C281.912 256.515 282.043 256.028 282.043 255.403C282.043 254.844 281.909 254.392 281.642 254.046C281.378 253.697 281.026 253.523 280.586 253.523C280.156 253.523 279.809 253.694 279.545 254.036C279.281 254.379 279.149 254.869 279.149 255.507ZM286.352 253.683C286.22 253.661 286.077 253.65 285.923 253.65C285.351 253.65 284.963 253.894 284.759 254.381V258H283.887V252.901H284.736L284.75 253.49C285.036 253.034 285.441 252.806 285.966 252.806C286.135 252.806 286.264 252.828 286.352 252.872V253.683ZM289.08 255.403C289.08 254.904 289.177 254.454 289.372 254.055C289.57 253.656 289.843 253.348 290.192 253.132C290.544 252.915 290.945 252.806 291.394 252.806C292.088 252.806 292.649 253.047 293.076 253.527C293.507 254.008 293.722 254.648 293.722 255.446V255.507C293.722 256.003 293.626 256.449 293.435 256.845C293.246 257.238 292.974 257.544 292.619 257.764C292.267 257.984 291.862 258.094 291.403 258.094C290.712 258.094 290.151 257.854 289.721 257.373C289.294 256.892 289.08 256.256 289.08 255.464V255.403ZM289.957 255.507C289.957 256.072 290.087 256.526 290.348 256.869C290.612 257.211 290.964 257.383 291.403 257.383C291.846 257.383 292.198 257.21 292.459 256.864C292.72 256.515 292.85 256.028 292.85 255.403C292.85 254.844 292.717 254.392 292.45 254.046C292.186 253.697 291.834 253.523 291.394 253.523C290.964 253.523 290.616 253.694 290.352 254.036C290.088 254.379 289.957 254.869 289.957 255.507ZM295.52 252.901L295.548 253.542C295.937 253.051 296.446 252.806 297.075 252.806C298.153 252.806 298.696 253.414 298.706 254.63V258H297.834V254.626C297.831 254.258 297.746 253.986 297.579 253.81C297.416 253.634 297.16 253.546 296.811 253.546C296.528 253.546 296.28 253.622 296.066 253.773C295.853 253.923 295.686 254.121 295.567 254.366V258H294.695V252.901H295.52ZM300.847 258H299.975V250.761H300.847V258ZM303.794 256.723L304.982 252.901H305.915L303.865 258.787C303.548 259.635 303.044 260.06 302.352 260.06L302.187 260.045L301.862 259.984V259.277L302.098 259.296C302.393 259.296 302.623 259.236 302.786 259.117C302.952 258.998 303.089 258.779 303.196 258.462L303.389 257.943L301.57 252.901H302.522L303.794 256.723ZM146.643 268.639L146.096 269.209V271H145.224V263.761H146.096V268.139L146.563 267.578L148.151 265.901H149.211L147.227 268.031L149.442 271H148.419L146.643 268.639ZM152.456 266.683C152.324 266.661 152.181 266.65 152.027 266.65C151.455 266.65 151.067 266.894 150.863 267.381V271H149.991V265.901H150.839L150.853 266.49C151.139 266.034 151.544 265.806 152.069 265.806C152.239 265.806 152.368 265.828 152.456 265.872V266.683ZM155.725 267.56L156.074 264.138H159.59V264.944H156.814L156.607 266.815C156.943 266.617 157.325 266.518 157.752 266.518C158.377 266.518 158.874 266.725 159.241 267.14C159.609 267.552 159.793 268.109 159.793 268.813C159.793 269.52 159.601 270.078 159.218 270.486C158.837 270.892 158.305 271.094 157.62 271.094C157.014 271.094 156.519 270.926 156.135 270.59C155.752 270.254 155.534 269.789 155.48 269.195H156.305C156.358 269.588 156.498 269.885 156.724 270.086C156.951 270.284 157.249 270.383 157.62 270.383C158.025 270.383 158.343 270.244 158.572 269.968C158.804 269.691 158.921 269.31 158.921 268.823C158.921 268.364 158.795 267.996 158.544 267.72C158.295 267.44 157.964 267.3 157.549 267.3C157.169 267.3 156.871 267.384 156.654 267.55L156.423 267.739L155.725 267.56ZM163.965 267.984C163.783 268.201 163.565 268.375 163.31 268.507C163.059 268.639 162.782 268.705 162.481 268.705C162.085 268.705 161.739 268.607 161.444 268.413C161.152 268.218 160.926 267.944 160.765 267.593C160.605 267.238 160.525 266.846 160.525 266.419C160.525 265.96 160.611 265.547 160.784 265.18C160.96 264.812 161.208 264.531 161.529 264.336C161.849 264.141 162.223 264.044 162.65 264.044C163.329 264.044 163.863 264.298 164.253 264.807C164.646 265.313 164.842 266.004 164.842 266.881V267.135C164.842 268.471 164.578 269.446 164.05 270.062C163.522 270.675 162.726 270.989 161.661 271.005H161.491V270.27H161.675C162.394 270.257 162.947 270.07 163.334 269.709C163.72 269.344 163.931 268.769 163.965 267.984ZM162.622 267.984C162.914 267.984 163.183 267.894 163.428 267.715C163.676 267.536 163.857 267.315 163.97 267.051V266.702C163.97 266.13 163.846 265.665 163.598 265.307C163.349 264.949 163.035 264.77 162.655 264.77C162.272 264.77 161.964 264.917 161.731 265.213C161.499 265.505 161.383 265.891 161.383 266.372C161.383 266.84 161.494 267.227 161.717 267.531C161.943 267.833 162.245 267.984 162.622 267.984ZM169.264 267.984C169.082 268.201 168.864 268.375 168.609 268.507C168.358 268.639 168.082 268.705 167.78 268.705C167.384 268.705 167.038 268.607 166.743 268.413C166.451 268.218 166.225 267.944 166.064 267.593C165.904 267.238 165.824 266.846 165.824 266.419C165.824 265.96 165.91 265.547 166.083 265.18C166.259 264.812 166.507 264.531 166.828 264.336C167.148 264.141 167.522 264.044 167.95 264.044C168.628 264.044 169.162 264.298 169.552 264.807C169.945 265.313 170.141 266.004 170.141 266.881V267.135C170.141 268.471 169.877 269.446 169.349 270.062C168.821 270.675 168.025 270.989 166.96 271.005H166.79V270.27H166.974C167.694 270.257 168.246 270.07 168.633 269.709C169.019 269.344 169.23 268.769 169.264 267.984ZM167.921 267.984C168.213 267.984 168.482 267.894 168.727 267.715C168.975 267.536 169.156 267.315 169.269 267.051V266.702C169.269 266.13 169.145 265.665 168.897 265.307C168.649 264.949 168.334 264.77 167.954 264.77C167.571 264.77 167.263 264.917 167.031 265.213C166.798 265.505 166.682 265.891 166.682 266.372C166.682 266.84 166.793 267.227 167.016 267.531C167.243 267.833 167.544 267.984 167.921 267.984ZM171.283 272.367L170.789 272.027C171.084 271.616 171.238 271.192 171.25 270.755V269.968H172.104V270.651C172.104 270.969 172.025 271.286 171.868 271.603C171.714 271.921 171.519 272.175 171.283 272.367ZM174.9 268.441H172.6V267.729H174.9V268.441ZM181.054 271C181.004 270.899 180.963 270.72 180.932 270.463C180.526 270.884 180.043 271.094 179.48 271.094C178.977 271.094 178.564 270.953 178.241 270.67C177.92 270.384 177.76 270.023 177.76 269.586C177.76 269.055 177.961 268.644 178.363 268.351C178.768 268.056 179.337 267.908 180.069 267.908H180.918V267.508C180.918 267.203 180.826 266.961 180.644 266.782C180.462 266.6 180.193 266.509 179.838 266.509C179.527 266.509 179.266 266.587 179.056 266.744C178.845 266.901 178.74 267.091 178.74 267.315H177.864C177.864 267.06 177.953 266.815 178.132 266.579C178.314 266.341 178.56 266.152 178.867 266.014C179.178 265.876 179.519 265.806 179.89 265.806C180.478 265.806 180.938 265.954 181.271 266.249C181.604 266.542 181.777 266.945 181.789 267.461V269.808C181.789 270.276 181.849 270.648 181.969 270.925V271H181.054ZM179.607 270.335C179.881 270.335 180.14 270.265 180.385 270.123C180.63 269.982 180.808 269.798 180.918 269.572V268.526H180.234C179.166 268.526 178.632 268.838 178.632 269.464C178.632 269.737 178.723 269.951 178.905 270.105C179.087 270.259 179.321 270.335 179.607 270.335ZM184.643 269.817L185.906 265.901H186.796L184.968 271H184.303L182.456 265.901H183.347L184.643 269.817ZM191.456 269.723L192.644 265.901H193.577L191.527 271.787C191.21 272.635 190.706 273.06 190.014 273.06L189.849 273.045L189.524 272.984V272.277L189.76 272.296C190.055 272.296 190.285 272.236 190.448 272.117C190.614 271.998 190.751 271.779 190.858 271.462L191.051 270.943L189.232 265.901H190.184L191.456 269.723ZM196.289 271.094C195.598 271.094 195.035 270.868 194.602 270.416C194.168 269.96 193.951 269.352 193.951 268.592V268.431C193.951 267.926 194.047 267.475 194.239 267.079C194.434 266.68 194.704 266.369 195.05 266.146C195.398 265.92 195.775 265.806 196.181 265.806C196.844 265.806 197.359 266.025 197.726 266.461C198.094 266.898 198.278 267.523 198.278 268.337V268.7H194.823C194.836 269.203 194.982 269.61 195.262 269.921C195.544 270.229 195.903 270.383 196.336 270.383C196.644 270.383 196.905 270.32 197.119 270.194C197.332 270.068 197.519 269.902 197.679 269.695L198.212 270.109C197.785 270.766 197.144 271.094 196.289 271.094ZM196.181 266.523C195.829 266.523 195.533 266.652 195.295 266.909C195.056 267.164 194.908 267.522 194.852 267.984H197.406V267.918C197.381 267.475 197.261 267.132 197.048 266.89C196.834 266.645 196.545 266.523 196.181 266.523ZM202.319 271C202.268 270.899 202.228 270.72 202.196 270.463C201.791 270.884 201.307 271.094 200.745 271.094C200.242 271.094 199.829 270.953 199.505 270.67C199.185 270.384 199.024 270.023 199.024 269.586C199.024 269.055 199.225 268.644 199.628 268.351C200.033 268.056 200.602 267.908 201.334 267.908H202.182V267.508C202.182 267.203 202.091 266.961 201.909 266.782C201.726 266.6 201.458 266.509 201.103 266.509C200.792 266.509 200.531 266.587 200.32 266.744C200.11 266.901 200.005 267.091 200.005 267.315H199.128C199.128 267.06 199.218 266.815 199.397 266.579C199.579 266.341 199.824 266.152 200.132 266.014C200.443 265.876 200.784 265.806 201.155 265.806C201.742 265.806 202.202 265.954 202.535 266.249C202.869 266.542 203.041 266.945 203.054 267.461V269.808C203.054 270.276 203.114 270.648 203.233 270.925V271H202.319ZM200.872 270.335C201.145 270.335 201.404 270.265 201.649 270.123C201.895 269.982 202.072 269.798 202.182 269.572V268.526H201.499C200.43 268.526 199.896 268.838 199.896 269.464C199.896 269.737 199.987 269.951 200.17 270.105C200.352 270.259 200.586 270.335 200.872 270.335ZM206.765 266.683C206.633 266.661 206.49 266.65 206.336 266.65C205.764 266.65 205.376 266.894 205.172 267.381V271H204.3V265.901H205.148L205.162 266.49C205.448 266.034 205.854 265.806 206.378 265.806C206.548 265.806 206.677 265.828 206.765 265.872V266.683ZM206.885 270.543C206.885 270.392 206.929 270.266 207.017 270.166C207.108 270.065 207.243 270.015 207.422 270.015C207.601 270.015 207.736 270.065 207.827 270.166C207.921 270.266 207.969 270.392 207.969 270.543C207.969 270.687 207.921 270.808 207.827 270.906C207.736 271.003 207.601 271.052 207.422 271.052C207.243 271.052 207.108 271.003 207.017 270.906C206.929 270.808 206.885 270.687 206.885 270.543Z" fill="#444444"/>
<g filter="url(#filter3_b)">
<path fill-rule="evenodd" clip-rule="evenodd" d="M130.082 63.0813H356.3V119.787H130.082V63.0813Z" fill="#F9F9F9" fill-opacity="0.94"/>
</g>
<line opacity="0.3" x1="130.082" y1="119.938" x2="356.3" y2="119.938" stroke="black" stroke-width="0.301624"/>
<mask id="mask0" mask-type="alpha" maskUnits="userSpaceOnUse" x="136" y="92" width="215" height="22">
<path fill-rule="evenodd" clip-rule="evenodd" d="M136.114 98.0696C136.114 94.7379 138.815 92.0371 142.147 92.0371H344.017C347.348 92.0371 350.049 94.7379 350.049 98.0696V107.722C350.049 111.053 347.348 113.754 344.017 113.754H142.147C138.815 113.754 136.114 111.053 136.114 107.722V98.0696Z" fill="white"/>
</mask>
<g mask="url(#mask0)">
<path fill-rule="evenodd" clip-rule="evenodd" d="M136.114 101.689C136.114 98.3106 136.114 96.6213 136.772 95.3309C137.35 94.1958 138.273 93.273 139.408 92.6946C140.698 92.0371 142.388 92.0371 145.766 92.0371H340.397C343.776 92.0371 345.465 92.0371 346.756 92.6946C347.891 93.273 348.813 94.1958 349.392 95.3309C350.049 96.6213 350.049 98.3106 350.049 101.689V104.102C350.049 107.481 350.049 109.17 349.392 110.46C348.813 111.595 347.891 112.518 346.756 113.097C345.465 113.754 343.776 113.754 340.397 113.754H145.766C142.388 113.754 140.698 113.754 139.408 113.097C138.273 112.518 137.35 111.595 136.772 110.46C136.114 109.17 136.114 107.481 136.114 104.102V101.689Z" fill="#767680" fill-opacity="0.12"/>
<path d="M147.68 106.547C147.93 106.547 148.056 106.447 148.156 106.171L148.797 104.398H151.751L152.397 106.171C152.492 106.447 152.622 106.547 152.873 106.547C153.143 106.547 153.318 106.386 153.318 106.136C153.318 106.051 153.303 105.976 153.268 105.866L150.915 99.6164C150.8 99.3059 150.594 99.1557 150.279 99.1557C149.963 99.1557 149.758 99.3059 149.648 99.6114L147.294 105.871C147.254 105.981 147.239 106.056 147.239 106.141C147.239 106.391 147.41 106.547 147.68 106.547ZM149.042 103.632L150.259 100.262H150.289L151.501 103.632H149.042ZM142.642 106.547C142.848 106.547 142.988 106.447 143.073 106.186L143.474 105.029H145.306L145.707 106.186C145.802 106.452 145.942 106.547 146.143 106.547C146.398 106.547 146.573 106.386 146.573 106.151C146.573 106.066 146.553 105.976 146.508 105.851L145.016 101.885C144.911 101.594 144.706 101.409 144.385 101.409C144.08 101.409 143.879 101.594 143.774 101.885L142.277 105.851C142.227 105.976 142.217 106.066 142.217 106.151C142.217 106.386 142.387 106.547 142.642 106.547ZM143.699 104.348L144.36 102.396H144.425L145.086 104.348H143.699Z" fill="black"/>
<path d="M340.199 102.468C340.324 102.468 340.419 102.428 340.489 102.353L342.552 100.28C342.643 100.194 342.678 100.094 342.678 99.9791C342.678 99.8689 342.633 99.7587 342.552 99.6786L340.489 97.5855C340.419 97.5054 340.319 97.4653 340.199 97.4653C339.974 97.4653 339.803 97.6456 339.803 97.8759C339.803 97.9811 339.843 98.0812 339.914 98.1614L341.251 99.4733C340.965 99.4232 340.675 99.3932 340.384 99.3932C337.931 99.3932 335.958 101.361 335.958 103.815C335.958 106.273 337.931 108.246 340.384 108.246C342.838 108.246 344.806 106.273 344.806 103.815C344.806 103.574 344.636 103.399 344.39 103.399C344.155 103.399 344 103.574 344 103.815C344 105.828 342.392 107.44 340.384 107.44C338.376 107.44 336.764 105.828 336.764 103.815C336.764 101.807 338.376 100.199 340.384 100.199C340.765 100.199 341.115 100.229 341.416 100.295L339.919 101.782C339.843 101.862 339.803 101.962 339.803 102.067C339.803 102.297 339.974 102.468 340.199 102.468Z" fill="black"/>
<path d="M208.25 107.651H212.456C213.026 107.651 213.305 107.368 213.305 106.75V103.506C213.305 102.95 213.075 102.663 212.602 102.614V101.501C212.602 99.8348 211.511 99.0307 210.353 99.0307C209.196 99.0307 208.104 99.8348 208.104 101.501V102.636C207.671 102.702 207.402 102.985 207.402 103.506V106.75C207.402 107.368 207.68 107.651 208.25 107.651ZM208.816 101.408C208.816 100.299 209.527 99.7111 210.353 99.7111C211.18 99.7111 211.891 100.299 211.891 101.408V102.61L208.816 102.614V101.408ZM218.409 106.657H219.27V103.312C219.27 102.551 219.816 101.94 220.522 101.94C221.203 101.94 221.649 102.35 221.649 102.991V106.657H222.51V103.187C222.51 102.501 223.011 101.94 223.762 101.94C224.523 101.94 224.899 102.33 224.899 103.126V106.657H225.76V102.926C225.76 101.795 225.144 101.164 224.043 101.164C223.296 101.164 222.681 101.539 222.39 102.11H222.31C222.06 101.549 221.549 101.164 220.818 101.164C220.097 101.164 219.556 101.509 219.311 102.11H219.23V101.259H218.409V106.657ZM228.587 106.752C229.308 106.752 229.899 106.436 230.25 105.861H230.33V106.657H231.151V102.961C231.151 101.84 230.415 101.164 229.098 101.164C227.946 101.164 227.095 101.734 226.98 102.601H227.851C227.971 102.175 228.422 101.93 229.068 101.93C229.874 101.93 230.29 102.295 230.29 102.961V103.452L228.733 103.547C227.476 103.622 226.765 104.178 226.765 105.144C226.765 106.131 227.541 106.752 228.587 106.752ZM228.748 105.996C228.122 105.996 227.656 105.675 227.656 105.124C227.656 104.584 228.016 104.298 228.838 104.243L230.29 104.148V104.644C230.29 105.415 229.634 105.996 228.748 105.996ZM234.719 108.73C236.192 108.73 237.123 107.959 237.123 106.752V101.259H236.302V102.115H236.222C235.911 101.534 235.245 101.164 234.489 101.164C233.102 101.164 232.226 102.26 232.226 103.878C232.226 105.495 233.092 106.577 234.489 106.577C235.23 106.577 235.841 106.241 236.182 105.645H236.262V106.707C236.262 107.503 235.686 107.979 234.719 107.979C233.943 107.979 233.463 107.693 233.367 107.253H232.456C232.586 108.144 233.418 108.73 234.719 108.73ZM234.679 105.815C233.678 105.815 233.117 105.054 233.117 103.878C233.117 102.701 233.678 101.94 234.679 101.94C235.676 101.94 236.282 102.701 236.282 103.878C236.282 105.054 235.681 105.815 234.679 105.815ZM240 106.752C240.721 106.752 241.312 106.436 241.663 105.861H241.743V106.657H242.564V102.961C242.564 101.84 241.828 101.164 240.511 101.164C239.359 101.164 238.508 101.734 238.393 102.601H239.264C239.384 102.175 239.835 101.93 240.481 101.93C241.287 101.93 241.703 102.295 241.703 102.961V103.452L240.146 103.547C238.889 103.622 238.178 104.178 238.178 105.144C238.178 106.131 238.954 106.752 240 106.752ZM240.161 105.996C239.535 105.996 239.069 105.675 239.069 105.124C239.069 104.584 239.429 104.298 240.251 104.243L241.703 104.148V104.644C241.703 105.415 241.047 105.996 240.161 105.996ZM243.784 102.736C243.784 103.517 244.245 103.953 245.256 104.198L246.183 104.423C246.758 104.564 247.039 104.814 247.039 105.185C247.039 105.68 246.518 106.026 245.792 106.026C245.101 106.026 244.67 105.735 244.525 105.28H243.639C243.734 106.176 244.56 106.752 245.762 106.752C246.989 106.752 247.925 106.086 247.925 105.119C247.925 104.343 247.434 103.903 246.418 103.657L245.587 103.457C244.951 103.302 244.65 103.071 244.65 102.701C244.65 102.22 245.151 101.895 245.792 101.895C246.443 101.895 246.864 102.18 246.979 102.611H247.83C247.715 101.724 246.929 101.164 245.797 101.164C244.65 101.164 243.784 101.84 243.784 102.736ZM249.48 100.217C249.811 100.217 250.081 99.9468 250.081 99.6163C250.081 99.2858 249.811 99.0154 249.48 99.0154C249.15 99.0154 248.88 99.2858 248.88 99.6163C248.88 99.9468 249.15 100.217 249.48 100.217ZM249.05 106.657H249.911V101.259H249.05V106.657ZM251.306 106.657H252.168V103.462C252.168 102.516 252.723 101.94 253.585 101.94C254.446 101.94 254.856 102.4 254.856 103.372V106.657H255.718V103.162C255.718 101.88 255.042 101.164 253.83 101.164C253.004 101.164 252.478 101.514 252.208 102.11H252.127V101.259H251.306V106.657ZM260.623 105.26C260.398 105.735 259.927 105.991 259.231 105.991C258.315 105.991 257.719 105.315 257.674 104.248V104.208H261.554V103.878C261.554 102.2 260.668 101.164 259.211 101.164C257.729 101.164 256.777 102.265 256.777 103.963C256.777 105.67 257.714 106.752 259.211 106.752C260.393 106.752 261.234 106.181 261.484 105.26H260.623ZM259.201 101.925C260.057 101.925 260.628 102.556 260.648 103.512H257.674C257.739 102.556 258.34 101.925 259.201 101.925ZM263.02 99.8617V101.259H262.148V101.98H263.02V105.255C263.02 106.286 263.465 106.697 264.577 106.697C264.747 106.697 264.912 106.677 265.083 106.647V105.921C264.923 105.936 264.837 105.941 264.682 105.941C264.121 105.941 263.881 105.67 263.881 105.034V101.98H265.083V101.259H263.881V99.8617H263.02ZM266.848 106.707C267.209 106.707 267.499 106.411 267.499 106.056C267.499 105.695 267.209 105.405 266.848 105.405C266.493 105.405 266.197 105.695 266.197 106.056C266.197 106.411 266.493 106.707 266.848 106.707ZM268.935 106.657H269.796V103.462C269.796 102.516 270.352 101.94 271.213 101.94C272.074 101.94 272.485 102.4 272.485 103.372V106.657H273.346V103.162C273.346 101.88 272.67 101.164 271.458 101.164C270.632 101.164 270.106 101.514 269.836 102.11H269.756V101.259H268.935V106.657ZM276.894 106.752C278.432 106.752 279.383 105.69 279.383 103.958C279.383 102.22 278.432 101.164 276.894 101.164C275.357 101.164 274.406 102.22 274.406 103.958C274.406 105.69 275.357 106.752 276.894 106.752ZM276.894 105.976C275.873 105.976 275.297 105.235 275.297 103.958C275.297 102.676 275.873 101.94 276.894 101.94C277.916 101.94 278.492 102.676 278.492 103.958C278.492 105.235 277.916 105.976 276.894 105.976Z" fill="black"/>
</g>
<path opacity="0.35" d="M334.382 73.8392H344.436C345.158 73.8392 345.743 74.4244 345.743 75.1463V78.7657C345.743 79.4876 345.158 80.0728 344.436 80.0728H334.382C333.66 80.0728 333.075 79.4876 333.075 78.7657V75.1463C333.075 74.4244 333.66 73.8392 334.382 73.8392Z" stroke="black" stroke-width="0.603248"/>
<path opacity="0.4" d="M346.647 75.7495V78.1625C347.133 77.9581 347.449 77.4827 347.449 76.956C347.449 76.4293 347.133 75.9539 346.647 75.7495" fill="black"/>
<path d="M333.979 75.5485C333.979 75.1043 334.34 74.7441 334.784 74.7441H344.034C344.478 74.7441 344.838 75.1043 344.838 75.5485V78.3636C344.838 78.8079 344.478 79.168 344.034 79.168H334.784C334.34 79.168 333.979 78.8078 333.979 78.3636V75.5485Z" fill="black"/>
<path fill-rule="evenodd" clip-rule="evenodd" d="M325.13 74.9097C326.466 74.9097 327.752 75.4234 328.721 76.3444C328.794 76.4155 328.91 76.4146 328.982 76.3424L329.68 75.6386C329.716 75.602 329.736 75.5524 329.736 75.5007C329.736 75.4491 329.715 75.3997 329.678 75.3635C327.135 72.9267 323.124 72.9267 320.581 75.3635C320.544 75.3997 320.523 75.4491 320.523 75.5007C320.523 75.5523 320.543 75.6019 320.579 75.6386L321.277 76.3424C321.349 76.4147 321.465 76.4156 321.538 76.3444C322.507 75.4233 323.793 74.9097 325.13 74.9097ZM325.13 77.1994C325.864 77.1993 326.573 77.4723 327.117 77.9653C327.191 78.0352 327.307 78.0337 327.378 77.9619L328.075 77.2581C328.112 77.2212 328.132 77.1711 328.131 77.119C328.131 77.067 328.11 77.0173 328.072 76.9812C326.414 75.439 323.847 75.439 322.189 76.9812C322.152 77.0173 322.13 77.067 322.13 77.1191C322.129 77.1711 322.15 77.2212 322.186 77.2581L322.883 77.9619C322.955 78.0337 323.071 78.0352 323.144 77.9653C323.688 77.4726 324.396 77.1997 325.13 77.1994ZM326.525 78.7399C326.526 78.7921 326.506 78.8424 326.469 78.879L325.264 80.0949C325.228 80.1307 325.18 80.1508 325.13 80.1508C325.08 80.1508 325.032 80.1307 324.996 80.0949L323.791 78.879C323.754 78.8424 323.733 78.7921 323.735 78.7399C323.736 78.6877 323.758 78.6383 323.797 78.6033C324.566 77.9525 325.693 77.9525 326.463 78.6033C326.502 78.6383 326.524 78.6878 326.525 78.7399Z" fill="black"/>
<path fill-rule="evenodd" clip-rule="evenodd" d="M316.887 73.7388H316.284C315.951 73.7388 315.681 74.0089 315.681 74.342V79.5702C315.681 79.9033 315.951 80.1734 316.284 80.1734H316.887C317.22 80.1734 317.491 79.9033 317.491 79.5702V74.342C317.491 74.0089 317.22 73.7388 316.887 73.7388ZM313.469 75.1463H314.072C314.405 75.1463 314.675 75.4164 314.675 75.7495V79.5701C314.675 79.9033 314.405 80.1734 314.072 80.1734H313.469C313.136 80.1734 312.865 79.9033 312.865 79.5701V75.7495C312.865 75.4164 313.136 75.1463 313.469 75.1463ZM311.257 76.554H310.654C310.32 76.554 310.05 76.8241 310.05 77.1572V79.5702C310.05 79.9034 310.32 80.1735 310.654 80.1735H311.257C311.59 80.1735 311.86 79.9034 311.86 79.5702V77.1572C311.86 76.8241 311.59 76.554 311.257 76.554ZM308.442 77.7605H307.839C307.505 77.7605 307.235 78.0306 307.235 78.3637V79.5702C307.235 79.9034 307.505 80.1735 307.839 80.1735H308.442C308.775 80.1735 309.045 79.9034 309.045 79.5702V78.3637C309.045 78.0306 308.775 77.7605 308.442 77.7605Z" fill="black"/>
<path d="M148.575 79.9236H149.715V73.5479H148.58L146.914 74.7188V75.7925L148.5 74.6702H148.575V79.9236ZM152.849 77.0782H153.649C154.435 77.0782 154.912 77.4714 154.912 78.1121C154.912 78.7306 154.395 79.146 153.662 79.146C152.924 79.146 152.425 78.766 152.376 78.1739H151.285C151.338 79.3271 152.288 80.0826 153.675 80.0826C155.054 80.0826 156.079 79.2873 156.079 78.1916C156.079 77.3212 155.535 76.7601 154.669 76.6275V76.5524C155.345 76.3713 155.827 75.8631 155.831 75.0944C155.836 74.1798 155.071 73.3889 153.715 73.3889C152.332 73.3889 151.466 74.1709 151.409 75.2888H152.478C152.526 74.6525 152.959 74.2991 153.653 74.2991C154.329 74.2991 154.731 74.7144 154.731 75.2402C154.731 75.819 154.28 76.2254 153.627 76.2254H152.849V77.0782ZM157.98 75.7969C158.399 75.7969 158.687 75.5053 158.687 75.112C158.687 74.7188 158.399 74.4272 157.98 74.4272C157.564 74.4272 157.273 74.7188 157.273 75.112C157.273 75.5053 157.564 75.7969 157.98 75.7969ZM157.98 79.0399C158.399 79.0399 158.687 78.7439 158.687 78.3551C158.687 77.9618 158.399 77.6702 157.98 77.6702C157.564 77.6702 157.273 77.9618 157.273 78.3551C157.273 78.7439 157.564 79.0399 157.98 79.0399ZM161.529 79.9236H162.668V73.5479H161.533L159.867 74.7188V75.7925L161.453 74.6702H161.529V79.9236ZM164.273 75.4346H165.343C165.343 74.763 165.784 74.3035 166.478 74.3035C167.145 74.3035 167.543 74.7497 167.543 75.3285C167.543 75.8145 167.348 76.1194 166.544 76.9324L164.335 79.1548V79.9236H168.762V78.9781H165.882V78.903L167.251 77.5554C168.347 76.4817 168.67 75.9648 168.67 75.2225C168.67 74.1621 167.808 73.3889 166.54 73.3889C165.21 73.3889 164.273 74.2284 164.273 75.4346Z" fill="black"/>
<g filter="url(#filter4_b)">
<path fill-rule="evenodd" clip-rule="evenodd" d="M130.082 502.849H356.3V552.919H130.082V502.849Z" fill="#F9F9F9" fill-opacity="0.94"/>
</g>
<line opacity="0.3" x1="130.082" y1="502.699" x2="356.3" y2="502.699" stroke="black" stroke-width="0.301624"/>
<path fill-rule="evenodd" clip-rule="evenodd" d="M202.664 546.515C202.664 545.682 203.339 545.007 204.172 545.007H281.991C282.824 545.007 283.499 545.682 283.499 546.515V546.515C283.499 547.348 282.824 548.023 281.991 548.023H204.172C203.339 548.023 202.664 547.348 202.664 546.515V546.515Z" fill="black"/>
<path d="M332.934 519.981H334.132V521.096C334.132 522.431 334.813 523.104 336.167 523.104H343.088C344.443 523.104 345.123 522.431 345.123 521.096V514.207C345.123 512.879 344.443 512.205 343.088 512.205H341.889V511.155C341.889 509.82 341.202 509.146 339.855 509.146H332.934C331.573 509.146 330.899 509.82 330.899 511.155V517.979C330.899 519.314 331.573 519.981 332.934 519.981ZM332.947 518.938C332.299 518.938 331.942 518.594 331.942 517.92V511.213C331.942 510.539 332.299 510.189 332.947 510.189H339.835C340.477 510.189 340.846 510.539 340.846 511.213V512.205H336.167C334.813 512.205 334.132 512.872 334.132 514.207V518.938H332.947ZM336.187 522.061C335.539 522.061 335.176 521.711 335.176 521.037V514.265C335.176 513.592 335.539 513.248 336.187 513.248H343.075C343.717 513.248 344.08 513.592 344.08 514.265V521.044C344.08 521.711 343.717 522.061 343.075 522.061H336.187Z" fill="#007AFF"/>
<path d="M290.397 511.609C289.905 510.986 288.68 510.436 287.313 510.436C285.518 510.436 284.066 511.362 283.71 512.231V521.284C283.71 521.776 284.027 521.964 284.384 521.964C284.662 521.964 284.831 521.88 285.006 521.744C285.375 521.426 286.12 520.998 287.313 520.998C288.512 520.998 289.348 521.413 289.672 521.705C289.84 521.841 290.041 521.964 290.397 521.964C290.754 521.964 290.955 521.828 291.123 521.705C291.473 521.433 292.29 520.998 293.482 520.998C294.681 520.998 295.426 521.433 295.795 521.744C295.97 521.88 296.132 521.964 296.411 521.964C296.767 521.964 297.091 521.776 297.091 521.284V512.231C296.735 511.362 295.277 510.436 293.482 510.436C292.121 510.436 290.896 510.986 290.397 511.609ZM284.753 512.542C284.902 512.14 285.842 511.414 287.313 511.414C288.79 511.414 289.749 512.146 289.879 512.542V520.739C289.263 520.279 288.324 520.02 287.313 520.02C286.308 520.02 285.369 520.279 284.753 520.765V512.542ZM296.048 512.542V520.765C295.426 520.279 294.493 520.02 293.482 520.02C292.471 520.02 291.538 520.279 290.922 520.739V512.542C291.052 512.146 292.011 511.414 293.482 511.414C294.959 511.414 295.899 512.14 296.048 512.542Z" fill="#007AFF"/>
<path d="M243.395 517.933C243.674 517.933 243.907 517.7 243.907 517.428V510.773L243.869 509.801L244.303 510.261L245.288 511.311C245.378 511.414 245.515 511.466 245.638 511.466C245.903 511.466 246.111 511.272 246.111 511.006C246.111 510.87 246.052 510.766 245.955 510.669L243.765 508.556C243.635 508.427 243.525 508.381 243.395 508.381C243.259 508.381 243.149 508.427 243.02 508.556L240.829 510.669C240.732 510.766 240.674 510.87 240.674 511.006C240.674 511.272 240.868 511.466 241.14 511.466C241.263 511.466 241.406 511.414 241.497 511.311L242.482 510.261L242.916 509.801L242.877 510.773V517.428C242.877 517.7 243.117 517.933 243.395 517.933ZM239.676 523.007H247.109C248.463 523.007 249.143 522.333 249.143 520.998V514.531C249.143 513.196 248.463 512.522 247.109 512.522H245.301V513.566H247.089C247.731 513.566 248.1 513.916 248.1 514.589V520.94C248.1 521.614 247.731 521.964 247.089 521.964H239.689C239.041 521.964 238.684 521.614 238.684 520.94V514.589C238.684 513.916 239.041 513.566 239.689 513.566H241.484V512.522H239.676C238.321 512.522 237.641 513.196 237.641 514.531V520.998C237.641 522.333 238.321 523.007 239.676 523.007Z" fill="#007AFF"/>
<path d="M193.206 521.802C193.374 521.802 193.517 521.737 193.627 521.627L198.766 516.605C198.889 516.482 198.954 516.333 198.954 516.171C198.954 516.002 198.889 515.847 198.766 515.736L193.634 510.721C193.517 510.604 193.374 510.539 193.206 510.539C192.869 510.539 192.616 510.799 192.616 511.136C192.616 511.291 192.681 511.447 192.785 511.557L197.502 516.171L192.785 520.785C192.681 520.895 192.616 521.044 192.616 521.206C192.616 521.543 192.869 521.802 193.206 521.802Z" fill="#CBCBCB"/>
<path d="M150.332 521.621C150.442 521.731 150.585 521.795 150.753 521.795C151.09 521.795 151.343 521.543 151.343 521.206C151.343 521.044 151.278 520.895 151.175 520.785L146.457 516.171L151.175 511.557C151.278 511.447 151.343 511.291 151.343 511.136C151.343 510.799 151.09 510.539 150.753 510.539C150.585 510.539 150.442 510.604 150.332 510.714L145.2 515.736C145.077 515.84 145.005 516.002 145.005 516.171C145.005 516.333 145.07 516.482 145.193 516.605L150.332 521.621Z" fill="#007AFF"/>
</g>
</g>
<path fill-rule="evenodd" clip-rule="evenodd" d="M130.082 94.3537C130.082 83.178 130.082 77.5901 132.325 73.3524C134.136 69.9325 136.933 67.1358 140.353 65.3251C144.59 63.0813 150.178 63.0813 161.354 63.0813H130.082V94.3537ZM130.082 521.646V552.919H161.354C150.178 552.919 144.59 552.919 140.353 550.675C136.933 548.864 134.136 546.068 132.325 542.648C130.082 538.41 130.082 532.822 130.082 521.646ZM325.027 552.919H356.3V521.646C356.3 532.822 356.3 538.41 354.056 542.648C352.245 546.068 349.448 548.864 346.029 550.675C341.791 552.919 336.203 552.919 325.027 552.919ZM356.3 94.3537V63.0813H325.027C336.203 63.0813 341.791 63.0813 346.029 65.3251C349.448 67.1358 352.245 69.9325 354.056 73.3524C356.3 77.5901 356.3 83.178 356.3 94.3537ZM309.85 63.0813H305.627H180.754H176.532C178.864 63.0813 180.754 64.2878 180.754 66.0975V63.0813C180.754 67.5707 180.754 69.8154 181.292 71.6463C182.564 75.9798 185.953 79.3687 190.287 80.6412C192.118 81.1787 194.362 81.1787 198.852 81.1787H287.529C292.019 81.1787 294.263 81.1787 296.094 80.6412C300.428 79.3687 303.817 75.9798 305.089 71.6463C305.627 69.8154 305.627 67.5707 305.627 63.0813V66.0975C305.627 64.2878 307.517 63.0813 309.85 63.0813Z" fill="white"/>
<rect x="213" y="64.5171" width="42.4774" height="5.46138" rx="2.73069" fill="#F0F3F5"/>
<path d="M268.524 71.4955C270.87 71.4955 272.772 69.5937 272.772 67.2477C272.772 64.9018 270.87 63 268.524 63C266.178 63 264.276 64.9018 264.276 67.2477C264.276 69.5937 266.178 71.4955 268.524 71.4955Z" fill="#F0F3F5"/>
<defs>
<filter id="filter0_di" x="112.587" y="42.0034" width="264.79" height="529.616" filterUnits="userSpaceOnUse" color-interpolation-filters="sRGB">
<feFlood flood-opacity="0" result="BackgroundImageFix"/>
<feColorMatrix in="SourceAlpha" type="matrix" values="0 0 0 0 0 0 0 0 0 0 0 0 0 0 0 0 0 0 127 0"/>
<feOffset dy="1.2065"/>
<feGaussianBlur stdDeviation="1.2065"/>
<feColorMatrix type="matrix" values="0 0 0 0 0 0 0 0 0 0 0 0 0 0 0 0 0 0 0.25 0"/>
<feBlend mode="normal" in2="BackgroundImageFix" result="effect1_dropShadow"/>
<feBlend mode="normal" in="SourceGraphic" in2="effect1_dropShadow" result="shape"/>
<feColorMatrix in="SourceAlpha" type="matrix" values="0 0 0 0 0 0 0 0 0 0 0 0 0 0 0 0 0 0 127 0" result="hardAlpha"/>
<feOffset dx="10.2799" dy="-8.85216"/>
<feGaussianBlur stdDeviation="2.99831"/>
<feComposite in2="hardAlpha" operator="arithmetic" k2="-1" k3="1"/>
<feColorMatrix type="matrix" values="0 0 0 0 1 0 0 0 0 1 0 0 0 0 1 0 0 0 0.05 0"/>
<feBlend mode="normal" in2="shape" result="effect2_innerShadow"/>
</filter>
<filter id="filter1_dd" x="127.669" y="117.977" width="231.044" height="49.4664" filterUnits="userSpaceOnUse" color-interpolation-filters="sRGB">
<feFlood flood-opacity="0" result="BackgroundImageFix"/>
<feColorMatrix in="SourceAlpha" type="matrix" values="0 0 0 0 0 0 0 0 0 0 0 0 0 0 0 0 0 0 127 0"/>
<feOffset dy="0.603248"/>
<feGaussianBlur stdDeviation="1.2065"/>
<feColorMatrix type="matrix" values="0 0 0 0 0.0862745 0 0 0 0 0.0705882 0 0 0 0 0.145098 0 0 0 0.17 0"/>
<feBlend mode="normal" in2="BackgroundImageFix" result="effect1_dropShadow"/>
<feColorMatrix in="SourceAlpha" type="matrix" values="0 0 0 0 0 0 0 0 0 0 0 0 0 0 0 0 0 0 127 0"/>
<feOffset dy="0.603248"/>
<feGaussianBlur stdDeviation="0.301624"/>
<feColorMatrix type="matrix" values="0 0 0 0 0.0862745 0 0 0 0 0.0705882 0 0 0 0 0.145098 0 0 0 0.0498188 0"/>
<feBlend mode="normal" in2="effect1_dropShadow" result="effect2_dropShadow"/>
<feBlend mode="normal" in="SourceGraphic" in2="effect2_dropShadow" result="shape"/>
</filter>
<filter id="filter2_d" x="143.353" y="367.118" width="199.675" height="28.9559" filterUnits="userSpaceOnUse" color-interpolation-filters="sRGB">
<feFlood flood-opacity="0" result="BackgroundImageFix"/>
<feColorMatrix in="SourceAlpha" type="matrix" values="0 0 0 0 0 0 0 0 0 0 0 0 0 0 0 0 0 0 127 0"/>
<feOffset dy="0.603248"/>
<feGaussianBlur stdDeviation="0.603248"/>
<feColorMatrix type="matrix" values="0 0 0 0 0.0862745 0 0 0 0 0.0705882 0 0 0 0 0.145098 0 0 0 0.07 0"/>
<feBlend mode="normal" in2="BackgroundImageFix" result="effect1_dropShadow"/>
<feBlend mode="normal" in="SourceGraphic" in2="effect1_dropShadow" result="shape"/>
</filter>
<filter id="filter3_b" x="118.017" y="51.0163" width="250.348" height="80.8353" filterUnits="userSpaceOnUse" color-interpolation-filters="sRGB">
<feFlood flood-opacity="0" result="BackgroundImageFix"/>
<feGaussianBlur in="BackgroundImage" stdDeviation="6.03248"/>
<feComposite in2="SourceAlpha" operator="in" result="effect1_backgroundBlur"/>
<feBlend mode="normal" in="SourceGraphic" in2="effect1_backgroundBlur" result="shape"/>
</filter>
<filter id="filter4_b" x="118.017" y="490.784" width="250.348" height="74.1995" filterUnits="userSpaceOnUse" color-interpolation-filters="sRGB">
<feFlood flood-opacity="0" result="BackgroundImageFix"/>
<feGaussianBlur in="BackgroundImage" stdDeviation="6.03248"/>
<feComposite in2="SourceAlpha" operator="in" result="effect1_backgroundBlur"/>
<feBlend mode="normal" in="SourceGraphic" in2="effect1_backgroundBlur" result="shape"/>
</filter>
<clipPath id="clip0">
<rect width="226.218" height="489.838" fill="white" transform="translate(130.082 63.0813)"/>
</clipPath>
<clipPath id="clip1">
<rect width="226.218" height="489.838" fill="white" transform="translate(130.082 63.0813)"/>
</clipPath>
</defs>
</svg>
