<svg width="487" height="616" viewBox="0 0 487 616" fill="none" xmlns="http://www.w3.org/2000/svg">
<rect width="486.381" height="616" rx="1" fill="#FFF4EC"/>
<g filter="url(#filter0_di)">
<rect x="115" y="48" width="256.381" height="520" rx="30.1624" fill="white"/>
</g>
<g clip-path="url(#clip0)">
<rect width="226.218" height="489.838" transform="translate(130.081 63.0813)" fill="#938FA8"/>
<g clip-path="url(#clip1)">
<rect width="226.218" height="489.838" transform="translate(130.081 63.0813)" fill="white"/>
<g filter="url(#filter1_dd)">
<rect x="130.081" y="119.787" width="226.218" height="44.6404" fill="white"/>
</g>
<path fill-rule="evenodd" clip-rule="evenodd" d="M172.508 133.058C171.731 133.058 171.102 133.687 171.102 134.464V147.132C171.102 147.908 171.731 148.537 172.508 148.537H177.08L178.341 149.792C178.472 149.925 178.652 150 178.839 150C179.026 150 179.205 149.925 179.336 149.792L180.597 148.531H185.17C185.946 148.531 186.575 147.902 186.575 147.126V134.458C186.572 133.684 185.944 133.058 185.17 133.058H172.508ZM175.723 137.281H181.96C182.276 137.28 182.538 137.522 182.564 137.836L183.064 143.868C183.078 144.036 183.02 144.203 182.906 144.326C182.791 144.45 182.63 144.52 182.461 144.52H175.222C175.053 144.52 174.892 144.45 174.777 144.326C174.663 144.203 174.605 144.036 174.619 143.868L175.119 137.836C175.145 137.522 175.408 137.28 175.723 137.281ZM176.429 139.091C176.429 138.757 176.699 138.487 177.032 138.487C177.365 138.487 177.635 138.757 177.635 139.091V139.694C177.635 140.36 178.175 140.9 178.842 140.9C179.508 140.9 180.048 140.36 180.048 139.694V139.091C180.048 138.757 180.318 138.487 180.651 138.487C180.985 138.487 181.255 138.757 181.255 139.091V139.694C181.255 141.026 180.174 142.107 178.842 142.107C177.509 142.107 176.429 141.026 176.429 139.694V139.091Z" fill="#6770E0"/>
<path d="M195.623 137.29L198.097 143.865L200.566 137.29H202.492V145.868H201.007V143.04L201.155 139.258L198.622 145.868H197.555L195.028 139.264L195.175 143.04V145.868H193.691V137.29H195.623ZM207.93 145.868C207.867 145.746 207.812 145.548 207.765 145.273C207.309 145.748 206.751 145.986 206.091 145.986C205.451 145.986 204.929 145.803 204.524 145.438C204.12 145.073 203.918 144.621 203.918 144.083C203.918 143.403 204.169 142.883 204.672 142.522C205.178 142.157 205.901 141.974 206.84 141.974H207.717V141.556C207.717 141.226 207.625 140.963 207.441 140.766C207.256 140.566 206.975 140.466 206.598 140.466C206.272 140.466 206.005 140.548 205.797 140.713C205.589 140.874 205.485 141.08 205.485 141.332H204.053C204.053 140.982 204.169 140.656 204.401 140.354C204.632 140.048 204.947 139.808 205.343 139.635C205.744 139.462 206.19 139.376 206.681 139.376C207.427 139.376 208.022 139.564 208.466 139.941C208.909 140.315 209.137 140.841 209.149 141.52V144.395C209.149 144.969 209.229 145.426 209.391 145.768V145.868H207.93ZM206.357 144.837C206.639 144.837 206.904 144.768 207.152 144.631C207.403 144.493 207.592 144.309 207.717 144.077V142.875H206.946C206.415 142.875 206.017 142.968 205.75 143.152C205.483 143.337 205.349 143.598 205.349 143.936C205.349 144.211 205.44 144.43 205.62 144.595C205.805 144.756 206.05 144.837 206.357 144.837ZM210.398 142.634C210.398 141.644 210.63 140.855 211.093 140.265C211.56 139.672 212.179 139.376 212.949 139.376C213.675 139.376 214.247 139.629 214.663 140.136L214.728 139.494H216.018V145.674C216.018 146.51 215.757 147.17 215.234 147.653C214.716 148.136 214.015 148.378 213.131 148.378C212.664 148.378 212.206 148.279 211.759 148.083C211.315 147.891 210.977 147.637 210.745 147.323L211.423 146.463C211.863 146.985 212.405 147.246 213.049 147.246C213.524 147.246 213.899 147.117 214.174 146.858C214.449 146.602 214.586 146.225 214.586 145.727V145.296C214.174 145.756 213.624 145.986 212.937 145.986C212.191 145.986 211.58 145.689 211.105 145.096C210.634 144.503 210.398 143.682 210.398 142.634ZM211.824 142.757C211.824 143.398 211.953 143.902 212.212 144.271C212.475 144.637 212.839 144.819 213.302 144.819C213.88 144.819 214.308 144.572 214.586 144.077V141.273C214.315 140.79 213.891 140.548 213.314 140.548C212.843 140.548 212.475 140.735 212.212 141.108C211.953 141.481 211.824 142.031 211.824 142.757ZM221.302 145.868C221.239 145.746 221.184 145.548 221.137 145.273C220.682 145.748 220.124 145.986 219.464 145.986C218.824 145.986 218.302 145.803 217.897 145.438C217.493 145.073 217.29 144.621 217.29 144.083C217.29 143.403 217.542 142.883 218.045 142.522C218.551 142.157 219.274 141.974 220.212 141.974H221.09V141.556C221.09 141.226 220.998 140.963 220.813 140.766C220.629 140.566 220.348 140.466 219.971 140.466C219.645 140.466 219.378 140.548 219.17 140.713C218.962 140.874 218.857 141.08 218.857 141.332H217.426C217.426 140.982 217.542 140.656 217.774 140.354C218.005 140.048 218.319 139.808 218.716 139.635C219.117 139.462 219.562 139.376 220.053 139.376C220.8 139.376 221.395 139.564 221.838 139.941C222.282 140.315 222.51 140.841 222.522 141.52V144.395C222.522 144.969 222.602 145.426 222.763 145.768V145.868H221.302ZM219.729 144.837C220.012 144.837 220.277 144.768 220.525 144.631C220.776 144.493 220.965 144.309 221.09 144.077V142.875H220.318C219.788 142.875 219.39 142.968 219.123 143.152C218.856 143.337 218.722 143.598 218.722 143.936C218.722 144.211 218.812 144.43 218.993 144.595C219.178 144.756 219.423 144.837 219.729 144.837ZM227.594 144.136C227.594 143.881 227.488 143.686 227.276 143.553C227.068 143.419 226.72 143.301 226.233 143.199C225.746 143.097 225.34 142.968 225.014 142.81C224.299 142.465 223.942 141.964 223.942 141.308C223.942 140.758 224.173 140.299 224.637 139.93C225.1 139.561 225.689 139.376 226.404 139.376C227.166 139.376 227.781 139.564 228.248 139.941C228.719 140.319 228.955 140.807 228.955 141.408H227.523C227.523 141.133 227.421 140.906 227.217 140.725C227.013 140.54 226.742 140.448 226.404 140.448C226.09 140.448 225.833 140.521 225.632 140.666C225.436 140.811 225.338 141.006 225.338 141.249C225.338 141.469 225.43 141.64 225.615 141.762C225.799 141.884 226.172 142.007 226.734 142.133C227.296 142.255 227.735 142.402 228.053 142.575C228.376 142.744 228.613 142.948 228.766 143.187C228.923 143.427 229.002 143.718 229.002 144.059C229.002 144.633 228.764 145.098 228.289 145.456C227.814 145.809 227.191 145.986 226.422 145.986C225.899 145.986 225.434 145.891 225.025 145.703C224.617 145.514 224.299 145.255 224.071 144.925C223.843 144.595 223.729 144.24 223.729 143.859H225.12C225.139 144.197 225.267 144.458 225.503 144.643C225.738 144.823 226.051 144.914 226.439 144.914C226.816 144.914 227.103 144.843 227.299 144.701C227.496 144.556 227.594 144.368 227.594 144.136ZM231.777 145.868H230.345V139.494H231.777V145.868ZM230.257 137.838C230.257 137.618 230.325 137.436 230.463 137.29C230.604 137.145 230.805 137.073 231.064 137.073C231.323 137.073 231.523 137.145 231.665 137.29C231.806 137.436 231.877 137.618 231.877 137.838C231.877 138.054 231.806 138.235 231.665 138.38C231.523 138.522 231.323 138.592 231.064 138.592C230.805 138.592 230.604 138.522 230.463 138.38C230.325 138.235 230.257 138.054 230.257 137.838ZM234.669 139.494L234.71 140.23C235.182 139.661 235.8 139.376 236.566 139.376C237.894 139.376 238.569 140.136 238.593 141.656V145.868H237.161V141.738C237.161 141.334 237.073 141.035 236.896 140.843C236.723 140.646 236.438 140.548 236.042 140.548C235.464 140.548 235.034 140.809 234.752 141.332V145.868H233.32V139.494H234.669ZM242.864 145.986C241.956 145.986 241.22 145.701 240.655 145.132C240.093 144.558 239.812 143.796 239.812 142.846V142.669C239.812 142.033 239.934 141.465 240.177 140.967C240.425 140.464 240.77 140.073 241.214 139.794C241.658 139.515 242.153 139.376 242.699 139.376C243.567 139.376 244.236 139.653 244.708 140.207C245.183 140.76 245.42 141.544 245.42 142.557V143.134H241.255C241.299 143.661 241.473 144.077 241.78 144.383C242.09 144.69 242.479 144.843 242.946 144.843C243.602 144.843 244.136 144.578 244.549 144.048L245.32 144.784C245.065 145.165 244.723 145.461 244.295 145.674C243.871 145.882 243.394 145.986 242.864 145.986ZM242.693 140.525C242.3 140.525 241.982 140.662 241.739 140.937C241.499 141.212 241.346 141.595 241.279 142.086H244.007V141.98C243.975 141.501 243.848 141.139 243.624 140.896C243.4 140.648 243.09 140.525 242.693 140.525ZM248.331 137.944V139.494H249.456V140.554H248.331V144.112C248.331 144.356 248.378 144.533 248.472 144.643C248.57 144.749 248.743 144.802 248.99 144.802C249.155 144.802 249.322 144.782 249.491 144.743V145.85C249.165 145.941 248.851 145.986 248.549 145.986C247.449 145.986 246.899 145.379 246.899 144.165V140.554H245.85V139.494H246.899V137.944H248.331Z" fill="black"/>
<path d="M329.757 135.471C329.424 135.471 329.153 135.742 329.153 136.074C329.153 136.406 329.424 136.677 329.757 136.677H331.095L332.679 143.012C332.813 143.549 333.294 143.916 333.847 143.916H340.766C341.31 143.916 341.772 143.556 341.916 143.03L343.48 137.281H333.376L333.678 138.487H341.916L340.766 142.71H333.847L332.264 136.376C332.13 135.839 331.649 135.471 331.095 135.471H329.757ZM340.012 143.916C339.02 143.916 338.202 144.734 338.202 145.726C338.202 146.718 339.02 147.536 340.012 147.536C341.004 147.536 341.822 146.718 341.822 145.726C341.822 144.734 341.004 143.916 340.012 143.916ZM334.583 143.916C333.59 143.916 332.773 144.734 332.773 145.726C332.773 146.718 333.59 147.536 334.583 147.536C335.575 147.536 336.392 146.718 336.392 145.726C336.392 144.734 335.575 143.916 334.583 143.916ZM334.583 145.123C334.922 145.123 335.186 145.387 335.186 145.726C335.186 146.065 334.922 146.329 334.583 146.329C334.243 146.329 333.979 146.065 333.979 145.726C333.979 145.387 334.243 145.123 334.583 145.123ZM340.012 145.123C340.351 145.123 340.615 145.387 340.615 145.726C340.615 146.065 340.351 146.329 340.012 146.329C339.672 146.329 339.409 146.065 339.409 145.726C339.409 145.387 339.672 145.123 340.012 145.123Z" fill="black"/>
<path d="M309.787 147.919L309.748 147.879L309.744 147.884M309.787 147.919L310.114 147.407M309.787 147.919C309.781 147.914 309.773 147.907 309.766 147.901C309.758 147.895 309.751 147.889 309.744 147.884M309.787 147.919L309.788 147.917C309.98 148.061 310.213 148.139 310.453 148.139L309.739 147.88L309.744 147.884M309.744 147.884L309.748 147.879L309.743 147.874L309.743 147.874L309.363 147.49L309.364 147.489L309.733 147.122L310.109 147.404L310.114 147.407M310.114 147.407L310.15 147.435C310.237 147.5 310.343 147.535 310.453 147.536C310.563 147.536 310.669 147.5 310.756 147.435L310.763 147.429L310.764 147.429L310.781 147.416C311.716 146.688 313.161 145.525 314.369 144.131C315.592 142.72 316.485 141.17 316.485 139.664C316.485 138.019 315.14 136.677 313.469 136.677C312.694 136.677 312.069 137.01 311.621 137.368C311.398 137.546 311.226 137.725 311.111 137.857C311.054 137.923 311.012 137.977 310.985 138.012C310.972 138.03 310.963 138.043 310.957 138.051L310.952 138.058L310.952 138.058C310.952 138.058 310.952 138.058 310.952 138.058L310.453 138.801L309.953 138.058L309.953 138.058L309.953 138.058L309.948 138.051C309.943 138.043 309.933 138.03 309.92 138.012C309.893 137.977 309.851 137.923 309.794 137.857C309.679 137.725 309.507 137.546 309.284 137.368C308.836 137.01 308.211 136.677 307.436 136.677C305.766 136.677 304.42 138.019 304.42 139.664C304.42 141.166 305.309 142.712 306.527 144.121C307.731 145.512 309.171 146.673 310.109 147.404L310.114 147.407Z" stroke="black" stroke-width="1.2065"/>
<path fill-rule="evenodd" clip-rule="evenodd" d="M286.926 138.487C286.926 139.154 286.386 139.694 285.719 139.694C285.053 139.694 284.513 139.154 284.513 138.487C284.513 137.821 285.053 137.281 285.719 137.281C286.386 137.281 286.926 137.821 286.926 138.487ZM288.132 138.487C288.132 139.82 287.052 140.9 285.719 140.9C284.387 140.9 283.307 139.82 283.307 138.487C283.307 137.155 284.387 136.074 285.719 136.074C287.052 136.074 288.132 137.155 288.132 138.487ZM281.046 146.933C281.581 144.851 283.471 143.313 285.719 143.313C287.968 143.313 289.858 144.851 290.393 146.933H281.046ZM285.719 142.107C288.638 142.107 291.072 144.179 291.631 146.933C291.71 147.323 291.752 147.726 291.752 148.139H290.545H280.894H279.687C279.687 147.726 279.729 147.323 279.808 146.933C280.367 144.179 282.801 142.107 285.719 142.107Z" fill="black"/>
<rect x="142.146" y="137.281" width="13.8747" height="1.2065" fill="black"/>
<rect x="142.146" y="141.504" width="13.8747" height="1.2065" fill="black"/>
<rect x="142.146" y="145.726" width="13.8747" height="1.2065" fill="black"/>
<path d="M159.037 254.311C159.037 252.622 159.037 251.777 159.366 251.132C159.655 250.564 160.116 250.103 160.684 249.814C161.329 249.485 162.174 249.485 163.863 249.485H322.517C324.207 249.485 325.051 249.485 325.696 249.814C326.264 250.103 326.725 250.564 327.015 251.132C327.343 251.777 327.343 252.622 327.343 254.311V273.615C327.343 275.304 327.343 276.149 327.015 276.794C326.725 277.362 326.264 277.823 325.696 278.112C325.051 278.441 324.207 278.441 322.517 278.441H163.863C162.174 278.441 161.329 278.441 160.684 278.112C160.116 277.823 159.655 277.362 159.366 276.794C159.037 276.149 159.037 275.304 159.037 273.615V254.311Z" fill="#FF5B24"/>
<path d="M189.193 267.508C191.007 267.508 192.337 266.435 192.522 264.843H191.138C190.947 265.726 190.19 266.288 189.193 266.288C187.852 266.288 187.019 265.17 187.019 263.378C187.019 261.59 187.852 260.473 189.187 260.473C190.179 260.473 190.937 261.089 191.133 262.037H192.517C192.353 260.408 190.975 259.253 189.187 259.253C186.959 259.253 185.58 260.827 185.58 263.383C185.58 265.928 186.964 267.508 189.193 267.508ZM196.396 267.432C198.178 267.432 199.262 266.266 199.262 264.331C199.262 262.408 198.172 261.242 196.396 261.242C194.625 261.242 193.53 262.413 193.53 264.331C193.53 266.266 194.609 267.432 196.396 267.432ZM196.396 266.326C195.453 266.326 194.914 265.595 194.914 264.337C194.914 263.078 195.453 262.348 196.396 262.348C197.333 262.348 197.873 263.078 197.873 264.337C197.873 265.595 197.339 266.326 196.396 266.326ZM200.504 267.312H201.855V263.841C201.855 262.947 202.362 262.386 203.169 262.386C203.991 262.386 204.373 262.849 204.373 263.775V267.312H205.724V263.459C205.724 262.043 205 261.242 203.67 261.242C202.782 261.242 202.182 261.645 201.899 262.31H201.806V261.356H200.504V267.312ZM207.636 259.896V261.394H206.693V262.446H207.636V265.732C207.636 266.882 208.181 267.339 209.549 267.339C209.81 267.339 210.061 267.317 210.257 267.279V266.244C210.094 266.26 209.99 266.271 209.8 266.271C209.233 266.271 208.982 266.004 208.982 265.41V262.446H210.257V261.394H208.982V259.896H207.636ZM212.175 260.359C212.622 260.359 212.987 260.005 212.987 259.558C212.987 259.116 212.622 258.757 212.175 258.757C211.733 258.757 211.368 259.116 211.368 259.558C211.368 260.005 211.733 260.359 212.175 260.359ZM211.504 267.312H212.85V261.356H211.504V267.312ZM214.408 267.312H215.76V263.841C215.76 262.947 216.266 262.386 217.073 262.386C217.896 262.386 218.277 262.849 218.277 263.775V267.312H219.629V263.459C219.629 262.043 218.904 261.242 217.574 261.242C216.686 261.242 216.086 261.645 215.803 262.31H215.71V261.356H214.408V267.312ZM226.298 261.356H224.946V264.827C224.946 265.726 224.467 266.271 223.589 266.271C222.783 266.271 222.407 265.824 222.407 264.898V261.356H221.055V265.225C221.055 266.62 221.818 267.432 223.121 267.432C224.031 267.432 224.614 267.045 224.903 266.364H224.995V267.312H226.298V261.356ZM231.719 265.683C231.523 266.13 231.06 266.38 230.389 266.38C229.501 266.38 228.929 265.748 228.896 264.74V264.669H233.059V264.239C233.059 262.37 232.04 261.242 230.34 261.242C228.613 261.242 227.539 262.446 227.539 264.359C227.539 266.266 228.596 267.432 230.351 267.432C231.757 267.432 232.754 266.756 232.999 265.683H231.719ZM230.335 262.293C231.147 262.293 231.681 262.865 231.708 263.77H228.902C228.962 262.876 229.528 262.293 230.335 262.293ZM245.133 261.356H243.787L242.801 265.83H242.709L241.553 261.356H240.262L239.117 265.83H239.025L238.033 261.356H236.671L238.284 267.312H239.69L240.845 262.996H240.938L242.098 267.312H243.52L245.133 261.356ZM246.882 260.359C247.329 260.359 247.694 260.005 247.694 259.558C247.694 259.116 247.329 258.757 246.882 258.757C246.441 258.757 246.075 259.116 246.075 259.558C246.075 260.005 246.441 260.359 246.882 260.359ZM246.212 267.312H247.558V261.356H246.212V267.312ZM249.546 259.896V261.394H248.603V262.446H249.546V265.732C249.546 266.882 250.091 267.339 251.459 267.339C251.72 267.339 251.971 267.317 252.167 267.279V266.244C252.003 266.26 251.9 266.271 251.709 266.271C251.142 266.271 250.892 266.004 250.892 265.41V262.446H252.167V261.394H250.892V259.896H249.546ZM253.452 267.312H254.804V263.852C254.804 262.98 255.299 262.397 256.188 262.397C256.972 262.397 257.387 262.865 257.387 263.786V267.312H258.738V263.47C258.738 262.053 257.964 261.247 256.689 261.247C255.801 261.247 255.163 261.65 254.88 262.32H254.782V259.051H253.452V267.312Z" fill="white"/>
<path fill-rule="evenodd" clip-rule="evenodd" d="M301.653 262.81C301.218 261.152 300.164 260.494 298.724 260.494C297.557 260.494 296.093 261.152 296.093 262.737C296.093 263.76 296.801 264.565 297.954 264.772L299.047 264.967C299.791 265.101 300.002 265.381 300.002 265.759C300.002 266.186 299.543 266.429 298.86 266.429C297.967 266.429 297.409 266.113 297.322 265.223L295.746 265.467C295.994 267.185 297.533 267.892 298.922 267.892C300.238 267.892 301.64 267.136 301.64 265.613C301.64 264.577 301.007 263.821 299.828 263.602L298.625 263.383C297.954 263.261 297.731 262.932 297.731 262.615C297.731 262.213 298.165 261.957 298.761 261.957C299.518 261.957 300.052 262.213 300.077 263.054L301.653 262.81ZM266.619 265.418L268.257 260.677H270.18L267.326 267.709H265.899L263.045 260.677H264.968L266.619 265.418ZM276.683 262.688C276.683 263.249 276.237 263.639 275.715 263.639C275.194 263.639 274.748 263.249 274.748 262.688C274.748 262.127 275.194 261.738 275.715 261.738C276.237 261.738 276.684 262.127 276.684 262.688H276.683ZM276.981 265.174C276.336 266.003 275.653 266.575 274.449 266.575C273.221 266.575 272.265 265.844 271.521 264.772C271.223 264.333 270.764 264.236 270.429 264.467C270.118 264.687 270.044 265.15 270.329 265.552C271.359 267.1 272.786 268.001 274.449 268.001C275.976 268.001 277.167 267.27 278.098 266.052C278.445 265.601 278.433 265.138 278.098 264.882C277.787 264.638 277.328 264.723 276.981 265.174ZM281.263 264.175C281.263 265.613 282.107 266.369 283.05 266.369C283.944 266.369 284.862 265.662 284.862 264.175C284.862 262.712 283.944 262.006 283.063 262.006C282.107 262.006 281.263 262.676 281.263 264.175ZM281.263 261.652V260.689H279.513V270.146H281.263V266.783C281.846 267.563 282.603 267.892 283.46 267.892C285.061 267.892 286.624 266.649 286.624 264.09C286.624 261.64 284.998 260.495 283.608 260.495C282.504 260.495 281.747 260.994 281.263 261.652ZM289.665 264.175C289.665 265.613 290.509 266.369 291.452 266.369C292.345 266.369 293.264 265.662 293.264 264.175C293.264 262.712 292.345 262.006 291.464 262.006C290.509 262.006 289.665 262.676 289.665 264.175H289.665ZM289.665 261.652V260.689H289.665H287.915V270.146H289.665V266.783C290.248 267.563 291.005 267.892 291.861 267.892C293.462 267.892 295.026 266.649 295.026 264.09C295.026 261.64 293.4 260.495 292.01 260.495C290.906 260.495 290.149 260.994 289.665 261.652Z" fill="white"/>
<path d="M226.748 215.21H231.42V216.638H224.959V206.345H226.748V215.21ZM232.304 212.743C232.304 211.994 232.452 211.32 232.749 210.721C233.046 210.118 233.463 209.656 234.001 209.336C234.538 209.01 235.155 208.848 235.853 208.848C236.885 208.848 237.721 209.18 238.362 209.845C239.008 210.509 239.357 211.39 239.409 212.488L239.416 212.891C239.416 213.646 239.27 214.319 238.977 214.913C238.69 215.507 238.275 215.967 237.733 216.292C237.196 216.617 236.574 216.78 235.867 216.78C234.788 216.78 233.923 216.421 233.273 215.705C232.627 214.984 232.304 214.025 232.304 212.828V212.743ZM234.022 212.891C234.022 213.678 234.184 214.296 234.51 214.744C234.835 215.187 235.287 215.408 235.867 215.408C236.447 215.408 236.897 215.182 237.217 214.729C237.542 214.277 237.705 213.615 237.705 212.743C237.705 211.97 237.538 211.357 237.203 210.905C236.873 210.453 236.423 210.226 235.853 210.226C235.292 210.226 234.847 210.45 234.517 210.898C234.187 211.341 234.022 212.005 234.022 212.891ZM240.568 212.757C240.568 211.569 240.846 210.622 241.402 209.915C241.963 209.204 242.705 208.848 243.629 208.848C244.501 208.848 245.187 209.152 245.686 209.76L245.764 208.989H247.312V216.405C247.312 217.409 246.999 218.201 246.372 218.78C245.75 219.36 244.909 219.65 243.848 219.65C243.287 219.65 242.738 219.532 242.201 219.296C241.669 219.065 241.263 218.761 240.985 218.384L241.798 217.352C242.326 217.979 242.976 218.292 243.749 218.292C244.32 218.292 244.77 218.137 245.099 217.826C245.429 217.519 245.594 217.067 245.594 216.469V215.952C245.099 216.504 244.44 216.78 243.615 216.78C242.719 216.78 241.987 216.424 241.416 215.712C240.851 215 240.568 214.015 240.568 212.757ZM242.279 212.906C242.279 213.674 242.434 214.279 242.745 214.722C243.061 215.161 243.497 215.38 244.053 215.38C244.746 215.38 245.26 215.083 245.594 214.489V211.124C245.269 210.544 244.76 210.255 244.067 210.255C243.502 210.255 243.061 210.478 242.745 210.926C242.434 211.374 242.279 212.034 242.279 212.906ZM254.516 216.638H252.798V208.989H254.516V216.638ZM252.692 207.003C252.692 206.739 252.774 206.52 252.939 206.345C253.109 206.171 253.349 206.084 253.66 206.084C253.971 206.084 254.212 206.171 254.382 206.345C254.551 206.52 254.636 206.739 254.636 207.003C254.636 207.262 254.551 207.479 254.382 207.653C254.212 207.823 253.971 207.908 253.66 207.908C253.349 207.908 253.109 207.823 252.939 207.653C252.774 207.479 252.692 207.262 252.692 207.003ZM257.987 208.989L258.036 209.873C258.602 209.189 259.344 208.848 260.263 208.848C261.856 208.848 262.667 209.76 262.695 211.584V216.638H260.977V211.683C260.977 211.197 260.871 210.839 260.659 210.608C260.452 210.372 260.11 210.255 259.634 210.255C258.941 210.255 258.425 210.568 258.086 211.195V216.638H256.368V208.989H257.987Z" fill="black"/>
<g filter="url(#filter2_b)">
<path fill-rule="evenodd" clip-rule="evenodd" d="M130.081 63.0813H356.299V119.787H130.081V63.0813Z" fill="#F9F9F9" fill-opacity="0.94"/>
</g>
<line opacity="0.3" x1="130.081" y1="119.938" x2="356.299" y2="119.938" stroke="black" stroke-width="0.301624"/>
<mask id="mask0" mask-type="alpha" maskUnits="userSpaceOnUse" x="136" y="92" width="215" height="22">
<path fill-rule="evenodd" clip-rule="evenodd" d="M136.114 98.0696C136.114 94.7379 138.815 92.0371 142.146 92.0371H344.234C347.566 92.0371 350.267 94.7379 350.267 98.0696V107.722C350.267 111.053 347.566 113.754 344.234 113.754H142.146C138.815 113.754 136.114 111.053 136.114 107.722V98.0696Z" fill="white"/>
</mask>
<g mask="url(#mask0)">
<path fill-rule="evenodd" clip-rule="evenodd" d="M136.114 101.689C136.114 98.3106 136.114 96.6213 136.771 95.3309C137.35 94.1958 138.272 93.273 139.408 92.6946C140.698 92.0371 142.387 92.0371 145.766 92.0371H340.615C343.993 92.0371 345.683 92.0371 346.973 92.6946C348.108 93.273 349.031 94.1958 349.609 95.3309C350.267 96.6213 350.267 98.3106 350.267 101.689V104.102C350.267 107.481 350.267 109.17 349.609 110.46C349.031 111.595 348.108 112.518 346.973 113.097C345.683 113.754 343.993 113.754 340.615 113.754H145.766C142.387 113.754 140.698 113.754 139.408 113.097C138.272 112.518 137.35 111.595 136.771 110.46C136.114 109.17 136.114 107.481 136.114 104.102V101.689Z" fill="#767680" fill-opacity="0.12"/>
<path d="M147.679 106.547C147.93 106.547 148.055 106.447 148.155 106.171L148.796 104.398H151.75L152.396 106.171C152.492 106.447 152.622 106.547 152.872 106.547C153.143 106.547 153.318 106.386 153.318 106.136C153.318 106.051 153.303 105.976 153.268 105.866L150.914 99.6164C150.799 99.3059 150.594 99.1557 150.278 99.1557C149.963 99.1557 149.758 99.3059 149.647 99.6114L147.294 105.871C147.254 105.981 147.239 106.056 147.239 106.141C147.239 106.391 147.409 106.547 147.679 106.547ZM149.041 103.632L150.258 100.262H150.288L151.5 103.632H149.041ZM142.642 106.547C142.847 106.547 142.987 106.447 143.073 106.186L143.473 105.029H145.306L145.707 106.186C145.802 106.452 145.942 106.547 146.142 106.547C146.398 106.547 146.573 106.386 146.573 106.151C146.573 106.066 146.553 105.976 146.508 105.851L145.016 101.885C144.91 101.594 144.705 101.409 144.385 101.409C144.079 101.409 143.879 101.594 143.774 101.885L142.276 105.851C142.226 105.976 142.216 106.066 142.216 106.151C142.216 106.386 142.387 106.547 142.642 106.547ZM143.699 104.348L144.36 102.396H144.425L145.086 104.348H143.699Z" fill="black"/>
<path d="M340.199 102.468C340.324 102.468 340.419 102.428 340.489 102.353L342.552 100.28C342.642 100.194 342.677 100.094 342.677 99.9791C342.677 99.8689 342.632 99.7587 342.552 99.6786L340.489 97.5855C340.419 97.5054 340.319 97.4653 340.199 97.4653C339.973 97.4653 339.803 97.6456 339.803 97.8759C339.803 97.9811 339.843 98.0812 339.913 98.1614L341.25 99.4733C340.965 99.4232 340.674 99.3932 340.384 99.3932C337.93 99.3932 335.957 101.361 335.957 103.815C335.957 106.273 337.93 108.246 340.384 108.246C342.837 108.246 344.805 106.273 344.805 103.815C344.805 103.574 344.635 103.399 344.39 103.399C344.154 103.399 343.999 103.574 343.999 103.815C343.999 105.828 342.392 107.44 340.384 107.44C338.376 107.44 336.763 105.828 336.763 103.815C336.763 101.807 338.376 100.199 340.384 100.199C340.764 100.199 341.115 100.229 341.415 100.295L339.918 101.782C339.843 101.862 339.803 101.962 339.803 102.067C339.803 102.297 339.973 102.468 340.199 102.468Z" fill="black"/>
<path d="M208.456 107.651H212.662C213.232 107.651 213.511 107.368 213.511 106.75V103.506C213.511 102.95 213.281 102.663 212.808 102.614V101.501C212.808 99.8348 211.717 99.0307 210.559 99.0307C209.402 99.0307 208.31 99.8348 208.31 101.501V102.636C207.877 102.702 207.608 102.985 207.608 103.506V106.75C207.608 107.368 207.886 107.651 208.456 107.651ZM209.022 101.408C209.022 100.299 209.733 99.7111 210.559 99.7111C211.386 99.7111 212.097 100.299 212.097 101.408V102.61L209.022 102.614V101.408ZM218.615 106.657H219.477V103.312C219.477 102.551 220.022 101.94 220.728 101.94C221.409 101.94 221.855 102.35 221.855 102.991V106.657H222.716V103.187C222.716 102.501 223.217 101.94 223.968 101.94C224.729 101.94 225.105 102.33 225.105 103.126V106.657H225.966V102.926C225.966 101.795 225.35 101.164 224.249 101.164C223.503 101.164 222.887 101.539 222.596 102.11H222.516C222.266 101.549 221.755 101.164 221.024 101.164C220.303 101.164 219.762 101.509 219.517 102.11H219.436V101.259H218.615V106.657ZM228.793 106.752C229.514 106.752 230.105 106.436 230.456 105.861H230.536V106.657H231.357V102.961C231.357 101.84 230.621 101.164 229.304 101.164C228.152 101.164 227.301 101.734 227.186 102.601H228.057C228.177 102.175 228.628 101.93 229.274 101.93C230.08 101.93 230.496 102.295 230.496 102.961V103.452L228.939 103.547C227.682 103.622 226.971 104.178 226.971 105.144C226.971 106.131 227.747 106.752 228.793 106.752ZM228.954 105.996C228.328 105.996 227.862 105.675 227.862 105.124C227.862 104.584 228.223 104.298 229.044 104.243L230.496 104.148V104.644C230.496 105.415 229.84 105.996 228.954 105.996ZM234.926 108.73C236.398 108.73 237.329 107.959 237.329 106.752V101.259H236.508V102.115H236.428C236.117 101.534 235.451 101.164 234.695 101.164C233.308 101.164 232.432 102.26 232.432 103.878C232.432 105.495 233.298 106.577 234.695 106.577C235.436 106.577 236.047 106.241 236.388 105.645H236.468V106.707C236.468 107.503 235.892 107.979 234.926 107.979C234.149 107.979 233.669 107.693 233.574 107.253H232.662C232.792 108.144 233.624 108.73 234.926 108.73ZM234.885 105.815C233.884 105.815 233.323 105.054 233.323 103.878C233.323 102.701 233.884 101.94 234.885 101.94C235.882 101.94 236.488 102.701 236.488 103.878C236.488 105.054 235.887 105.815 234.885 105.815ZM240.206 106.752C240.927 106.752 241.518 106.436 241.869 105.861H241.949V106.657H242.77V102.961C242.77 101.84 242.034 101.164 240.717 101.164C239.565 101.164 238.714 101.734 238.599 102.601H239.47C239.59 102.175 240.041 101.93 240.687 101.93C241.493 101.93 241.909 102.295 241.909 102.961V103.452L240.352 103.547C239.095 103.622 238.384 104.178 238.384 105.144C238.384 106.131 239.16 106.752 240.206 106.752ZM240.367 105.996C239.741 105.996 239.275 105.675 239.275 105.124C239.275 104.584 239.636 104.298 240.457 104.243L241.909 104.148V104.644C241.909 105.415 241.253 105.996 240.367 105.996ZM243.99 102.736C243.99 103.517 244.451 103.953 245.462 104.198L246.389 104.423C246.964 104.564 247.245 104.814 247.245 105.185C247.245 105.68 246.724 106.026 245.998 106.026C245.307 106.026 244.876 105.735 244.731 105.28H243.845C243.94 106.176 244.766 106.752 245.968 106.752C247.195 106.752 248.131 106.086 248.131 105.119C248.131 104.343 247.64 103.903 246.624 103.657L245.793 103.457C245.157 103.302 244.856 103.071 244.856 102.701C244.856 102.22 245.357 101.895 245.998 101.895C246.649 101.895 247.07 102.18 247.185 102.611H248.036C247.921 101.724 247.135 101.164 246.003 101.164C244.856 101.164 243.99 101.84 243.99 102.736ZM249.687 100.217C250.017 100.217 250.287 99.9468 250.287 99.6163C250.287 99.2858 250.017 99.0154 249.687 99.0154C249.356 99.0154 249.086 99.2858 249.086 99.6163C249.086 99.9468 249.356 100.217 249.687 100.217ZM249.256 106.657H250.117V101.259H249.256V106.657ZM251.512 106.657H252.374V103.462C252.374 102.516 252.929 101.94 253.791 101.94C254.652 101.94 255.063 102.4 255.063 103.372V106.657H255.924V103.162C255.924 101.88 255.248 101.164 254.036 101.164C253.21 101.164 252.684 101.514 252.414 102.11H252.334V101.259H251.512V106.657ZM260.829 105.26C260.604 105.735 260.133 105.991 259.437 105.991C258.521 105.991 257.925 105.315 257.88 104.248V104.208H261.761V103.878C261.761 102.2 260.874 101.164 259.417 101.164C257.935 101.164 256.983 102.265 256.983 103.963C256.983 105.67 257.92 106.752 259.417 106.752C260.599 106.752 261.44 106.181 261.69 105.26H260.829ZM259.407 101.925C260.263 101.925 260.834 102.556 260.854 103.512H257.88C257.945 102.556 258.546 101.925 259.407 101.925ZM263.226 99.8617V101.259H262.354V101.98H263.226V105.255C263.226 106.286 263.671 106.697 264.783 106.697C264.953 106.697 265.119 106.677 265.289 106.647V105.921C265.129 105.936 265.043 105.941 264.888 105.941C264.327 105.941 264.087 105.67 264.087 105.034V101.98H265.289V101.259H264.087V99.8617H263.226ZM267.054 106.707C267.415 106.707 267.705 106.411 267.705 106.056C267.705 105.695 267.415 105.405 267.054 105.405C266.699 105.405 266.403 105.695 266.403 106.056C266.403 106.411 266.699 106.707 267.054 106.707ZM269.141 106.657H270.002V103.462C270.002 102.516 270.558 101.94 271.419 101.94C272.28 101.94 272.691 102.4 272.691 103.372V106.657H273.552V103.162C273.552 101.88 272.876 101.164 271.664 101.164C270.838 101.164 270.312 101.514 270.042 102.11H269.962V101.259H269.141V106.657ZM277.1 106.752C278.638 106.752 279.589 105.69 279.589 103.958C279.589 102.22 278.638 101.164 277.1 101.164C275.563 101.164 274.612 102.22 274.612 103.958C274.612 105.69 275.563 106.752 277.1 106.752ZM277.1 105.976C276.079 105.976 275.503 105.235 275.503 103.958C275.503 102.676 276.079 101.94 277.1 101.94C278.122 101.94 278.698 102.676 278.698 103.958C278.698 105.235 278.122 105.976 277.1 105.976Z" fill="black"/>
</g>
<path opacity="0.35" d="M334.381 73.8392H344.435C345.157 73.8392 345.742 74.4244 345.742 75.1463V78.7657C345.742 79.4876 345.157 80.0728 344.435 80.0728H334.381C333.659 80.0728 333.074 79.4876 333.074 78.7657V75.1463C333.074 74.4244 333.659 73.8392 334.381 73.8392Z" stroke="black" stroke-width="0.603248"/>
<path opacity="0.4" d="M346.647 75.7495V78.1625C347.132 77.9581 347.448 77.4827 347.448 76.956C347.448 76.4293 347.132 75.9539 346.647 75.7495" fill="black"/>
<path d="M333.979 75.5485C333.979 75.1043 334.339 74.7441 334.783 74.7441H344.033C344.477 74.7441 344.837 75.1043 344.837 75.5485V78.3636C344.837 78.8079 344.477 79.168 344.033 79.168H334.783C334.339 79.168 333.979 78.8078 333.979 78.3636V75.5485Z" fill="black"/>
<path fill-rule="evenodd" clip-rule="evenodd" d="M325.13 74.9097C326.466 74.9097 327.752 75.4234 328.721 76.3444C328.794 76.4155 328.91 76.4146 328.982 76.3424L329.68 75.6386C329.716 75.602 329.736 75.5524 329.736 75.5007C329.736 75.4491 329.715 75.3997 329.678 75.3635C327.135 72.9267 323.124 72.9267 320.581 75.3635C320.544 75.3997 320.523 75.4491 320.523 75.5007C320.523 75.5523 320.543 75.602 320.579 75.6386L321.277 76.3424C321.349 76.4147 321.465 76.4156 321.538 76.3444C322.507 75.4233 323.793 74.9097 325.13 74.9097ZM325.129 77.1994C325.864 77.1994 326.572 77.4723 327.117 77.9653C327.19 78.0353 327.306 78.0338 327.378 77.9619L328.075 77.2581C328.111 77.2212 328.132 77.1711 328.131 77.1191C328.13 77.067 328.109 77.0174 328.072 76.9812C326.414 75.4391 323.846 75.4391 322.189 76.9812C322.151 77.0174 322.13 77.0671 322.129 77.1191C322.129 77.1712 322.149 77.2213 322.186 77.2581L322.882 77.9619C322.954 78.0338 323.07 78.0353 323.144 77.9653C323.688 77.4727 324.396 77.1997 325.129 77.1994ZM326.525 78.74C326.526 78.7922 326.505 78.8425 326.468 78.879L325.263 80.095C325.228 80.1307 325.18 80.1508 325.13 80.1508C325.079 80.1508 325.031 80.1307 324.996 80.095L323.791 78.879C323.753 78.8425 323.733 78.7921 323.734 78.7399C323.735 78.6878 323.758 78.6383 323.797 78.6034C324.566 77.9525 325.693 77.9525 326.462 78.6034C326.501 78.6384 326.524 78.6878 326.525 78.74Z" fill="black"/>
<path fill-rule="evenodd" clip-rule="evenodd" d="M316.887 73.7388H316.284C315.95 73.7388 315.68 74.0089 315.68 74.342V79.5702C315.68 79.9033 315.95 80.1734 316.284 80.1734H316.887C317.22 80.1734 317.49 79.9033 317.49 79.5702V74.342C317.49 74.0089 317.22 73.7388 316.887 73.7388ZM313.469 75.1463H314.072C314.405 75.1463 314.675 75.4164 314.675 75.7495V79.5701C314.675 79.9033 314.405 80.1734 314.072 80.1734H313.469C313.135 80.1734 312.865 79.9033 312.865 79.5701V75.7495C312.865 75.4164 313.135 75.1463 313.469 75.1463ZM311.256 76.554H310.653C310.32 76.554 310.05 76.8241 310.05 77.1572V79.5702C310.05 79.9034 310.32 80.1735 310.653 80.1735H311.256C311.59 80.1735 311.86 79.9034 311.86 79.5702V77.1572C311.86 76.8241 311.59 76.554 311.256 76.554ZM308.441 77.7605H307.838C307.505 77.7605 307.235 78.0306 307.235 78.3637V79.5702C307.235 79.9034 307.505 80.1735 307.838 80.1735H308.441C308.775 80.1735 309.045 79.9034 309.045 79.5702V78.3637C309.045 78.0306 308.775 77.7605 308.441 77.7605Z" fill="black"/>
<path d="M148.575 79.9236H149.715V73.5479H148.579L146.914 74.7188V75.7925L148.5 74.6702H148.575V79.9236ZM152.848 77.0782H153.648C154.435 77.0782 154.912 77.4714 154.912 78.1121C154.912 78.7306 154.395 79.146 153.661 79.146C152.924 79.146 152.424 78.766 152.376 78.1739H151.284C151.337 79.3271 152.287 80.0826 153.675 80.0826C155.053 80.0826 156.078 79.2873 156.078 78.1916C156.078 77.3212 155.535 76.7601 154.669 76.6275V76.5524C155.345 76.3713 155.826 75.8631 155.831 75.0944C155.835 74.1798 155.071 73.3889 153.714 73.3889C152.331 73.3889 151.465 74.1709 151.408 75.2888H152.477C152.526 74.6525 152.959 74.2991 153.653 74.2991C154.329 74.2991 154.731 74.7144 154.731 75.2402C154.731 75.819 154.28 76.2254 153.626 76.2254H152.848V77.0782ZM157.979 75.7969C158.399 75.7969 158.686 75.5053 158.686 75.112C158.686 74.7188 158.399 74.4272 157.979 74.4272C157.564 74.4272 157.272 74.7188 157.272 75.112C157.272 75.5053 157.564 75.7969 157.979 75.7969ZM157.979 79.0399C158.399 79.0399 158.686 78.7439 158.686 78.3551C158.686 77.9618 158.399 77.6702 157.979 77.6702C157.564 77.6702 157.272 77.9618 157.272 78.3551C157.272 78.7439 157.564 79.0399 157.979 79.0399ZM161.528 79.9236H162.668V73.5479H161.532L159.867 74.7188V75.7925L161.453 74.6702H161.528V79.9236ZM164.273 75.4346H165.342C165.342 74.763 165.784 74.3035 166.478 74.3035C167.145 74.3035 167.542 74.7497 167.542 75.3285C167.542 75.8145 167.348 76.1194 166.544 76.9324L164.335 79.1548V79.9236H168.762V78.9781H165.881V78.903L167.251 77.5554C168.347 76.4817 168.669 75.9648 168.669 75.2225C168.669 74.1621 167.808 73.3889 166.539 73.3889C165.21 73.3889 164.273 74.2284 164.273 75.4346Z" fill="black"/>
<g filter="url(#filter3_b)">
<path fill-rule="evenodd" clip-rule="evenodd" d="M130.081 503.012H356.299V553.081H130.081V503.012Z" fill="#F9F9F9" fill-opacity="0.94"/>
</g>
<line opacity="0.3" x1="130.081" y1="502.861" x2="356.299" y2="502.861" stroke="black" stroke-width="0.301624"/>
<path fill-rule="evenodd" clip-rule="evenodd" d="M202.471 546.747C202.471 545.914 203.146 545.239 203.979 545.239H281.798C282.631 545.239 283.306 545.914 283.306 546.747V546.747C283.306 547.58 282.631 548.255 281.798 548.255H203.979C203.146 548.255 202.471 547.58 202.471 546.747V546.747Z" fill="black"/>
<path d="M333.121 520.143H334.32V521.258C334.32 522.593 335 523.267 336.355 523.267H343.276C344.63 523.267 345.31 522.593 345.31 521.258V514.37C345.31 513.041 344.63 512.367 343.276 512.367H342.077V511.317C342.077 509.982 341.39 509.308 340.042 509.308H333.121C331.76 509.308 331.086 509.982 331.086 511.317V518.141C331.086 519.476 331.76 520.143 333.121 520.143ZM333.134 519.1C332.486 519.1 332.13 518.757 332.13 518.083V511.376C332.13 510.702 332.486 510.352 333.134 510.352H340.023C340.664 510.352 341.033 510.702 341.033 511.376V512.367H336.355C335 512.367 334.32 513.035 334.32 514.37V519.1H333.134ZM336.374 522.224C335.726 522.224 335.363 521.874 335.363 521.2V514.428C335.363 513.754 335.726 513.41 336.374 513.41H343.263C343.904 513.41 344.267 513.754 344.267 514.428V521.206C344.267 521.874 343.904 522.224 343.263 522.224H336.374Z" fill="#007AFF"/>
<path d="M290.538 511.771C290.046 511.149 288.821 510.598 287.454 510.598C285.659 510.598 284.207 511.525 283.851 512.393V521.446C283.851 521.938 284.168 522.126 284.525 522.126C284.803 522.126 284.972 522.042 285.147 521.906C285.516 521.588 286.261 521.161 287.454 521.161C288.653 521.161 289.489 521.575 289.813 521.867C289.981 522.003 290.182 522.126 290.538 522.126C290.895 522.126 291.096 521.99 291.264 521.867C291.614 521.595 292.431 521.161 293.623 521.161C294.822 521.161 295.567 521.595 295.936 521.906C296.111 522.042 296.273 522.126 296.552 522.126C296.908 522.126 297.232 521.938 297.232 521.446V512.393C296.876 511.525 295.418 510.598 293.623 510.598C292.262 510.598 291.037 511.149 290.538 511.771ZM284.894 512.704C285.043 512.302 285.983 511.577 287.454 511.577C288.931 511.577 289.89 512.309 290.02 512.704V520.902C289.404 520.441 288.465 520.182 287.454 520.182C286.449 520.182 285.51 520.441 284.894 520.927V512.704ZM296.189 512.704V520.927C295.567 520.441 294.634 520.182 293.623 520.182C292.612 520.182 291.679 520.441 291.063 520.902V512.704C291.193 512.309 292.152 511.577 293.623 511.577C295.1 511.577 296.04 512.302 296.189 512.704Z" fill="#007AFF"/>
<path d="M243.492 518.096C243.77 518.096 244.004 517.862 244.004 517.59V510.935L243.965 509.963L244.399 510.423L245.384 511.473C245.475 511.577 245.611 511.628 245.734 511.628C246 511.628 246.207 511.434 246.207 511.168C246.207 511.032 246.149 510.929 246.051 510.831L243.861 508.719C243.731 508.589 243.621 508.544 243.492 508.544C243.356 508.544 243.245 508.589 243.116 508.719L240.926 510.831C240.828 510.929 240.77 511.032 240.77 511.168C240.77 511.434 240.964 511.628 241.237 511.628C241.36 511.628 241.502 511.577 241.593 511.473L242.578 510.423L243.012 509.963L242.973 510.935V517.59C242.973 517.862 243.213 518.096 243.492 518.096ZM239.772 523.17H247.205C248.559 523.17 249.24 522.496 249.24 521.161V514.694C249.24 513.359 248.559 512.685 247.205 512.685H245.397V513.728H247.185C247.827 513.728 248.196 514.078 248.196 514.752V521.102C248.196 521.776 247.827 522.126 247.185 522.126H239.785C239.137 522.126 238.781 521.776 238.781 521.102V514.752C238.781 514.078 239.137 513.728 239.785 513.728H241.58V512.685H239.772C238.418 512.685 237.737 513.359 237.737 514.694V521.161C237.737 522.496 238.418 523.17 239.772 523.17Z" fill="#007AFF"/>
<path d="M193.256 521.964C193.424 521.964 193.567 521.9 193.677 521.789L198.816 516.767C198.939 516.644 199.004 516.495 199.004 516.333C199.004 516.165 198.939 516.009 198.816 515.899L193.684 510.883C193.567 510.767 193.424 510.702 193.256 510.702C192.919 510.702 192.666 510.961 192.666 511.298C192.666 511.453 192.731 511.609 192.835 511.719L197.552 516.333L192.835 520.947C192.731 521.057 192.666 521.206 192.666 521.368C192.666 521.705 192.919 521.964 193.256 521.964Z" fill="#CBCBCB"/>
<path d="M150.337 521.783C150.447 521.893 150.589 521.958 150.758 521.958C151.095 521.958 151.348 521.705 151.348 521.368C151.348 521.206 151.283 521.057 151.179 520.947L146.461 516.333L151.179 511.719C151.283 511.609 151.348 511.453 151.348 511.298C151.348 510.961 151.095 510.702 150.758 510.702C150.589 510.702 150.447 510.767 150.337 510.877L145.204 515.899C145.081 516.003 145.01 516.165 145.01 516.333C145.01 516.495 145.075 516.644 145.198 516.767L150.337 521.783Z" fill="#007AFF"/>
</g>
</g>
<path fill-rule="evenodd" clip-rule="evenodd" d="M130.081 94.3537C130.081 83.178 130.081 77.5901 132.325 73.3524C134.136 69.9325 136.932 67.1358 140.352 65.3251C144.59 63.0813 150.178 63.0813 161.353 63.0813H130.081V94.3537ZM130.081 521.646V552.919H161.353C150.178 552.919 144.59 552.919 140.352 550.675C136.932 548.864 134.136 546.068 132.325 542.648C130.081 538.41 130.081 532.822 130.081 521.646ZM325.027 552.919H356.299V521.646C356.299 532.822 356.299 538.41 354.055 542.648C352.245 546.068 349.448 548.864 346.028 550.675C341.79 552.919 336.202 552.919 325.027 552.919ZM356.299 94.3537V63.0813H325.027C336.202 63.0813 341.79 63.0813 346.028 65.3251C349.448 67.1358 352.245 69.9325 354.055 73.3524C356.299 77.5901 356.299 83.178 356.299 94.3537ZM309.849 63.0813H305.626H180.754H176.531C178.863 63.0813 180.754 64.2878 180.754 66.0975V63.0813C180.754 67.5707 180.754 69.8154 181.291 71.6463C182.564 75.9798 185.953 79.3687 190.286 80.6412C192.117 81.1787 194.362 81.1787 198.851 81.1787H287.529C292.018 81.1787 294.263 81.1787 296.094 80.6412C300.427 79.3687 303.816 75.9798 305.089 71.6463C305.626 69.8154 305.626 67.5707 305.626 63.0813V66.0975C305.626 64.2878 307.517 63.0813 309.849 63.0813Z" fill="white"/>
<rect x="213.33" y="64.5972" width="42.4417" height="5.45679" rx="2.7284" fill="#F0F3F5"/>
<path d="M268.807 71.5696C271.151 71.5696 273.051 69.6695 273.051 67.3255C273.051 64.9815 271.151 63.0813 268.807 63.0813C266.463 63.0813 264.562 64.9815 264.562 67.3255C264.562 69.6695 266.463 71.5696 268.807 71.5696Z" fill="#F0F3F5"/>
<defs>
<filter id="filter0_di" x="112.587" y="42.0034" width="264.79" height="529.616" filterUnits="userSpaceOnUse" color-interpolation-filters="sRGB">
<feFlood flood-opacity="0" result="BackgroundImageFix"/>
<feColorMatrix in="SourceAlpha" type="matrix" values="0 0 0 0 0 0 0 0 0 0 0 0 0 0 0 0 0 0 127 0"/>
<feOffset dy="1.2065"/>
<feGaussianBlur stdDeviation="1.2065"/>
<feColorMatrix type="matrix" values="0 0 0 0 0 0 0 0 0 0 0 0 0 0 0 0 0 0 0.25 0"/>
<feBlend mode="normal" in2="BackgroundImageFix" result="effect1_dropShadow"/>
<feBlend mode="normal" in="SourceGraphic" in2="effect1_dropShadow" result="shape"/>
<feColorMatrix in="SourceAlpha" type="matrix" values="0 0 0 0 0 0 0 0 0 0 0 0 0 0 0 0 0 0 127 0" result="hardAlpha"/>
<feOffset dx="10.2799" dy="-8.85216"/>
<feGaussianBlur stdDeviation="2.99831"/>
<feComposite in2="hardAlpha" operator="arithmetic" k2="-1" k3="1"/>
<feColorMatrix type="matrix" values="0 0 0 0 1 0 0 0 0 1 0 0 0 0 1 0 0 0 0.05 0"/>
<feBlend mode="normal" in2="shape" result="effect2_innerShadow"/>
</filter>
<filter id="filter1_dd" x="127.668" y="117.977" width="231.044" height="49.4664" filterUnits="userSpaceOnUse" color-interpolation-filters="sRGB">
<feFlood flood-opacity="0" result="BackgroundImageFix"/>
<feColorMatrix in="SourceAlpha" type="matrix" values="0 0 0 0 0 0 0 0 0 0 0 0 0 0 0 0 0 0 127 0"/>
<feOffset dy="0.603248"/>
<feGaussianBlur stdDeviation="1.2065"/>
<feColorMatrix type="matrix" values="0 0 0 0 0.0862745 0 0 0 0 0.0705882 0 0 0 0 0.145098 0 0 0 0.17 0"/>
<feBlend mode="normal" in2="BackgroundImageFix" result="effect1_dropShadow"/>
<feColorMatrix in="SourceAlpha" type="matrix" values="0 0 0 0 0 0 0 0 0 0 0 0 0 0 0 0 0 0 127 0"/>
<feOffset dy="0.603248"/>
<feGaussianBlur stdDeviation="0.301624"/>
<feColorMatrix type="matrix" values="0 0 0 0 0.0862745 0 0 0 0 0.0705882 0 0 0 0 0.145098 0 0 0 0.0498188 0"/>
<feBlend mode="normal" in2="effect1_dropShadow" result="effect2_dropShadow"/>
<feBlend mode="normal" in="SourceGraphic" in2="effect2_dropShadow" result="shape"/>
</filter>
<filter id="filter2_b" x="118.016" y="51.0163" width="250.348" height="80.8353" filterUnits="userSpaceOnUse" color-interpolation-filters="sRGB">
<feFlood flood-opacity="0" result="BackgroundImageFix"/>
<feGaussianBlur in="BackgroundImage" stdDeviation="6.03248"/>
<feComposite in2="SourceAlpha" operator="in" result="effect1_backgroundBlur"/>
<feBlend mode="normal" in="SourceGraphic" in2="effect1_backgroundBlur" result="shape"/>
</filter>
<filter id="filter3_b" x="118.016" y="490.947" width="250.348" height="74.1995" filterUnits="userSpaceOnUse" color-interpolation-filters="sRGB">
<feFlood flood-opacity="0" result="BackgroundImageFix"/>
<feGaussianBlur in="BackgroundImage" stdDeviation="6.03248"/>
<feComposite in2="SourceAlpha" operator="in" result="effect1_backgroundBlur"/>
<feBlend mode="normal" in="SourceGraphic" in2="effect1_backgroundBlur" result="shape"/>
</filter>
<clipPath id="clip0">
<rect width="226.218" height="489.838" fill="white" transform="translate(130.081 63.0813)"/>
</clipPath>
<clipPath id="clip1">
<rect width="226.218" height="489.838" fill="white" transform="translate(130.081 63.0813)"/>
</clipPath>
</defs>
</svg>
