<svg width="407" height="617" viewBox="0 0 407 617" fill="none" xmlns="http://www.w3.org/2000/svg">
<rect y="0.625" width="406.381" height="616" rx="1" fill="#FFF4EC"/>
<g filter="url(#filter0_di)">
<rect x="75" y="48.625" width="256.381" height="520" rx="30.1624" fill="white"/>
</g>
<g clip-path="url(#clip0)">
<rect width="226.218" height="489.838" transform="translate(90.0815 63.7062)" fill="#938FA8"/>
<g clip-path="url(#clip1)">
<rect width="226.218" height="489.838" transform="translate(90.0815 63.7062)" fill="white"/>
<g filter="url(#filter1_dd)">
<rect x="90.0815" y="120.411" width="226.218" height="44.6404" fill="white"/>
</g>
<path fill-rule="evenodd" clip-rule="evenodd" d="M103.552 133.683C102.776 133.683 102.146 134.312 102.146 135.089V147.757C102.146 148.533 102.776 149.162 103.552 149.162H108.125L109.385 150.417C109.517 150.55 109.696 150.625 109.883 150.625C110.07 150.625 110.249 150.55 110.381 150.417L111.642 149.156H116.214C116.991 149.156 117.62 148.527 117.62 147.751V135.083C117.616 134.309 116.988 133.683 116.214 133.683H103.552ZM106.768 137.906H113.005C113.32 137.905 113.583 138.147 113.609 138.461L114.109 144.493C114.123 144.661 114.065 144.828 113.951 144.951C113.836 145.075 113.675 145.145 113.506 145.145H106.267C106.098 145.145 105.937 145.075 105.822 144.951C105.708 144.828 105.65 144.661 105.664 144.493L106.164 138.461C106.19 138.147 106.452 137.905 106.768 137.906ZM107.473 139.715C107.473 139.382 107.743 139.112 108.076 139.112C108.41 139.112 108.68 139.382 108.68 139.715V140.319C108.68 140.985 109.22 141.525 109.886 141.525C110.553 141.525 111.093 140.985 111.093 140.319V139.715C111.093 139.382 111.363 139.112 111.696 139.112C112.029 139.112 112.299 139.382 112.299 139.715V140.319C112.299 141.651 111.219 142.732 109.886 142.732C108.554 142.732 107.473 141.651 107.473 140.319V139.715Z" fill="#6770E0"/>
<path d="M126.667 137.915L129.142 144.49L131.61 137.915H133.536V146.493H132.052V143.665L132.199 139.883L129.666 146.493H128.6L126.072 139.889L126.22 143.665V146.493H124.735V137.915H126.667ZM138.974 146.493C138.911 146.371 138.856 146.173 138.809 145.898C138.353 146.373 137.796 146.611 137.136 146.611C136.496 146.611 135.973 146.428 135.569 146.063C135.164 145.697 134.962 145.246 134.962 144.708C134.962 144.028 135.213 143.508 135.716 143.147C136.223 142.781 136.945 142.599 137.884 142.599H138.762V142.181C138.762 141.851 138.67 141.587 138.485 141.391C138.3 141.191 138.02 141.091 137.643 141.091C137.317 141.091 137.05 141.173 136.841 141.338C136.633 141.499 136.529 141.705 136.529 141.957H135.098C135.098 141.607 135.213 141.281 135.445 140.979C135.677 140.672 135.991 140.433 136.388 140.26C136.788 140.087 137.234 140.001 137.725 140.001C138.471 140.001 139.066 140.189 139.51 140.566C139.954 140.939 140.182 141.466 140.193 142.145V145.02C140.193 145.593 140.274 146.051 140.435 146.393V146.493H138.974ZM137.401 145.462C137.684 145.462 137.949 145.393 138.196 145.256C138.448 145.118 138.636 144.934 138.762 144.702V143.5H137.99C137.46 143.5 137.061 143.592 136.794 143.777C136.527 143.962 136.394 144.223 136.394 144.561C136.394 144.835 136.484 145.055 136.665 145.22C136.849 145.381 137.095 145.462 137.401 145.462ZM141.442 143.259C141.442 142.269 141.674 141.479 142.137 140.89C142.605 140.297 143.223 140.001 143.993 140.001C144.72 140.001 145.291 140.254 145.707 140.761L145.772 140.119H147.062V146.298C147.062 147.135 146.801 147.795 146.279 148.278C145.76 148.761 145.059 149.002 144.176 149.002C143.708 149.002 143.251 148.904 142.803 148.708C142.359 148.515 142.022 148.262 141.79 147.948L142.467 147.088C142.907 147.61 143.449 147.871 144.093 147.871C144.569 147.871 144.944 147.742 145.219 147.483C145.493 147.227 145.631 146.85 145.631 146.351V145.921C145.219 146.381 144.669 146.611 143.981 146.611C143.235 146.611 142.624 146.314 142.149 145.721C141.678 145.128 141.442 144.307 141.442 143.259ZM142.868 143.382C142.868 144.022 142.998 144.527 143.257 144.896C143.52 145.262 143.883 145.444 144.347 145.444C144.924 145.444 145.352 145.197 145.631 144.702V141.898C145.36 141.415 144.936 141.173 144.358 141.173C143.887 141.173 143.52 141.36 143.257 141.733C142.998 142.106 142.868 142.656 142.868 143.382ZM152.347 146.493C152.284 146.371 152.229 146.173 152.182 145.898C151.726 146.373 151.169 146.611 150.509 146.611C149.869 146.611 149.346 146.428 148.942 146.063C148.537 145.697 148.335 145.246 148.335 144.708C148.335 144.028 148.586 143.508 149.089 143.147C149.596 142.781 150.318 142.599 151.257 142.599H152.135V142.181C152.135 141.851 152.042 141.587 151.858 141.391C151.673 141.191 151.392 141.091 151.015 141.091C150.689 141.091 150.422 141.173 150.214 141.338C150.006 141.499 149.902 141.705 149.902 141.957H148.47C148.47 141.607 148.586 141.281 148.818 140.979C149.05 140.672 149.364 140.433 149.761 140.26C150.161 140.087 150.607 140.001 151.098 140.001C151.844 140.001 152.439 140.189 152.883 140.566C153.327 140.939 153.554 141.466 153.566 142.145V145.02C153.566 145.593 153.647 146.051 153.808 146.393V146.493H152.347ZM150.774 145.462C151.057 145.462 151.322 145.393 151.569 145.256C151.82 145.118 152.009 144.934 152.135 144.702V143.5H151.363C150.833 143.5 150.434 143.592 150.167 143.777C149.9 143.962 149.766 144.223 149.766 144.561C149.766 144.835 149.857 145.055 150.037 145.22C150.222 145.381 150.467 145.462 150.774 145.462ZM158.638 144.761C158.638 144.506 158.532 144.311 158.32 144.178C158.112 144.044 157.765 143.926 157.278 143.824C156.791 143.722 156.384 143.592 156.058 143.435C155.343 143.09 154.986 142.589 154.986 141.933C154.986 141.383 155.218 140.924 155.681 140.555C156.145 140.185 156.734 140.001 157.448 140.001C158.21 140.001 158.825 140.189 159.292 140.566C159.764 140.943 159.999 141.432 159.999 142.033H158.568C158.568 141.758 158.466 141.531 158.261 141.35C158.057 141.165 157.786 141.073 157.448 141.073C157.134 141.073 156.877 141.146 156.677 141.291C156.48 141.436 156.382 141.631 156.382 141.874C156.382 142.094 156.474 142.265 156.659 142.387C156.844 142.508 157.217 142.632 157.778 142.758C158.34 142.88 158.78 143.027 159.098 143.2C159.42 143.369 159.658 143.573 159.811 143.812C159.968 144.052 160.046 144.343 160.046 144.684C160.046 145.258 159.809 145.723 159.334 146.08C158.858 146.434 158.236 146.611 157.466 146.611C156.944 146.611 156.478 146.516 156.07 146.328C155.661 146.139 155.343 145.88 155.116 145.55C154.888 145.22 154.774 144.865 154.774 144.484H156.164C156.184 144.822 156.311 145.083 156.547 145.267C156.783 145.448 157.095 145.538 157.484 145.538C157.861 145.538 158.147 145.468 158.344 145.326C158.54 145.181 158.638 144.993 158.638 144.761ZM162.821 146.493H161.39V140.119H162.821V146.493ZM161.301 138.463C161.301 138.243 161.37 138.061 161.507 137.915C161.649 137.77 161.849 137.697 162.108 137.697C162.367 137.697 162.568 137.77 162.709 137.915C162.851 138.061 162.921 138.243 162.921 138.463C162.921 138.679 162.851 138.86 162.709 139.005C162.568 139.147 162.367 139.217 162.108 139.217C161.849 139.217 161.649 139.147 161.507 139.005C161.37 138.86 161.301 138.679 161.301 138.463ZM165.714 140.119L165.755 140.855C166.226 140.286 166.845 140.001 167.611 140.001C168.938 140.001 169.614 140.761 169.637 142.281V146.493H168.206V142.363C168.206 141.959 168.117 141.66 167.94 141.468C167.768 141.271 167.483 141.173 167.086 141.173C166.509 141.173 166.079 141.434 165.796 141.957V146.493H164.365V140.119H165.714ZM173.908 146.611C173.001 146.611 172.265 146.326 171.699 145.756C171.137 145.183 170.857 144.421 170.857 143.471V143.294C170.857 142.658 170.978 142.09 171.222 141.591C171.469 141.089 171.815 140.698 172.259 140.419C172.702 140.14 173.197 140.001 173.743 140.001C174.611 140.001 175.281 140.278 175.752 140.831C176.227 141.385 176.465 142.169 176.465 143.182V143.759H172.3C172.343 144.286 172.518 144.702 172.824 145.008C173.134 145.315 173.523 145.468 173.991 145.468C174.646 145.468 175.181 145.203 175.593 144.672L176.365 145.409C176.109 145.79 175.768 146.086 175.34 146.298C174.916 146.507 174.438 146.611 173.908 146.611ZM173.737 141.15C173.345 141.15 173.026 141.287 172.783 141.562C172.543 141.837 172.39 142.22 172.323 142.711H175.051V142.605C175.02 142.126 174.892 141.764 174.668 141.521C174.444 141.273 174.134 141.15 173.737 141.15ZM179.375 138.569V140.119H180.5V141.179H179.375V144.737C179.375 144.981 179.422 145.157 179.516 145.267C179.615 145.373 179.787 145.427 180.035 145.427C180.2 145.427 180.367 145.407 180.536 145.368V146.475C180.21 146.565 179.895 146.611 179.593 146.611C178.493 146.611 177.944 146.004 177.944 144.79V141.179H176.895V140.119H177.944V138.569H179.375Z" fill="black"/>
<path d="M113.483 229.875H110.274V238.726H108.499V229.875H105.318V228.433H113.483V229.875ZM116.367 231.911C116.928 231.261 117.638 230.936 118.495 230.936C120.126 230.936 120.953 231.866 120.977 233.728V238.726H119.259V233.792C119.259 233.264 119.143 232.892 118.912 232.675C118.686 232.453 118.352 232.342 117.909 232.342C117.22 232.342 116.707 232.649 116.367 233.261V238.726H114.65V227.868H116.367V231.911ZM127.29 238.726C127.214 238.58 127.148 238.342 127.092 238.012C126.545 238.582 125.876 238.867 125.084 238.867C124.316 238.867 123.689 238.648 123.203 238.21C122.718 237.772 122.475 237.23 122.475 236.584C122.475 235.769 122.777 235.144 123.38 234.711C123.988 234.272 124.855 234.053 125.982 234.053H127.035V233.551C127.035 233.155 126.924 232.84 126.703 232.604C126.481 232.364 126.144 232.244 125.692 232.244C125.301 232.244 124.98 232.342 124.73 232.54C124.481 232.734 124.356 232.981 124.356 233.283H122.638C122.638 232.863 122.777 232.472 123.055 232.109C123.333 231.742 123.71 231.454 124.186 231.247C124.667 231.039 125.202 230.936 125.791 230.936C126.686 230.936 127.4 231.162 127.933 231.614C128.465 232.062 128.739 232.694 128.753 233.509V236.959C128.753 237.647 128.85 238.196 129.043 238.606V238.726H127.29ZM125.402 237.489C125.741 237.489 126.059 237.406 126.356 237.242C126.658 237.077 126.884 236.855 127.035 236.577V235.135H126.109C125.473 235.135 124.994 235.246 124.674 235.467C124.353 235.689 124.193 236.002 124.193 236.407C124.193 236.737 124.302 237.001 124.518 237.199C124.74 237.392 125.034 237.489 125.402 237.489ZM132.146 231.077L132.196 231.961C132.761 231.277 133.503 230.936 134.422 230.936C136.015 230.936 136.826 231.848 136.854 233.672V238.726H135.136V233.77C135.136 233.285 135.03 232.927 134.818 232.696C134.611 232.46 134.269 232.342 133.793 232.342C133.101 232.342 132.584 232.656 132.245 233.283V238.726H130.527V231.077H132.146ZM141.096 235.446L140.332 236.231V238.726H138.615V227.868H140.332V234.131L140.87 233.459L142.983 231.077H145.048L142.206 234.265L145.352 238.726H143.365L141.096 235.446ZM152.456 236.266L154.012 231.077H155.843L152.803 239.885C152.336 241.172 151.544 241.815 150.427 241.815C150.178 241.815 149.902 241.773 149.6 241.688V240.359L149.925 240.38C150.359 240.38 150.684 240.3 150.901 240.14C151.123 239.984 151.297 239.72 151.424 239.348L151.672 238.691L148.985 231.077H150.837L152.456 236.266ZM156.401 234.831C156.401 234.082 156.549 233.408 156.846 232.809C157.143 232.206 157.56 231.744 158.098 231.423C158.635 231.098 159.252 230.936 159.95 230.936C160.982 230.936 161.818 231.268 162.459 231.932C163.105 232.597 163.454 233.478 163.506 234.576L163.513 234.979C163.513 235.733 163.367 236.407 163.074 237.001C162.787 237.595 162.372 238.054 161.83 238.38C161.293 238.705 160.671 238.867 159.964 238.867C158.885 238.867 158.02 238.509 157.369 237.793C156.724 237.072 156.401 236.113 156.401 234.916V234.831ZM158.119 234.979C158.119 235.766 158.281 236.384 158.607 236.831C158.932 237.275 159.384 237.496 159.964 237.496C160.544 237.496 160.994 237.27 161.314 236.817C161.639 236.365 161.802 235.703 161.802 234.831C161.802 234.058 161.635 233.445 161.3 232.993C160.97 232.54 160.52 232.314 159.95 232.314C159.389 232.314 158.944 232.538 158.614 232.986C158.284 233.429 158.119 234.093 158.119 234.979ZM169.599 237.977C169.095 238.571 168.379 238.867 167.45 238.867C166.621 238.867 165.992 238.625 165.563 238.139C165.139 237.654 164.927 236.952 164.927 236.033V231.077H166.644V236.011C166.644 236.982 167.047 237.468 167.853 237.468C168.687 237.468 169.251 237.168 169.543 236.57V231.077H171.261V238.726H169.642L169.599 237.977ZM174.831 235.693H173.353L173.191 228.433H175L174.831 235.693ZM173.141 237.913C173.141 237.644 173.228 237.423 173.403 237.249C173.577 237.069 173.815 236.98 174.117 236.98C174.418 236.98 174.656 237.069 174.831 237.249C175.005 237.423 175.092 237.644 175.092 237.913C175.092 238.172 175.007 238.389 174.838 238.563C174.668 238.738 174.428 238.825 174.117 238.825C173.806 238.825 173.565 238.738 173.396 238.563C173.226 238.389 173.141 238.172 173.141 237.913ZM109.404 250.311L111.772 245.433H113.752L110.302 251.937V255.726H108.506V251.937L105.049 245.433H107.036L109.404 250.311ZM113.914 251.831C113.914 251.082 114.063 250.408 114.36 249.809C114.657 249.206 115.074 248.744 115.611 248.423C116.148 248.098 116.766 247.936 117.463 247.936C118.495 247.936 119.332 248.268 119.973 248.932C120.618 249.597 120.967 250.478 121.019 251.576L121.026 251.979C121.026 252.733 120.88 253.407 120.588 254.001C120.3 254.595 119.886 255.054 119.344 255.38C118.806 255.705 118.184 255.867 117.477 255.867C116.398 255.867 115.533 255.509 114.883 254.793C114.237 254.072 113.914 253.113 113.914 251.916V251.831ZM115.632 251.979C115.632 252.766 115.795 253.384 116.12 253.831C116.445 254.275 116.898 254.496 117.477 254.496C118.057 254.496 118.507 254.27 118.828 253.817C119.153 253.365 119.315 252.703 119.315 251.831C119.315 251.058 119.148 250.445 118.813 249.993C118.484 249.54 118.033 249.314 117.463 249.314C116.902 249.314 116.457 249.538 116.127 249.986C115.797 250.429 115.632 251.093 115.632 251.979ZM127.113 254.977C126.609 255.571 125.892 255.867 124.964 255.867C124.134 255.867 123.505 255.625 123.076 255.139C122.652 254.654 122.44 253.952 122.44 253.033V248.077H124.158V253.011C124.158 253.982 124.561 254.468 125.367 254.468C126.201 254.468 126.764 254.168 127.056 253.57V248.077H128.774V255.726H127.155L127.113 254.977ZM134.529 249.646C134.302 249.609 134.069 249.59 133.829 249.59C133.042 249.59 132.511 249.892 132.238 250.495V255.726H130.52V248.077H132.16L132.203 248.932C132.617 248.268 133.192 247.936 133.928 247.936C134.173 247.936 134.375 247.969 134.536 248.035L134.529 249.646ZM138.897 251.831C138.897 251.082 139.046 250.408 139.343 249.809C139.64 249.206 140.057 248.744 140.594 248.423C141.131 248.098 141.749 247.936 142.446 247.936C143.478 247.936 144.315 248.268 144.956 248.932C145.601 249.597 145.95 250.478 146.002 251.576L146.009 251.979C146.009 252.733 145.863 253.407 145.571 254.001C145.283 254.595 144.869 255.054 144.327 255.38C143.789 255.705 143.167 255.867 142.46 255.867C141.381 255.867 140.516 255.509 139.866 254.793C139.22 254.072 138.897 253.113 138.897 251.916V251.831ZM140.615 251.979C140.615 252.766 140.778 253.384 141.103 253.831C141.428 254.275 141.881 254.496 142.46 254.496C143.04 254.496 143.49 254.27 143.811 253.817C144.136 253.365 144.298 252.703 144.298 251.831C144.298 251.058 144.131 250.445 143.796 249.993C143.467 249.54 143.016 249.314 142.446 249.314C141.885 249.314 141.44 249.538 141.11 249.986C140.78 250.429 140.615 251.093 140.615 251.979ZM151.467 249.646C151.24 249.609 151.007 249.59 150.767 249.59C149.98 249.59 149.449 249.892 149.176 250.495V255.726H147.458V248.077H149.098L149.141 248.932C149.556 248.268 150.131 247.936 150.866 247.936C151.111 247.936 151.313 247.969 151.474 248.035L151.467 249.646ZM152.089 251.845C152.089 250.667 152.362 249.722 152.909 249.01C153.455 248.294 154.188 247.936 155.107 247.936C155.918 247.936 156.573 248.218 157.073 248.784V244.868H158.79V255.726H157.235L157.15 254.934C156.637 255.556 155.951 255.867 155.093 255.867C154.198 255.867 153.472 255.507 152.916 254.786C152.364 254.065 152.089 253.085 152.089 251.845ZM153.807 251.993C153.807 252.771 153.955 253.379 154.252 253.817C154.554 254.251 154.98 254.468 155.531 254.468C156.234 254.468 156.747 254.154 157.073 253.528V250.261C156.757 249.649 156.248 249.342 155.546 249.342C154.989 249.342 154.561 249.564 154.259 250.007C153.957 250.445 153.807 251.107 153.807 251.993ZM163.951 255.867C162.862 255.867 161.979 255.526 161.3 254.842C160.626 254.154 160.289 253.24 160.289 252.1V251.887C160.289 251.124 160.435 250.443 160.727 249.844C161.024 249.241 161.439 248.772 161.972 248.438C162.504 248.103 163.098 247.936 163.753 247.936C164.795 247.936 165.598 248.268 166.164 248.932C166.734 249.597 167.019 250.537 167.019 251.753V252.446H162.021C162.073 253.077 162.283 253.577 162.65 253.945C163.023 254.312 163.489 254.496 164.05 254.496C164.837 254.496 165.478 254.178 165.973 253.542L166.899 254.425C166.593 254.882 166.183 255.238 165.669 255.493C165.16 255.743 164.587 255.867 163.951 255.867ZM163.746 249.314C163.275 249.314 162.893 249.479 162.601 249.809C162.313 250.139 162.129 250.598 162.049 251.188H165.322V251.06C165.285 250.485 165.132 250.052 164.863 249.76C164.594 249.463 164.222 249.314 163.746 249.314ZM172.364 249.646C172.137 249.609 171.904 249.59 171.664 249.59C170.877 249.59 170.346 249.892 170.073 250.495V255.726H168.355V248.077H169.995L170.038 248.932C170.452 248.268 171.027 247.936 171.763 247.936C172.008 247.936 172.21 247.969 172.371 248.035L172.364 249.646ZM178.747 248.911C179.308 248.261 180.017 247.936 180.875 247.936C182.506 247.936 183.333 248.866 183.356 250.728V255.726H181.638V250.792C181.638 250.264 181.523 249.892 181.292 249.675C181.066 249.453 180.731 249.342 180.288 249.342C179.6 249.342 179.086 249.649 178.747 250.261V255.726H177.029V244.868H178.747V248.911ZM189.669 255.726C189.594 255.58 189.528 255.342 189.471 255.012C188.925 255.582 188.255 255.867 187.464 255.867C186.695 255.867 186.069 255.648 185.583 255.21C185.098 254.772 184.855 254.23 184.855 253.584C184.855 252.769 185.157 252.144 185.76 251.711C186.368 251.272 187.235 251.053 188.361 251.053H189.415V250.551C189.415 250.155 189.304 249.84 189.082 249.604C188.861 249.364 188.524 249.244 188.072 249.244C187.68 249.244 187.36 249.342 187.11 249.54C186.86 249.734 186.735 249.981 186.735 250.283H185.018C185.018 249.863 185.157 249.472 185.435 249.109C185.713 248.742 186.09 248.454 186.566 248.247C187.046 248.039 187.581 247.936 188.17 247.936C189.066 247.936 189.78 248.162 190.312 248.614C190.845 249.062 191.118 249.694 191.133 250.509V253.959C191.133 254.647 191.229 255.196 191.422 255.606V255.726H189.669ZM187.782 254.489C188.121 254.489 188.439 254.406 188.736 254.242C189.038 254.077 189.264 253.855 189.415 253.577V252.135H188.489C187.852 252.135 187.374 252.246 187.054 252.467C186.733 252.689 186.573 253.002 186.573 253.407C186.573 253.737 186.681 254.001 186.898 254.199C187.12 254.392 187.414 254.489 187.782 254.489ZM197.219 253.648C197.219 253.341 197.092 253.108 196.837 252.948C196.588 252.788 196.171 252.646 195.586 252.524C195.002 252.401 194.514 252.246 194.123 252.057C193.265 251.642 192.836 251.041 192.836 250.254C192.836 249.595 193.114 249.043 193.67 248.6C194.227 248.157 194.933 247.936 195.791 247.936C196.706 247.936 197.443 248.162 198.004 248.614C198.569 249.067 198.852 249.654 198.852 250.375H197.134C197.134 250.045 197.012 249.771 196.767 249.555C196.522 249.333 196.197 249.222 195.791 249.222C195.414 249.222 195.105 249.309 194.865 249.484C194.629 249.658 194.512 249.892 194.512 250.184C194.512 250.448 194.622 250.653 194.844 250.799C195.065 250.945 195.513 251.093 196.187 251.244C196.861 251.39 197.389 251.567 197.771 251.774C198.157 251.977 198.442 252.222 198.626 252.51C198.815 252.797 198.909 253.146 198.909 253.556C198.909 254.244 198.624 254.802 198.053 255.231C197.483 255.655 196.736 255.867 195.812 255.867C195.186 255.867 194.627 255.754 194.137 255.528C193.647 255.302 193.265 254.991 192.992 254.595C192.718 254.199 192.582 253.773 192.582 253.315H194.25C194.274 253.721 194.427 254.034 194.71 254.256C194.992 254.472 195.367 254.581 195.834 254.581C196.286 254.581 196.63 254.496 196.866 254.326C197.101 254.152 197.219 253.926 197.219 253.648ZM210.729 251.979C210.729 253.167 210.462 254.112 209.93 254.814C209.402 255.516 208.674 255.867 207.745 255.867C206.85 255.867 206.152 255.545 205.653 254.899L205.568 255.726H204.013V244.868H205.731V248.812C206.226 248.228 206.892 247.936 207.731 247.936C208.664 247.936 209.397 248.282 209.93 248.975C210.462 249.668 210.729 250.636 210.729 251.88V251.979ZM209.011 251.831C209.011 251.001 208.865 250.379 208.573 249.965C208.28 249.55 207.856 249.342 207.3 249.342C206.555 249.342 206.032 249.668 205.731 250.318V253.471C206.037 254.135 206.565 254.468 207.314 254.468C207.851 254.468 208.266 254.267 208.558 253.867C208.851 253.466 209.001 252.861 209.011 252.05V251.831ZM215.543 255.867C214.454 255.867 213.571 255.526 212.892 254.842C212.218 254.154 211.881 253.24 211.881 252.1V251.887C211.881 251.124 212.027 250.443 212.319 249.844C212.616 249.241 213.031 248.772 213.563 248.438C214.096 248.103 214.69 247.936 215.345 247.936C216.386 247.936 217.19 248.268 217.756 248.932C218.326 249.597 218.611 250.537 218.611 251.753V252.446H213.613C213.665 253.077 213.875 253.577 214.242 253.945C214.614 254.312 215.081 254.496 215.642 254.496C216.429 254.496 217.07 254.178 217.565 253.542L218.491 254.425C218.184 254.882 217.774 255.238 217.261 255.493C216.752 255.743 216.179 255.867 215.543 255.867ZM215.338 249.314C214.867 249.314 214.485 249.479 214.193 249.809C213.905 250.139 213.721 250.598 213.641 251.188H216.914V251.06C216.877 250.485 216.723 250.052 216.455 249.76C216.186 249.463 215.814 249.314 215.338 249.314ZM223.319 255.867C222.23 255.867 221.347 255.526 220.668 254.842C219.994 254.154 219.657 253.24 219.657 252.1V251.887C219.657 251.124 219.803 250.443 220.096 249.844C220.392 249.241 220.807 248.772 221.34 248.438C221.872 248.103 222.466 247.936 223.121 247.936C224.163 247.936 224.966 248.268 225.532 248.932C226.102 249.597 226.387 250.537 226.387 251.753V252.446H221.389C221.441 253.077 221.651 253.577 222.018 253.945C222.391 254.312 222.857 254.496 223.418 254.496C224.205 254.496 224.846 254.178 225.341 253.542L226.267 254.425C225.961 254.882 225.551 255.238 225.037 255.493C224.528 255.743 223.955 255.867 223.319 255.867ZM223.114 249.314C222.643 249.314 222.261 249.479 221.969 249.809C221.681 250.139 221.498 250.598 221.417 251.188H224.691V251.06C224.653 250.485 224.5 250.052 224.231 249.76C223.962 249.463 223.59 249.314 223.114 249.314ZM229.321 248.077L229.37 248.961C229.936 248.277 230.678 247.936 231.597 247.936C233.19 247.936 234.001 248.848 234.029 250.672V255.726H232.311V250.77C232.311 250.285 232.205 249.927 231.993 249.696C231.786 249.46 231.444 249.342 230.968 249.342C230.275 249.342 229.759 249.656 229.42 250.283V255.726H227.702V248.077H229.321ZM109.022 271.496C109.451 271.496 109.807 271.371 110.09 271.121C110.373 270.872 110.523 270.563 110.542 270.195H112.161C112.142 270.671 111.994 271.117 111.716 271.531C111.438 271.941 111.061 272.267 110.585 272.507C110.109 272.747 109.595 272.867 109.044 272.867C107.974 272.867 107.126 272.521 106.499 271.828C105.872 271.135 105.558 270.179 105.558 268.958V268.781C105.558 267.617 105.87 266.687 106.492 265.989C107.114 265.287 107.962 264.936 109.037 264.936C109.946 264.936 110.686 265.202 111.256 265.735C111.831 266.262 112.133 266.958 112.161 267.82H110.542C110.523 267.382 110.373 267.021 110.09 266.738C109.812 266.456 109.456 266.314 109.022 266.314C108.466 266.314 108.037 266.517 107.736 266.922C107.434 267.323 107.281 267.933 107.276 268.753V269.029C107.276 269.858 107.425 270.478 107.722 270.888C108.023 271.293 108.457 271.496 109.022 271.496ZM113.137 268.831C113.137 268.082 113.285 267.408 113.582 266.809C113.879 266.206 114.296 265.744 114.833 265.423C115.371 265.098 115.988 264.936 116.686 264.936C117.718 264.936 118.554 265.268 119.195 265.932C119.841 266.597 120.19 267.478 120.241 268.576L120.249 268.979C120.249 269.733 120.102 270.407 119.81 271.001C119.523 271.595 119.108 272.054 118.566 272.38C118.029 272.705 117.407 272.867 116.7 272.867C115.62 272.867 114.756 272.509 114.105 271.793C113.46 271.072 113.137 270.113 113.137 268.916V268.831ZM114.855 268.979C114.855 269.766 115.017 270.384 115.342 270.831C115.668 271.275 116.12 271.496 116.7 271.496C117.279 271.496 117.729 271.27 118.05 270.817C118.375 270.365 118.538 269.703 118.538 268.831C118.538 268.058 118.37 267.445 118.036 266.993C117.706 266.54 117.256 266.314 116.686 266.314C116.125 266.314 115.679 266.538 115.349 266.986C115.02 267.429 114.855 268.093 114.855 268.979ZM123.295 265.077L123.345 265.961C123.91 265.277 124.653 264.936 125.572 264.936C127.165 264.936 127.975 265.848 128.004 267.672V272.726H126.286V267.77C126.286 267.285 126.18 266.927 125.968 266.696C125.76 266.46 125.419 266.342 124.943 266.342C124.25 266.342 123.734 266.656 123.394 267.283V272.726H121.677V265.077H123.295ZM130.216 272.726V266.35H129.05V265.077H130.216V264.554C130.221 263.955 130.348 263.442 130.598 263.013C130.848 262.584 131.201 262.261 131.658 262.044C132.116 261.828 132.665 261.719 133.306 261.719C133.683 261.719 134.043 261.759 134.387 261.839C134.736 261.919 135.096 262.021 135.469 262.143L135.207 263.564C134.557 263.338 133.963 263.225 133.426 263.225C132.903 263.225 132.523 263.34 132.288 263.571C132.052 263.798 131.934 264.139 131.934 264.596V265.077H133.44V266.35H131.934V272.726H130.216ZM136.282 272.726H134.564V265.077H136.282V272.726ZM142.192 266.646C141.965 266.609 141.732 266.59 141.492 266.59C140.705 266.59 140.175 266.892 139.901 267.495V272.726H138.183V265.077H139.823L139.866 265.932C140.281 265.268 140.856 264.936 141.591 264.936C141.836 264.936 142.038 264.969 142.199 265.035L142.192 266.646ZM144.892 265.077L144.942 265.876C145.479 265.249 146.214 264.936 147.147 264.936C148.17 264.936 148.87 265.327 149.247 266.109C149.803 265.327 150.585 264.936 151.594 264.936C152.437 264.936 153.064 265.169 153.474 265.636C153.889 266.102 154.101 266.79 154.111 267.7V272.726H152.393V267.749C152.393 267.264 152.287 266.908 152.075 266.682C151.862 266.456 151.511 266.342 151.021 266.342C150.63 266.342 150.31 266.449 150.06 266.661C149.815 266.868 149.643 267.141 149.544 267.481L149.551 272.726H147.833V267.693C147.809 266.793 147.35 266.342 146.454 266.342C145.766 266.342 145.279 266.623 144.991 267.184V272.726H143.273V265.077H144.892ZM159.243 272.867C158.154 272.867 157.271 272.526 156.592 271.842C155.918 271.154 155.581 270.24 155.581 269.1V268.887C155.581 268.124 155.727 267.443 156.019 266.844C156.316 266.241 156.731 265.772 157.263 265.438C157.796 265.103 158.39 264.936 159.045 264.936C160.086 264.936 160.89 265.268 161.456 265.932C162.026 266.597 162.311 267.537 162.311 268.753V269.446H157.313C157.365 270.077 157.574 270.577 157.942 270.945C158.314 271.312 158.781 271.496 159.342 271.496C160.129 271.496 160.77 271.178 161.265 270.542L162.191 271.425C161.884 271.882 161.474 272.238 160.961 272.493C160.452 272.743 159.879 272.867 159.243 272.867ZM159.038 266.314C158.567 266.314 158.185 266.479 157.893 266.809C157.605 267.139 157.421 267.598 157.341 268.188H160.614V268.06C160.577 267.485 160.423 267.052 160.155 266.76C159.886 266.463 159.514 266.314 159.038 266.314ZM163.329 268.845C163.329 267.667 163.602 266.722 164.149 266.01C164.696 265.294 165.429 264.936 166.348 264.936C167.158 264.936 167.813 265.218 168.313 265.784V261.868H170.031V272.726H168.475L168.391 271.934C167.877 272.556 167.191 272.867 166.333 272.867C165.438 272.867 164.712 272.507 164.156 271.786C163.605 271.065 163.329 270.085 163.329 268.845ZM165.047 268.993C165.047 269.771 165.195 270.379 165.492 270.817C165.794 271.251 166.22 271.468 166.772 271.468C167.474 271.468 167.988 271.154 168.313 270.528V267.261C167.997 266.649 167.488 266.342 166.786 266.342C166.23 266.342 165.801 266.564 165.499 267.007C165.198 267.445 165.047 268.107 165.047 268.993ZM172.894 270.916C173.214 270.916 173.462 271.008 173.636 271.192C173.81 271.371 173.898 271.597 173.898 271.871C173.898 272.139 173.81 272.363 173.636 272.542C173.462 272.717 173.214 272.804 172.894 272.804C172.587 272.804 172.345 272.717 172.166 272.542C171.986 272.368 171.897 272.144 171.897 271.871C171.897 271.597 171.984 271.371 172.158 271.192C172.333 271.008 172.578 270.916 172.894 270.916Z" fill="black"/>
<path d="M106.836 293.813L106.968 294.718L107.161 293.902L108.518 289.114H109.282L110.606 293.902L110.795 294.732L110.941 293.808L112.006 289.114H112.916L111.252 295.976H110.427L109.013 290.976L108.905 290.453L108.796 290.976L107.331 295.976H106.506L104.847 289.114H105.752L106.836 293.813ZM115.632 296.07C114.941 296.07 114.378 295.844 113.945 295.392C113.511 294.936 113.294 294.328 113.294 293.568V293.408C113.294 292.902 113.39 292.451 113.582 292.055C113.777 291.656 114.047 291.345 114.393 291.122C114.741 290.896 115.118 290.782 115.524 290.782C116.187 290.782 116.702 291.001 117.069 291.438C117.437 291.874 117.621 292.5 117.621 293.313V293.676H114.166C114.179 294.179 114.325 294.586 114.605 294.897C114.887 295.205 115.246 295.359 115.679 295.359C115.987 295.359 116.248 295.296 116.461 295.17C116.675 295.044 116.862 294.878 117.022 294.671L117.555 295.085C117.128 295.742 116.487 296.07 115.632 296.07ZM115.524 291.499C115.172 291.499 114.876 291.628 114.638 291.885C114.399 292.14 114.251 292.498 114.195 292.96H116.749V292.894C116.724 292.451 116.604 292.108 116.391 291.866C116.177 291.621 115.888 291.499 115.524 291.499ZM125.302 294.774L126.282 290.877H127.154L125.669 295.976H124.963L123.723 292.112L122.517 295.976H121.81L120.33 290.877H121.197L122.201 294.694L123.388 290.877H124.091L125.302 294.774ZM128.871 295.976H128V290.877H128.871V295.976ZM127.929 289.524C127.929 289.383 127.971 289.263 128.056 289.166C128.144 289.069 128.273 289.02 128.443 289.02C128.612 289.02 128.741 289.069 128.829 289.166C128.917 289.263 128.961 289.383 128.961 289.524C128.961 289.666 128.917 289.783 128.829 289.878C128.741 289.972 128.612 290.019 128.443 290.019C128.273 290.019 128.144 289.972 128.056 289.878C127.971 289.783 127.929 289.666 127.929 289.524ZM131.098 295.976H130.226V288.737H131.098V295.976ZM133.324 295.976H132.452V288.737H133.324V295.976ZM139.846 294.623C139.846 294.388 139.756 294.206 139.577 294.077C139.401 293.945 139.092 293.832 138.649 293.737C138.209 293.643 137.859 293.53 137.598 293.398C137.34 293.266 137.148 293.109 137.023 292.927C136.9 292.745 136.839 292.528 136.839 292.276C136.839 291.859 137.015 291.505 137.367 291.216C137.722 290.927 138.174 290.782 138.724 290.782C139.302 290.782 139.77 290.932 140.129 291.23C140.49 291.529 140.671 291.91 140.671 292.375H139.794C139.794 292.137 139.692 291.931 139.488 291.758C139.287 291.585 139.032 291.499 138.724 291.499C138.407 291.499 138.159 291.568 137.98 291.706C137.8 291.844 137.711 292.025 137.711 292.248C137.711 292.459 137.794 292.617 137.961 292.724C138.127 292.831 138.427 292.933 138.861 293.031C139.298 293.128 139.651 293.244 139.921 293.379C140.191 293.514 140.391 293.678 140.52 293.869C140.652 294.058 140.718 294.289 140.718 294.562C140.718 295.018 140.535 295.384 140.171 295.66C139.807 295.934 139.334 296.07 138.752 296.07C138.344 296.07 137.983 295.998 137.668 295.854C137.354 295.709 137.108 295.508 136.929 295.25C136.753 294.99 136.665 294.708 136.665 294.407H137.537C137.552 294.699 137.668 294.931 137.885 295.104C138.105 295.274 138.394 295.359 138.752 295.359C139.082 295.359 139.346 295.293 139.544 295.161C139.745 295.026 139.846 294.847 139.846 294.623ZM143.849 296.07C143.158 296.07 142.595 295.844 142.162 295.392C141.728 294.936 141.511 294.328 141.511 293.568V293.408C141.511 292.902 141.607 292.451 141.799 292.055C141.994 291.656 142.264 291.345 142.609 291.122C142.958 290.896 143.335 290.782 143.741 290.782C144.403 290.782 144.919 291.001 145.286 291.438C145.654 291.874 145.838 292.5 145.838 293.313V293.676H142.383C142.396 294.179 142.542 294.586 142.822 294.897C143.104 295.205 143.462 295.359 143.896 295.359C144.204 295.359 144.465 295.296 144.678 295.17C144.892 295.044 145.079 294.878 145.239 294.671L145.772 295.085C145.344 295.742 144.704 296.07 143.849 296.07ZM143.741 291.499C143.389 291.499 143.093 291.628 142.855 291.885C142.616 292.14 142.468 292.498 142.412 292.96H144.966V292.894C144.941 292.451 144.821 292.108 144.608 291.866C144.394 291.621 144.105 291.499 143.741 291.499ZM147.555 290.877L147.583 291.518C147.973 291.028 148.482 290.782 149.11 290.782C150.188 290.782 150.732 291.39 150.741 292.606V295.976H149.869V292.602C149.866 292.234 149.781 291.962 149.615 291.786C149.451 291.61 149.195 291.522 148.846 291.522C148.564 291.522 148.315 291.598 148.102 291.749C147.888 291.899 147.722 292.097 147.602 292.342V295.976H146.73V290.877H147.555ZM151.723 293.384C151.723 292.602 151.909 291.973 152.279 291.499C152.65 291.021 153.136 290.782 153.736 290.782C154.333 290.782 154.805 290.987 155.154 291.395V288.737H156.026V295.976H155.225L155.182 295.429C154.834 295.857 154.348 296.07 153.726 296.07C153.136 296.07 152.653 295.828 152.279 295.345C151.909 294.861 151.723 294.229 151.723 293.45V293.384ZM152.595 293.483C152.595 294.061 152.714 294.514 152.953 294.84C153.192 295.167 153.522 295.33 153.943 295.33C154.496 295.33 154.9 295.082 155.154 294.586V292.243C154.893 291.763 154.493 291.522 153.952 291.522C153.525 291.522 153.192 291.687 152.953 292.017C152.714 292.347 152.595 292.836 152.595 293.483ZM162.684 295.976C162.634 295.876 162.593 295.696 162.562 295.439C162.157 295.86 161.673 296.07 161.11 296.07C160.608 296.07 160.194 295.929 159.871 295.646C159.55 295.36 159.39 294.999 159.39 294.562C159.39 294.031 159.591 293.62 159.993 293.327C160.399 293.032 160.967 292.884 161.699 292.884H162.548V292.484C162.548 292.179 162.457 291.937 162.274 291.758C162.092 291.576 161.824 291.485 161.469 291.485C161.157 291.485 160.897 291.563 160.686 291.72C160.476 291.877 160.37 292.068 160.37 292.291H159.494C159.494 292.036 159.583 291.791 159.762 291.555C159.945 291.317 160.19 291.128 160.498 290.99C160.809 290.852 161.15 290.782 161.52 290.782C162.108 290.782 162.568 290.93 162.901 291.225C163.234 291.518 163.407 291.921 163.42 292.437V294.784C163.42 295.252 163.479 295.624 163.599 295.901V295.976H162.684ZM161.238 295.312C161.511 295.312 161.77 295.241 162.015 295.099C162.26 294.958 162.438 294.774 162.548 294.548V293.502H161.864C160.796 293.502 160.262 293.814 160.262 294.44C160.262 294.713 160.353 294.927 160.535 295.081C160.718 295.235 160.952 295.312 161.238 295.312ZM168.985 295.359C169.296 295.359 169.567 295.264 169.8 295.076C170.032 294.887 170.161 294.652 170.186 294.369H171.011C170.995 294.661 170.895 294.939 170.71 295.203C170.524 295.467 170.276 295.678 169.965 295.835C169.657 295.992 169.33 296.07 168.985 296.07C168.29 296.07 167.737 295.839 167.326 295.378C166.917 294.913 166.713 294.278 166.713 293.474V293.327C166.713 292.831 166.804 292.39 166.986 292.003C167.169 291.617 167.429 291.317 167.769 291.103C168.111 290.889 168.515 290.782 168.98 290.782C169.552 290.782 170.026 290.954 170.403 291.296C170.783 291.639 170.986 292.083 171.011 292.63H170.186C170.161 292.3 170.036 292.03 169.809 291.819C169.586 291.606 169.31 291.499 168.98 291.499C168.537 291.499 168.193 291.659 167.948 291.98C167.706 292.297 167.585 292.757 167.585 293.36V293.525C167.585 294.113 167.706 294.565 167.948 294.883C168.19 295.2 168.535 295.359 168.985 295.359ZM171.64 293.379C171.64 292.88 171.737 292.43 171.932 292.031C172.13 291.632 172.403 291.324 172.752 291.108C173.104 290.891 173.505 290.782 173.954 290.782C174.648 290.782 175.209 291.023 175.636 291.504C176.067 291.984 176.282 292.624 176.282 293.422V293.483C176.282 293.979 176.186 294.426 175.995 294.821C175.806 295.214 175.534 295.52 175.179 295.74C174.827 295.96 174.422 296.07 173.963 296.07C173.272 296.07 172.711 295.83 172.281 295.349C171.853 294.869 171.64 294.232 171.64 293.441V293.379ZM172.516 293.483C172.516 294.049 172.647 294.503 172.908 294.845C173.172 295.187 173.523 295.359 173.963 295.359C174.406 295.359 174.758 295.186 175.019 294.84C175.28 294.492 175.41 294.005 175.41 293.379C175.41 292.82 175.277 292.368 175.01 292.022C174.746 291.673 174.394 291.499 173.954 291.499C173.523 291.499 173.176 291.67 172.912 292.013C172.648 292.355 172.516 292.845 172.516 293.483ZM178.08 290.877L178.108 291.518C178.497 291.028 179.006 290.782 179.635 290.782C180.712 290.782 181.256 291.39 181.265 292.606V295.976H180.394V292.602C180.39 292.234 180.306 291.962 180.139 291.786C179.976 291.61 179.72 291.522 179.371 291.522C179.088 291.522 178.84 291.598 178.626 291.749C178.413 291.899 178.246 292.097 178.127 292.342V295.976H177.255V290.877H178.08ZM182.752 295.976V291.551H181.946V290.877H182.752V290.443C182.752 289.874 182.914 289.431 183.237 289.114C183.564 288.797 184.024 288.638 184.618 288.638C184.97 288.638 185.415 288.734 185.952 288.926L185.806 289.661C185.413 289.504 185.039 289.425 184.684 289.425C184.31 289.425 184.04 289.51 183.874 289.68C183.71 289.846 183.628 290.098 183.628 290.434V290.877H184.67V291.551H183.628V295.976H182.752ZM186.385 295.976H185.509V290.877H186.385V295.976ZM190.148 291.659C190.016 291.637 189.873 291.626 189.719 291.626C189.148 291.626 188.76 291.87 188.555 292.357V295.976H187.683V290.877H188.532L188.546 291.466C188.832 291.01 189.237 290.782 189.762 290.782C189.931 290.782 190.06 290.804 190.148 290.848V291.659ZM191.654 290.877L191.677 291.442C192.051 291.002 192.555 290.782 193.19 290.782C193.903 290.782 194.389 291.056 194.646 291.603C194.816 291.357 195.036 291.16 195.306 291.009C195.579 290.858 195.901 290.782 196.272 290.782C197.391 290.782 197.959 291.375 197.978 292.559V295.976H197.106V292.611C197.106 292.247 197.023 291.975 196.857 291.796C196.69 291.614 196.41 291.522 196.018 291.522C195.694 291.522 195.425 291.62 195.212 291.815C194.998 292.006 194.874 292.265 194.839 292.592V295.976H193.963V292.635C193.963 291.893 193.6 291.522 192.874 291.522C192.302 291.522 191.911 291.766 191.701 292.253V295.976H190.829V290.877H191.654ZM202.325 295.976C202.275 295.876 202.234 295.696 202.203 295.439C201.798 295.86 201.314 296.07 200.751 296.07C200.249 296.07 199.835 295.929 199.512 295.646C199.191 295.36 199.031 294.999 199.031 294.562C199.031 294.031 199.232 293.62 199.634 293.327C200.04 293.032 200.608 292.884 201.34 292.884H202.189V292.484C202.189 292.179 202.098 291.937 201.915 291.758C201.733 291.576 201.464 291.485 201.109 291.485C200.798 291.485 200.538 291.563 200.327 291.72C200.117 291.877 200.011 292.068 200.011 292.291H199.135C199.135 292.036 199.224 291.791 199.403 291.555C199.586 291.317 199.831 291.128 200.139 290.99C200.45 290.852 200.791 290.782 201.161 290.782C201.749 290.782 202.209 290.93 202.542 291.225C202.875 291.518 203.048 291.921 203.061 292.437V294.784C203.061 295.252 203.12 295.624 203.24 295.901V295.976H202.325ZM200.879 295.312C201.152 295.312 201.411 295.241 201.656 295.099C201.901 294.958 202.079 294.774 202.189 294.548V293.502H201.505C200.437 293.502 199.903 293.814 199.903 294.44C199.903 294.713 199.994 294.927 200.176 295.081C200.359 295.235 200.593 295.312 200.879 295.312ZM205.49 289.642V290.877H206.442V291.551H205.49V294.713C205.49 294.917 205.532 295.071 205.617 295.175C205.702 295.275 205.846 295.326 206.05 295.326C206.151 295.326 206.289 295.307 206.465 295.269V295.976C206.236 296.039 206.013 296.07 205.796 296.07C205.406 296.07 205.113 295.953 204.915 295.717C204.717 295.481 204.618 295.147 204.618 294.713V291.551H203.689V290.877H204.618V289.642H205.49ZM208.291 295.976H207.419V290.877H208.291V295.976ZM207.348 289.524C207.348 289.383 207.391 289.263 207.476 289.166C207.564 289.069 207.692 289.02 207.862 289.02C208.032 289.02 208.161 289.069 208.249 289.166C208.336 289.263 208.38 289.383 208.38 289.524C208.38 289.666 208.336 289.783 208.249 289.878C208.161 289.972 208.032 290.019 207.862 290.019C207.692 290.019 207.564 289.972 207.476 289.878C207.391 289.783 207.348 289.666 207.348 289.524ZM209.339 293.379C209.339 292.88 209.436 292.43 209.631 292.031C209.829 291.632 210.103 291.324 210.451 291.108C210.803 290.891 211.204 290.782 211.653 290.782C212.347 290.782 212.908 291.023 213.336 291.504C213.766 291.984 213.981 292.624 213.981 293.422V293.483C213.981 293.979 213.885 294.426 213.694 294.821C213.505 295.214 213.233 295.52 212.878 295.74C212.527 295.96 212.121 296.07 211.663 296.07C210.971 296.07 210.41 295.83 209.98 295.349C209.553 294.869 209.339 294.232 209.339 293.441V293.379ZM210.216 293.483C210.216 294.049 210.346 294.503 210.607 294.845C210.871 295.187 211.223 295.359 211.663 295.359C212.106 295.359 212.457 295.186 212.718 294.84C212.979 294.492 213.109 294.005 213.109 293.379C213.109 292.82 212.976 292.368 212.709 292.022C212.445 291.673 212.093 291.499 211.653 291.499C211.223 291.499 210.875 291.67 210.612 292.013C210.348 292.355 210.216 292.845 210.216 293.483ZM215.779 290.877L215.807 291.518C216.197 291.028 216.706 290.782 217.334 290.782C218.412 290.782 218.955 291.39 218.965 292.606V295.976H218.093V292.602C218.09 292.234 218.005 291.962 217.838 291.786C217.675 291.61 217.419 291.522 217.07 291.522C216.787 291.522 216.539 291.598 216.325 291.749C216.112 291.899 215.945 292.097 215.826 292.342V295.976H214.954V290.877H215.779ZM223.615 289.642V290.877H224.567V291.551H223.615V294.713C223.615 294.917 223.658 295.071 223.743 295.175C223.827 295.275 223.972 295.326 224.176 295.326C224.277 295.326 224.415 295.307 224.591 295.269V295.976C224.362 296.039 224.138 296.07 223.922 296.07C223.532 296.07 223.238 295.953 223.04 295.717C222.842 295.481 222.743 295.147 222.743 294.713V291.551H221.815V290.877H222.743V289.642H223.615ZM225.144 293.379C225.144 292.88 225.242 292.43 225.436 292.031C225.634 291.632 225.908 291.324 226.256 291.108C226.608 290.891 227.009 290.782 227.458 290.782C228.153 290.782 228.713 291.023 229.141 291.504C229.571 291.984 229.786 292.624 229.786 293.422V293.483C229.786 293.979 229.691 294.426 229.499 294.821C229.31 295.214 229.039 295.52 228.684 295.74C228.332 295.96 227.926 296.07 227.468 296.07C226.776 296.07 226.216 295.83 225.785 295.349C225.358 294.869 225.144 294.232 225.144 293.441V293.379ZM226.021 293.483C226.021 294.049 226.151 294.503 226.412 294.845C226.676 295.187 227.028 295.359 227.468 295.359C227.911 295.359 228.263 295.186 228.523 294.84C228.784 294.492 228.914 294.005 228.914 293.379C228.914 292.82 228.781 292.368 228.514 292.022C228.25 291.673 227.898 291.499 227.458 291.499C227.028 291.499 226.681 291.67 226.417 292.013C226.153 292.355 226.021 292.845 226.021 293.483ZM234.701 294.699L235.889 290.877H236.822L234.772 296.763C234.454 297.611 233.95 298.036 233.259 298.036L233.094 298.021L232.769 297.96V297.253L233.004 297.272C233.3 297.272 233.529 297.212 233.692 297.093C233.859 296.974 233.996 296.755 234.102 296.438L234.296 295.92L232.476 290.877H233.428L234.701 294.699ZM237.177 293.379C237.177 292.88 237.275 292.43 237.469 292.031C237.667 291.632 237.941 291.324 238.289 291.108C238.641 290.891 239.042 290.782 239.491 290.782C240.185 290.782 240.746 291.023 241.174 291.504C241.604 291.984 241.819 292.624 241.819 293.422V293.483C241.819 293.979 241.723 294.426 241.532 294.821C241.343 295.214 241.072 295.52 240.716 295.74C240.365 295.96 239.959 296.07 239.501 296.07C238.809 296.07 238.248 295.83 237.818 295.349C237.391 294.869 237.177 294.232 237.177 293.441V293.379ZM238.054 293.483C238.054 294.049 238.184 294.503 238.445 294.845C238.709 295.187 239.061 295.359 239.501 295.359C239.944 295.359 240.295 295.186 240.556 294.84C240.817 294.492 240.947 294.005 240.947 293.379C240.947 292.82 240.814 292.368 240.547 292.022C240.283 291.673 239.931 291.499 239.491 291.499C239.061 291.499 238.713 291.67 238.45 292.013C238.186 292.355 238.054 292.845 238.054 293.483ZM245.94 295.472C245.601 295.871 245.103 296.07 244.446 296.07C243.903 296.07 243.488 295.913 243.202 295.599C242.919 295.282 242.776 294.814 242.773 294.195V290.877H243.645V294.171C243.645 294.944 243.959 295.33 244.588 295.33C245.254 295.33 245.697 295.082 245.917 294.586V290.877H246.789V295.976H245.959L245.94 295.472ZM250.462 291.659C250.33 291.637 250.187 291.626 250.033 291.626C249.461 291.626 249.073 291.87 248.869 292.357V295.976H247.997V290.877H248.845L248.859 291.466C249.145 291.01 249.551 290.782 250.075 290.782C250.245 290.782 250.374 290.804 250.462 290.848V291.659ZM255.537 296.07C254.845 296.07 254.283 295.844 253.849 295.392C253.416 294.936 253.199 294.328 253.199 293.568V293.408C253.199 292.902 253.295 292.451 253.486 292.055C253.681 291.656 253.951 291.345 254.297 291.122C254.646 290.896 255.023 290.782 255.428 290.782C256.091 290.782 256.606 291.001 256.974 291.438C257.342 291.874 257.525 292.5 257.525 293.313V293.676H254.071C254.083 294.179 254.23 294.586 254.509 294.897C254.792 295.205 255.15 295.359 255.584 295.359C255.892 295.359 256.152 295.296 256.366 295.17C256.58 295.044 256.767 294.878 256.927 294.671L257.459 295.085C257.032 295.742 256.391 296.07 255.537 296.07ZM255.428 291.499C255.076 291.499 254.781 291.628 254.542 291.885C254.303 292.14 254.156 292.498 254.099 292.96H256.654V292.894C256.628 292.451 256.509 292.108 256.295 291.866C256.082 291.621 255.793 291.499 255.428 291.499ZM260.232 293.417H257.933V292.705H260.232V293.417ZM261.785 290.877L261.808 291.442C262.182 291.002 262.687 290.782 263.321 290.782C264.035 290.782 264.52 291.056 264.778 291.603C264.947 291.357 265.167 291.16 265.437 291.009C265.711 290.858 266.033 290.782 266.404 290.782C267.522 290.782 268.091 291.375 268.11 292.559V295.976H267.238V292.611C267.238 292.247 267.154 291.975 266.988 291.796C266.821 291.614 266.542 291.522 266.149 291.522C265.825 291.522 265.557 291.62 265.343 291.815C265.129 292.006 265.005 292.265 264.971 292.592V295.976H264.094V292.635C264.094 291.893 263.731 291.522 263.006 291.522C262.434 291.522 262.043 291.766 261.832 292.253V295.976H260.96V290.877H261.785ZM272.457 295.976C272.406 295.876 272.366 295.696 272.334 295.439C271.929 295.86 271.445 296.07 270.883 296.07C270.38 296.07 269.967 295.929 269.643 295.646C269.323 295.36 269.162 294.999 269.162 294.562C269.162 294.031 269.364 293.62 269.766 293.327C270.171 293.032 270.74 292.884 271.472 292.884H272.32V292.484C272.32 292.179 272.229 291.937 272.047 291.758C271.864 291.576 271.596 291.485 271.241 291.485C270.93 291.485 270.669 291.563 270.458 291.72C270.248 291.877 270.143 292.068 270.143 292.291H269.266C269.266 292.036 269.356 291.791 269.535 291.555C269.717 291.317 269.962 291.128 270.27 290.99C270.581 290.852 270.922 290.782 271.293 290.782C271.88 290.782 272.34 290.93 272.674 291.225C273.007 291.518 273.179 291.921 273.192 292.437V294.784C273.192 295.252 273.252 295.624 273.371 295.901V295.976H272.457ZM271.01 295.312C271.283 295.312 271.542 295.241 271.788 295.099C272.033 294.958 272.21 294.774 272.32 294.548V293.502H271.637C270.568 293.502 270.034 293.814 270.034 294.44C270.034 294.713 270.125 294.927 270.308 295.081C270.49 295.235 270.724 295.312 271.01 295.312ZM275.385 295.976H274.513V290.877H275.385V295.976ZM274.443 289.524C274.443 289.383 274.485 289.263 274.57 289.166C274.658 289.069 274.787 289.02 274.956 289.02C275.126 289.02 275.255 289.069 275.343 289.166C275.431 289.263 275.475 289.383 275.475 289.524C275.475 289.666 275.431 289.783 275.343 289.878C275.255 289.972 275.126 290.019 274.956 290.019C274.787 290.019 274.658 289.972 274.57 289.878C274.485 289.783 274.443 289.666 274.443 289.524ZM277.612 295.976H276.74V288.737H277.612V295.976ZM108.188 307.623C108.188 307.388 108.099 307.206 107.92 307.077C107.744 306.945 107.434 306.832 106.991 306.737C106.552 306.643 106.201 306.53 105.94 306.398C105.683 306.266 105.491 306.109 105.365 305.927C105.243 305.745 105.182 305.528 105.182 305.276C105.182 304.859 105.358 304.505 105.71 304.216C106.065 303.927 106.517 303.782 107.067 303.782C107.645 303.782 108.113 303.932 108.471 304.23C108.833 304.529 109.013 304.91 109.013 305.375H108.137C108.137 305.137 108.035 304.931 107.83 304.758C107.629 304.585 107.375 304.499 107.067 304.499C106.749 304.499 106.501 304.568 106.322 304.706C106.143 304.844 106.054 305.025 106.054 305.248C106.054 305.459 106.137 305.617 106.303 305.724C106.47 305.831 106.77 305.933 107.203 306.031C107.64 306.128 107.994 306.244 108.264 306.379C108.534 306.514 108.734 306.678 108.862 306.869C108.994 307.058 109.06 307.289 109.06 307.562C109.06 308.018 108.878 308.384 108.514 308.66C108.149 308.934 107.676 309.07 107.095 309.07C106.687 309.07 106.325 308.998 106.011 308.854C105.697 308.709 105.45 308.508 105.271 308.25C105.095 307.99 105.007 307.708 105.007 307.407H105.879C105.895 307.699 106.011 307.931 106.228 308.104C106.448 308.274 106.737 308.359 107.095 308.359C107.425 308.359 107.689 308.293 107.887 308.161C108.088 308.026 108.188 307.847 108.188 307.623ZM110.947 304.494C111.334 304.02 111.837 303.782 112.456 303.782C113.533 303.782 114.077 304.39 114.086 305.606V308.976H113.214V305.602C113.211 305.234 113.126 304.962 112.96 304.786C112.796 304.61 112.54 304.522 112.192 304.522C111.909 304.522 111.661 304.598 111.447 304.749C111.233 304.899 111.067 305.097 110.947 305.342V308.976H110.076V301.737H110.947V304.494ZM115.04 306.379C115.04 305.88 115.137 305.43 115.332 305.031C115.53 304.632 115.804 304.324 116.152 304.108C116.504 303.891 116.905 303.782 117.354 303.782C118.048 303.782 118.609 304.023 119.037 304.504C119.467 304.984 119.682 305.624 119.682 306.422V306.483C119.682 306.979 119.586 307.426 119.395 307.821C119.206 308.214 118.934 308.52 118.579 308.74C118.228 308.96 117.822 309.07 117.364 309.07C116.672 309.07 116.111 308.83 115.681 308.349C115.254 307.869 115.04 307.232 115.04 306.441V306.379ZM115.917 306.483C115.917 307.049 116.047 307.503 116.308 307.845C116.572 308.187 116.924 308.359 117.364 308.359C117.807 308.359 118.158 308.186 118.419 307.84C118.68 307.492 118.81 307.005 118.81 306.379C118.81 305.82 118.677 305.368 118.41 305.022C118.146 304.673 117.794 304.499 117.354 304.499C116.924 304.499 116.576 304.67 116.313 305.013C116.049 305.355 115.917 305.845 115.917 306.483ZM123.12 304.659C122.988 304.637 122.845 304.626 122.691 304.626C122.119 304.626 121.731 304.87 121.527 305.357V308.976H120.655V303.877H121.503L121.517 304.466C121.803 304.01 122.209 303.782 122.733 303.782C122.903 303.782 123.032 303.804 123.12 303.848V304.659ZM125.224 302.642V303.877H126.176V304.551H125.224V307.713C125.224 307.917 125.266 308.071 125.351 308.175C125.436 308.275 125.58 308.326 125.784 308.326C125.885 308.326 126.023 308.307 126.199 308.269V308.976C125.97 309.039 125.747 309.07 125.53 309.07C125.14 309.07 124.847 308.953 124.649 308.717C124.451 308.481 124.352 308.147 124.352 307.713V304.551H123.423V303.877H124.352V302.642H125.224ZM128.025 308.976H127.153V301.737H128.025V308.976ZM130.972 307.699L132.16 303.877H133.093L131.043 309.763C130.726 310.611 130.221 311.036 129.53 311.036L129.365 311.021L129.04 310.96V310.253L129.276 310.272C129.571 310.272 129.8 310.212 129.964 310.093C130.13 309.974 130.267 309.755 130.374 309.438L130.567 308.92L128.748 303.877H129.7L130.972 307.699ZM133.265 308.519C133.265 308.368 133.309 308.242 133.397 308.142C133.488 308.041 133.623 307.991 133.802 307.991C133.981 307.991 134.116 308.041 134.207 308.142C134.302 308.242 134.349 308.368 134.349 308.519C134.349 308.663 134.302 308.784 134.207 308.882C134.116 308.979 133.981 309.028 133.802 309.028C133.623 309.028 133.488 308.979 133.397 308.882C133.309 308.784 133.265 308.663 133.265 308.519Z" fill="#444444"/>
<g filter="url(#filter2_b)">
<path fill-rule="evenodd" clip-rule="evenodd" d="M90.0815 63.7062H316.3V120.412H90.0815V63.7062Z" fill="#F9F9F9" fill-opacity="0.94"/>
</g>
<line opacity="0.3" x1="90.0815" y1="120.562" x2="316.3" y2="120.562" stroke="black" stroke-width="0.301624"/>
<mask id="mask0" mask-type="alpha" maskUnits="userSpaceOnUse" x="96" y="92" width="215" height="23">
<path fill-rule="evenodd" clip-rule="evenodd" d="M96.1143 98.6946C96.1143 95.3629 98.8151 92.6621 102.147 92.6621H304.017C307.348 92.6621 310.049 95.3629 310.049 98.6946V108.347C310.049 111.678 307.348 114.379 304.017 114.379H102.147C98.8151 114.379 96.1143 111.678 96.1143 108.347V98.6946Z" fill="white"/>
</mask>
<g mask="url(#mask0)">
<path fill-rule="evenodd" clip-rule="evenodd" d="M96.1143 102.314C96.1143 98.9356 96.1143 97.2463 96.7718 95.9559C97.3501 94.8208 98.273 93.898 99.4081 93.3196C100.698 92.6621 102.388 92.6621 105.766 92.6621H300.397C303.776 92.6621 305.465 92.6621 306.756 93.3196C307.891 93.898 308.813 94.8208 309.392 95.9559C310.049 97.2463 310.049 98.9356 310.049 102.314V104.727C310.049 108.106 310.049 109.795 309.392 111.085C308.813 112.22 307.891 113.143 306.756 113.722C305.465 114.379 303.776 114.379 300.397 114.379H105.766C102.388 114.379 100.698 114.379 99.4081 113.722C98.273 113.143 97.3501 112.22 96.7718 111.085C96.1143 109.795 96.1143 108.106 96.1143 104.727V102.314Z" fill="#767680" fill-opacity="0.12"/>
<path d="M107.68 107.171C107.93 107.171 108.056 107.071 108.156 106.796L108.797 105.023H111.751L112.397 106.796C112.492 107.071 112.622 107.171 112.873 107.171C113.143 107.171 113.318 107.011 113.318 106.761C113.318 106.676 113.303 106.601 113.268 106.49L110.915 100.241C110.8 99.9307 110.594 99.7805 110.279 99.7805C109.963 99.7805 109.758 99.9307 109.648 100.236L107.294 106.495C107.254 106.606 107.239 106.681 107.239 106.766C107.239 107.016 107.41 107.171 107.68 107.171ZM109.042 104.257L110.259 100.887H110.289L111.501 104.257H109.042ZM102.642 107.171C102.848 107.171 102.988 107.071 103.073 106.811L103.474 105.654H105.306L105.707 106.811C105.802 107.076 105.942 107.171 106.143 107.171C106.398 107.171 106.573 107.011 106.573 106.776C106.573 106.691 106.553 106.601 106.508 106.475L105.016 102.51C104.911 102.219 104.706 102.034 104.385 102.034C104.08 102.034 103.879 102.219 103.774 102.51L102.277 106.475C102.227 106.601 102.217 106.691 102.217 106.776C102.217 107.011 102.387 107.171 102.642 107.171ZM103.699 104.973L104.36 103.02H104.425L105.086 104.973H103.699Z" fill="black"/>
<path d="M300.199 103.093C300.324 103.093 300.419 103.053 300.489 102.978L302.552 100.905C302.643 100.819 302.678 100.719 302.678 100.604C302.678 100.494 302.633 100.384 302.552 100.304L300.489 98.2105C300.419 98.1304 300.319 98.0903 300.199 98.0903C299.974 98.0903 299.803 98.2706 299.803 98.5009C299.803 98.6061 299.843 98.7062 299.914 98.7864L301.251 100.098C300.965 100.048 300.675 100.018 300.384 100.018C297.931 100.018 295.958 101.986 295.958 104.44C295.958 106.898 297.931 108.871 300.384 108.871C302.838 108.871 304.806 106.898 304.806 104.44C304.806 104.199 304.636 104.024 304.39 104.024C304.155 104.024 304 104.199 304 104.44C304 106.453 302.392 108.065 300.384 108.065C298.376 108.065 296.764 106.453 296.764 104.44C296.764 102.432 298.376 100.824 300.384 100.824C300.765 100.824 301.115 100.854 301.416 100.92L299.919 102.407C299.843 102.487 299.803 102.587 299.803 102.692C299.803 102.922 299.974 103.093 300.199 103.093Z" fill="black"/>
<path d="M168.25 108.276H172.456C173.026 108.276 173.305 107.993 173.305 107.374V104.131C173.305 103.575 173.075 103.287 172.602 103.239V102.125C172.602 100.46 171.511 99.6556 170.353 99.6556C169.196 99.6556 168.104 100.46 168.104 102.125V103.261C167.671 103.327 167.402 103.61 167.402 104.131V107.374C167.402 107.993 167.68 108.276 168.25 108.276ZM168.816 102.033C168.816 100.924 169.527 100.336 170.353 100.336C171.18 100.336 171.891 100.924 171.891 102.033V103.234L168.816 103.239V102.033ZM178.409 107.282H179.27V103.937C179.27 103.176 179.816 102.565 180.522 102.565C181.203 102.565 181.649 102.975 181.649 103.616V107.282H182.51V103.811C182.51 103.125 183.011 102.565 183.762 102.565C184.523 102.565 184.899 102.955 184.899 103.751V107.282H185.76V103.551C185.76 102.419 185.144 101.788 184.043 101.788C183.296 101.788 182.681 102.164 182.39 102.735H182.31C182.06 102.174 181.549 101.788 180.818 101.788C180.097 101.788 179.556 102.134 179.311 102.735H179.23V101.884H178.409V107.282ZM188.587 107.377C189.308 107.377 189.899 107.061 190.25 106.485H190.33V107.282H191.151V103.586C191.151 102.464 190.415 101.788 189.098 101.788C187.946 101.788 187.095 102.359 186.98 103.226H187.851C187.971 102.8 188.422 102.555 189.068 102.555C189.874 102.555 190.29 102.92 190.29 103.586V104.077L188.733 104.172C187.476 104.247 186.765 104.803 186.765 105.769C186.765 106.756 187.541 107.377 188.587 107.377ZM188.748 106.621C188.122 106.621 187.656 106.3 187.656 105.749C187.656 105.209 188.016 104.923 188.838 104.868L190.29 104.773V105.269C190.29 106.04 189.634 106.621 188.748 106.621ZM194.719 109.355C196.192 109.355 197.123 108.584 197.123 107.377V101.884H196.302V102.74H196.222C195.911 102.159 195.245 101.788 194.489 101.788C193.102 101.788 192.226 102.885 192.226 104.502C192.226 106.12 193.092 107.201 194.489 107.201C195.23 107.201 195.841 106.866 196.182 106.27H196.262V107.332C196.262 108.128 195.686 108.604 194.719 108.604C193.943 108.604 193.463 108.318 193.367 107.878H192.456C192.586 108.769 193.418 109.355 194.719 109.355ZM194.679 106.44C193.678 106.44 193.117 105.679 193.117 104.502C193.117 103.326 193.678 102.565 194.679 102.565C195.676 102.565 196.282 103.326 196.282 104.502C196.282 105.679 195.681 106.44 194.679 106.44ZM200 107.377C200.721 107.377 201.312 107.061 201.663 106.485H201.743V107.282H202.564V103.586C202.564 102.464 201.828 101.788 200.511 101.788C199.359 101.788 198.508 102.359 198.393 103.226H199.264C199.384 102.8 199.835 102.555 200.481 102.555C201.287 102.555 201.703 102.92 201.703 103.586V104.077L200.146 104.172C198.889 104.247 198.178 104.803 198.178 105.769C198.178 106.756 198.954 107.377 200 107.377ZM200.161 106.621C199.535 106.621 199.069 106.3 199.069 105.749C199.069 105.209 199.429 104.923 200.251 104.868L201.703 104.773V105.269C201.703 106.04 201.047 106.621 200.161 106.621ZM203.784 103.361C203.784 104.142 204.245 104.578 205.256 104.823L206.183 105.048C206.758 105.189 207.039 105.439 207.039 105.809C207.039 106.305 206.518 106.651 205.792 106.651C205.101 106.651 204.67 106.36 204.525 105.905H203.639C203.734 106.801 204.56 107.377 205.762 107.377C206.989 107.377 207.925 106.711 207.925 105.744C207.925 104.968 207.434 104.528 206.418 104.282L205.587 104.082C204.951 103.927 204.65 103.696 204.65 103.326C204.65 102.845 205.151 102.52 205.792 102.52C206.443 102.52 206.864 102.805 206.979 103.236H207.83C207.715 102.349 206.929 101.788 205.797 101.788C204.65 101.788 203.784 102.464 203.784 103.361ZM209.48 100.842C209.811 100.842 210.081 100.572 210.081 100.241C210.081 99.9107 209.811 99.6403 209.48 99.6403C209.15 99.6403 208.88 99.9107 208.88 100.241C208.88 100.572 209.15 100.842 209.48 100.842ZM209.05 107.282H209.911V101.884H209.05V107.282ZM211.306 107.282H212.168V104.087C212.168 103.14 212.723 102.565 213.585 102.565C214.446 102.565 214.856 103.025 214.856 103.997V107.282H215.718V103.786C215.718 102.505 215.042 101.788 213.83 101.788C213.004 101.788 212.478 102.139 212.208 102.735H212.127V101.884H211.306V107.282ZM220.623 105.885C220.398 106.36 219.927 106.616 219.231 106.616C218.315 106.616 217.719 105.94 217.674 104.873V104.833H221.554V104.502C221.554 102.825 220.668 101.788 219.211 101.788C217.729 101.788 216.777 102.89 216.777 104.588C216.777 106.295 217.714 107.377 219.211 107.377C220.393 107.377 221.234 106.806 221.484 105.885H220.623ZM219.201 102.55C220.057 102.55 220.628 103.181 220.648 104.137H217.674C217.739 103.181 218.34 102.55 219.201 102.55ZM223.02 100.487V101.884H222.148V102.605H223.02V105.88C223.02 106.911 223.465 107.322 224.577 107.322C224.747 107.322 224.912 107.302 225.083 107.272V106.546C224.923 106.561 224.837 106.566 224.682 106.566C224.121 106.566 223.881 106.295 223.881 105.659V102.605H225.083V101.884H223.881V100.487H223.02ZM226.848 107.332C227.209 107.332 227.499 107.036 227.499 106.681C227.499 106.32 227.209 106.03 226.848 106.03C226.493 106.03 226.197 106.32 226.197 106.681C226.197 107.036 226.493 107.332 226.848 107.332ZM228.935 107.282H229.796V104.087C229.796 103.14 230.352 102.565 231.213 102.565C232.074 102.565 232.485 103.025 232.485 103.997V107.282H233.346V103.786C233.346 102.505 232.67 101.788 231.458 101.788C230.632 101.788 230.106 102.139 229.836 102.735H229.756V101.884H228.935V107.282ZM236.894 107.377C238.432 107.377 239.383 106.315 239.383 104.583C239.383 102.845 238.432 101.788 236.894 101.788C235.357 101.788 234.406 102.845 234.406 104.583C234.406 106.315 235.357 107.377 236.894 107.377ZM236.894 106.601C235.873 106.601 235.297 105.86 235.297 104.583C235.297 103.301 235.873 102.565 236.894 102.565C237.916 102.565 238.492 103.301 238.492 104.583C238.492 105.86 237.916 106.601 236.894 106.601Z" fill="black"/>
</g>
<path opacity="0.35" d="M294.382 74.4641H304.436C305.158 74.4641 305.743 75.0493 305.743 75.7711V79.3906C305.743 80.1125 305.158 80.6977 304.436 80.6977H294.382C293.66 80.6977 293.075 80.1125 293.075 79.3906V75.7711C293.075 75.0493 293.66 74.4641 294.382 74.4641Z" stroke="black" stroke-width="0.603248"/>
<path opacity="0.4" d="M306.647 76.3744V78.7874C307.133 78.583 307.449 78.1076 307.449 77.5809C307.449 77.0542 307.133 76.5788 306.647 76.3744" fill="black"/>
<path d="M293.979 76.1733C293.979 75.7291 294.34 75.369 294.784 75.369H304.034C304.478 75.369 304.838 75.7291 304.838 76.1733V78.9885C304.838 79.4327 304.478 79.7928 304.034 79.7928H294.784C294.34 79.7928 293.979 79.4327 293.979 78.9885V76.1733Z" fill="black"/>
<path fill-rule="evenodd" clip-rule="evenodd" d="M285.13 75.5347C286.466 75.5347 287.752 76.0484 288.721 76.9694C288.794 77.0405 288.91 77.0396 288.982 76.9674L289.68 76.2636C289.716 76.227 289.736 76.1774 289.736 76.1257C289.736 76.0741 289.715 76.0247 289.678 75.9885C287.135 73.5517 283.124 73.5517 280.581 75.9885C280.544 76.0247 280.523 76.0741 280.523 76.1257C280.523 76.1773 280.543 76.2269 280.579 76.2636L281.277 76.9674C281.349 77.0397 281.465 77.0406 281.538 76.9694C282.507 76.0483 283.793 75.5347 285.13 75.5347ZM285.13 77.8244C285.864 77.8244 286.573 78.0974 287.117 78.5904C287.191 78.6603 287.307 78.6588 287.378 78.5869L288.075 77.8831C288.112 77.8462 288.132 77.7961 288.131 77.7441C288.131 77.6921 288.11 77.6424 288.072 77.6063C286.414 76.0641 283.847 76.0641 282.189 77.6063C282.152 77.6424 282.13 77.6921 282.13 77.7442C282.129 77.7962 282.15 77.8463 282.186 77.8831L282.883 78.5869C282.955 78.6588 283.071 78.6603 283.144 78.5904C283.688 78.0977 284.396 77.8247 285.13 77.8244ZM286.525 79.365C286.526 79.4172 286.506 79.4675 286.469 79.5041L285.264 80.72C285.228 80.7558 285.18 80.7759 285.13 80.7759C285.08 80.7759 285.032 80.7558 284.996 80.72L283.791 79.5041C283.754 79.4675 283.733 79.4172 283.735 79.365C283.736 79.3128 283.758 79.2634 283.797 79.2284C284.566 78.5775 285.693 78.5775 286.463 79.2284C286.502 79.2634 286.524 79.3128 286.525 79.365Z" fill="black"/>
<path fill-rule="evenodd" clip-rule="evenodd" d="M276.887 74.3635H276.284C275.951 74.3635 275.681 74.6336 275.681 74.9668V80.1949C275.681 80.5281 275.951 80.7982 276.284 80.7982H276.887C277.22 80.7982 277.491 80.5281 277.491 80.1949V74.9668C277.491 74.6336 277.22 74.3635 276.887 74.3635ZM273.469 75.7711H274.072C274.405 75.7711 274.675 76.0412 274.675 76.3744V80.1949C274.675 80.5281 274.405 80.7982 274.072 80.7982H273.469C273.136 80.7982 272.865 80.5281 272.865 80.1949V76.3744C272.865 76.0412 273.136 75.7711 273.469 75.7711ZM271.257 77.1787H270.654C270.32 77.1787 270.05 77.4487 270.05 77.7819V80.1949C270.05 80.5281 270.32 80.7981 270.654 80.7981H271.257C271.59 80.7981 271.86 80.5281 271.86 80.1949V77.7819C271.86 77.4487 271.59 77.1787 271.257 77.1787ZM268.442 78.3852H267.839C267.505 78.3852 267.235 78.6552 267.235 78.9884V80.1949C267.235 80.5281 267.505 80.7981 267.839 80.7981H268.442C268.775 80.7981 269.045 80.5281 269.045 80.1949V78.9884C269.045 78.6552 268.775 78.3852 268.442 78.3852Z" fill="black"/>
<path d="M108.575 80.5485H109.715V74.1728H108.58L106.914 75.3437V76.4173L108.5 75.2951H108.575V80.5485ZM112.849 77.7031H113.649C114.435 77.7031 114.912 78.0963 114.912 78.7369C114.912 79.3555 114.395 79.7708 113.662 79.7708C112.924 79.7708 112.425 79.3909 112.376 78.7988H111.285C111.338 79.952 112.288 80.7075 113.675 80.7075C115.054 80.7075 116.079 79.9122 116.079 78.8165C116.079 77.9461 115.535 77.3849 114.669 77.2524V77.1773C115.345 76.9961 115.827 76.488 115.831 75.7192C115.836 74.8046 115.071 74.0138 113.715 74.0138C112.332 74.0138 111.466 74.7958 111.409 75.9136H112.478C112.526 75.2774 112.959 74.9239 113.653 74.9239C114.329 74.9239 114.731 75.3393 114.731 75.865C114.731 76.4438 114.28 76.8503 113.627 76.8503H112.849V77.7031ZM117.98 76.4217C118.399 76.4217 118.687 76.1301 118.687 75.7369C118.687 75.3437 118.399 75.0521 117.98 75.0521C117.564 75.0521 117.273 75.3437 117.273 75.7369C117.273 76.1301 117.564 76.4217 117.98 76.4217ZM117.98 79.6648C118.399 79.6648 118.687 79.3688 118.687 78.98C118.687 78.5867 118.399 78.2951 117.98 78.2951C117.564 78.2951 117.273 78.5867 117.273 78.98C117.273 79.3688 117.564 79.6648 117.98 79.6648ZM121.529 80.5485H122.668V74.1728H121.533L119.867 75.3437V76.4173L121.453 75.2951H121.529V80.5485ZM124.273 76.0594H125.343C125.343 75.3879 125.784 74.9284 126.478 74.9284C127.145 74.9284 127.543 75.3746 127.543 75.9534C127.543 76.4394 127.348 76.7443 126.544 77.5573L124.335 79.7797V80.5485H128.762V79.6029H125.882V79.5278L127.251 78.1802C128.347 77.1066 128.67 76.5896 128.67 75.8474C128.67 74.787 127.808 74.0138 126.54 74.0138C125.21 74.0138 124.273 74.8532 124.273 76.0594Z" fill="black"/>
<g filter="url(#filter3_b)">
<path fill-rule="evenodd" clip-rule="evenodd" d="M90.0815 503.474H316.3V553.544H90.0815V503.474Z" fill="#F9F9F9" fill-opacity="0.94"/>
</g>
<line opacity="0.3" x1="90.0815" y1="503.323" x2="316.3" y2="503.323" stroke="black" stroke-width="0.301624"/>
<path fill-rule="evenodd" clip-rule="evenodd" d="M162.664 547.14C162.664 546.307 163.339 545.632 164.172 545.632H241.991C242.824 545.632 243.499 546.307 243.499 547.14V547.14C243.499 547.973 242.824 548.648 241.991 548.648H164.172C163.339 548.648 162.664 547.973 162.664 547.14V547.14Z" fill="black"/>
<path d="M292.934 520.606H294.132V521.72C294.132 523.055 294.813 523.729 296.167 523.729H303.088C304.443 523.729 305.123 523.055 305.123 521.72V514.832C305.123 513.503 304.443 512.83 303.088 512.83H301.889V511.78C301.889 510.445 301.202 509.771 299.855 509.771H292.934C291.573 509.771 290.899 510.445 290.899 511.78V518.603C290.899 519.938 291.573 520.606 292.934 520.606ZM292.947 519.562C292.299 519.562 291.942 519.219 291.942 518.545V511.838C291.942 511.164 292.299 510.814 292.947 510.814H299.835C300.477 510.814 300.846 511.164 300.846 511.838V512.83H296.167C294.813 512.83 294.132 513.497 294.132 514.832V519.562H292.947ZM296.187 522.686C295.539 522.686 295.176 522.336 295.176 521.662V514.89C295.176 514.216 295.539 513.873 296.187 513.873H303.075C303.717 513.873 304.08 514.216 304.08 514.89V521.669C304.08 522.336 303.717 522.686 303.075 522.686H296.187Z" fill="#007AFF"/>
<path d="M250.397 512.233C249.905 511.611 248.68 511.06 247.313 511.06C245.518 511.06 244.066 511.987 243.71 512.855V521.908C243.71 522.401 244.027 522.589 244.384 522.589C244.662 522.589 244.831 522.504 245.006 522.368C245.375 522.051 246.12 521.623 247.313 521.623C248.512 521.623 249.348 522.038 249.672 522.33C249.84 522.466 250.041 522.589 250.397 522.589C250.754 522.589 250.955 522.453 251.123 522.33C251.473 522.057 252.29 521.623 253.482 521.623C254.681 521.623 255.426 522.057 255.795 522.368C255.97 522.504 256.132 522.589 256.411 522.589C256.767 522.589 257.091 522.401 257.091 521.908V512.855C256.735 511.987 255.277 511.06 253.482 511.06C252.121 511.06 250.896 511.611 250.397 512.233ZM244.753 513.166C244.902 512.765 245.842 512.039 247.313 512.039C248.79 512.039 249.749 512.771 249.879 513.166V521.364C249.263 520.904 248.324 520.645 247.313 520.645C246.308 520.645 245.369 520.904 244.753 521.39V513.166ZM256.048 513.166V521.39C255.426 520.904 254.493 520.645 253.482 520.645C252.471 520.645 251.538 520.904 250.922 521.364V513.166C251.052 512.771 252.011 512.039 253.482 512.039C254.959 512.039 255.899 512.765 256.048 513.166Z" fill="#007AFF"/>
<path d="M203.395 518.558C203.674 518.558 203.907 518.325 203.907 518.053V511.397L203.869 510.425L204.303 510.885L205.288 511.935C205.378 512.039 205.515 512.091 205.638 512.091C205.903 512.091 206.111 511.896 206.111 511.631C206.111 511.495 206.052 511.391 205.955 511.294L203.765 509.181C203.635 509.052 203.525 509.006 203.395 509.006C203.259 509.006 203.149 509.052 203.02 509.181L200.829 511.294C200.732 511.391 200.674 511.495 200.674 511.631C200.674 511.896 200.868 512.091 201.14 512.091C201.263 512.091 201.406 512.039 201.497 511.935L202.482 510.885L202.916 510.425L202.877 511.397V518.053C202.877 518.325 203.117 518.558 203.395 518.558ZM199.676 523.632H207.109C208.463 523.632 209.143 522.958 209.143 521.623V515.156C209.143 513.821 208.463 513.147 207.109 513.147H205.301V514.19H207.089C207.731 514.19 208.1 514.54 208.1 515.214V521.565C208.1 522.239 207.731 522.589 207.089 522.589H199.689C199.041 522.589 198.684 522.239 198.684 521.565V515.214C198.684 514.54 199.041 514.19 199.689 514.19H201.484V513.147H199.676C198.321 513.147 197.641 513.821 197.641 515.156V521.623C197.641 522.958 198.321 523.632 199.676 523.632Z" fill="#007AFF"/>
<path d="M153.206 522.427C153.374 522.427 153.517 522.362 153.627 522.252L158.766 517.23C158.889 517.106 158.954 516.957 158.954 516.795C158.954 516.627 158.889 516.471 158.766 516.361L153.634 511.346C153.517 511.229 153.374 511.164 153.206 511.164C152.869 511.164 152.616 511.423 152.616 511.76C152.616 511.916 152.681 512.071 152.785 512.182L157.502 516.795L152.785 521.409C152.681 521.519 152.616 521.669 152.616 521.831C152.616 522.168 152.869 522.427 153.206 522.427Z" fill="#CBCBCB"/>
<path d="M110.332 522.245C110.442 522.355 110.585 522.42 110.753 522.42C111.09 522.42 111.343 522.168 111.343 521.831C111.343 521.669 111.278 521.519 111.175 521.409L106.457 516.795L111.175 512.182C111.278 512.071 111.343 511.916 111.343 511.76C111.343 511.423 111.09 511.164 110.753 511.164C110.585 511.164 110.442 511.229 110.332 511.339L105.2 516.361C105.077 516.465 105.005 516.627 105.005 516.795C105.005 516.957 105.07 517.106 105.193 517.23L110.332 522.245Z" fill="#007AFF"/>
</g>
</g>
<path fill-rule="evenodd" clip-rule="evenodd" d="M90.0815 94.9786C90.0815 83.8029 90.0815 78.215 92.3253 73.9772C94.136 70.5574 96.9328 67.7607 100.353 65.95C104.59 63.7062 110.178 63.7062 121.354 63.7062H90.0815V94.9786ZM90.0815 522.271V553.544H121.354C110.178 553.544 104.59 553.544 100.353 551.3C96.9328 549.489 94.136 546.693 92.3253 543.273C90.0815 539.035 90.0815 533.447 90.0815 522.271ZM285.027 553.544H316.3V522.271C316.3 533.447 316.3 539.035 314.056 543.273C312.245 546.693 309.448 549.489 306.029 551.3C301.791 553.544 296.203 553.544 285.027 553.544ZM316.3 94.9786V63.7062H285.027C296.203 63.7062 301.791 63.7062 306.029 65.95C309.448 67.7607 312.245 70.5574 314.056 73.9772C316.3 78.215 316.3 83.8029 316.3 94.9786ZM269.85 63.7062H265.627H140.754H136.532C138.864 63.7062 140.754 64.9127 140.754 66.7224V63.7062C140.754 68.1956 140.754 70.4403 141.292 72.2712C142.564 76.6047 145.953 79.9936 150.287 81.266C152.118 81.8036 154.362 81.8036 158.852 81.8036H247.529C252.019 81.8036 254.263 81.8036 256.094 81.266C260.428 79.9936 263.817 76.6047 265.089 72.2712C265.627 70.4403 265.627 68.1956 265.627 63.7062V66.7224C265.627 64.9127 267.517 63.7062 269.85 63.7062Z" fill="white"/>
<rect x="173" y="65.1421" width="42.4774" height="5.46138" rx="2.73069" fill="#F0F3F5"/>
<path d="M228.524 72.1205C230.87 72.1205 232.772 70.2187 232.772 67.8727C232.772 65.5268 230.87 63.625 228.524 63.625C226.178 63.625 224.276 65.5268 224.276 67.8727C224.276 70.2187 226.178 72.1205 228.524 72.1205Z" fill="#F0F3F5"/>
<defs>
<filter id="filter0_di" x="72.587" y="42.6284" width="264.79" height="529.616" filterUnits="userSpaceOnUse" color-interpolation-filters="sRGB">
<feFlood flood-opacity="0" result="BackgroundImageFix"/>
<feColorMatrix in="SourceAlpha" type="matrix" values="0 0 0 0 0 0 0 0 0 0 0 0 0 0 0 0 0 0 127 0"/>
<feOffset dy="1.2065"/>
<feGaussianBlur stdDeviation="1.2065"/>
<feColorMatrix type="matrix" values="0 0 0 0 0 0 0 0 0 0 0 0 0 0 0 0 0 0 0.25 0"/>
<feBlend mode="normal" in2="BackgroundImageFix" result="effect1_dropShadow"/>
<feBlend mode="normal" in="SourceGraphic" in2="effect1_dropShadow" result="shape"/>
<feColorMatrix in="SourceAlpha" type="matrix" values="0 0 0 0 0 0 0 0 0 0 0 0 0 0 0 0 0 0 127 0" result="hardAlpha"/>
<feOffset dx="10.2799" dy="-8.85216"/>
<feGaussianBlur stdDeviation="2.99831"/>
<feComposite in2="hardAlpha" operator="arithmetic" k2="-1" k3="1"/>
<feColorMatrix type="matrix" values="0 0 0 0 1 0 0 0 0 1 0 0 0 0 1 0 0 0 0.05 0"/>
<feBlend mode="normal" in2="shape" result="effect2_innerShadow"/>
</filter>
<filter id="filter1_dd" x="87.6686" y="118.602" width="231.044" height="49.4664" filterUnits="userSpaceOnUse" color-interpolation-filters="sRGB">
<feFlood flood-opacity="0" result="BackgroundImageFix"/>
<feColorMatrix in="SourceAlpha" type="matrix" values="0 0 0 0 0 0 0 0 0 0 0 0 0 0 0 0 0 0 127 0"/>
<feOffset dy="0.603248"/>
<feGaussianBlur stdDeviation="1.2065"/>
<feColorMatrix type="matrix" values="0 0 0 0 0.0862745 0 0 0 0 0.0705882 0 0 0 0 0.145098 0 0 0 0.17 0"/>
<feBlend mode="normal" in2="BackgroundImageFix" result="effect1_dropShadow"/>
<feColorMatrix in="SourceAlpha" type="matrix" values="0 0 0 0 0 0 0 0 0 0 0 0 0 0 0 0 0 0 127 0"/>
<feOffset dy="0.603248"/>
<feGaussianBlur stdDeviation="0.301624"/>
<feColorMatrix type="matrix" values="0 0 0 0 0.0862745 0 0 0 0 0.0705882 0 0 0 0 0.145098 0 0 0 0.0498188 0"/>
<feBlend mode="normal" in2="effect1_dropShadow" result="effect2_dropShadow"/>
<feBlend mode="normal" in="SourceGraphic" in2="effect2_dropShadow" result="shape"/>
</filter>
<filter id="filter2_b" x="78.0166" y="51.6412" width="250.348" height="80.8353" filterUnits="userSpaceOnUse" color-interpolation-filters="sRGB">
<feFlood flood-opacity="0" result="BackgroundImageFix"/>
<feGaussianBlur in="BackgroundImage" stdDeviation="6.03248"/>
<feComposite in2="SourceAlpha" operator="in" result="effect1_backgroundBlur"/>
<feBlend mode="normal" in="SourceGraphic" in2="effect1_backgroundBlur" result="shape"/>
</filter>
<filter id="filter3_b" x="78.0166" y="491.409" width="250.348" height="74.1995" filterUnits="userSpaceOnUse" color-interpolation-filters="sRGB">
<feFlood flood-opacity="0" result="BackgroundImageFix"/>
<feGaussianBlur in="BackgroundImage" stdDeviation="6.03248"/>
<feComposite in2="SourceAlpha" operator="in" result="effect1_backgroundBlur"/>
<feBlend mode="normal" in="SourceGraphic" in2="effect1_backgroundBlur" result="shape"/>
</filter>
<clipPath id="clip0">
<rect width="226.218" height="489.838" fill="white" transform="translate(90.0815 63.7062)"/>
</clipPath>
<clipPath id="clip1">
<rect width="226.218" height="489.838" fill="white" transform="translate(90.0815 63.7062)"/>
</clipPath>
</defs>
</svg>
