<svg width="825" height="504" viewBox="0 0 825 504" fill="none" xmlns="http://www.w3.org/2000/svg">
<rect width="824.493" height="504" rx="1" fill="#FFF4EC"/>
<g filter="url(#filter0_dd)">
<rect x="83" y="58" width="321" height="356.618" rx="14.2647" fill="white"/>
</g>
<g filter="url(#filter1_d)">
<path d="M211.025 363.254C211.025 353.8 218.689 346.125 228.143 346.125H257.143C266.597 346.125 274.261 353.8 274.261 363.254V363.254C274.261 372.707 266.597 380.382 257.143 380.382H228.143C218.689 380.382 211.025 372.707 211.025 363.254V363.254Z" fill="#FF5B24"/>
<path d="M230.937 367.754V361.523H231.043L235.482 367.754H236.88V358.708H235.325V364.939H235.218L230.78 358.708H229.376V367.754H230.937ZM243.246 365.879C243.02 366.393 242.487 366.682 241.716 366.682C240.694 366.682 240.036 365.955 239.999 364.795V364.713H244.788V364.218C244.788 362.068 243.616 360.77 241.66 360.77C239.673 360.77 238.438 362.156 238.438 364.356C238.438 366.55 239.654 367.892 241.672 367.892C243.29 367.892 244.437 367.114 244.719 365.879H243.246ZM241.654 361.98C242.588 361.98 243.202 362.638 243.233 363.679H240.005C240.074 362.651 240.726 361.98 241.654 361.98ZM248.559 365.384L249.963 367.766H251.718L249.48 364.3L251.693 360.915H249.982L248.628 363.29H248.521L247.161 360.915H245.356L247.593 364.369L245.374 367.766H247.054L248.452 365.384H248.559ZM253.408 359.222V360.946H252.323V362.156H253.408V365.936C253.408 367.258 254.035 367.785 255.608 367.785C255.909 367.785 256.198 367.76 256.423 367.716V366.525C256.235 366.544 256.116 366.556 255.897 366.556C255.245 366.556 254.956 366.249 254.956 365.566V362.156H256.423V360.946H254.956V359.222H253.408Z" fill="white"/>
</g>
<path d="M133.51 278.404V271.369H132.632V278.404H133.51ZM141.023 278.404L143.617 271.369H142.696L140.629 277.268H140.55L138.483 271.369H137.562L140.156 278.404H141.023ZM145.182 272.134C145.504 272.134 145.767 271.871 145.767 271.549C145.767 271.227 145.504 270.964 145.182 270.964C144.861 270.964 144.597 271.227 144.597 271.549C144.597 271.871 144.861 272.134 145.182 272.134ZM144.763 278.404H145.602V273.148H144.763V278.404ZM149.761 273.056C149.044 273.056 148.415 273.422 148.078 274.026H148V273.148H147.201V280.16H148.039V277.615H148.117C148.405 278.17 149.01 278.497 149.761 278.497C151.096 278.497 151.969 277.42 151.969 275.776C151.969 274.124 151.101 273.056 149.761 273.056ZM149.561 277.741C148.615 277.741 148.015 276.981 148.015 275.776C148.015 274.567 148.615 273.812 149.566 273.812C150.526 273.812 151.101 274.548 151.101 275.776C151.101 277.005 150.526 277.741 149.561 277.741ZM155.845 273.056C155.129 273.056 154.5 273.422 154.163 274.026H154.085V273.148H153.286V280.16H154.124V277.615H154.202C154.49 278.17 155.095 278.497 155.845 278.497C157.181 278.497 158.054 277.42 158.054 275.776C158.054 274.124 157.186 273.056 155.845 273.056ZM155.645 277.741C154.7 277.741 154.1 276.981 154.1 275.776C154.1 274.567 154.7 273.812 155.65 273.812C156.611 273.812 157.186 274.548 157.186 275.776C157.186 277.005 156.611 277.741 155.645 277.741ZM159.249 274.587C159.249 275.347 159.697 275.772 160.682 276.01L161.584 276.23C162.145 276.366 162.418 276.61 162.418 276.971C162.418 277.454 161.911 277.79 161.204 277.79C160.531 277.79 160.112 277.507 159.97 277.064H159.107C159.2 277.936 160.004 278.497 161.174 278.497C162.369 278.497 163.281 277.849 163.281 276.908C163.281 276.152 162.803 275.723 161.813 275.484L161.004 275.289C160.385 275.138 160.092 274.913 160.092 274.553C160.092 274.085 160.58 273.768 161.204 273.768C161.838 273.768 162.247 274.046 162.359 274.465H163.188C163.076 273.602 162.31 273.056 161.209 273.056C160.092 273.056 159.249 273.714 159.249 274.587ZM168.381 275.445H168.303V271.062H167.464V278.404H168.303V276.41L168.805 275.942L170.775 278.404H171.842L169.429 275.401L171.691 273.148H170.662L168.381 275.445ZM174.153 278.497C174.855 278.497 175.431 278.19 175.772 277.629H175.85V278.404H176.65V274.806C176.65 273.714 175.933 273.056 174.651 273.056C173.529 273.056 172.7 273.612 172.588 274.455H173.437C173.554 274.041 173.992 273.802 174.621 273.802C175.406 273.802 175.811 274.158 175.811 274.806V275.284L174.295 275.377C173.071 275.45 172.379 275.991 172.379 276.932C172.379 277.892 173.134 278.497 174.153 278.497ZM174.309 277.761C173.7 277.761 173.246 277.449 173.246 276.912C173.246 276.386 173.598 276.108 174.397 276.054L175.811 275.962V276.444C175.811 277.195 175.172 277.761 174.309 277.761ZM178.2 278.404H179.039V275.294C179.039 274.372 179.58 273.812 180.419 273.812C181.257 273.812 181.657 274.26 181.657 275.206V278.404H182.496V275.001C182.496 273.753 181.837 273.056 180.657 273.056C179.853 273.056 179.341 273.397 179.078 273.977H179V273.148H178.2V278.404ZM188.795 278.497C189.521 278.497 190.145 278.151 190.477 277.566H190.555V278.404H191.355V271.062H190.516V273.977H190.443C190.145 273.402 189.526 273.056 188.795 273.056C187.459 273.056 186.586 274.128 186.586 275.776C186.586 277.429 187.449 278.497 188.795 278.497ZM188.99 273.812C189.941 273.812 190.535 274.572 190.535 275.776C190.535 276.99 189.946 277.741 188.99 277.741C188.029 277.741 187.454 277.005 187.454 275.776C187.454 274.553 188.034 273.812 188.99 273.812ZM197.235 273.148H196.396V276.259C196.396 277.181 195.889 277.732 194.963 277.732C194.124 277.732 193.773 277.293 193.773 276.347V273.148H192.934V276.552C192.934 277.795 193.549 278.497 194.729 278.497C195.533 278.497 196.094 278.166 196.357 277.58H196.435V278.404H197.235V273.148ZM201.511 274.587C201.511 275.347 201.959 275.772 202.944 276.01L203.846 276.23C204.407 276.366 204.68 276.61 204.68 276.971C204.68 277.454 204.173 277.79 203.466 277.79C202.793 277.79 202.374 277.507 202.232 277.064H201.369C201.462 277.936 202.266 278.497 203.436 278.497C204.631 278.497 205.543 277.849 205.543 276.908C205.543 276.152 205.065 275.723 204.075 275.484L203.266 275.289C202.647 275.138 202.354 274.913 202.354 274.553C202.354 274.085 202.842 273.768 203.466 273.768C204.099 273.768 204.509 274.046 204.621 274.465H205.45C205.338 273.602 204.572 273.056 203.471 273.056C202.354 273.056 201.511 273.714 201.511 274.587ZM210.34 277.044C210.121 277.507 209.663 277.756 208.985 277.756C208.093 277.756 207.512 277.098 207.469 276.059V276.02H211.247V275.698C211.247 274.065 210.384 273.056 208.965 273.056C207.522 273.056 206.596 274.128 206.596 275.781C206.596 277.444 207.508 278.497 208.965 278.497C210.116 278.497 210.935 277.941 211.179 277.044H210.34ZM208.956 273.797C209.789 273.797 210.345 274.411 210.365 275.343H207.469C207.532 274.411 208.117 273.797 208.956 273.797ZM217.542 278.497C219.038 278.497 219.965 277.463 219.965 275.776C219.965 274.085 219.038 273.056 217.542 273.056C216.045 273.056 215.118 274.085 215.118 275.776C215.118 277.463 216.045 278.497 217.542 278.497ZM217.542 277.741C216.547 277.741 215.986 277.02 215.986 275.776C215.986 274.528 216.547 273.812 217.542 273.812C218.536 273.812 219.097 274.528 219.097 275.776C219.097 277.02 218.536 277.741 217.542 277.741ZM223.446 280.423C224.879 280.423 225.786 279.672 225.786 278.497V273.148H224.987V273.982H224.909C224.606 273.417 223.958 273.056 223.222 273.056C221.871 273.056 221.018 274.124 221.018 275.698C221.018 277.273 221.861 278.326 223.222 278.326C223.943 278.326 224.538 278 224.87 277.42H224.948V278.453C224.948 279.228 224.387 279.692 223.446 279.692C222.69 279.692 222.222 279.414 222.13 278.985H221.242C221.369 279.852 222.178 280.423 223.446 280.423ZM223.407 277.585C222.432 277.585 221.886 276.844 221.886 275.698C221.886 274.553 222.432 273.812 223.407 273.812C224.377 273.812 224.967 274.553 224.967 275.698C224.967 276.844 224.382 277.585 223.407 277.585ZM230.535 278.404H231.374V273.851H232.578V273.148H231.374V272.588C231.374 272.012 231.627 271.72 232.232 271.72C232.383 271.72 232.524 271.725 232.627 271.744V271.062C232.451 271.028 232.266 271.013 232.061 271.013C231.062 271.013 230.535 271.515 230.535 272.563V273.148H229.662V273.851H230.535V278.404ZM234.25 272.134C234.572 272.134 234.835 271.871 234.835 271.549C234.835 271.227 234.572 270.964 234.25 270.964C233.929 270.964 233.665 271.227 233.665 271.549C233.665 271.871 233.929 272.134 234.25 272.134ZM234.66 273.148H233.821V278.677C233.821 279.258 233.626 279.492 233.031 279.492H232.905V280.208H233.051C234.153 280.208 234.66 279.745 234.66 278.663V273.148ZM239.74 277.044C239.521 277.507 239.063 277.756 238.385 277.756C237.493 277.756 236.912 277.098 236.869 276.059V276.02H240.647V275.698C240.647 274.065 239.784 273.056 238.365 273.056C236.922 273.056 235.996 274.128 235.996 275.781C235.996 277.444 236.908 278.497 238.365 278.497C239.516 278.497 240.335 277.941 240.579 277.044H239.74ZM238.356 273.797C239.189 273.797 239.745 274.411 239.765 275.343H236.869C236.932 274.411 237.517 273.797 238.356 273.797ZM241.964 278.404H242.802V275.147C242.802 274.406 243.382 273.87 244.182 273.87C244.348 273.87 244.65 273.899 244.718 273.919V273.08C244.611 273.066 244.436 273.056 244.299 273.056C243.602 273.056 242.997 273.417 242.841 273.929H242.763V273.148H241.964V278.404ZM245.864 278.404H246.703V275.294C246.703 274.372 247.244 273.812 248.083 273.812C248.921 273.812 249.321 274.26 249.321 275.206V278.404H250.16V275.001C250.16 273.753 249.501 273.056 248.321 273.056C247.517 273.056 247.005 273.397 246.742 273.977H246.664V273.148H245.864V278.404ZM255.177 277.044C254.957 277.507 254.499 277.756 253.821 277.756C252.929 277.756 252.349 277.098 252.305 276.059V276.02H256.083V275.698C256.083 274.065 255.22 273.056 253.802 273.056C252.358 273.056 251.432 274.128 251.432 275.781C251.432 277.444 252.344 278.497 253.802 278.497C254.952 278.497 255.771 277.941 256.015 277.044H255.177ZM253.792 273.797C254.626 273.797 255.181 274.411 255.201 275.343H252.305C252.368 274.411 252.953 273.797 253.792 273.797ZM260.218 278.404H261.057V275.294C261.057 274.372 261.598 273.812 262.436 273.812C263.275 273.812 263.675 274.26 263.675 275.206V278.404H264.513V275.001C264.513 273.753 263.855 273.056 262.675 273.056C261.871 273.056 261.359 273.397 261.096 273.977H261.018V273.148H260.218V278.404ZM269.53 277.044C269.311 277.507 268.853 277.756 268.175 277.756C267.283 277.756 266.703 277.098 266.659 276.059V276.02H270.437V275.698C270.437 274.065 269.574 273.056 268.156 273.056C266.712 273.056 265.786 274.128 265.786 275.781C265.786 277.444 266.698 278.497 268.156 278.497C269.306 278.497 270.125 277.941 270.369 277.044H269.53ZM268.146 273.797C268.98 273.797 269.535 274.411 269.555 275.343H266.659C266.722 274.411 267.307 273.797 268.146 273.797ZM272.105 271.788V273.148H271.256V273.851H272.105V277.039C272.105 278.044 272.539 278.443 273.621 278.443C273.787 278.443 273.948 278.424 274.114 278.395V277.688C273.958 277.702 273.875 277.707 273.724 277.707C273.177 277.707 272.943 277.444 272.943 276.825V273.851H274.114V273.148H272.943V271.788H272.105ZM275.732 271.788V273.148H274.884V273.851H275.732V277.039C275.732 278.044 276.166 278.443 277.249 278.443C277.414 278.443 277.575 278.424 277.741 278.395V277.688C277.585 277.702 277.502 277.707 277.351 277.707C276.805 277.707 276.571 277.444 276.571 276.825V273.851H277.741V273.148H276.571V271.788H275.732ZM279.057 278.404H279.896V271.062H279.057V278.404ZM285.006 277.044C284.786 277.507 284.328 277.756 283.65 277.756C282.758 277.756 282.178 277.098 282.134 276.059V276.02H285.913V275.698C285.913 274.065 285.05 273.056 283.631 273.056C282.188 273.056 281.261 274.128 281.261 275.781C281.261 277.444 282.173 278.497 283.631 278.497C284.781 278.497 285.601 277.941 285.844 277.044H285.006ZM283.621 273.797C284.455 273.797 285.011 274.411 285.03 275.343H282.134C282.197 274.411 282.782 273.797 283.621 273.797ZM287.107 274.587C287.107 275.347 287.556 275.772 288.541 276.01L289.443 276.23C290.003 276.366 290.276 276.61 290.276 276.971C290.276 277.454 289.769 277.79 289.062 277.79C288.389 277.79 287.97 277.507 287.829 277.064H286.966C287.058 277.936 287.863 278.497 289.033 278.497C290.228 278.497 291.139 277.849 291.139 276.908C291.139 276.152 290.661 275.723 289.672 275.484L288.862 275.289C288.243 275.138 287.951 274.913 287.951 274.553C287.951 274.085 288.438 273.768 289.062 273.768C289.696 273.768 290.106 274.046 290.218 274.465H291.047C290.934 273.602 290.169 273.056 289.067 273.056C287.951 273.056 287.107 273.714 287.107 274.587ZM295.937 277.044C295.717 277.507 295.259 277.756 294.581 277.756C293.689 277.756 293.109 277.098 293.065 276.059V276.02H296.844V275.698C296.844 274.065 295.981 273.056 294.562 273.056C293.119 273.056 292.192 274.128 292.192 275.781C292.192 277.444 293.104 278.497 294.562 278.497C295.713 278.497 296.532 277.941 296.775 277.044H295.937ZM294.552 273.797C295.386 273.797 295.942 274.411 295.961 275.343H293.065C293.129 274.411 293.714 273.797 294.552 273.797ZM298.16 278.404H298.999V275.147C298.999 274.406 299.579 273.87 300.379 273.87C300.544 273.87 300.847 273.899 300.915 273.919V273.08C300.808 273.066 300.632 273.056 300.496 273.056C299.798 273.056 299.194 273.417 299.038 273.929H298.96V273.148H298.16V278.404ZM305.298 277.044C305.079 277.507 304.62 277.756 303.943 277.756C303.05 277.756 302.47 277.098 302.426 276.059V276.02H306.205V275.698C306.205 274.065 305.342 273.056 303.923 273.056C302.48 273.056 301.554 274.128 301.554 275.781C301.554 277.444 302.465 278.497 303.923 278.497C305.074 278.497 305.893 277.941 306.137 277.044H305.298ZM303.913 273.797C304.747 273.797 305.303 274.411 305.322 275.343H302.426C302.49 274.411 303.075 273.797 303.913 273.797ZM132.403 288.587C132.403 289.347 132.852 289.772 133.837 290.01L134.739 290.23C135.299 290.366 135.572 290.61 135.572 290.971C135.572 291.454 135.065 291.79 134.358 291.79C133.686 291.79 133.266 291.507 133.125 291.064H132.262C132.355 291.936 133.159 292.497 134.329 292.497C135.524 292.497 136.435 291.849 136.435 290.908C136.435 290.152 135.958 289.723 134.968 289.484L134.159 289.289C133.539 289.138 133.247 288.913 133.247 288.553C133.247 288.085 133.734 287.768 134.358 287.768C134.992 287.768 135.402 288.046 135.514 288.465H136.343C136.231 287.602 135.465 287.056 134.363 287.056C133.247 287.056 132.403 287.714 132.403 288.587ZM139.912 292.497C141.409 292.497 142.335 291.463 142.335 289.776C142.335 288.085 141.409 287.056 139.912 287.056C138.415 287.056 137.489 288.085 137.489 289.776C137.489 291.463 138.415 292.497 139.912 292.497ZM139.912 291.741C138.917 291.741 138.356 291.02 138.356 289.776C138.356 288.528 138.917 287.812 139.912 287.812C140.906 287.812 141.467 288.528 141.467 289.776C141.467 291.02 140.906 291.741 139.912 291.741ZM143.651 292.404H144.49V289.147C144.49 288.406 145.021 287.812 145.709 287.812C146.372 287.812 146.806 288.211 146.806 288.835V292.404H147.645V289.026C147.645 288.358 148.132 287.812 148.863 287.812C149.605 287.812 149.97 288.192 149.97 288.967V292.404H150.809V288.772C150.809 287.67 150.209 287.056 149.136 287.056C148.41 287.056 147.81 287.422 147.528 287.977H147.45C147.206 287.431 146.708 287.056 145.997 287.056C145.294 287.056 144.768 287.392 144.529 287.977H144.451V287.148H143.651V292.404ZM155.207 292.404H156.045V289.294C156.045 288.406 156.562 287.812 157.503 287.812C158.298 287.812 158.717 288.275 158.717 289.206V292.404H159.556V289.001C159.556 287.768 158.854 287.056 157.742 287.056C156.937 287.056 156.387 287.397 156.123 287.977H156.045V285.062H155.207V292.404ZM165.338 287.148H164.5V290.259C164.5 291.181 163.993 291.732 163.066 291.732C162.228 291.732 161.877 291.293 161.877 290.347V287.148H161.038V290.552C161.038 291.795 161.652 292.497 162.832 292.497C163.637 292.497 164.197 292.166 164.461 291.58H164.539V292.404H165.338V287.148ZM166.796 288.587C166.796 289.347 167.245 289.772 168.229 290.01L169.131 290.23C169.692 290.366 169.965 290.61 169.965 290.971C169.965 291.454 169.458 291.79 168.751 291.79C168.078 291.79 167.659 291.507 167.518 291.064H166.655C166.747 291.936 167.552 292.497 168.722 292.497C169.916 292.497 170.828 291.849 170.828 290.908C170.828 290.152 170.35 289.723 169.361 289.484L168.551 289.289C167.932 289.138 167.64 288.913 167.64 288.553C167.64 288.085 168.127 287.768 168.751 287.768C169.385 287.768 169.795 288.046 169.907 288.465H170.736C170.623 287.602 169.858 287.056 168.756 287.056C167.64 287.056 166.796 287.714 166.796 288.587ZM173.11 289.445H173.032V285.062H172.193V292.404H173.032V290.41L173.534 289.942L175.504 292.404H176.572L174.158 289.401L176.421 287.148H175.392L173.11 289.445ZM180.804 291.044C180.584 291.507 180.126 291.756 179.448 291.756C178.556 291.756 177.976 291.098 177.932 290.059V290.02H181.711V289.698C181.711 288.065 180.848 287.056 179.429 287.056C177.986 287.056 177.059 288.128 177.059 289.781C177.059 291.444 177.971 292.497 179.429 292.497C180.579 292.497 181.399 291.941 181.642 291.044H180.804ZM179.419 287.797C180.253 287.797 180.809 288.411 180.828 289.343H177.932C177.995 288.411 178.58 287.797 179.419 287.797ZM183.027 292.404H183.866V289.147C183.866 288.406 184.446 287.87 185.245 287.87C185.411 287.87 185.713 287.899 185.782 287.919V287.08C185.674 287.066 185.499 287.056 185.362 287.056C184.665 287.056 184.061 287.417 183.905 287.929H183.827V287.148H183.027V292.404ZM191.593 292.497C192.32 292.497 192.944 292.151 193.276 291.566H193.354V292.404H194.153V285.062H193.315V287.977H193.241C192.944 287.402 192.325 287.056 191.593 287.056C190.258 287.056 189.385 288.128 189.385 289.776C189.385 291.429 190.248 292.497 191.593 292.497ZM191.789 287.812C192.739 287.812 193.334 288.572 193.334 289.776C193.334 290.99 192.744 291.741 191.789 291.741C190.828 291.741 190.253 291.005 190.253 289.776C190.253 288.553 190.833 287.812 191.789 287.812ZM199.263 291.044C199.043 291.507 198.585 291.756 197.907 291.756C197.015 291.756 196.435 291.098 196.391 290.059V290.02H200.17V289.698C200.17 288.065 199.307 287.056 197.888 287.056C196.445 287.056 195.518 288.128 195.518 289.781C195.518 291.444 196.43 292.497 197.888 292.497C199.039 292.497 199.858 291.941 200.101 291.044H199.263ZM197.878 287.797C198.712 287.797 199.268 288.411 199.287 289.343H196.391C196.454 288.411 197.04 287.797 197.878 287.797ZM203.651 294.423C205.084 294.423 205.991 293.672 205.991 292.497V287.148H205.192V287.982H205.114C204.811 287.417 204.163 287.056 203.427 287.056C202.076 287.056 201.223 288.124 201.223 289.698C201.223 291.273 202.066 292.326 203.427 292.326C204.148 292.326 204.743 292 205.075 291.42H205.153V292.453C205.153 293.228 204.592 293.692 203.651 293.692C202.895 293.692 202.427 293.414 202.335 292.985H201.447C201.574 293.852 202.383 294.423 203.651 294.423ZM203.612 291.585C202.637 291.585 202.091 290.844 202.091 289.698C202.091 288.553 202.637 287.812 203.612 287.812C204.582 287.812 205.172 288.553 205.172 289.698C205.172 290.844 204.587 291.585 203.612 291.585ZM208.263 292.453C208.614 292.453 208.897 292.166 208.897 291.819C208.897 291.468 208.614 291.186 208.263 291.186C207.917 291.186 207.629 291.468 207.629 291.819C207.629 292.166 207.917 292.453 208.263 292.453Z" fill="#706B8B"/>
<path d="M220.394 292.404V285.369H219.375L216.966 291.239H216.888L214.48 285.369H213.461V292.404H214.28V287.031H214.338L216.557 292.404H217.298L219.516 287.031H219.575V292.404H220.394ZM225.562 291.044C225.343 291.507 224.884 291.756 224.207 291.756C223.314 291.756 222.734 291.098 222.69 290.059V290.02H226.469V289.698C226.469 288.065 225.606 287.056 224.187 287.056C222.744 287.056 221.818 288.128 221.818 289.781C221.818 291.444 222.729 292.497 224.187 292.497C225.338 292.497 226.157 291.941 226.401 291.044H225.562ZM224.177 287.797C225.011 287.797 225.567 288.411 225.586 289.343H222.69C222.754 288.411 223.339 287.797 224.177 287.797ZM227.785 292.404H228.624V289.147C228.624 288.406 229.204 287.87 230.004 287.87C230.169 287.87 230.472 287.899 230.54 287.919V287.08C230.433 287.066 230.257 287.056 230.121 287.056C229.424 287.056 228.819 287.417 228.663 287.929H228.585V287.148H227.785V292.404ZM234.845 286.134C235.167 286.134 235.43 285.871 235.43 285.549C235.43 285.227 235.167 284.964 234.845 284.964C234.523 284.964 234.26 285.227 234.26 285.549C234.26 285.871 234.523 286.134 234.845 286.134ZM234.426 292.404H235.265V287.148H234.426V292.404ZM236.864 292.404H237.702V289.294C237.702 288.372 238.244 287.812 239.082 287.812C239.921 287.812 240.321 288.26 240.321 289.206V292.404H241.159V289.001C241.159 287.753 240.501 287.056 239.321 287.056C238.517 287.056 238.005 287.397 237.741 287.977H237.663V287.148H236.864V292.404ZM243.046 292.404H243.885V287.851H245.089V287.148H243.885V286.588C243.885 286.012 244.138 285.72 244.743 285.72C244.894 285.72 245.035 285.725 245.138 285.744V285.062C244.962 285.028 244.777 285.013 244.572 285.013C243.573 285.013 243.046 285.515 243.046 286.563V287.148H242.173V287.851H243.046V292.404ZM248.248 292.497C249.745 292.497 250.672 291.463 250.672 289.776C250.672 288.085 249.745 287.056 248.248 287.056C246.752 287.056 245.825 288.085 245.825 289.776C245.825 291.463 246.752 292.497 248.248 292.497ZM248.248 291.741C247.254 291.741 246.693 291.02 246.693 289.776C246.693 288.528 247.254 287.812 248.248 287.812C249.243 287.812 249.804 288.528 249.804 289.776C249.804 291.02 249.243 291.741 248.248 291.741Z" fill="#5E3DC2"/>
<path d="M220.394 292.404V285.369H219.375L216.966 291.239H216.888L214.48 285.369H213.461V292.404H214.28V287.031H214.338L216.557 292.404H217.298L219.516 287.031H219.575V292.404H220.394ZM225.562 291.044C225.343 291.507 224.884 291.756 224.207 291.756C223.314 291.756 222.734 291.098 222.69 290.059V290.02H226.469V289.698C226.469 288.065 225.606 287.056 224.187 287.056C222.744 287.056 221.818 288.128 221.818 289.781C221.818 291.444 222.729 292.497 224.187 292.497C225.338 292.497 226.157 291.941 226.401 291.044H225.562ZM224.177 287.797C225.011 287.797 225.567 288.411 225.586 289.343H222.69C222.754 288.411 223.339 287.797 224.177 287.797ZM227.785 292.404H228.624V289.147C228.624 288.406 229.204 287.87 230.004 287.87C230.169 287.87 230.472 287.899 230.54 287.919V287.08C230.433 287.066 230.257 287.056 230.121 287.056C229.424 287.056 228.819 287.417 228.663 287.929H228.585V287.148H227.785V292.404ZM234.845 286.134C235.167 286.134 235.43 285.871 235.43 285.549C235.43 285.227 235.167 284.964 234.845 284.964C234.523 284.964 234.26 285.227 234.26 285.549C234.26 285.871 234.523 286.134 234.845 286.134ZM234.426 292.404H235.265V287.148H234.426V292.404ZM236.864 292.404H237.702V289.294C237.702 288.372 238.244 287.812 239.082 287.812C239.921 287.812 240.321 288.26 240.321 289.206V292.404H241.159V289.001C241.159 287.753 240.501 287.056 239.321 287.056C238.517 287.056 238.005 287.397 237.741 287.977H237.663V287.148H236.864V292.404ZM243.046 292.404H243.885V287.851H245.089V287.148H243.885V286.588C243.885 286.012 244.138 285.72 244.743 285.72C244.894 285.72 245.035 285.725 245.138 285.744V285.062C244.962 285.028 244.777 285.013 244.572 285.013C243.573 285.013 243.046 285.515 243.046 286.563V287.148H242.173V287.851H243.046V292.404ZM248.248 292.497C249.745 292.497 250.672 291.463 250.672 289.776C250.672 288.085 249.745 287.056 248.248 287.056C246.752 287.056 245.825 288.085 245.825 289.776C245.825 291.463 246.752 292.497 248.248 292.497ZM248.248 291.741C247.254 291.741 246.693 291.02 246.693 289.776C246.693 288.528 247.254 287.812 248.248 287.812C249.243 287.812 249.804 288.528 249.804 289.776C249.804 291.02 249.243 291.741 248.248 291.741Z" fill="#722AC9"/>
<path d="M212.564 294.208H251.198V294.793H212.564V294.208Z" fill="#5E3DC2"/>
<path d="M212.564 294.208H251.198V294.793H212.564V294.208Z" fill="#722AC9"/>
<path d="M156.587 246.98H158.565L160.287 250.162H161.462L159.601 246.824C160.61 246.506 161.217 245.637 161.217 244.517C161.217 243.068 160.203 242.121 158.654 242.121H155.584V250.162H156.587V246.98ZM156.587 243.013H158.52C159.557 243.013 160.181 243.586 160.181 244.55C160.181 245.537 159.596 246.088 158.565 246.088H156.587V243.013ZM166.5 248.607C166.249 249.136 165.725 249.421 164.951 249.421C163.931 249.421 163.268 248.668 163.218 247.481V247.437H167.536V247.069C167.536 245.202 166.55 244.049 164.929 244.049C163.279 244.049 162.221 245.275 162.221 247.164C162.221 249.064 163.263 250.267 164.929 250.267C166.244 250.267 167.18 249.632 167.458 248.607H166.5ZM164.917 244.896C165.87 244.896 166.506 245.598 166.528 246.662H163.218C163.29 245.598 163.959 244.896 164.917 244.896ZM168.813 250.162H169.771V246.439C169.771 245.592 170.378 244.913 171.164 244.913C171.922 244.913 172.418 245.37 172.418 246.083V250.162H173.376V246.3C173.376 245.537 173.933 244.913 174.769 244.913C175.616 244.913 176.034 245.347 176.034 246.233V250.162H176.993V246.01C176.993 244.751 176.307 244.049 175.081 244.049C174.251 244.049 173.566 244.467 173.242 245.102H173.153C172.875 244.478 172.306 244.049 171.493 244.049C170.69 244.049 170.089 244.433 169.816 245.102H169.726V244.155H168.813V250.162ZM182.492 248.607C182.242 249.136 181.718 249.421 180.943 249.421C179.924 249.421 179.261 248.668 179.21 247.481V247.437H183.529V247.069C183.529 245.202 182.543 244.049 180.921 244.049C179.272 244.049 178.213 245.275 178.213 247.164C178.213 249.064 179.255 250.267 180.921 250.267C182.236 250.267 183.172 249.632 183.451 248.607H182.492ZM180.91 244.896C181.863 244.896 182.498 245.598 182.52 246.662H179.21C179.283 245.598 179.952 244.896 180.91 244.896ZM184.805 250.162H185.764V246.439C185.764 245.592 186.371 244.913 187.157 244.913C187.914 244.913 188.41 245.37 188.41 246.083V250.162H189.369V246.3C189.369 245.537 189.926 244.913 190.762 244.913C191.609 244.913 192.027 245.347 192.027 246.233V250.162H192.985V246.01C192.985 244.751 192.3 244.049 191.074 244.049C190.244 244.049 189.558 244.467 189.235 245.102H189.146C188.867 244.478 188.299 244.049 187.485 244.049C186.683 244.049 186.081 244.433 185.808 245.102H185.719V244.155H184.805V250.162ZM197.493 250.267C199.014 250.267 200.012 249.036 200.012 247.158C200.012 245.269 199.02 244.049 197.493 244.049C196.668 244.049 195.939 244.456 195.61 245.102H195.521V241.77H194.562V250.162H195.476V249.203H195.565C195.944 249.872 196.657 250.267 197.493 250.267ZM197.27 244.913C198.368 244.913 199.02 245.754 199.02 247.158C199.02 248.562 198.368 249.404 197.27 249.404C196.178 249.404 195.498 248.546 195.498 247.158C195.498 245.771 196.178 244.913 197.27 244.913ZM205.267 248.607C205.016 249.136 204.492 249.421 203.717 249.421C202.698 249.421 202.035 248.668 201.985 247.481V247.437H206.303V247.069C206.303 245.202 205.317 244.049 203.695 244.049C202.046 244.049 200.987 245.275 200.987 247.164C200.987 249.064 202.029 250.267 203.695 250.267C205.01 250.267 205.946 249.632 206.225 248.607H205.267ZM203.684 244.896C204.637 244.896 205.272 245.598 205.294 246.662H201.985C202.057 245.598 202.726 244.896 203.684 244.896ZM207.579 250.162H208.538V246.439C208.538 245.592 209.201 244.98 210.115 244.98C210.304 244.98 210.649 245.013 210.727 245.035V244.077C210.605 244.06 210.404 244.049 210.248 244.049C209.451 244.049 208.76 244.461 208.582 245.046H208.493V244.155H207.579V250.162ZM214.69 250.162H215.648V246.439C215.648 245.592 216.255 244.913 217.041 244.913C217.799 244.913 218.295 245.37 218.295 246.083V250.162H219.253V246.3C219.253 245.537 219.81 244.913 220.646 244.913C221.493 244.913 221.911 245.347 221.911 246.233V250.162H222.87V246.01C222.87 244.751 222.184 244.049 220.958 244.049C220.128 244.049 219.443 244.467 219.12 245.102H219.03C218.752 244.478 218.183 244.049 217.37 244.049C216.567 244.049 215.966 244.433 215.693 245.102H215.604V244.155H214.69V250.162ZM228.37 248.607C228.119 249.136 227.595 249.421 226.82 249.421C225.801 249.421 225.138 248.668 225.088 247.481V247.437H229.406V247.069C229.406 245.202 228.42 244.049 226.798 244.049C225.149 244.049 224.09 245.275 224.09 247.164C224.09 249.064 225.132 250.267 226.798 250.267C228.113 250.267 229.049 249.632 229.328 248.607H228.37ZM226.787 244.896C227.74 244.896 228.375 245.598 228.397 246.662H225.088C225.16 245.598 225.829 244.896 226.787 244.896ZM234.176 242.996C234.544 242.996 234.845 242.695 234.845 242.327C234.845 241.959 234.544 241.659 234.176 241.659C233.808 241.659 233.508 241.959 233.508 242.327C233.508 242.695 233.808 242.996 234.176 242.996ZM233.697 250.162H234.655V244.155H233.697V250.162ZM236.255 250.162H237.213V246.607C237.213 245.553 237.832 244.913 238.79 244.913C239.749 244.913 240.205 245.425 240.205 246.506V250.162H241.164V246.272C241.164 244.846 240.412 244.049 239.063 244.049C238.144 244.049 237.559 244.439 237.258 245.102H237.169V244.155H236.255V250.162ZM246.085 242.6V244.155H245.115V244.957H246.085V248.601C246.085 249.749 246.58 250.206 247.817 250.206C248.007 250.206 248.191 250.184 248.38 250.15V249.343C248.202 249.359 248.107 249.365 247.934 249.365C247.31 249.365 247.043 249.064 247.043 248.356V244.957H248.38V244.155H247.043V242.6H246.085ZM249.656 250.162H250.615V246.607C250.615 245.592 251.206 244.913 252.281 244.913C253.189 244.913 253.668 245.442 253.668 246.506V250.162H254.627V246.272C254.627 244.863 253.824 244.049 252.554 244.049C251.635 244.049 251.005 244.439 250.704 245.102H250.615V241.77H249.656V250.162ZM256.65 242.996C257.018 242.996 257.318 242.695 257.318 242.327C257.318 241.959 257.018 241.659 256.65 241.659C256.282 241.659 255.981 241.959 255.981 242.327C255.981 242.695 256.282 242.996 256.65 242.996ZM256.171 250.162H257.129V244.155H256.171V250.162ZM258.589 245.799C258.589 246.668 259.102 247.153 260.227 247.426L261.258 247.676C261.899 247.832 262.211 248.111 262.211 248.523C262.211 249.075 261.631 249.46 260.824 249.46C260.055 249.46 259.575 249.136 259.414 248.629H258.427C258.533 249.627 259.453 250.267 260.79 250.267C262.155 250.267 263.197 249.526 263.197 248.451C263.197 247.587 262.651 247.097 261.52 246.824L260.595 246.601C259.887 246.428 259.553 246.172 259.553 245.76C259.553 245.225 260.11 244.863 260.824 244.863C261.548 244.863 262.016 245.18 262.144 245.659H263.091C262.963 244.673 262.088 244.049 260.829 244.049C259.553 244.049 258.589 244.801 258.589 245.799ZM270.453 250.267C271.974 250.267 272.971 249.036 272.971 247.158C272.971 245.269 271.979 244.049 270.453 244.049C269.628 244.049 268.898 244.456 268.569 245.102H268.48V241.77H267.522V250.162H268.436V249.203H268.525C268.904 249.872 269.617 250.267 270.453 250.267ZM270.23 244.913C271.327 244.913 271.979 245.754 271.979 247.158C271.979 248.562 271.327 249.404 270.23 249.404C269.138 249.404 268.458 248.546 268.458 247.158C268.458 245.771 269.138 244.913 270.23 244.913ZM274.248 250.162H275.206V246.439C275.206 245.592 275.869 244.98 276.783 244.98C276.972 244.98 277.318 245.013 277.396 245.035V244.077C277.273 244.06 277.073 244.049 276.917 244.049C276.12 244.049 275.429 244.461 275.25 245.046H275.161V244.155H274.248V250.162ZM280.667 250.267C282.377 250.267 283.436 249.086 283.436 247.158C283.436 245.225 282.377 244.049 280.667 244.049C278.956 244.049 277.897 245.225 277.897 247.158C277.897 249.086 278.956 250.267 280.667 250.267ZM280.667 249.404C279.53 249.404 278.889 248.579 278.889 247.158C278.889 245.732 279.53 244.913 280.667 244.913C281.804 244.913 282.444 245.732 282.444 247.158C282.444 248.579 281.804 249.404 280.667 249.404ZM292.045 244.155H291.081L289.9 248.958H289.811L288.468 244.155H287.549L286.206 248.958H286.117L284.935 244.155H283.966L285.649 250.162H286.618L287.955 245.514H288.045L289.387 250.162H290.363L292.045 244.155ZM292.792 245.799C292.792 246.668 293.305 247.153 294.431 247.426L295.461 247.676C296.102 247.832 296.414 248.111 296.414 248.523C296.414 249.075 295.835 249.46 295.027 249.46C294.258 249.46 293.779 249.136 293.617 248.629H292.631C292.737 249.627 293.656 250.267 294.993 250.267C296.358 250.267 297.4 249.526 297.4 248.451C297.4 247.587 296.854 247.097 295.723 246.824L294.798 246.601C294.091 246.428 293.756 246.172 293.756 245.76C293.756 245.225 294.313 244.863 295.027 244.863C295.751 244.863 296.219 245.18 296.347 245.659H297.295C297.166 244.673 296.292 244.049 295.032 244.049C293.756 244.049 292.792 244.801 292.792 245.799ZM302.655 248.607C302.404 249.136 301.881 249.421 301.106 249.421C300.086 249.421 299.423 248.668 299.373 247.481V247.437H303.692V247.069C303.692 245.202 302.705 244.049 301.084 244.049C299.435 244.049 298.376 245.275 298.376 247.164C298.376 249.064 299.418 250.267 301.084 250.267C302.399 250.267 303.335 249.632 303.614 248.607H302.655ZM301.073 244.896C302.026 244.896 302.661 245.598 302.683 246.662H299.373C299.446 245.598 300.114 244.896 301.073 244.896ZM304.968 250.162H305.926V246.439C305.926 245.592 306.589 244.98 307.503 244.98C307.693 244.98 308.038 245.013 308.116 245.035V244.077C307.994 244.06 307.793 244.049 307.637 244.049C306.84 244.049 306.149 244.461 305.971 245.046H305.882V244.155H304.968V250.162Z" fill="#161225"/>
<path fill-rule="evenodd" clip-rule="evenodd" d="M135.301 237.735C133.726 237.735 132.448 239.013 132.448 240.588V250.573C132.448 252.149 133.726 253.426 135.301 253.426H145.286C146.862 253.426 148.139 252.149 148.139 250.573V240.588C148.139 239.013 146.862 237.735 145.286 237.735H135.301ZM144.069 242.223L138.868 247.425L137.232 245.79C136.954 245.511 136.502 245.511 136.224 245.79C135.945 246.068 135.945 246.52 136.224 246.798L138.363 248.938C138.642 249.217 139.094 249.217 139.372 248.938L145.078 243.232C145.357 242.954 145.357 242.502 145.078 242.223C144.799 241.945 144.348 241.945 144.069 242.223Z" fill="#FF5B24"/>
<rect x="132.448" y="191.375" width="221.103" height="34.2353" rx="4.27941" fill="#F6F6F9"/>
<path d="M182.582 214.651C185.532 214.651 187.22 212.277 187.22 208.131C187.22 204.028 185.281 202.03 182.682 202.03C180.208 202.03 178.453 203.76 178.453 206.184C178.453 208.524 180.116 210.221 182.414 210.221C183.852 210.221 185.031 209.536 185.624 208.365H185.758C185.674 211.575 184.563 213.314 182.598 213.314C181.411 213.314 180.492 212.653 180.174 211.567H178.628C179.004 213.464 180.534 214.651 182.582 214.651ZM182.682 208.917C181.086 208.917 179.974 207.78 179.974 206.134C179.974 204.554 181.152 203.35 182.699 203.35C184.245 203.35 185.423 204.571 185.423 206.184C185.423 207.78 184.278 208.917 182.682 208.917ZM191.464 208.817H192.96C194.656 208.817 195.701 209.686 195.701 211.082C195.701 212.436 194.573 213.347 192.985 213.347C191.43 213.347 190.344 212.536 190.21 211.266H188.756C188.864 213.314 190.553 214.659 193.002 214.659C195.4 214.659 197.248 213.146 197.248 211.124C197.248 209.444 196.211 208.382 194.648 208.131V207.998C195.885 207.638 196.788 206.677 196.796 205.223C196.805 203.534 195.434 202.03 193.052 202.03C190.611 202.03 189.115 203.476 188.965 205.44H190.427C190.553 204.086 191.497 203.342 192.951 203.342C194.406 203.342 195.267 204.262 195.267 205.39C195.267 206.644 194.28 207.53 192.893 207.53H191.464V208.817ZM204.458 214.375H205.929V211.876H207.642V210.53H205.929V202.314H203.747C202.059 204.83 200.212 207.772 198.582 210.505V211.876H204.458V214.375ZM200.12 210.438C201.432 208.223 203.012 205.733 204.366 203.71H204.466V210.539H200.12V210.438ZM213.295 205.716H214.75C214.75 204.287 215.711 203.342 217.157 203.342C218.578 203.342 219.439 204.295 219.439 205.574C219.439 206.635 218.987 207.262 217.449 208.925L213.371 213.339V214.375H221.177V213.021H215.46V212.887L218.202 210.054C220.375 207.805 220.977 206.802 220.977 205.415C220.977 203.459 219.363 202.03 217.257 202.03C214.95 202.03 213.295 203.568 213.295 205.716ZM228.262 214.375H229.733V211.876H231.447V210.53H229.733V202.314H227.552C225.863 204.83 224.016 207.772 222.386 210.505V211.876H228.262V214.375ZM223.924 210.438C225.236 208.223 226.816 205.733 228.17 203.71H228.27V210.539H223.924V210.438ZM237.676 214.375H239.256L244.622 203.71V202.314H236.64V203.66H243.092V203.777L237.676 214.375ZM246.149 205.716H247.603C247.603 204.287 248.564 203.342 250.01 203.342C251.431 203.342 252.292 204.295 252.292 205.574C252.292 206.635 251.841 207.262 250.303 208.925L246.224 213.339V214.375H254.031V213.021H248.314V212.887L251.055 210.054C253.228 207.805 253.83 206.802 253.83 205.415C253.83 203.459 252.217 202.03 250.111 202.03C247.804 202.03 246.149 203.568 246.149 205.716ZM259.87 214.659C262.336 214.659 264.016 212.954 264.016 210.472C264.016 208.081 262.344 206.493 260.321 206.493C259.118 206.493 258.224 206.861 257.638 207.588H257.505L257.881 203.66H263.397V202.314H256.702L256.009 209.21H257.421C257.898 208.315 258.8 207.789 259.945 207.789C261.467 207.789 262.511 208.884 262.511 210.513C262.511 212.202 261.467 213.339 259.887 213.339C258.466 213.339 257.43 212.478 257.296 211.191H255.816C255.95 213.255 257.588 214.659 259.87 214.659Z" fill="black"/>
<path d="M147.042 210.112H150.461V209.076H147.042V205.448H146.006V209.076H142.596V210.112H146.006V213.74H147.042V210.112ZM158.398 214.375H159.51V211.65H161.316V210.622H159.51V202.297H157.872C155.239 205.958 153.793 208.215 152.339 210.605V211.65H158.398V214.375ZM153.534 210.555C154.746 208.558 155.95 206.685 158.323 203.392H158.398V210.631H153.534V210.555ZM163.603 214.375H164.823L170.348 203.384V202.314H162.491V203.342H169.178V203.434L163.603 214.375Z" fill="#706B8B"/>
<rect opacity="0.9" x="265.683" y="198.507" width="1.42647" height="19.2574" rx="0.713235" fill="#FF5B24"/>
<path d="M215.418 151.735C217.134 151.735 218.165 150.877 218.165 149.462C218.165 148.409 217.44 147.64 216.354 147.523V147.428C217.145 147.294 217.763 146.542 217.763 145.701C217.763 144.464 216.855 143.695 215.345 143.695H212.113V151.735H215.418ZM213.361 144.714H215.055C215.98 144.714 216.521 145.155 216.521 145.918C216.521 146.704 215.947 147.116 214.844 147.116H213.361V144.714ZM213.361 150.716V148.069H215.094C216.27 148.069 216.889 148.515 216.889 149.384C216.889 150.253 216.292 150.716 215.167 150.716H213.361ZM224.517 145.684H223.319V149.233C223.319 150.209 222.79 150.799 221.82 150.799C220.94 150.799 220.544 150.32 220.544 149.317V145.684H219.346V149.612C219.346 151.033 220.093 151.852 221.436 151.852C222.355 151.852 222.974 151.462 223.269 150.777H223.364V151.735H224.517V145.684ZM226.451 144.157V145.701H225.487V146.659H226.451V150.142C226.451 151.306 226.98 151.774 228.312 151.774C228.546 151.774 228.769 151.746 228.964 151.713V150.76C228.797 150.777 228.691 150.788 228.507 150.788C227.911 150.788 227.649 150.504 227.649 149.852V146.659H228.964V145.701H227.649V144.157H226.451ZM230.764 144.603C231.182 144.603 231.522 144.263 231.522 143.851C231.522 143.433 231.182 143.093 230.764 143.093C230.346 143.093 230.006 143.433 230.006 143.851C230.006 144.263 230.346 144.603 230.764 144.603ZM230.168 151.735H231.36V145.684H230.168V151.735ZM234.241 148.236H234.146V143.31H232.948V151.735H234.146V149.534L234.676 149.027L236.76 151.735H238.231L235.567 148.275L238.064 145.684H236.648L234.241 148.236ZM240.454 148.236H240.36V143.31H239.162V151.735H240.36V149.534L240.889 149.027L242.973 151.735H244.444L241.78 148.275L244.277 145.684H242.861L240.454 148.236ZM248.985 150.114C248.763 150.604 248.267 150.872 247.542 150.872C246.584 150.872 245.965 150.181 245.926 149.083V149.027H250.211V148.615C250.211 146.72 249.192 145.567 247.503 145.567C245.793 145.567 244.706 146.798 244.706 148.721C244.706 150.654 245.77 151.852 247.509 151.852C248.896 151.852 249.877 151.184 250.139 150.114H248.985ZM247.498 146.542C248.384 146.542 248.963 147.183 248.991 148.164H245.926C245.993 147.188 246.612 146.542 247.498 146.542ZM251.421 151.735H252.619V148.186C252.619 147.211 253.182 146.609 254.068 146.609C254.953 146.609 255.377 147.099 255.377 148.102V151.735H256.575V147.818C256.575 146.375 255.828 145.567 254.474 145.567C253.56 145.567 252.959 145.974 252.663 146.642H252.574V145.684H251.421V151.735ZM266.271 151.735H267.597L264.694 143.695H263.351L260.448 151.735H261.73L262.471 149.562H265.535L266.271 151.735ZM263.959 145.116H264.053L265.218 148.559H262.788L263.959 145.116ZM268.394 149.59C268.483 151.017 269.681 151.93 271.464 151.93C273.37 151.93 274.563 150.972 274.563 149.451C274.563 148.247 273.883 147.584 272.233 147.188L271.347 146.971C270.3 146.715 269.876 146.381 269.876 145.795C269.876 145.043 270.534 144.558 271.52 144.558C272.456 144.558 273.103 145.026 273.22 145.79H274.434C274.362 144.447 273.17 143.5 271.537 143.5C269.782 143.5 268.612 144.447 268.612 145.862C268.612 147.032 269.275 147.723 270.729 148.074L271.765 148.325C272.83 148.582 273.298 148.972 273.298 149.601C273.298 150.337 272.562 150.866 271.559 150.866C270.484 150.866 269.737 150.37 269.631 149.59H268.394Z" fill="#706B8B"/>
<path d="M227.664 129.237H222.19V118.998H220.033V131.059H227.664V129.237ZM233.04 131.234C235.639 131.234 237.328 129.504 237.328 126.629C237.328 123.762 235.623 122.015 233.04 122.015C230.457 122.015 228.752 123.77 228.752 126.629C228.752 129.504 230.44 131.234 233.04 131.234ZM233.04 129.588C231.719 129.588 230.867 128.518 230.867 126.629C230.867 124.748 231.728 123.67 233.04 123.67C234.36 123.67 235.213 124.748 235.213 126.629C235.213 128.518 234.36 129.588 233.04 129.588ZM242.854 134.402C245.436 134.402 247.133 133.031 247.133 130.917V122.199H245.094V123.72H245.06C244.55 122.701 243.531 122.049 242.268 122.049C240.003 122.049 238.582 123.796 238.582 126.596C238.582 129.354 240.037 131.067 242.227 131.067C243.497 131.067 244.542 130.432 245.002 129.479H245.052V130.975C245.052 132.104 244.274 132.864 242.92 132.864C241.934 132.864 241.174 132.405 240.948 131.727H238.883C239.092 133.282 240.664 134.402 242.854 134.402ZM242.862 129.412C241.55 129.412 240.714 128.359 240.714 126.604C240.714 124.865 241.55 123.762 242.862 123.762C244.191 123.762 245.052 124.882 245.052 126.604C245.052 128.334 244.191 129.412 242.862 129.412ZM253.914 120.862C254.549 120.862 255.05 120.352 255.05 119.733C255.05 119.107 254.549 118.605 253.914 118.605C253.278 118.605 252.769 119.107 252.769 119.733C252.769 120.352 253.278 120.862 253.914 120.862ZM252.877 131.059H254.958V122.199H252.877V131.059ZM256.991 131.059H259.072V125.927C259.072 124.656 259.832 123.796 261.028 123.796C262.215 123.796 262.8 124.498 262.8 125.751V131.059H264.881V125.333C264.881 123.286 263.769 122.032 261.813 122.032C260.451 122.032 259.506 122.667 259.03 123.72H258.988V122.199H256.991V131.059Z" fill="#161225"/>
<path fill-rule="evenodd" clip-rule="evenodd" d="M265.824 89.2671C265.31 87.3073 264.063 86.5294 262.361 86.5294C260.982 86.5294 259.251 87.3073 259.251 89.1806C259.251 90.3909 260.087 91.342 261.451 91.5871L262.742 91.8175C263.623 91.9759 263.872 92.3074 263.872 92.7541C263.872 93.2584 263.329 93.5465 262.522 93.5465C261.466 93.5465 260.806 93.1719 260.703 92.12L258.84 92.4082C259.133 94.4398 260.952 95.2758 262.596 95.2758C264.151 95.2758 265.809 94.3822 265.809 92.5812C265.809 91.3562 265.06 90.4631 263.667 90.2034L262.244 89.9443C261.451 89.8003 261.187 89.4112 261.187 89.0366C261.187 88.561 261.701 88.2586 262.405 88.2586C263.3 88.2586 263.931 88.561 263.96 89.5552L265.824 89.2671ZM224.403 92.3503L226.339 86.7454H228.613L225.238 95.0593H223.551L220.177 86.7456H222.451L224.403 92.3503ZM236.302 89.123C236.302 89.7858 235.774 90.2468 235.157 90.2468C234.541 90.2468 234.013 89.7858 234.013 89.123C234.013 88.4602 234.541 87.9992 235.157 87.9992C235.774 87.9992 236.302 88.4602 236.302 89.123H236.302ZM236.654 92.0625C235.891 93.0421 235.084 93.7193 233.661 93.7193C232.209 93.7193 231.079 92.8548 230.198 91.5869C229.846 91.0681 229.303 90.9529 228.907 91.2267C228.54 91.4861 228.453 92.0337 228.79 92.5092C230.007 94.3391 231.695 95.4052 233.661 95.4052C235.466 95.4052 236.874 94.5408 237.974 93.0998C238.385 92.5668 238.371 92.0193 237.974 91.7167C237.608 91.4282 237.065 91.5295 236.654 92.0625ZM241.717 90.8808C241.717 92.5812 242.714 93.4746 243.83 93.4746C244.886 93.4746 245.972 92.6388 245.972 90.8808C245.972 89.1516 244.886 88.3161 243.844 88.3161C242.714 88.3161 241.717 89.1085 241.717 90.8808ZM241.717 87.8984V86.7598H239.648V97.9412H241.717V93.9642C242.406 94.8865 243.301 95.2758 244.313 95.2758C246.206 95.2758 248.055 93.806 248.055 90.7802C248.055 87.8838 246.133 86.5296 244.49 86.5296C243.184 86.5296 242.289 87.1202 241.717 87.8984ZM251.65 90.8808C251.65 92.5812 252.647 93.4746 253.763 93.4746C254.819 93.4746 255.905 92.6388 255.905 90.8808C255.905 89.1516 254.819 88.3161 253.777 88.3161C252.647 88.3161 251.65 89.1085 251.65 90.8808H251.65ZM251.65 87.8984V86.7598H251.65H249.581V97.9412H251.65V93.9642C252.339 94.8865 253.234 95.2758 254.247 95.2758C256.139 95.2758 257.988 93.806 257.988 90.7802C257.988 87.8838 256.066 86.5296 254.423 86.5296C253.117 86.5296 252.222 87.1202 251.65 87.8984Z" fill="#FF5B24"/>
<g filter="url(#filter2_dd)">
<rect x="435.956" y="60.1904" width="306" height="354.125" rx="13.5794" fill="white"/>
</g>
<g clip-path="url(#clip0)">
<rect x="531.243" y="359.998" width="116.104" height="21.7271" rx="10.8636" fill="white"/>
<rect x="531.583" y="360.337" width="115.425" height="21.0481" rx="10.5241" stroke="#C9C6D7" stroke-opacity="0.6" stroke-width="0.678972"/>
<path d="M544.876 372.213H546.987V371.178H544.876V368.966H543.831V371.178H541.725V372.213H543.831V374.425H544.876V372.213ZM552.095 374.732H553.241V373.21H554.297V372.202H553.241V367.078H551.549C550.494 368.664 549.369 370.473 548.361 372.202V373.21H552.095V374.732ZM549.502 372.149C550.287 370.807 551.22 369.316 552.042 368.08H552.111V372.223H549.502V372.149ZM555.851 374.732H557.098L560.429 368.107V367.078H555.215V368.08H559.225V368.165L555.851 374.732ZM566.97 374.913C568.885 374.913 570.004 373.396 570.004 370.796C570.004 368.229 568.773 366.892 567.018 366.892C565.394 366.892 564.243 368.001 564.243 369.555C564.243 371.03 565.304 372.107 566.763 372.107C567.67 372.107 568.402 371.682 568.768 370.95H568.858C568.826 372.849 568.153 373.91 566.98 373.91C566.28 373.91 565.734 373.528 565.554 372.897H564.355C564.583 374.128 565.612 374.913 566.97 374.913ZM567.023 371.146C566.079 371.146 565.426 370.483 565.426 369.518C565.426 368.595 566.116 367.884 567.034 367.884C567.946 367.884 568.635 368.606 568.635 369.55C568.635 370.478 567.962 371.146 567.023 371.146ZM572.948 371.268H573.903C574.9 371.268 575.516 371.778 575.516 372.595C575.516 373.39 574.858 373.921 573.919 373.921C572.991 373.921 572.349 373.438 572.28 372.685H571.139C571.203 374.032 572.317 374.918 573.935 374.918C575.531 374.918 576.736 373.963 576.736 372.658C576.736 371.608 576.078 370.929 575.059 370.775V370.685C575.86 370.462 576.439 369.852 576.444 368.929C576.449 367.842 575.553 366.892 573.972 366.892C572.359 366.892 571.362 367.821 571.283 369.12H572.407C572.476 368.319 573.033 367.868 573.903 367.868C574.762 367.868 575.272 368.404 575.272 369.078C575.272 369.815 574.699 370.335 573.871 370.335H572.948V371.268ZM581.542 374.732H582.687V373.21H583.743V372.202H582.687V367.078H580.995C579.94 368.664 578.815 370.473 577.807 372.202V373.21H581.542V374.732ZM578.948 372.149C579.733 370.807 580.666 369.316 581.489 368.08H581.558V372.223H578.948V372.149ZM587.663 369.295H588.788C588.788 368.447 589.356 367.874 590.22 367.874C591.069 367.874 591.573 368.441 591.573 369.184C591.573 369.804 591.318 370.186 590.348 371.2L587.727 373.926V374.732H592.883V373.719H589.35V373.629L591.037 371.932C592.379 370.584 592.766 369.953 592.766 369.067C592.766 367.81 591.732 366.892 590.294 366.892C588.751 366.892 587.663 367.89 587.663 369.295ZM597.61 374.732H598.755V373.21H599.811V372.202H598.755V367.078H597.063C596.008 368.664 594.883 370.473 593.875 372.202V373.21H597.61V374.732ZM595.016 372.149C595.801 370.807 596.734 369.316 597.556 368.08H597.625V372.223H595.016V372.149ZM604.119 374.732H605.365L608.696 368.107V367.078H603.482V368.08H607.492V368.165L604.119 374.732ZM609.848 369.295H610.972C610.972 368.447 611.54 367.874 612.404 367.874C613.253 367.874 613.757 368.441 613.757 369.184C613.757 369.804 613.502 370.186 612.532 371.2L609.911 373.926V374.732H615.067V373.719H611.534V373.629L613.221 371.932C614.563 370.584 614.95 369.953 614.95 369.067C614.95 367.81 613.916 366.892 612.479 366.892C610.935 366.892 609.848 367.89 609.848 369.295ZM619.083 374.918C620.706 374.918 621.804 373.831 621.804 372.239C621.804 370.712 620.743 369.714 619.449 369.714C618.674 369.714 618.107 369.964 617.757 370.436H617.667L617.889 368.086H621.406V367.078H616.966L616.537 371.497H617.624C617.905 370.966 618.441 370.648 619.12 370.648C620.022 370.648 620.642 371.295 620.642 372.26C620.642 373.258 620.016 373.926 619.088 373.926C618.255 373.926 617.635 373.422 617.55 372.658H616.415C616.489 373.99 617.56 374.918 619.083 374.918Z" fill="#706B8B"/>
<path d="M632.41 371.593L629.982 369.164C629.761 368.943 629.402 368.943 629.181 369.164C628.96 369.385 628.96 369.743 629.181 369.964L632.01 372.793C632.231 373.014 632.59 373.014 632.811 372.793L635.64 369.964C635.861 369.743 635.861 369.385 635.64 369.164C635.419 368.943 635.06 368.943 634.839 369.164L632.41 371.593Z" fill="#706B8B"/>
</g>
<path d="M498.097 317.531V325.186H500.722C502.998 325.186 504.335 323.769 504.335 321.356C504.335 318.948 502.993 317.531 500.722 317.531H498.097ZM499.052 318.391H500.659C502.356 318.391 503.359 319.494 503.359 321.367C503.359 323.234 502.367 324.326 500.659 324.326H499.052V318.391ZM510.281 319.468H509.369V322.852C509.369 323.854 508.817 324.454 507.809 324.454C506.897 324.454 506.515 323.976 506.515 322.947V319.468H505.603V323.17C505.603 324.523 506.271 325.287 507.555 325.287C508.43 325.287 509.04 324.926 509.327 324.289H509.411V325.186H510.281V319.468ZM514.684 325.186H515.597V321.802C515.597 320.836 516.159 320.189 517.183 320.189C518.047 320.189 518.504 320.693 518.504 321.706V325.186H519.416V321.483C519.416 320.141 518.652 319.367 517.443 319.367C516.568 319.367 515.968 319.738 515.682 320.369H515.597V317.197H514.684V325.186ZM522.456 325.287C523.22 325.287 523.845 324.952 524.217 324.342H524.302V325.186H525.172V321.271C525.172 320.083 524.392 319.367 522.997 319.367C521.777 319.367 520.875 319.971 520.753 320.889H521.676C521.803 320.438 522.281 320.178 522.965 320.178C523.819 320.178 524.259 320.566 524.259 321.271V321.791L522.61 321.892C521.278 321.971 520.525 322.56 520.525 323.584C520.525 324.629 521.347 325.287 522.456 325.287ZM522.625 324.486C521.962 324.486 521.469 324.146 521.469 323.563C521.469 322.99 521.851 322.687 522.721 322.629L524.259 322.528V323.053C524.259 323.87 523.564 324.486 522.625 324.486ZM526.641 325.186H527.554V321.642C527.554 320.836 528.185 320.253 529.055 320.253C529.235 320.253 529.564 320.284 529.638 320.306V319.393C529.521 319.377 529.331 319.367 529.182 319.367C528.423 319.367 527.766 319.759 527.596 320.316H527.511V319.468H526.641V325.186ZM533.792 325.186H534.704V320.231H536.015V319.468H534.704V318.858C534.704 318.232 534.98 317.913 535.638 317.913C535.802 317.913 535.956 317.919 536.068 317.94V317.197C535.877 317.16 535.675 317.144 535.452 317.144C534.365 317.144 533.792 317.691 533.792 318.831V319.468H532.842V320.231H533.792V325.186ZM539.102 318.672C539.781 318.672 540.333 318.141 540.333 317.457C540.333 316.773 539.781 316.242 539.102 316.242C538.423 316.242 537.871 316.773 537.871 317.457C537.871 318.141 538.423 318.672 539.102 318.672ZM539.102 318.11C538.731 318.11 538.455 317.828 538.455 317.457C538.455 317.086 538.731 316.805 539.102 316.805C539.473 316.805 539.749 317.086 539.749 317.457C539.749 317.828 539.473 318.11 539.102 318.11ZM538.561 325.287C539.325 325.287 539.951 324.952 540.322 324.342H540.407V325.186H541.277V321.271C541.277 320.083 540.497 319.367 539.102 319.367C537.882 319.367 536.98 319.971 536.858 320.889H537.781C537.908 320.438 538.386 320.178 539.07 320.178C539.924 320.178 540.364 320.566 540.364 321.271V321.791L538.715 321.892C537.383 321.971 536.63 322.56 536.63 323.584C536.63 324.629 537.452 325.287 538.561 325.287ZM538.731 324.486C538.068 324.486 537.574 324.146 537.574 323.563C537.574 322.99 537.956 322.687 538.826 322.629L540.364 322.528V323.053C540.364 323.87 539.67 324.486 538.731 324.486ZM543.128 317.988V319.468H542.205V320.231H543.128V323.701C543.128 324.793 543.6 325.228 544.778 325.228C544.958 325.228 545.133 325.207 545.314 325.175V324.406C545.144 324.422 545.054 324.427 544.889 324.427C544.295 324.427 544.041 324.141 544.041 323.467V320.231H545.314V319.468H544.041V317.988H543.128ZM546.858 317.988V319.468H545.935V320.231H546.858V323.701C546.858 324.793 547.33 325.228 548.507 325.228C548.688 325.228 548.863 325.207 549.043 325.175V324.406C548.873 324.422 548.783 324.427 548.619 324.427C548.025 324.427 547.77 324.141 547.77 323.467V320.231H549.043V319.468H547.77V317.988H546.858ZM556.841 323.706C556.602 324.21 556.104 324.48 555.366 324.48C554.396 324.48 553.764 323.764 553.717 322.634V322.592H557.828V322.242C557.828 320.465 556.889 319.367 555.345 319.367C553.775 319.367 552.767 320.534 552.767 322.332C552.767 324.141 553.759 325.287 555.345 325.287C556.597 325.287 557.488 324.682 557.753 323.706H556.841ZM555.334 320.173C556.242 320.173 556.846 320.841 556.867 321.855H553.717C553.786 320.841 554.422 320.173 555.334 320.173ZM559.424 317.988V319.468H558.501V320.231H559.424V323.701C559.424 324.793 559.897 325.228 561.074 325.228C561.254 325.228 561.43 325.207 561.61 325.175V324.406C561.44 324.422 561.35 324.427 561.186 324.427C560.591 324.427 560.337 324.141 560.337 323.467V320.231H561.61V319.468H560.337V317.988H559.424ZM570.288 319.468H569.312L567.748 324.178H567.663L566.098 319.468H565.122L567.238 325.186H568.172L570.288 319.468ZM572.67 325.287C573.434 325.287 574.06 324.952 574.431 324.342H574.516V325.186H575.386V321.271C575.386 320.083 574.606 319.367 573.211 319.367C571.991 319.367 571.09 319.971 570.968 320.889H571.891C572.018 320.438 572.495 320.178 573.18 320.178C574.034 320.178 574.474 320.566 574.474 321.271V321.791L572.824 321.892C571.493 321.971 570.74 322.56 570.74 323.584C570.74 324.629 571.562 325.287 572.67 325.287ZM572.84 324.486C572.177 324.486 571.684 324.146 571.684 323.563C571.684 322.99 572.066 322.687 572.936 322.629L574.474 322.528V323.053C574.474 323.87 573.779 324.486 572.84 324.486ZM576.856 325.186H577.768V321.642C577.768 320.836 578.399 320.253 579.269 320.253C579.45 320.253 579.779 320.284 579.853 320.306V319.393C579.736 319.377 579.545 319.367 579.397 319.367C578.638 319.367 577.98 319.759 577.811 320.316H577.726V319.468H576.856V325.186ZM580.537 321.032C580.537 321.86 581.025 322.321 582.097 322.581L583.078 322.82C583.688 322.969 583.985 323.234 583.985 323.626C583.985 324.151 583.434 324.517 582.664 324.517C581.932 324.517 581.476 324.21 581.322 323.727H580.383C580.484 324.677 581.359 325.287 582.633 325.287C583.932 325.287 584.924 324.581 584.924 323.557C584.924 322.735 584.404 322.268 583.327 322.008L582.447 321.796C581.773 321.632 581.455 321.388 581.455 320.995C581.455 320.486 581.985 320.141 582.664 320.141C583.354 320.141 583.8 320.444 583.922 320.9H584.823C584.701 319.961 583.869 319.367 582.67 319.367C581.455 319.367 580.537 320.083 580.537 321.032ZM589.926 323.706C589.688 324.21 589.189 324.48 588.452 324.48C587.481 324.48 586.85 323.764 586.802 322.634V322.592H590.913V322.242C590.913 320.465 589.974 319.367 588.431 319.367C586.86 319.367 585.853 320.534 585.853 322.332C585.853 324.141 586.845 325.287 588.431 325.287C589.682 325.287 590.574 324.682 590.839 323.706H589.926ZM588.42 320.173C589.327 320.173 589.932 320.841 589.953 321.855H586.802C586.871 320.841 587.508 320.173 588.42 320.173ZM592.181 325.186H593.093V317.197H592.181V325.186ZM600.281 319.367C599.502 319.367 598.817 319.765 598.451 320.422H598.366V319.468H597.497V327.095H598.409V324.326H598.494C598.807 324.931 599.464 325.287 600.281 325.287C601.735 325.287 602.684 324.114 602.684 322.327C602.684 320.528 601.74 319.367 600.281 319.367ZM600.064 324.464C599.035 324.464 598.382 323.637 598.382 322.327C598.382 321.011 599.035 320.189 600.069 320.189C601.114 320.189 601.74 320.99 601.74 322.327C601.74 323.663 601.114 324.464 600.064 324.464ZM606.032 318.672C606.711 318.672 607.262 318.141 607.262 317.457C607.262 316.773 606.711 316.242 606.032 316.242C605.353 316.242 604.801 316.773 604.801 317.457C604.801 318.141 605.353 318.672 606.032 318.672ZM606.032 318.11C605.66 318.11 605.384 317.828 605.384 317.457C605.384 317.086 605.66 316.805 606.032 316.805C606.403 316.805 606.679 317.086 606.679 317.457C606.679 317.828 606.403 318.11 606.032 318.11ZM605.491 325.287C606.254 325.287 606.88 324.952 607.252 324.342H607.337V325.186H608.206V321.271C608.206 320.083 607.427 319.367 606.032 319.367C604.812 319.367 603.91 319.971 603.788 320.889H604.711C604.838 320.438 605.316 320.178 606 320.178C606.854 320.178 607.294 320.566 607.294 321.271V321.791L605.644 321.892C604.313 321.971 603.56 322.56 603.56 323.584C603.56 324.629 604.382 325.287 605.491 325.287ZM605.66 324.486C604.997 324.486 604.504 324.146 604.504 323.563C604.504 322.99 604.886 322.687 605.756 322.629L607.294 322.528V323.053C607.294 323.87 606.599 324.486 605.66 324.486ZM612.907 317.988V319.468H611.984V320.231H612.907V323.701C612.907 324.793 613.379 325.228 614.556 325.228C614.737 325.228 614.912 325.207 615.092 325.175V324.406C614.922 324.422 614.832 324.427 614.668 324.427C614.074 324.427 613.819 324.141 613.819 323.467V320.231H615.092V319.468H613.819V317.988H612.907ZM619.956 323.706C619.718 324.21 619.219 324.48 618.482 324.48C617.511 324.48 616.88 323.764 616.832 322.634V322.592H620.943V322.242C620.943 320.465 620.004 319.367 618.461 319.367C616.891 319.367 615.883 320.534 615.883 322.332C615.883 324.141 616.875 325.287 618.461 325.287C619.712 325.287 620.604 324.682 620.869 323.706H619.956ZM618.45 320.173C619.357 320.173 619.962 320.841 619.983 321.855H616.832C616.901 320.841 617.538 320.173 618.45 320.173ZM622.211 325.186H623.123V317.197H622.211V325.186ZM628.465 323.706C628.227 324.21 627.728 324.48 626.991 324.48C626.02 324.48 625.389 323.764 625.341 322.634V322.592H629.452V322.242C629.452 320.465 628.513 319.367 626.969 319.367C625.399 319.367 624.391 320.534 624.391 322.332C624.391 324.141 625.383 325.287 626.969 325.287C628.221 325.287 629.112 324.682 629.378 323.706H628.465ZM626.959 320.173C627.866 320.173 628.471 320.841 628.492 321.855H625.341C625.41 320.841 626.046 320.173 626.959 320.173ZM631.049 325.186H631.961V320.231H633.271V319.468H631.961V318.858C631.961 318.232 632.237 317.913 632.895 317.913C633.059 317.913 633.213 317.919 633.324 317.94V317.197C633.133 317.16 632.932 317.144 632.709 317.144C631.622 317.144 631.049 317.691 631.049 318.831V319.468H630.099V320.231H631.049V325.186ZM636.491 325.287C638.12 325.287 639.128 324.162 639.128 322.327C639.128 320.486 638.12 319.367 636.491 319.367C634.863 319.367 633.855 320.486 633.855 322.327C633.855 324.162 634.863 325.287 636.491 325.287ZM636.491 324.464C635.409 324.464 634.799 323.679 634.799 322.327C634.799 320.969 635.409 320.189 636.491 320.189C637.573 320.189 638.183 320.969 638.183 322.327C638.183 323.679 637.573 324.464 636.491 324.464ZM640.343 325.186H641.255V321.802C641.255 320.799 641.844 320.189 642.756 320.189C643.669 320.189 644.103 320.677 644.103 321.706V325.186H645.016V321.483C645.016 320.125 644.3 319.367 643.016 319.367C642.141 319.367 641.584 319.738 641.297 320.369H641.213V319.468H640.343V325.186ZM650.257 323.706C650.018 324.21 649.52 324.48 648.782 324.48C647.812 324.48 647.18 323.764 647.133 322.634V322.592H651.244V322.242C651.244 320.465 650.305 319.367 648.761 319.367C647.191 319.367 646.183 320.534 646.183 322.332C646.183 324.141 647.175 325.287 648.761 325.287C650.013 325.287 650.904 324.682 651.169 323.706H650.257ZM648.75 320.173C649.657 320.173 650.262 320.841 650.283 321.855H647.133C647.202 320.841 647.838 320.173 648.75 320.173ZM652.458 325.186H653.371V321.802C653.371 320.799 653.96 320.189 654.872 320.189C655.784 320.189 656.219 320.677 656.219 321.706V325.186H657.132V321.483C657.132 320.125 656.416 319.367 655.132 319.367C654.257 319.367 653.7 319.738 653.413 320.369H653.328V319.468H652.458V325.186ZM663.551 325.287C664.341 325.287 665.02 324.91 665.381 324.273H665.465V325.186H666.335V317.197H665.423V320.369H665.343C665.02 319.743 664.346 319.367 663.551 319.367C662.097 319.367 661.148 320.534 661.148 322.327C661.148 324.125 662.086 325.287 663.551 325.287ZM663.763 320.189C664.797 320.189 665.444 321.016 665.444 322.327C665.444 323.647 664.802 324.464 663.763 324.464C662.718 324.464 662.092 323.663 662.092 322.327C662.092 320.995 662.723 320.189 663.763 320.189ZM668.367 318.364C668.717 318.364 669.004 318.078 669.004 317.728C669.004 317.378 668.717 317.091 668.367 317.091C668.017 317.091 667.731 317.378 667.731 317.728C667.731 318.078 668.017 318.364 668.367 318.364ZM667.911 325.186H668.823V319.468H667.911V325.186ZM670.346 325.186H671.258V321.802C671.258 320.799 671.847 320.189 672.76 320.189C673.672 320.189 674.107 320.677 674.107 321.706V325.186H675.019V321.483C675.019 320.125 674.303 319.367 673.019 319.367C672.144 319.367 671.587 319.738 671.301 320.369H671.216V319.468H670.346V325.186ZM677.226 325.239C677.608 325.239 677.916 324.926 677.916 324.549C677.916 324.167 677.608 323.86 677.226 323.86C676.849 323.86 676.537 324.167 676.537 324.549C676.537 324.926 676.849 325.239 677.226 325.239ZM507.624 331.959C508.208 331.959 508.68 331.502 508.68 330.914C508.68 330.325 508.208 329.869 507.624 329.869C507.041 329.869 506.569 330.325 506.569 330.914C506.569 331.502 507.041 331.959 507.624 331.959ZM507.624 331.471C507.301 331.471 507.067 331.232 507.067 330.914C507.067 330.59 507.301 330.357 507.624 330.357C507.948 330.357 508.181 330.59 508.181 330.914C508.181 331.232 507.948 331.471 507.624 331.471ZM509.916 340.186H510.918L508.096 332.531H507.152L504.33 340.186H505.333L506.102 337.995H509.147L509.916 340.186ZM507.582 333.767H507.667L508.865 337.183H506.383L507.582 333.767ZM514.711 334.367C513.931 334.367 513.247 334.765 512.881 335.422H512.796V334.468H511.926V342.095H512.839V339.326H512.924C513.237 339.931 513.894 340.287 514.711 340.287C516.165 340.287 517.114 339.114 517.114 337.327C517.114 335.528 516.17 334.367 514.711 334.367ZM514.494 339.464C513.465 339.464 512.812 338.637 512.812 337.327C512.812 336.011 513.465 335.189 514.499 335.189C515.544 335.189 516.17 335.99 516.17 337.327C516.17 338.663 515.544 339.464 514.494 339.464ZM518.329 340.186H519.241V336.802C519.241 335.799 519.83 335.189 520.743 335.189C521.655 335.189 522.09 335.677 522.09 336.706V340.186H523.002V336.483C523.002 335.125 522.286 334.367 521.002 334.367C520.127 334.367 519.57 334.738 519.284 335.369H519.199V334.468H518.329V340.186ZM528.243 338.706C528.005 339.21 527.506 339.48 526.769 339.48C525.798 339.48 525.167 338.764 525.119 337.634V337.592H529.23V337.242C529.23 335.465 528.291 334.367 526.747 334.367C525.177 334.367 524.169 335.534 524.169 337.332C524.169 339.141 525.161 340.287 526.747 340.287C527.999 340.287 528.89 339.682 529.156 338.706H528.243ZM526.737 335.173C527.644 335.173 528.249 335.841 528.27 336.855H525.119C525.188 335.841 525.824 335.173 526.737 335.173ZM536.566 340.186L539.388 332.531H538.386L536.137 338.95H536.052L533.803 332.531H532.8L535.622 340.186H536.566ZM540.874 333.364C541.224 333.364 541.51 333.078 541.51 332.728C541.51 332.378 541.224 332.091 540.874 332.091C540.524 332.091 540.237 332.378 540.237 332.728C540.237 333.078 540.524 333.364 540.874 333.364ZM540.418 340.186H541.33V334.468H540.418V340.186ZM545.638 334.367C544.858 334.367 544.173 334.765 543.807 335.422H543.723V334.468H542.853V342.095H543.765V339.326H543.85C544.163 339.931 544.821 340.287 545.638 340.287C547.091 340.287 548.04 339.114 548.04 337.327C548.04 335.528 547.096 334.367 545.638 334.367ZM545.42 339.464C544.391 339.464 543.739 338.637 543.739 337.327C543.739 336.011 544.391 335.189 545.425 335.189C546.47 335.189 547.096 335.99 547.096 337.327C547.096 338.663 546.47 339.464 545.42 339.464ZM552.04 334.367C551.26 334.367 550.576 334.765 550.21 335.422H550.125V334.468H549.255V342.095H550.168V339.326H550.253C550.566 339.931 551.223 340.287 552.04 340.287C553.494 340.287 554.443 339.114 554.443 337.327C554.443 335.528 553.499 334.367 552.04 334.367ZM551.823 339.464C550.794 339.464 550.141 338.637 550.141 337.327C550.141 336.011 550.794 335.189 551.828 335.189C552.873 335.189 553.499 335.99 553.499 337.327C553.499 338.663 552.873 339.464 551.823 339.464ZM555.525 336.032C555.525 336.86 556.013 337.321 557.085 337.581L558.066 337.82C558.676 337.969 558.973 338.234 558.973 338.626C558.973 339.151 558.422 339.517 557.653 339.517C556.921 339.517 556.464 339.21 556.311 338.727H555.372C555.472 339.677 556.348 340.287 557.621 340.287C558.92 340.287 559.912 339.581 559.912 338.557C559.912 337.735 559.392 337.268 558.316 337.008L557.435 336.796C556.761 336.632 556.443 336.388 556.443 335.995C556.443 335.486 556.974 335.141 557.653 335.141C558.342 335.141 558.788 335.444 558.91 335.9H559.811C559.689 334.961 558.857 334.367 557.658 334.367C556.443 334.367 555.525 335.083 555.525 336.032ZM566.326 340.287C567.954 340.287 568.962 339.162 568.962 337.327C568.962 335.486 567.954 334.367 566.326 334.367C564.697 334.367 563.689 335.486 563.689 337.327C563.689 339.162 564.697 340.287 566.326 340.287ZM566.326 339.464C565.244 339.464 564.634 338.679 564.634 337.327C564.634 335.969 565.244 335.189 566.326 335.189C567.408 335.189 568.018 335.969 568.018 337.327C568.018 338.679 567.408 339.464 566.326 339.464ZM572.532 342.382C574.092 342.382 575.078 341.565 575.078 340.287V334.468H574.208V335.375H574.124C573.795 334.759 573.089 334.367 572.288 334.367C570.819 334.367 569.891 335.528 569.891 337.242C569.891 338.955 570.808 340.101 572.288 340.101C573.073 340.101 573.72 339.746 574.081 339.114H574.166V340.239C574.166 341.082 573.556 341.586 572.532 341.586C571.71 341.586 571.201 341.284 571.1 340.817H570.135C570.273 341.761 571.153 342.382 572.532 342.382ZM572.49 339.295C571.429 339.295 570.835 338.488 570.835 337.242C570.835 335.995 571.429 335.189 572.49 335.189C573.545 335.189 574.187 335.995 574.187 337.242C574.187 338.488 573.551 339.295 572.49 339.295ZM579.81 340.186H580.723V335.231H582.033V334.468H580.723V333.858C580.723 333.232 580.999 332.913 581.656 332.913C581.821 332.913 581.975 332.919 582.086 332.94V332.197C581.895 332.16 581.693 332.144 581.471 332.144C580.383 332.144 579.81 332.691 579.81 333.831V334.468H578.861V335.231H579.81V340.186ZM585.253 340.287C586.881 340.287 587.889 339.157 587.889 337.327C587.889 336.552 587.709 335.905 587.385 335.417L587.873 334.855L587.375 334.367L586.908 334.897C586.478 334.552 585.916 334.367 585.253 334.367C583.624 334.367 582.617 335.486 582.617 337.327C582.617 338.096 582.797 338.743 583.126 339.236L582.633 339.799L583.131 340.287L583.598 339.751C584.028 340.101 584.59 340.287 585.253 340.287ZM583.513 337.327C583.513 335.942 584.139 335.152 585.253 335.152C585.704 335.152 586.075 335.284 586.362 335.528L583.731 338.536C583.587 338.207 583.513 337.804 583.513 337.327ZM585.253 339.502C584.802 339.502 584.431 339.369 584.15 339.12L586.775 336.112C586.919 336.441 586.993 336.849 586.993 337.327C586.993 338.701 586.367 339.502 585.253 339.502ZM589.157 340.186H590.07V332.197H589.157V340.186ZM593.979 342.382C595.539 342.382 596.525 341.565 596.525 340.287V334.468H595.655V335.375H595.571C595.242 334.759 594.536 334.367 593.735 334.367C592.266 334.367 591.338 335.528 591.338 337.242C591.338 338.955 592.255 340.101 593.735 340.101C594.52 340.101 595.167 339.746 595.528 339.114H595.613V340.239C595.613 341.082 595.003 341.586 593.979 341.586C593.157 341.586 592.648 341.284 592.547 340.817H591.582C591.72 341.761 592.6 342.382 593.979 342.382ZM593.937 339.295C592.876 339.295 592.282 338.488 592.282 337.242C592.282 335.995 592.876 335.189 593.937 335.189C594.992 335.189 595.634 335.995 595.634 337.242C595.634 338.488 594.998 339.295 593.937 339.295ZM601.353 333.364C601.703 333.364 601.989 333.078 601.989 332.728C601.989 332.378 601.703 332.091 601.353 332.091C601.003 332.091 600.716 332.378 600.716 332.728C600.716 333.078 601.003 333.364 601.353 333.364ZM600.897 340.186H601.809V334.468H600.897V340.186ZM603.332 340.186H604.244V336.802C604.244 335.799 604.833 335.189 605.745 335.189C606.658 335.189 607.093 335.677 607.093 336.706V340.186H608.005V336.483C608.005 335.125 607.289 334.367 606.005 334.367C605.13 334.367 604.573 334.738 604.286 335.369H604.202V334.468H603.332V340.186ZM609.326 336.032C609.326 336.86 609.814 337.321 610.885 337.581L611.867 337.82C612.477 337.969 612.774 338.234 612.774 338.626C612.774 339.151 612.222 339.517 611.453 339.517C610.721 339.517 610.265 339.21 610.111 338.727H609.172C609.273 339.677 610.148 340.287 611.421 340.287C612.721 340.287 613.713 339.581 613.713 338.557C613.713 337.735 613.193 337.268 612.116 337.008L611.236 336.796C610.562 336.632 610.244 336.388 610.244 335.995C610.244 335.486 610.774 335.141 611.453 335.141C612.143 335.141 612.588 335.444 612.71 335.9H613.612C613.49 334.961 612.657 334.367 611.458 334.367C610.244 334.367 609.326 335.083 609.326 336.032ZM615.257 332.988V334.468H614.334V335.231H615.257V338.701C615.257 339.793 615.729 340.228 616.906 340.228C617.087 340.228 617.262 340.207 617.442 340.175V339.406C617.272 339.422 617.182 339.427 617.018 339.427C616.424 339.427 616.169 339.141 616.169 338.467V335.231H617.442V334.468H616.169V332.988H615.257ZM618.604 340.186H619.516V336.642C619.516 335.836 620.147 335.253 621.017 335.253C621.198 335.253 621.527 335.284 621.601 335.306V334.393C621.484 334.377 621.293 334.367 621.145 334.367C620.386 334.367 619.728 334.759 619.559 335.316H619.474V334.468H618.604V340.186ZM627.15 334.468H626.237V337.852C626.237 338.854 625.686 339.454 624.678 339.454C623.765 339.454 623.383 338.976 623.383 337.947V334.468H622.471V338.17C622.471 339.523 623.139 340.287 624.423 340.287C625.298 340.287 625.908 339.926 626.195 339.289H626.28V340.186H627.15V334.468ZM629.701 336.966H629.616V332.197H628.704V340.186H629.616V338.016L630.163 337.507L632.306 340.186H633.467L630.842 336.918L633.303 334.468H632.184L629.701 336.966ZM633.987 336.032C633.987 336.86 634.475 337.321 635.547 337.581L636.528 337.82C637.138 337.969 637.435 338.234 637.435 338.626C637.435 339.151 636.884 339.517 636.115 339.517C635.383 339.517 634.926 339.21 634.773 338.727H633.834C633.934 339.677 634.81 340.287 636.083 340.287C637.382 340.287 638.374 339.581 638.374 338.557C638.374 337.735 637.854 337.268 636.778 337.008L635.897 336.796C635.223 336.632 634.905 336.388 634.905 335.995C634.905 335.486 635.436 335.141 636.115 335.141C636.804 335.141 637.25 335.444 637.372 335.9H638.273C638.151 334.961 637.319 334.367 636.12 334.367C634.905 334.367 633.987 335.083 633.987 336.032ZM640.077 333.364C640.427 333.364 640.714 333.078 640.714 332.728C640.714 332.378 640.427 332.091 640.077 332.091C639.727 332.091 639.441 332.378 639.441 332.728C639.441 333.078 639.727 333.364 640.077 333.364ZM640.523 334.468H639.61V340.483C639.61 341.114 639.398 341.369 638.751 341.369H638.613V342.148H638.772C639.971 342.148 640.523 341.645 640.523 340.467V334.468ZM644.395 340.287C646.024 340.287 647.032 339.162 647.032 337.327C647.032 335.486 646.024 334.367 644.395 334.367C642.767 334.367 641.759 335.486 641.759 337.327C641.759 339.162 642.767 340.287 644.395 340.287ZM644.395 339.464C643.313 339.464 642.703 338.679 642.703 337.327C642.703 335.969 643.313 335.189 644.395 335.189C645.477 335.189 646.087 335.969 646.087 337.327C646.087 338.679 645.477 339.464 644.395 339.464ZM648.247 340.186H649.159V336.802C649.159 335.799 649.748 335.189 650.66 335.189C651.572 335.189 652.007 335.677 652.007 336.706V340.186H652.92V336.483C652.92 335.125 652.204 334.367 650.92 334.367C650.045 334.367 649.488 334.738 649.201 335.369H649.116V334.468H648.247V340.186ZM658.161 338.706C657.922 339.21 657.423 339.48 656.686 339.48C655.715 339.48 655.084 338.764 655.036 337.634V337.592H659.147V337.242C659.147 335.465 658.209 334.367 656.665 334.367C655.095 334.367 654.087 335.534 654.087 337.332C654.087 339.141 655.079 340.287 656.665 340.287C657.917 340.287 658.808 339.682 659.073 338.706H658.161ZM656.654 335.173C657.561 335.173 658.166 335.841 658.187 336.855H655.036C655.105 335.841 655.742 335.173 656.654 335.173ZM660.362 340.186H661.275V336.802C661.275 335.799 661.863 335.189 662.776 335.189C663.688 335.189 664.123 335.677 664.123 336.706V340.186H665.036V336.483C665.036 335.125 664.319 334.367 663.036 334.367C662.161 334.367 661.604 334.738 661.317 335.369H661.232V334.468H660.362V340.186ZM670.277 338.706C670.038 339.21 669.539 339.48 668.802 339.48C667.831 339.48 667.2 338.764 667.152 337.634V337.592H671.263V337.242C671.263 335.465 670.324 334.367 668.781 334.367C667.211 334.367 666.203 335.534 666.203 337.332C666.203 339.141 667.195 340.287 668.781 340.287C670.033 340.287 670.924 339.682 671.189 338.706H670.277ZM668.77 335.173C669.677 335.173 670.282 335.841 670.303 336.855H667.152C667.221 335.841 667.858 335.173 668.77 335.173ZM673.231 340.239C673.613 340.239 673.921 339.926 673.921 339.549C673.921 339.167 673.613 338.86 673.231 338.86C672.855 338.86 672.542 339.167 672.542 339.549C672.542 339.926 672.855 340.239 673.231 340.239Z" fill="#161225"/>
<path d="M535.136 293.18C535.225 294.336 536.204 295.088 537.624 295.088C539.156 295.088 540.126 294.303 540.126 293.073C540.126 292.09 539.569 291.551 538.181 291.203L537.48 291.017C536.557 290.781 536.19 290.479 536.19 289.954C536.19 289.277 536.78 288.831 537.671 288.831C538.506 288.831 539.072 289.24 539.188 289.927H540.029C539.959 288.845 538.994 288.075 537.699 288.075C536.283 288.075 535.331 288.845 535.331 289.982C535.331 290.934 535.856 291.481 537.067 291.788L537.926 292.011C538.85 292.243 539.267 292.605 539.267 293.176C539.267 293.839 538.604 294.327 537.703 294.327C536.752 294.327 536.083 293.881 535.981 293.18H535.136ZM542.809 295.018C543.477 295.018 544.025 294.726 544.35 294.192H544.424V294.93H545.185V291.505C545.185 290.465 544.503 289.838 543.282 289.838C542.215 289.838 541.426 290.368 541.319 291.171H542.126C542.238 290.776 542.656 290.549 543.254 290.549C544.002 290.549 544.387 290.887 544.387 291.505V291.96L542.943 292.048C541.778 292.117 541.119 292.633 541.119 293.528C541.119 294.443 541.839 295.018 542.809 295.018ZM542.957 294.317C542.377 294.317 541.945 294.02 541.945 293.51C541.945 293.009 542.28 292.744 543.041 292.693L544.387 292.605V293.064C544.387 293.779 543.779 294.317 542.957 294.317ZM546.995 294.93H547.794V290.595H548.94V289.927H547.794V289.393C547.794 288.845 548.035 288.567 548.611 288.567C548.754 288.567 548.889 288.571 548.986 288.59V287.94C548.819 287.908 548.643 287.894 548.448 287.894C547.497 287.894 546.995 288.372 546.995 289.37V289.927H546.164V290.595H546.995V294.93ZM551.358 295.018C552.027 295.018 552.574 294.726 552.899 294.192H552.973V294.93H553.735V291.505C553.735 290.465 553.052 289.838 551.832 289.838C550.764 289.838 549.975 290.368 549.868 291.171H550.676C550.787 290.776 551.205 290.549 551.804 290.549C552.551 290.549 552.936 290.887 552.936 291.505V291.96L551.493 292.048C550.328 292.117 549.669 292.633 549.669 293.528C549.669 294.443 550.388 295.018 551.358 295.018ZM551.507 294.317C550.927 294.317 550.495 294.02 550.495 293.51C550.495 293.009 550.829 292.744 551.59 292.693L552.936 292.605V293.064C552.936 293.779 552.328 294.317 551.507 294.317ZM555.211 294.93H556.009V291.83C556.009 291.124 556.561 290.614 557.322 290.614C557.48 290.614 557.768 290.641 557.833 290.66V289.862C557.731 289.848 557.564 289.838 557.434 289.838C556.77 289.838 556.195 290.182 556.046 290.669H555.972V289.927H555.211V294.93ZM559.249 288.961C559.555 288.961 559.806 288.711 559.806 288.404C559.806 288.098 559.555 287.847 559.249 287.847C558.942 287.847 558.692 288.098 558.692 288.404C558.692 288.711 558.942 288.961 559.249 288.961ZM558.849 294.93H559.648V289.927H558.849V294.93ZM566.29 289.838C565.607 289.838 565.009 290.187 564.688 290.762H564.614V289.927H563.853V296.601H564.651V294.178H564.725C564.999 294.707 565.575 295.018 566.29 295.018C567.561 295.018 568.392 293.992 568.392 292.428C568.392 290.855 567.566 289.838 566.29 289.838ZM566.099 294.299C565.199 294.299 564.628 293.575 564.628 292.428C564.628 291.277 565.199 290.558 566.104 290.558C567.018 290.558 567.566 291.259 567.566 292.428C567.566 293.598 567.018 294.299 566.099 294.299ZM571.511 289.23C572.105 289.23 572.588 288.766 572.588 288.168C572.588 287.569 572.105 287.105 571.511 287.105C570.917 287.105 570.434 287.569 570.434 288.168C570.434 288.766 570.917 289.23 571.511 289.23ZM571.511 288.738C571.186 288.738 570.945 288.492 570.945 288.168C570.945 287.843 571.186 287.597 571.511 287.597C571.836 287.597 572.077 287.843 572.077 288.168C572.077 288.492 571.836 288.738 571.511 288.738ZM571.038 295.018C571.706 295.018 572.254 294.726 572.579 294.192H572.653V294.93H573.414V291.505C573.414 290.465 572.732 289.838 571.511 289.838C570.444 289.838 569.655 290.368 569.548 291.171H570.356C570.467 290.776 570.885 290.549 571.483 290.549C572.231 290.549 572.616 290.887 572.616 291.505V291.96L571.172 292.048C570.007 292.117 569.348 292.633 569.348 293.528C569.348 294.443 570.068 295.018 571.038 295.018ZM571.186 294.317C570.606 294.317 570.174 294.02 570.174 293.51C570.174 293.009 570.509 292.744 571.27 292.693L572.616 292.605V293.064C572.616 293.779 572.008 294.317 571.186 294.317ZM584.275 294.93V288.232H583.305L581.012 293.821H580.938L578.645 288.232H577.675V294.93H578.455V289.815H578.51L580.622 294.93H581.328L583.44 289.815H583.495V294.93H584.275ZM587.273 295.018C587.942 295.018 588.49 294.726 588.814 294.192H588.889V294.93H589.65V291.505C589.65 290.465 588.968 289.838 587.747 289.838C586.679 289.838 585.89 290.368 585.784 291.171H586.591C586.703 290.776 587.12 290.549 587.719 290.549C588.466 290.549 588.852 290.887 588.852 291.505V291.96L587.408 292.048C586.243 292.117 585.584 292.633 585.584 293.528C585.584 294.443 586.303 295.018 587.273 295.018ZM587.422 294.317C586.842 294.317 586.41 294.02 586.41 293.51C586.41 293.009 586.744 292.744 587.506 292.693L588.852 292.605V293.064C588.852 293.779 588.244 294.317 587.422 294.317ZM595.266 291.458C595.127 290.567 594.384 289.838 593.168 289.838C591.766 289.838 590.875 290.85 590.875 292.41C590.875 294.002 591.771 295.018 593.173 295.018C594.375 295.018 595.122 294.341 595.266 293.422H594.458C594.31 293.988 593.841 294.299 593.168 294.299C592.277 294.299 591.701 293.565 591.701 292.41C591.701 291.277 592.268 290.558 593.168 290.558C593.887 290.558 594.328 290.962 594.458 291.458H595.266ZM602.042 288.075C600.149 288.075 598.97 289.425 598.97 291.579C598.97 293.723 600.121 295.088 602.042 295.088C603.955 295.088 605.115 293.719 605.115 291.579C605.115 289.43 603.945 288.075 602.042 288.075ZM602.042 288.845C603.412 288.845 604.256 289.903 604.256 291.579C604.256 293.241 603.416 294.317 602.042 294.317C600.65 294.317 599.828 293.241 599.828 291.579C599.828 289.903 600.678 288.845 602.042 288.845ZM606.243 293.18C606.331 294.336 607.31 295.088 608.731 295.088C610.262 295.088 611.232 294.303 611.232 293.073C611.232 292.09 610.675 291.551 609.288 291.203L608.587 291.017C607.663 290.781 607.296 290.479 607.296 289.954C607.296 289.277 607.886 288.831 608.777 288.831C609.613 288.831 610.179 289.24 610.295 289.927H611.135C611.065 288.845 610.1 288.075 608.805 288.075C607.389 288.075 606.438 288.845 606.438 289.982C606.438 290.934 606.962 291.481 608.174 291.788L609.032 292.011C609.956 292.243 610.374 292.605 610.374 293.176C610.374 293.839 609.71 294.327 608.81 294.327C607.858 294.327 607.19 293.881 607.088 293.18H606.243ZM614.871 294.93H615.818L617.605 292.289H617.679L619.434 294.93H620.436L618.167 291.598L620.487 288.232H619.536L617.744 290.897H617.67L615.906 288.232H614.899L617.164 291.56L614.871 294.93ZM621.481 296.355L623.894 287.94H623.217L620.803 296.355H621.481ZM625.101 288.961C625.407 288.961 625.658 288.711 625.658 288.404C625.658 288.098 625.407 287.847 625.101 287.847C624.795 287.847 624.544 288.098 624.544 288.404C624.544 288.711 624.795 288.961 625.101 288.961ZM624.702 294.93H625.5V289.927H624.702V294.93ZM627.125 288.232V294.93H627.96V292.54H629.645C630.903 292.54 631.798 291.653 631.798 290.4C631.798 289.124 630.921 288.232 629.654 288.232H627.125ZM627.96 288.975H629.436C630.406 288.975 630.94 289.481 630.94 290.4C630.94 291.287 630.388 291.797 629.436 291.797H627.96V288.975ZM634.272 295.018C634.941 295.018 635.488 294.726 635.813 294.192H635.888V294.93H636.649V291.505C636.649 290.465 635.966 289.838 634.746 289.838C633.678 289.838 632.889 290.368 632.782 291.171H633.59C633.701 290.776 634.119 290.549 634.718 290.549C635.465 290.549 635.85 290.887 635.85 291.505V291.96L634.407 292.048C633.242 292.117 632.583 292.633 632.583 293.528C632.583 294.443 633.302 295.018 634.272 295.018ZM634.421 294.317C633.841 294.317 633.409 294.02 633.409 293.51C633.409 293.009 633.743 292.744 634.504 292.693L635.85 292.605V293.064C635.85 293.779 635.242 294.317 634.421 294.317ZM639.977 295.018C640.668 295.018 641.262 294.689 641.578 294.132H641.652V294.93H642.413V287.94H641.615V290.716H641.545C641.262 290.168 640.673 289.838 639.977 289.838C638.705 289.838 637.874 290.86 637.874 292.428C637.874 294.002 638.696 295.018 639.977 295.018ZM640.162 290.558C641.067 290.558 641.634 291.282 641.634 292.428C641.634 293.584 641.072 294.299 640.162 294.299C639.248 294.299 638.7 293.598 638.7 292.428C638.7 291.263 639.253 290.558 640.162 290.558Z" fill="#706B8B"/>
<g filter="url(#filter3_dd)">
<circle cx="588.725" cy="223.823" r="47.528" fill="#FF5B24"/>
<path fill-rule="evenodd" clip-rule="evenodd" d="M597.696 213.427C597.206 213.591 597.206 214.084 597.696 214.249L601.779 214.742C604.229 215.071 605.209 216.88 604.883 218.689C604.393 220.662 602.759 221.649 600.146 220.991L591 218.689C588.224 218.031 587.407 216.551 587.407 214.907C587.407 213.591 588.06 212.44 590.183 211.289L598.023 207.013C600.963 205.369 603.249 205.862 604.229 207.507C605.209 209.48 604.229 211.453 602.106 212.111L597.696 213.427ZM569.278 224.444C570.912 223.293 573.362 223.786 574.831 226.088C578.588 231.679 583.488 235.461 589.694 235.461C595.737 235.461 599.167 232.501 602.433 228.226C604.23 225.924 606.516 225.431 608.149 226.746C609.783 228.062 609.946 230.528 608.149 232.83C603.413 239.079 597.86 242.861 589.694 242.861C581.364 242.861 574.015 238.257 568.952 230.199C567.319 227.897 567.809 225.595 569.278 224.444V224.444Z" fill="white"/>
</g>
<path d="M563.4 148.951C565.033 148.951 566.015 148.134 566.015 146.787C566.015 145.784 565.325 145.052 564.291 144.941V144.851C565.044 144.724 565.633 144.007 565.633 143.206C565.633 142.029 564.768 141.297 563.331 141.297H560.254V148.951H563.4ZM561.442 142.268H563.055C563.935 142.268 564.45 142.687 564.45 143.413C564.45 144.161 563.904 144.554 562.853 144.554H561.442V142.268ZM561.442 147.98V145.461H563.092C564.211 145.461 564.8 145.885 564.8 146.713C564.8 147.54 564.232 147.98 563.161 147.98H561.442ZM572.062 143.191H570.922V146.569C570.922 147.498 570.418 148.06 569.495 148.06C568.657 148.06 568.28 147.604 568.28 146.649V143.191H567.139V146.93C567.139 148.283 567.85 149.063 569.129 149.063C570.004 149.063 570.593 148.691 570.874 148.039H570.964V148.951H572.062V143.191ZM573.903 141.737V143.206H572.985V144.119H573.903V147.434C573.903 148.543 574.407 148.988 575.675 148.988C575.897 148.988 576.11 148.962 576.295 148.93V148.023C576.136 148.039 576.035 148.049 575.86 148.049C575.293 148.049 575.043 147.779 575.043 147.158V144.119H576.295V143.206H575.043V141.737H573.903ZM578.009 142.161C578.407 142.161 578.73 141.838 578.73 141.445C578.73 141.048 578.407 140.724 578.009 140.724C577.611 140.724 577.287 141.048 577.287 141.445C577.287 141.838 577.611 142.161 578.009 142.161ZM577.441 148.951H578.576V143.191H577.441V148.951ZM581.319 145.62H581.229V140.931H580.088V148.951H581.229V146.856L581.733 146.373L583.717 148.951H585.117L582.581 145.657L584.958 143.191H583.61L581.319 145.62ZM587.234 145.62H587.143V140.931H586.003V148.951H587.143V146.856L587.647 146.373L589.631 148.951H591.032L588.496 145.657L590.873 143.191H589.525L587.234 145.62ZM595.355 147.408C595.143 147.874 594.671 148.129 593.981 148.129C593.069 148.129 592.48 147.471 592.443 146.426V146.373H596.522V145.981C596.522 144.177 595.551 143.079 593.944 143.079C592.316 143.079 591.281 144.251 591.281 146.081C591.281 147.922 592.294 149.063 593.949 149.063C595.27 149.063 596.204 148.426 596.453 147.408H595.355ZM593.939 144.007C594.782 144.007 595.334 144.617 595.36 145.551H592.443C592.507 144.623 593.095 144.007 593.939 144.007ZM597.673 148.951H598.814V145.572C598.814 144.644 599.349 144.071 600.193 144.071C601.036 144.071 601.439 144.538 601.439 145.493V148.951H602.58V145.222C602.58 143.848 601.869 143.079 600.58 143.079C599.71 143.079 599.137 143.466 598.856 144.103H598.771V143.191H597.673V148.951ZM611.81 148.951H613.073L610.309 141.297H609.031L606.267 148.951H607.487L608.192 146.882H611.11L611.81 148.951ZM609.609 142.649H609.699L610.808 145.928H608.495L609.609 142.649ZM613.831 146.909C613.916 148.267 615.057 149.137 616.754 149.137C618.568 149.137 619.703 148.224 619.703 146.776C619.703 145.631 619.056 144.999 617.486 144.623L616.643 144.416C615.645 144.172 615.242 143.854 615.242 143.297C615.242 142.581 615.868 142.119 616.807 142.119C617.698 142.119 618.314 142.565 618.425 143.291H619.581C619.512 142.013 618.377 141.111 616.823 141.111C615.152 141.111 614.038 142.013 614.038 143.36C614.038 144.474 614.669 145.132 616.054 145.466L617.041 145.705C618.054 145.949 618.499 146.32 618.499 146.92C618.499 147.62 617.799 148.124 616.844 148.124C615.82 148.124 615.11 147.652 615.009 146.909H613.831Z" fill="#706B8B"/>
<path d="M540.953 130.508C543.404 130.508 544.891 129.267 544.891 127.246C544.891 125.726 543.801 124.604 542.242 124.453V124.389C543.419 124.199 544.334 123.124 544.334 121.891C544.334 120.149 542.99 119.027 540.905 119.027H536.139V130.508H540.953ZM538.192 120.626H540.388C541.613 120.626 542.306 121.191 542.306 122.193C542.306 123.26 541.502 123.864 540.07 123.864H538.192V120.626ZM538.192 128.909V125.32H540.396C541.971 125.32 542.799 125.933 542.799 127.103C542.799 128.28 541.995 128.909 540.483 128.909H538.192ZM552.014 127.986C551.799 128.686 551.099 129.148 550.176 129.148C548.879 129.148 548.051 128.241 548.051 126.888V126.769H553.947V126.124C553.947 123.562 552.451 121.899 550.056 121.899C547.622 121.899 546.078 123.657 546.078 126.323C546.078 129.012 547.606 130.675 550.136 130.675C552.133 130.675 553.613 129.577 553.868 127.986H552.014ZM550.064 123.435C551.202 123.435 551.966 124.27 552.006 125.464H548.067C548.147 124.286 548.95 123.435 550.064 123.435ZM557.561 125.591H557.537V119.027H555.556V130.508H557.537V127.58L558.205 126.904L560.871 130.508H563.162L559.645 125.702L563.019 122.074H560.735L557.561 125.591ZM564.221 130.508H566.203V125.599C566.203 124.413 566.879 123.689 568.001 123.689C568.335 123.689 568.637 123.737 568.805 123.801V122.01C568.661 121.979 568.439 121.931 568.184 121.931C567.189 121.931 566.449 122.52 566.163 123.546H566.123V122.074H564.221V130.508ZM575.362 127.986C575.147 128.686 574.447 129.148 573.524 129.148C572.227 129.148 571.399 128.241 571.399 126.888V126.769H577.295V126.124C577.295 123.562 575.8 121.899 573.405 121.899C570.97 121.899 569.426 123.657 569.426 126.323C569.426 129.012 570.954 130.675 573.484 130.675C575.481 130.675 576.961 129.577 577.216 127.986H575.362ZM573.413 123.435C574.55 123.435 575.314 124.27 575.354 125.464H571.415C571.495 124.286 572.299 123.435 573.413 123.435ZM579.397 130.508H581.378V123.602H583.033V122.098H581.346V121.406C581.346 120.721 581.689 120.363 582.444 120.363C582.675 120.363 582.906 120.387 583.073 120.411V119.027C582.826 118.979 582.397 118.939 582.007 118.939C580.177 118.939 579.397 119.711 579.397 121.35V122.098H578.243V123.602H579.397V130.508ZM585.159 120.101V122.074H583.949V123.602H585.159V128.264C585.159 129.903 585.875 130.548 587.697 130.548C588.119 130.548 588.508 130.516 588.723 130.468V128.957C588.596 128.98 588.341 128.996 588.158 128.996C587.458 128.996 587.14 128.678 587.14 127.986V123.602H588.731V122.074H587.14V120.101H585.159ZM594.924 120.801C595.528 120.801 596.006 120.316 596.006 119.727C596.006 119.13 595.528 118.653 594.924 118.653C594.319 118.653 593.834 119.13 593.834 119.727C593.834 120.316 594.319 120.801 594.924 120.801ZM593.937 130.508H595.918V122.074H593.937V130.508ZM607.139 130.508L611.134 119.027H608.922L606.01 128.304H605.962L603.05 119.027H600.79L604.784 130.508H607.139ZM613.307 120.801C613.912 120.801 614.389 120.316 614.389 119.727C614.389 119.13 613.912 118.653 613.307 118.653C612.702 118.653 612.217 119.13 612.217 119.727C612.217 120.316 612.702 120.801 613.307 120.801ZM612.32 130.508H614.301V122.074H612.32V130.508ZM620.867 121.931C619.641 121.931 618.687 122.551 618.209 123.53H618.17V122.074H616.236V133.285H618.217V129.108H618.257C618.719 130.055 619.673 130.643 620.899 130.643C623.015 130.643 624.368 128.98 624.368 126.291C624.368 123.594 623.007 121.931 620.867 121.931ZM620.262 129.02C619.029 129.02 618.209 127.946 618.201 126.291C618.209 124.652 619.029 123.562 620.262 123.562C621.543 123.562 622.339 124.628 622.339 126.291C622.339 127.962 621.543 129.02 620.262 129.02ZM630.543 121.931C629.318 121.931 628.363 122.551 627.886 123.53H627.846V122.074H625.912V133.285H627.894V129.108H627.933C628.395 130.055 629.35 130.643 630.575 130.643C632.692 130.643 634.044 128.98 634.044 126.291C634.044 123.594 632.684 121.931 630.543 121.931ZM629.939 129.02C628.705 129.02 627.886 127.946 627.878 126.291C627.886 124.652 628.705 123.562 629.939 123.562C631.22 123.562 632.015 124.628 632.015 126.291C632.015 127.962 631.22 129.02 629.939 129.02ZM635.438 124.493C635.438 125.742 636.249 126.538 637.864 126.896L639.265 127.206C640.148 127.405 640.45 127.692 640.45 128.201C640.45 128.829 639.854 129.227 638.891 129.227C637.888 129.227 637.323 128.813 637.172 127.994H635.223C635.382 129.625 636.687 130.675 638.891 130.675C640.96 130.675 642.424 129.601 642.424 128.01C642.424 126.784 641.747 126.108 639.997 125.718L638.596 125.408C637.713 125.209 637.363 124.875 637.363 124.389C637.363 123.769 637.944 123.355 638.819 123.355C639.734 123.355 640.299 123.84 640.379 124.604H642.225C642.177 123.005 640.872 121.899 638.819 121.899C636.782 121.899 635.438 122.949 635.438 124.493Z" fill="#161225"/>
<path fill-rule="evenodd" clip-rule="evenodd" d="M610.684 89.9555C610.195 88.0899 609.007 87.3494 607.387 87.3494C606.074 87.3494 604.426 88.0899 604.426 89.8732C604.426 91.0253 605.222 91.9308 606.521 92.1641L607.75 92.3834C608.588 92.5342 608.826 92.8498 608.826 93.275C608.826 93.7551 608.309 94.0294 607.541 94.0294C606.535 94.0294 605.907 93.6728 605.809 92.6713L604.035 92.9458C604.314 94.8797 606.046 95.6756 607.611 95.6756C609.091 95.6756 610.67 94.8249 610.67 93.1104C610.67 91.9443 609.957 91.0941 608.63 90.8469L607.276 90.6002C606.521 90.4631 606.27 90.0927 606.27 89.7361C606.27 89.2833 606.759 88.9955 607.429 88.9955C608.281 88.9955 608.882 89.2833 608.91 90.2298L610.684 89.9555ZM571.252 92.8906L573.096 87.555H575.261L572.048 95.4695H570.442L567.229 87.5551H569.394L571.252 92.8906ZM582.58 89.8184C582.58 90.4493 582.077 90.8882 581.49 90.8882C580.904 90.8882 580.401 90.4493 580.401 89.8184C580.401 89.1874 580.904 88.7486 581.49 88.7486C582.077 88.7486 582.58 89.1874 582.58 89.8184H582.58ZM582.915 92.6167C582.189 93.5491 581.421 94.1938 580.066 94.1939C578.683 94.1939 577.608 93.3709 576.77 92.1639C576.434 91.67 575.918 91.5604 575.54 91.821C575.191 92.0679 575.108 92.5892 575.429 93.0419C576.588 94.7839 578.194 95.7987 580.066 95.7987C581.784 95.7987 583.125 94.9759 584.172 93.6042C584.563 93.0967 584.549 92.5755 584.172 92.2874C583.823 92.0128 583.306 92.1093 582.915 92.6167ZM587.735 91.4917C587.735 93.1104 588.684 93.9609 589.746 93.9609C590.752 93.9609 591.785 93.1652 591.785 91.4917C591.785 89.8456 590.752 89.0502 589.76 89.0502C588.684 89.0502 587.735 89.8046 587.735 91.4917ZM587.735 88.6526V87.5687H585.765V98.2129H587.735V94.427C588.391 95.305 589.243 95.6756 590.207 95.6756C592.009 95.6756 593.768 94.2764 593.768 91.3959C593.768 88.6386 591.939 87.3495 590.374 87.3495C589.131 87.3495 588.279 87.9118 587.735 88.6526ZM597.191 91.4917C597.191 93.1104 598.14 93.9609 599.202 93.9609C600.207 93.9609 601.241 93.1652 601.241 91.4917C601.241 89.8456 600.207 89.0502 599.216 89.0502C598.14 89.0502 597.19 89.8046 597.19 91.4917H597.191ZM597.191 88.6526V87.5687H597.19H595.221V98.2129H597.19V94.427C597.847 95.305 598.699 95.6756 599.663 95.6756C601.464 95.6756 603.224 94.2764 603.224 91.3959C603.224 88.6386 601.395 87.3495 599.83 87.3495C598.587 87.3495 597.735 87.9118 597.191 88.6526Z" fill="#FF5B24"/>
<defs>
<filter id="filter0_dd" x="80.1471" y="55.8603" width="326.706" height="362.324" filterUnits="userSpaceOnUse" color-interpolation-filters="sRGB">
<feFlood flood-opacity="0" result="BackgroundImageFix"/>
<feColorMatrix in="SourceAlpha" type="matrix" values="0 0 0 0 0 0 0 0 0 0 0 0 0 0 0 0 0 0 127 0"/>
<feOffset dy="0.713235"/>
<feGaussianBlur stdDeviation="1.42647"/>
<feColorMatrix type="matrix" values="0 0 0 0 0.0862745 0 0 0 0 0.0705882 0 0 0 0 0.145098 0 0 0 0.17 0"/>
<feBlend mode="normal" in2="BackgroundImageFix" result="effect1_dropShadow"/>
<feColorMatrix in="SourceAlpha" type="matrix" values="0 0 0 0 0 0 0 0 0 0 0 0 0 0 0 0 0 0 127 0"/>
<feOffset dy="0.713235"/>
<feGaussianBlur stdDeviation="0.356618"/>
<feColorMatrix type="matrix" values="0 0 0 0 0.0862745 0 0 0 0 0.0705882 0 0 0 0 0.145098 0 0 0 0.0498188 0"/>
<feBlend mode="normal" in2="effect1_dropShadow" result="effect2_dropShadow"/>
<feBlend mode="normal" in="SourceGraphic" in2="effect2_dropShadow" result="shape"/>
</filter>
<filter id="filter1_d" x="209.599" y="345.412" width="66.0882" height="37.1103" filterUnits="userSpaceOnUse" color-interpolation-filters="sRGB">
<feFlood flood-opacity="0" result="BackgroundImageFix"/>
<feColorMatrix in="SourceAlpha" type="matrix" values="0 0 0 0 0 0 0 0 0 0 0 0 0 0 0 0 0 0 127 0"/>
<feOffset dy="0.713235"/>
<feGaussianBlur stdDeviation="0.713235"/>
<feColorMatrix type="matrix" values="0 0 0 0 0.0862745 0 0 0 0 0.0705882 0 0 0 0 0.145098 0 0 0 0.07 0"/>
<feBlend mode="normal" in2="BackgroundImageFix" result="effect1_dropShadow"/>
<feBlend mode="normal" in="SourceGraphic" in2="effect1_dropShadow" result="shape"/>
</filter>
<filter id="filter2_dd" x="433.24" y="58.1535" width="311.432" height="359.557" filterUnits="userSpaceOnUse" color-interpolation-filters="sRGB">
<feFlood flood-opacity="0" result="BackgroundImageFix"/>
<feColorMatrix in="SourceAlpha" type="matrix" values="0 0 0 0 0 0 0 0 0 0 0 0 0 0 0 0 0 0 127 0"/>
<feOffset dy="0.678972"/>
<feGaussianBlur stdDeviation="1.35794"/>
<feColorMatrix type="matrix" values="0 0 0 0 0.0862745 0 0 0 0 0.0705882 0 0 0 0 0.145098 0 0 0 0.17 0"/>
<feBlend mode="normal" in2="BackgroundImageFix" result="effect1_dropShadow"/>
<feColorMatrix in="SourceAlpha" type="matrix" values="0 0 0 0 0 0 0 0 0 0 0 0 0 0 0 0 0 0 127 0"/>
<feOffset dy="0.678972"/>
<feGaussianBlur stdDeviation="0.339486"/>
<feColorMatrix type="matrix" values="0 0 0 0 0.0862745 0 0 0 0 0.0705882 0 0 0 0 0.145098 0 0 0 0.0498188 0"/>
<feBlend mode="normal" in2="effect1_dropShadow" result="effect2_dropShadow"/>
<feBlend mode="normal" in="SourceGraphic" in2="effect2_dropShadow" result="shape"/>
</filter>
<filter id="filter3_dd" x="538.481" y="174.258" width="100.488" height="100.488" filterUnits="userSpaceOnUse" color-interpolation-filters="sRGB">
<feFlood flood-opacity="0" result="BackgroundImageFix"/>
<feColorMatrix in="SourceAlpha" type="matrix" values="0 0 0 0 0 0 0 0 0 0 0 0 0 0 0 0 0 0 127 0"/>
<feOffset dy="0.678972"/>
<feGaussianBlur stdDeviation="1.35794"/>
<feColorMatrix type="matrix" values="0 0 0 0 0.0862745 0 0 0 0 0.0705882 0 0 0 0 0.145098 0 0 0 0.17 0"/>
<feBlend mode="normal" in2="BackgroundImageFix" result="effect1_dropShadow"/>
<feColorMatrix in="SourceAlpha" type="matrix" values="0 0 0 0 0 0 0 0 0 0 0 0 0 0 0 0 0 0 127 0"/>
<feOffset dy="0.678972"/>
<feGaussianBlur stdDeviation="0.339486"/>
<feColorMatrix type="matrix" values="0 0 0 0 0.0862745 0 0 0 0 0.0705882 0 0 0 0 0.145098 0 0 0 0.0498188 0"/>
<feBlend mode="normal" in2="effect1_dropShadow" result="effect2_dropShadow"/>
<feBlend mode="normal" in="SourceGraphic" in2="effect2_dropShadow" result="shape"/>
</filter>
<clipPath id="clip0">
<path d="M531.243 359.998H647.347V381.725H531.243V359.998Z" fill="white"/>
</clipPath>
</defs>
</svg>
