<svg width="487" height="616" viewBox="0 0 487 616" fill="none" xmlns="http://www.w3.org/2000/svg">
<rect width="486.381" height="616" rx="1" fill="#FFF4EC"/>
<g filter="url(#filter0_di)">
<rect x="115" y="48" width="256.381" height="520" rx="30.1624" fill="white"/>
</g>
<g clip-path="url(#clip0)">
<rect x="130.081" y="63.0812" width="226.218" height="489.838" fill="#938FA8"/>
<g clip-path="url(#clip1)">
<path d="M130.081 63.0812H356.299V552.919H130.081V63.0812Z" fill="white"/>
<g filter="url(#filter1_dd)">
<rect x="130.081" y="119.787" width="226.218" height="44.6404" fill="white"/>
</g>
<path fill-rule="evenodd" clip-rule="evenodd" d="M172.507 133.058C171.731 133.058 171.102 133.687 171.102 134.464V147.132C171.102 147.908 171.731 148.537 172.507 148.537H177.08L178.341 149.792C178.472 149.925 178.651 150 178.838 150C179.025 150 179.204 149.925 179.336 149.792L180.597 148.531H185.169C185.946 148.531 186.575 147.902 186.575 147.126V134.458C186.572 133.684 185.943 133.058 185.169 133.058H172.507ZM175.723 137.281H181.961C182.276 137.28 182.539 137.522 182.564 137.836L183.065 143.868C183.078 144.036 183.021 144.203 182.906 144.326C182.791 144.45 182.63 144.52 182.461 144.52H175.222C175.054 144.52 174.892 144.45 174.778 144.326C174.663 144.203 174.606 144.036 174.619 143.868L175.12 137.836C175.145 137.522 175.408 137.28 175.723 137.281ZM176.429 139.09C176.429 138.757 176.699 138.487 177.032 138.487C177.365 138.487 177.635 138.757 177.635 139.09V139.694C177.635 140.36 178.175 140.9 178.842 140.9C179.508 140.9 180.048 140.36 180.048 139.694V139.09C180.048 138.757 180.318 138.487 180.651 138.487C180.985 138.487 181.255 138.757 181.255 139.09V139.694C181.255 141.026 180.174 142.107 178.842 142.107C177.509 142.107 176.429 141.026 176.429 139.694V139.09Z" fill="#6770E0"/>
<path d="M193.691 145.868V137.29H196.631C197.601 137.29 198.339 137.485 198.846 137.874C199.353 138.262 199.606 138.842 199.606 139.611C199.606 140.004 199.5 140.358 199.288 140.672C199.076 140.986 198.765 141.229 198.357 141.402C198.82 141.528 199.178 141.766 199.429 142.115C199.684 142.461 199.812 142.877 199.812 143.364C199.812 144.169 199.553 144.788 199.034 145.22C198.52 145.652 197.782 145.868 196.819 145.868H193.691ZM195.182 141.997V144.678H196.837C197.304 144.678 197.67 144.562 197.933 144.33C198.196 144.098 198.328 143.776 198.328 143.364C198.328 142.473 197.872 142.017 196.961 141.997H195.182ZM195.182 140.902H196.643C197.106 140.902 197.467 140.797 197.727 140.589C197.99 140.377 198.121 140.079 198.121 139.694C198.121 139.27 198 138.963 197.756 138.775C197.517 138.586 197.141 138.492 196.631 138.492H195.182V140.902ZM205.026 145.243C204.605 145.738 204.008 145.986 203.235 145.986C202.544 145.986 202.019 145.783 201.662 145.379C201.308 144.974 201.132 144.389 201.132 143.623V139.494H202.563V143.606C202.563 144.415 202.899 144.819 203.571 144.819C204.266 144.819 204.735 144.57 204.979 144.071V139.494H206.41V145.868H205.061L205.026 145.243ZM209.662 137.944V139.494H210.787V140.554H209.662V144.112C209.662 144.356 209.709 144.532 209.803 144.642C209.902 144.748 210.074 144.801 210.322 144.801C210.487 144.801 210.654 144.782 210.823 144.743V145.85C210.497 145.94 210.182 145.986 209.88 145.986C208.78 145.986 208.23 145.379 208.23 144.165V140.554H207.182V139.494H208.23V137.944H209.662ZM213.409 145.868H211.977V139.494H213.409V145.868ZM211.889 137.838C211.889 137.618 211.958 137.436 212.095 137.29C212.236 137.145 212.437 137.072 212.696 137.072C212.955 137.072 213.155 137.145 213.297 137.29C213.438 137.436 213.509 137.618 213.509 137.838C213.509 138.054 213.438 138.235 213.297 138.38C213.155 138.522 212.955 138.592 212.696 138.592C212.437 138.592 212.236 138.522 212.095 138.38C211.958 138.235 211.889 138.054 211.889 137.838ZM217.044 143.134L216.407 143.788V145.868H214.976V136.819H216.407V142.039L216.855 141.479L218.616 139.494H220.337L217.968 142.15L220.59 145.868H218.935L217.044 143.134ZM223.347 143.134L222.711 143.788V145.868H221.279V136.819H222.711V142.039L223.158 141.479L224.92 139.494H226.64L224.272 142.15L226.893 145.868H225.238L223.347 143.134ZM230.269 145.986C229.362 145.986 228.625 145.701 228.06 145.131C227.498 144.558 227.217 143.796 227.217 142.846V142.669C227.217 142.033 227.339 141.465 227.583 140.966C227.83 140.464 228.176 140.073 228.62 139.794C229.063 139.515 229.558 139.376 230.104 139.376C230.972 139.376 231.642 139.653 232.113 140.206C232.588 140.76 232.826 141.544 232.826 142.557V143.134H228.661C228.704 143.661 228.879 144.077 229.185 144.383C229.495 144.69 229.884 144.843 230.352 144.843C231.007 144.843 231.542 144.578 231.954 144.047L232.726 144.784C232.47 145.165 232.129 145.461 231.701 145.673C231.276 145.881 230.799 145.986 230.269 145.986ZM230.098 140.525C229.705 140.525 229.387 140.662 229.144 140.937C228.904 141.212 228.751 141.595 228.684 142.086H231.412V141.98C231.38 141.5 231.253 141.139 231.029 140.896C230.805 140.648 230.495 140.525 230.098 140.525ZM235.271 139.494L235.312 140.23C235.783 139.66 236.402 139.376 237.168 139.376C238.495 139.376 239.17 140.136 239.194 141.656V145.868H237.763V141.738C237.763 141.334 237.674 141.035 237.497 140.843C237.325 140.646 237.04 140.548 236.643 140.548C236.066 140.548 235.636 140.809 235.353 141.332V145.868H233.922V139.494H235.271ZM248.602 143.871H245.28L244.584 145.868H243.035L246.275 137.29H247.612L250.858 145.868H249.303L248.602 143.871ZM245.698 142.669H248.184L246.941 139.111L245.698 142.669ZM256.319 143.659C256.319 143.282 256.186 142.991 255.919 142.787C255.656 142.582 255.179 142.376 254.487 142.168C253.796 141.96 253.246 141.728 252.838 141.473C252.056 140.982 251.665 140.342 251.665 139.552C251.665 138.861 251.946 138.292 252.508 137.844C253.073 137.396 253.806 137.172 254.705 137.172C255.302 137.172 255.834 137.282 256.302 137.502C256.769 137.722 257.136 138.037 257.403 138.445C257.67 138.849 257.804 139.299 257.804 139.794H256.319C256.319 139.346 256.178 138.997 255.895 138.745C255.616 138.49 255.216 138.362 254.694 138.362C254.207 138.362 253.828 138.467 253.557 138.675C253.289 138.883 253.156 139.173 253.156 139.547C253.156 139.861 253.301 140.124 253.592 140.336C253.883 140.544 254.362 140.748 255.029 140.949C255.697 141.145 256.233 141.371 256.638 141.626C257.042 141.878 257.339 142.168 257.527 142.498C257.716 142.824 257.81 143.207 257.81 143.647C257.81 144.362 257.535 144.931 256.985 145.355C256.439 145.775 255.697 145.986 254.758 145.986C254.138 145.986 253.566 145.872 253.044 145.644C252.526 145.412 252.121 145.094 251.83 144.69C251.544 144.285 251.4 143.814 251.4 143.276H252.891C252.891 143.763 253.052 144.14 253.374 144.407C253.696 144.674 254.157 144.807 254.758 144.807C255.277 144.807 255.666 144.703 255.925 144.495C256.188 144.283 256.319 144.004 256.319 143.659Z" fill="black"/>
<path d="M329.757 135.471C329.424 135.471 329.153 135.742 329.153 136.074C329.153 136.406 329.424 136.677 329.757 136.677H331.095L332.679 143.012C332.813 143.549 333.294 143.916 333.847 143.916H340.766C341.31 143.916 341.772 143.556 341.916 143.03L343.48 137.281H333.376L333.678 138.487H341.916L340.766 142.71H333.847L332.264 136.376C332.13 135.839 331.649 135.471 331.095 135.471H329.757ZM340.012 143.916C339.02 143.916 338.202 144.734 338.202 145.726C338.202 146.718 339.02 147.536 340.012 147.536C341.004 147.536 341.822 146.718 341.822 145.726C341.822 144.734 341.004 143.916 340.012 143.916ZM334.583 143.916C333.59 143.916 332.773 144.734 332.773 145.726C332.773 146.718 333.59 147.536 334.583 147.536C335.575 147.536 336.392 146.718 336.392 145.726C336.392 144.734 335.575 143.916 334.583 143.916ZM334.583 145.123C334.922 145.123 335.186 145.387 335.186 145.726C335.186 146.066 334.922 146.329 334.583 146.329C334.243 146.329 333.979 146.066 333.979 145.726C333.979 145.387 334.243 145.123 334.583 145.123ZM340.012 145.123C340.351 145.123 340.615 145.387 340.615 145.726C340.615 146.066 340.351 146.329 340.012 146.329C339.672 146.329 339.409 146.066 339.409 145.726C339.409 145.387 339.672 145.123 340.012 145.123Z" fill="black"/>
<path d="M309.787 147.919L309.748 147.879L309.744 147.884M309.787 147.919L310.113 147.407M309.787 147.919C309.78 147.914 309.773 147.907 309.765 147.901C309.758 147.895 309.75 147.889 309.744 147.884M309.787 147.919L309.788 147.917C309.979 148.061 310.212 148.139 310.452 148.139L309.738 147.88L309.744 147.884M309.744 147.884L309.748 147.879L309.743 147.874L309.743 147.874L309.362 147.49L309.363 147.489L309.733 147.122L310.109 147.404L310.113 147.407M310.113 147.407L310.15 147.435C310.236 147.5 310.343 147.535 310.452 147.536C310.562 147.536 310.669 147.5 310.756 147.435L310.763 147.429L310.763 147.429L310.78 147.416C311.716 146.688 313.16 145.525 314.368 144.131C315.591 142.72 316.485 141.17 316.485 139.664C316.485 138.019 315.139 136.677 313.469 136.677C312.694 136.677 312.069 137.01 311.62 137.368C311.397 137.546 311.226 137.725 311.111 137.857C311.054 137.923 311.011 137.977 310.985 138.012C310.971 138.03 310.962 138.043 310.957 138.051L310.952 138.058L310.952 138.058C310.951 138.058 310.951 138.058 310.951 138.058L310.452 138.801L309.953 138.058L309.953 138.058L309.953 138.058L309.948 138.051C309.942 138.043 309.933 138.03 309.919 138.012C309.893 137.977 309.851 137.923 309.793 137.857C309.679 137.725 309.507 137.546 309.284 137.368C308.835 137.01 308.21 136.677 307.436 136.677C305.765 136.677 304.42 138.019 304.42 139.664C304.42 141.166 305.308 142.712 306.526 144.121C307.73 145.512 309.171 146.673 310.109 147.404L310.113 147.407Z" stroke="black" stroke-width="1.2065"/>
<path fill-rule="evenodd" clip-rule="evenodd" d="M286.926 138.487C286.926 139.154 286.385 139.694 285.719 139.694C285.053 139.694 284.513 139.154 284.513 138.487C284.513 137.821 285.053 137.281 285.719 137.281C286.385 137.281 286.926 137.821 286.926 138.487ZM288.132 138.487C288.132 139.82 287.052 140.9 285.719 140.9C284.386 140.9 283.306 139.82 283.306 138.487C283.306 137.155 284.386 136.074 285.719 136.074C287.052 136.074 288.132 137.155 288.132 138.487ZM281.045 146.933C281.581 144.851 283.47 143.313 285.719 143.313C287.968 143.313 289.857 144.851 290.393 146.933H281.045ZM285.719 142.107C288.637 142.107 291.072 144.179 291.631 146.933C291.71 147.323 291.751 147.726 291.751 148.139H290.545H280.893H279.687C279.687 147.726 279.728 147.323 279.807 146.933C280.366 144.179 282.801 142.107 285.719 142.107Z" fill="black"/>
<rect x="142.146" y="137.281" width="13.8747" height="1.2065" fill="black"/>
<rect x="142.146" y="141.503" width="13.8747" height="1.2065" fill="black"/>
<rect x="142.146" y="145.726" width="13.8747" height="1.2065" fill="black"/>
<path d="M159.037 254.311C159.037 252.622 159.037 251.777 159.366 251.132C159.655 250.564 160.116 250.103 160.684 249.814C161.329 249.485 162.174 249.485 163.863 249.485H322.517C324.207 249.485 325.051 249.485 325.696 249.814C326.264 250.103 326.725 250.564 327.015 251.132C327.343 251.777 327.343 252.622 327.343 254.311V273.615C327.343 275.304 327.343 276.149 327.015 276.794C326.725 277.361 326.264 277.823 325.696 278.112C325.051 278.441 324.207 278.441 322.517 278.441H163.863C162.174 278.441 161.329 278.441 160.684 278.112C160.116 277.823 159.655 277.361 159.366 276.794C159.037 276.149 159.037 275.304 159.037 273.615V254.311Z" fill="#FF5B24"/>
<path d="M189.781 267.312V264.102H193.078V262.958H189.781V260.631H193.389V259.449H188.375V267.312H189.781ZM197.257 267.432C199.039 267.432 200.123 266.266 200.123 264.331C200.123 262.408 199.033 261.242 197.257 261.242C195.486 261.242 194.391 262.413 194.391 264.331C194.391 266.266 195.47 267.432 197.257 267.432ZM197.257 266.326C196.314 266.326 195.775 265.595 195.775 264.337C195.775 263.078 196.314 262.348 197.257 262.348C198.194 262.348 198.734 263.078 198.734 264.337C198.734 265.595 198.2 266.326 197.257 266.326ZM201.365 267.312H202.716V263.852C202.716 263.013 203.327 262.468 204.204 262.468C204.433 262.468 204.793 262.506 204.896 262.544V261.312C204.771 261.28 204.531 261.258 204.335 261.258C203.566 261.258 202.923 261.694 202.76 262.282H202.667V261.356H201.365V267.312ZM206.59 259.896V261.394H205.647V262.446H206.59V265.732C206.59 266.882 207.135 267.339 208.503 267.339C208.764 267.339 209.015 267.317 209.211 267.279V266.244C209.048 266.26 208.944 266.271 208.753 266.271C208.187 266.271 207.936 266.004 207.936 265.41V262.446H209.211V261.394H207.936V259.896H206.59ZM210.229 263.056C210.229 263.95 210.769 264.473 211.913 264.735L212.97 264.98C213.537 265.111 213.793 265.328 213.793 265.666C213.793 266.119 213.319 266.429 212.638 266.429C211.962 266.429 211.543 266.157 211.412 265.715H210.077C210.18 266.789 211.118 267.432 212.605 267.432C214.093 267.432 215.145 266.674 215.145 265.536C215.145 264.658 214.616 264.173 213.477 263.912L212.425 263.677C211.826 263.536 211.543 263.323 211.543 262.985C211.543 262.544 212.006 262.244 212.622 262.244C213.254 262.244 213.652 262.517 213.75 262.936H215.019C214.921 261.863 214.033 261.242 212.616 261.242C211.21 261.242 210.229 261.988 210.229 263.056ZM220.277 265.683C220.081 266.13 219.618 266.38 218.947 266.38C218.059 266.38 217.487 265.748 217.454 264.74V264.669H221.618V264.239C221.618 262.37 220.599 261.242 218.898 261.242C217.171 261.242 216.098 262.446 216.098 264.359C216.098 266.266 217.155 267.432 218.909 267.432C220.315 267.432 221.312 266.756 221.558 265.683H220.277ZM218.893 262.293C219.705 262.293 220.239 262.865 220.266 263.77H217.46C217.52 262.876 218.086 262.293 218.893 262.293ZM223.284 259.896V261.394H222.342V262.446H223.284V265.732C223.284 266.882 223.829 267.339 225.197 267.339C225.459 267.339 225.709 267.317 225.905 267.279V266.244C225.742 266.26 225.638 266.271 225.448 266.271C224.881 266.271 224.63 266.004 224.63 265.41V262.446H225.905V261.394H224.63V259.896H223.284ZM227.599 259.896V261.394H226.657V262.446H227.599V265.732C227.599 266.882 228.144 267.339 229.512 267.339C229.774 267.339 230.024 267.317 230.22 267.279V266.244C230.057 266.26 229.953 266.271 229.763 266.271C229.196 266.271 228.945 266.004 228.945 265.41V262.446H230.22V261.394H228.945V259.896H227.599ZM234.306 267.312H235.657V263.688C235.657 262.947 236.153 262.386 236.823 262.386C237.488 262.386 237.902 262.789 237.902 263.448V267.312H239.216V263.59C239.216 262.909 239.679 262.386 240.382 262.386C241.107 262.386 241.472 262.773 241.472 263.547V267.312H242.818V263.214C242.818 261.977 242.098 261.242 240.905 261.242C240.077 261.242 239.39 261.667 239.096 262.315H239.003C238.752 261.656 238.18 261.242 237.357 261.242C236.567 261.242 235.957 261.645 235.701 262.315H235.608V261.356H234.306V267.312ZM248.184 265.683C247.988 266.13 247.525 266.38 246.855 266.38C245.967 266.38 245.394 265.748 245.362 264.74V264.669H249.525V264.239C249.525 262.37 248.506 261.242 246.806 261.242C245.078 261.242 244.005 262.446 244.005 264.359C244.005 266.266 245.062 267.432 246.817 267.432C248.223 267.432 249.22 266.756 249.465 265.683H248.184ZM246.8 262.293C247.612 262.293 248.146 262.865 248.173 263.77H245.367C245.427 262.876 245.994 262.293 246.8 262.293ZM252.919 267.41C253.747 267.41 254.434 267.023 254.772 266.369H254.864V267.312H256.172V259.051H254.821V262.304H254.728C254.412 261.65 253.736 261.258 252.919 261.258C251.415 261.258 250.467 262.446 250.467 264.331C250.467 266.222 251.41 267.41 252.919 267.41ZM253.339 262.386C254.265 262.386 254.837 263.132 254.837 264.337C254.837 265.546 254.27 266.288 253.339 266.288C252.412 266.288 251.851 265.557 251.851 264.337C251.851 263.122 252.418 262.386 253.339 262.386Z" fill="white"/>
<path fill-rule="evenodd" clip-rule="evenodd" d="M299.153 262.81C298.718 261.152 297.664 260.494 296.224 260.494C295.057 260.494 293.593 261.152 293.593 262.737C293.593 263.76 294.301 264.565 295.454 264.772L296.547 264.967C297.291 265.101 297.502 265.381 297.502 265.759C297.502 266.186 297.043 266.429 296.36 266.429C295.467 266.429 294.909 266.112 294.822 265.223L293.246 265.466C293.494 267.185 295.033 267.892 296.422 267.892C297.738 267.892 299.14 267.136 299.14 265.613C299.14 264.577 298.507 263.821 297.328 263.602L296.125 263.383C295.454 263.261 295.231 262.932 295.231 262.615C295.231 262.212 295.665 261.957 296.261 261.957C297.018 261.957 297.552 262.212 297.577 263.053L299.153 262.81ZM264.119 265.417L265.757 260.677H267.68L264.826 267.709H263.399L260.545 260.677H262.468L264.119 265.417ZM274.183 262.688C274.183 263.248 273.737 263.638 273.215 263.638C272.694 263.638 272.248 263.248 272.248 262.688C272.248 262.127 272.694 261.737 273.215 261.737C273.737 261.737 274.184 262.127 274.184 262.688H274.183ZM274.481 265.174C273.836 266.003 273.153 266.575 271.95 266.575C270.721 266.575 269.766 265.844 269.021 264.772C268.723 264.333 268.264 264.236 267.929 264.467C267.619 264.687 267.544 265.15 267.83 265.552C268.86 267.1 270.287 268.001 271.95 268.001C273.476 268.001 274.667 267.27 275.598 266.051C275.945 265.601 275.933 265.137 275.598 264.882C275.288 264.638 274.829 264.723 274.481 265.174ZM278.763 264.175C278.763 265.613 279.607 266.368 280.55 266.368C281.444 266.368 282.362 265.661 282.362 264.175C282.362 262.712 281.444 262.005 280.563 262.005C279.607 262.005 278.763 262.676 278.763 264.175ZM278.763 261.652V260.689H277.013V270.146H278.763V266.783C279.346 267.563 280.103 267.892 280.96 267.892C282.561 267.892 284.124 266.649 284.124 264.089C284.124 261.64 282.498 260.494 281.108 260.494C280.004 260.494 279.247 260.994 278.763 261.652ZM287.165 264.175C287.165 265.613 288.008 266.368 288.952 266.368C289.845 266.368 290.763 265.661 290.763 264.175C290.763 262.712 289.845 262.005 288.964 262.005C288.008 262.005 287.164 262.676 287.164 264.175H287.165ZM287.165 261.652V260.689H287.164H285.415V270.146H287.164V266.783C287.748 267.563 288.505 267.892 289.361 267.892C290.962 267.892 292.525 266.649 292.525 264.089C292.525 261.64 290.9 260.494 289.51 260.494C288.405 260.494 287.649 260.994 287.165 261.652Z" fill="white"/>
<path d="M173.364 327.879H170.39V330.311H173.844V331.051H169.485V324.189H173.797V324.934H170.39V327.139H173.364V327.879ZM176.455 328.492H174.156V327.78H176.455V328.492ZM177.936 325.952L177.959 326.517C178.333 326.077 178.837 325.857 179.472 325.857C180.185 325.857 180.671 326.131 180.928 326.677C181.098 326.432 181.318 326.234 181.588 326.084C181.861 325.933 182.183 325.857 182.554 325.857C183.673 325.857 184.241 326.45 184.26 327.634V331.051H183.388V327.686C183.388 327.322 183.305 327.05 183.139 326.871C182.972 326.688 182.692 326.597 182.3 326.597C181.976 326.597 181.707 326.695 181.494 326.89C181.28 327.081 181.156 327.34 181.121 327.667V331.051H180.245V327.71C180.245 326.968 179.882 326.597 179.156 326.597C178.584 326.597 178.193 326.841 177.983 327.328V331.051H177.111V325.952H177.936ZM188.535 331.051C188.485 330.95 188.444 330.771 188.412 330.514C188.007 330.935 187.523 331.145 186.961 331.145C186.458 331.145 186.045 331.004 185.721 330.721C185.401 330.435 185.241 330.074 185.241 329.637C185.241 329.106 185.442 328.695 185.844 328.402C186.249 328.107 186.818 327.959 187.55 327.959H188.398V327.559C188.398 327.254 188.307 327.012 188.125 326.833C187.943 326.651 187.674 326.56 187.319 326.56C187.008 326.56 186.747 326.638 186.537 326.795C186.326 326.952 186.221 327.142 186.221 327.366H185.344C185.344 327.111 185.434 326.866 185.613 326.63C185.795 326.392 186.04 326.203 186.348 326.065C186.659 325.927 187 325.857 187.371 325.857C187.958 325.857 188.419 326.005 188.752 326.3C189.085 326.593 189.258 326.996 189.27 327.512V329.859C189.27 330.327 189.33 330.699 189.449 330.976V331.051H188.535ZM187.088 330.387C187.361 330.387 187.621 330.316 187.866 330.174C188.111 330.033 188.288 329.849 188.398 329.623V328.577H187.715C186.647 328.577 186.113 328.889 186.113 329.515C186.113 329.788 186.204 330.002 186.386 330.156C186.568 330.31 186.802 330.387 187.088 330.387ZM191.391 331.051H190.519V325.952H191.391V331.051ZM190.449 324.599C190.449 324.458 190.491 324.338 190.576 324.241C190.664 324.144 190.793 324.095 190.962 324.095C191.132 324.095 191.261 324.144 191.349 324.241C191.437 324.338 191.481 324.458 191.481 324.599C191.481 324.74 191.437 324.858 191.349 324.953C191.261 325.047 191.132 325.094 190.962 325.094C190.793 325.094 190.664 325.047 190.576 324.953C190.491 324.858 190.449 324.74 190.449 324.599ZM193.545 331.051H192.673V323.812H193.545V331.051ZM200.101 331.051C200.051 330.95 200.01 330.771 199.979 330.514C199.573 330.935 199.089 331.145 198.527 331.145C198.024 331.145 197.611 331.004 197.288 330.721C196.967 330.435 196.807 330.074 196.807 329.637C196.807 329.106 197.008 328.695 197.41 328.402C197.815 328.107 198.384 327.959 199.116 327.959H199.964V327.559C199.964 327.254 199.873 327.012 199.691 326.833C199.509 326.651 199.24 326.56 198.885 326.56C198.574 326.56 198.313 326.638 198.103 326.795C197.892 326.952 197.787 327.142 197.787 327.366H196.911C196.911 327.111 197 326.866 197.179 326.63C197.361 326.392 197.606 326.203 197.914 326.065C198.225 325.927 198.566 325.857 198.937 325.857C199.525 325.857 199.985 326.005 200.318 326.3C200.651 326.593 200.824 326.996 200.836 327.512V329.859C200.836 330.327 200.896 330.699 201.015 330.976V331.051H200.101ZM198.654 330.387C198.928 330.387 199.187 330.316 199.432 330.174C199.677 330.033 199.854 329.849 199.964 329.623V328.577H199.281C198.213 328.577 197.679 328.889 197.679 329.515C197.679 329.788 197.77 330.002 197.952 330.156C198.134 330.31 198.368 330.387 198.654 330.387ZM201.798 328.459C201.798 327.677 201.983 327.048 202.354 326.574C202.725 326.096 203.21 325.857 203.81 325.857C204.407 325.857 204.88 326.062 205.229 326.47V323.812H206.101V331.051H205.3L205.257 330.504C204.908 330.932 204.423 331.145 203.801 331.145C203.21 331.145 202.728 330.903 202.354 330.419C201.983 329.936 201.798 329.304 201.798 328.525V328.459ZM202.67 328.558C202.67 329.136 202.789 329.588 203.028 329.915C203.267 330.242 203.597 330.405 204.018 330.405C204.571 330.405 204.974 330.157 205.229 329.661V327.318C204.968 326.838 204.568 326.597 204.027 326.597C203.6 326.597 203.267 326.762 203.028 327.092C202.789 327.422 202.67 327.911 202.67 328.558ZM207.053 328.459C207.053 327.677 207.238 327.048 207.609 326.574C207.98 326.096 208.465 325.857 209.065 325.857C209.662 325.857 210.135 326.062 210.484 326.47V323.812H211.356V331.051H210.555L210.512 330.504C210.163 330.932 209.678 331.145 209.056 331.145C208.465 331.145 207.983 330.903 207.609 330.419C207.238 329.936 207.053 329.304 207.053 328.525V328.459ZM207.925 328.558C207.925 329.136 208.044 329.588 208.283 329.915C208.522 330.242 208.852 330.405 209.273 330.405C209.826 330.405 210.229 330.157 210.484 329.661V327.318C210.223 326.838 209.823 326.597 209.282 326.597C208.855 326.597 208.522 326.762 208.283 327.092C208.044 327.422 207.925 327.911 207.925 328.558ZM214.985 326.734C214.853 326.712 214.71 326.701 214.556 326.701C213.984 326.701 213.596 326.945 213.392 327.432V331.051H212.52V325.952H213.368L213.383 326.541C213.668 326.085 214.074 325.857 214.598 325.857C214.768 325.857 214.897 325.879 214.985 325.923V326.734ZM217.62 331.145C216.928 331.145 216.366 330.919 215.932 330.467C215.499 330.011 215.282 329.403 215.282 328.643V328.483C215.282 327.977 215.378 327.526 215.57 327.13C215.764 326.731 216.035 326.42 216.38 326.197C216.729 325.971 217.106 325.857 217.511 325.857C218.174 325.857 218.689 326.076 219.057 326.513C219.425 326.949 219.608 327.574 219.608 328.388V328.751H216.154C216.167 329.254 216.313 329.661 216.592 329.972C216.875 330.28 217.233 330.434 217.667 330.434C217.975 330.434 218.235 330.371 218.449 330.245C218.663 330.119 218.85 329.953 219.01 329.746L219.542 330.16C219.115 330.817 218.474 331.145 217.62 331.145ZM217.511 326.574C217.159 326.574 216.864 326.703 216.625 326.96C216.386 327.215 216.239 327.573 216.182 328.035H218.737V327.969C218.711 327.526 218.592 327.183 218.378 326.941C218.165 326.696 217.876 326.574 217.511 326.574ZM223.398 329.698C223.398 329.463 223.308 329.281 223.129 329.152C222.953 329.02 222.644 328.907 222.201 328.812C221.761 328.718 221.411 328.605 221.15 328.473C220.892 328.341 220.7 328.184 220.575 328.002C220.452 327.82 220.391 327.603 220.391 327.351C220.391 326.934 220.567 326.58 220.919 326.291C221.274 326.002 221.726 325.857 222.276 325.857C222.854 325.857 223.322 326.007 223.681 326.305C224.042 326.604 224.223 326.985 224.223 327.45H223.346C223.346 327.212 223.244 327.006 223.04 326.833C222.839 326.66 222.584 326.574 222.276 326.574C221.959 326.574 221.711 326.643 221.532 326.781C221.352 326.919 221.263 327.1 221.263 327.323C221.263 327.534 221.346 327.692 221.513 327.799C221.679 327.906 221.979 328.008 222.413 328.105C222.85 328.203 223.203 328.319 223.473 328.454C223.743 328.589 223.943 328.753 224.072 328.944C224.204 329.133 224.27 329.364 224.27 329.637C224.27 330.093 224.087 330.459 223.723 330.735C223.359 331.009 222.886 331.145 222.304 331.145C221.896 331.145 221.535 331.073 221.22 330.928C220.906 330.784 220.66 330.583 220.481 330.325C220.305 330.064 220.217 329.783 220.217 329.482H221.089C221.104 329.774 221.22 330.006 221.437 330.179C221.657 330.349 221.946 330.434 222.304 330.434C222.634 330.434 222.898 330.368 223.096 330.236C223.297 330.101 223.398 329.922 223.398 329.698ZM228.182 329.698C228.182 329.463 228.092 329.281 227.913 329.152C227.737 329.02 227.428 328.907 226.985 328.812C226.545 328.718 226.194 328.605 225.934 328.473C225.676 328.341 225.484 328.184 225.359 328.002C225.236 327.82 225.175 327.603 225.175 327.351C225.175 326.934 225.351 326.58 225.703 326.291C226.058 326.002 226.51 325.857 227.06 325.857C227.638 325.857 228.106 326.007 228.464 326.305C228.826 326.604 229.006 326.985 229.006 327.45H228.13C228.13 327.212 228.028 327.006 227.823 326.833C227.622 326.66 227.368 326.574 227.06 326.574C226.743 326.574 226.494 326.643 226.315 326.781C226.136 326.919 226.047 327.1 226.047 327.323C226.047 327.534 226.13 327.692 226.296 327.799C226.463 327.906 226.763 328.008 227.197 328.105C227.633 328.203 227.987 328.319 228.257 328.454C228.527 328.589 228.727 328.753 228.856 328.944C228.987 329.133 229.053 329.364 229.053 329.637C229.053 330.093 228.871 330.459 228.507 330.735C228.142 331.009 227.669 331.145 227.088 331.145C226.68 331.145 226.318 331.073 226.004 330.928C225.69 330.784 225.443 330.583 225.264 330.325C225.088 330.064 225 329.783 225 329.482H225.872C225.888 329.774 226.004 330.006 226.221 330.179C226.441 330.349 226.73 330.434 227.088 330.434C227.418 330.434 227.682 330.368 227.88 330.236C228.081 330.101 228.182 329.922 228.182 329.698Z" fill="#938FA8"/>
<rect x="159.339" y="313.128" width="167.703" height="28.3527" rx="2.71462" stroke="#C9C6D7" stroke-width="0.603248"/>
<path d="M170.39 362.147V364.833H169.485V357.971H172.016C172.767 357.971 173.354 358.163 173.778 358.546C174.206 358.929 174.419 359.437 174.419 360.068C174.419 360.734 174.21 361.248 173.793 361.609C173.378 361.968 172.782 362.147 172.006 362.147H170.39ZM170.39 361.407H172.016C172.5 361.407 172.87 361.294 173.128 361.067C173.386 360.838 173.514 360.508 173.514 360.078C173.514 359.669 173.386 359.342 173.128 359.097C172.87 358.852 172.517 358.725 172.068 358.716H170.39V361.407ZM178.336 364.833C178.286 364.732 178.245 364.553 178.213 364.296C177.808 364.717 177.324 364.927 176.762 364.927C176.259 364.927 175.846 364.786 175.522 364.503C175.202 364.217 175.042 363.856 175.042 363.419C175.042 362.888 175.243 362.477 175.645 362.184C176.05 361.889 176.619 361.741 177.351 361.741H178.199V361.341C178.199 361.036 178.108 360.794 177.926 360.615C177.744 360.433 177.475 360.342 177.12 360.342C176.809 360.342 176.548 360.42 176.338 360.577C176.127 360.734 176.022 360.924 176.022 361.147H175.145C175.145 360.893 175.235 360.648 175.414 360.412C175.596 360.173 175.841 359.985 176.149 359.847C176.46 359.708 176.801 359.639 177.172 359.639C177.759 359.639 178.22 359.787 178.553 360.082C178.886 360.375 179.059 360.778 179.071 361.294V363.641C179.071 364.109 179.131 364.481 179.25 364.758V364.833H178.336ZM176.889 364.168C177.162 364.168 177.422 364.098 177.667 363.956C177.912 363.815 178.089 363.631 178.199 363.405V362.359H177.516C176.448 362.359 175.914 362.671 175.914 363.297C175.914 363.57 176.005 363.784 176.187 363.938C176.369 364.091 176.603 364.168 176.889 364.168ZM183.214 363.48C183.214 363.245 183.124 363.062 182.945 362.934C182.769 362.802 182.46 362.689 182.017 362.594C181.577 362.5 181.227 362.387 180.966 362.255C180.708 362.123 180.517 361.966 180.391 361.784C180.268 361.601 180.207 361.385 180.207 361.133C180.207 360.715 180.383 360.362 180.735 360.073C181.09 359.784 181.542 359.639 182.092 359.639C182.67 359.639 183.139 359.789 183.497 360.087C183.858 360.386 184.039 360.767 184.039 361.232H183.162C183.162 360.994 183.06 360.788 182.856 360.615C182.655 360.442 182.4 360.356 182.092 360.356C181.775 360.356 181.527 360.425 181.348 360.563C181.169 360.701 181.079 360.882 181.079 361.105C181.079 361.316 181.162 361.474 181.329 361.581C181.495 361.688 181.795 361.79 182.229 361.887C182.666 361.985 183.019 362.101 183.289 362.236C183.56 362.371 183.759 362.535 183.888 362.726C184.02 362.915 184.086 363.146 184.086 363.419C184.086 363.875 183.904 364.241 183.539 364.517C183.175 364.791 182.702 364.927 182.121 364.927C181.712 364.927 181.351 364.855 181.037 364.71C180.722 364.566 180.476 364.365 180.297 364.107C180.121 363.846 180.033 363.565 180.033 363.264H180.905C180.92 363.556 181.037 363.788 181.253 363.961C181.473 364.131 181.762 364.216 182.121 364.216C182.45 364.216 182.714 364.15 182.912 364.018C183.113 363.883 183.214 363.703 183.214 363.48ZM187.998 363.48C187.998 363.245 187.908 363.062 187.729 362.934C187.553 362.802 187.244 362.689 186.801 362.594C186.361 362.5 186.01 362.387 185.75 362.255C185.492 362.123 185.3 361.966 185.175 361.784C185.052 361.601 184.991 361.385 184.991 361.133C184.991 360.715 185.167 360.362 185.519 360.073C185.874 359.784 186.326 359.639 186.876 359.639C187.454 359.639 187.922 359.789 188.28 360.087C188.642 360.386 188.822 360.767 188.822 361.232H187.946C187.946 360.994 187.844 360.788 187.64 360.615C187.438 360.442 187.184 360.356 186.876 360.356C186.559 360.356 186.31 360.425 186.131 360.563C185.952 360.701 185.863 360.882 185.863 361.105C185.863 361.316 185.946 361.474 186.113 361.581C186.279 361.688 186.579 361.79 187.013 361.887C187.449 361.985 187.803 362.101 188.073 362.236C188.343 362.371 188.543 362.535 188.672 362.726C188.804 362.915 188.87 363.146 188.87 363.419C188.87 363.875 188.687 364.241 188.323 364.517C187.958 364.791 187.486 364.927 186.904 364.927C186.496 364.927 186.135 364.855 185.82 364.71C185.506 364.566 185.26 364.365 185.08 364.107C184.904 363.846 184.817 363.565 184.817 363.264H185.688C185.704 363.556 185.82 363.788 186.037 363.961C186.257 364.131 186.546 364.216 186.904 364.216C187.234 364.216 187.498 364.15 187.696 364.018C187.897 363.883 187.998 363.703 187.998 363.48ZM194.327 363.631L195.308 359.734H196.179L194.695 364.833H193.988L192.748 360.968L191.542 364.833H190.835L189.355 359.734H190.222L191.226 363.551L192.414 359.734H193.116L194.327 363.631ZM196.646 362.236C196.646 361.737 196.744 361.287 196.938 360.888C197.136 360.489 197.41 360.181 197.758 359.965C198.11 359.748 198.511 359.639 198.96 359.639C199.655 359.639 200.215 359.88 200.643 360.36C201.073 360.841 201.288 361.481 201.288 362.279V362.34C201.288 362.836 201.193 363.282 201.001 363.678C200.812 364.071 200.541 364.377 200.186 364.597C199.834 364.817 199.428 364.927 198.97 364.927C198.278 364.927 197.718 364.687 197.287 364.206C196.86 363.725 196.646 363.089 196.646 362.297V362.236ZM197.523 362.34C197.523 362.905 197.653 363.359 197.914 363.702C198.178 364.044 198.53 364.216 198.97 364.216C199.413 364.216 199.765 364.043 200.025 363.697C200.286 363.348 200.417 362.861 200.417 362.236C200.417 361.677 200.283 361.224 200.016 360.879C199.752 360.53 199.4 360.356 198.96 360.356C198.53 360.356 198.183 360.527 197.919 360.869C197.655 361.212 197.523 361.702 197.523 362.34ZM204.654 360.516C204.522 360.494 204.379 360.483 204.225 360.483C203.653 360.483 203.265 360.726 203.061 361.213V364.833H202.189V359.734H203.037L203.051 360.323C203.337 359.867 203.742 359.639 204.267 359.639C204.437 359.639 204.566 359.661 204.654 359.705V360.516ZM204.96 362.241C204.96 361.459 205.145 360.83 205.516 360.356C205.887 359.878 206.372 359.639 206.972 359.639C207.569 359.639 208.042 359.844 208.391 360.252V357.594H209.263V364.833H208.462L208.419 364.286C208.071 364.714 207.585 364.927 206.963 364.927C206.372 364.927 205.89 364.685 205.516 364.201C205.145 363.718 204.96 363.086 204.96 362.307V362.241ZM205.832 362.34C205.832 362.918 205.951 363.37 206.19 363.697C206.429 364.024 206.759 364.187 207.18 364.187C207.733 364.187 208.137 363.939 208.391 363.443V361.1C208.13 360.62 207.73 360.379 207.189 360.379C206.762 360.379 206.429 360.544 206.19 360.874C205.951 361.204 205.832 361.693 205.832 362.34Z" fill="#938FA8"/>
<rect x="159.339" y="346.909" width="167.703" height="28.3527" rx="2.71462" stroke="#C9C6D7" stroke-width="0.603248"/>
<path d="M206.543 435.105H204.127V437.65H203.083V431.645H206.898V432.487H204.127V434.272H206.543V435.105ZM207.351 435.377C207.351 434.94 207.438 434.547 207.611 434.198C207.784 433.846 208.028 433.577 208.341 433.39C208.654 433.2 209.015 433.105 209.421 433.105C210.024 433.105 210.511 433.299 210.885 433.687C211.262 434.074 211.465 434.588 211.496 435.229L211.5 435.464C211.5 435.904 211.415 436.297 211.244 436.643C211.076 436.99 210.835 437.258 210.518 437.448C210.205 437.637 209.842 437.732 209.43 437.732C208.8 437.732 208.296 437.523 207.916 437.105C207.54 436.685 207.351 436.125 207.351 435.427V435.377ZM208.353 435.464C208.353 435.923 208.448 436.283 208.638 436.544C208.828 436.803 209.092 436.932 209.43 436.932C209.768 436.932 210.03 436.8 210.217 436.536C210.407 436.272 210.502 435.886 210.502 435.377C210.502 434.927 210.404 434.569 210.209 434.305C210.017 434.041 209.754 433.909 209.421 433.909C209.094 433.909 208.834 434.04 208.642 434.301C208.45 434.56 208.353 434.947 208.353 435.464ZM214.683 434.103C214.551 434.081 214.415 434.07 214.275 434.07C213.816 434.07 213.507 434.246 213.347 434.598V437.65H212.345V433.188H213.302L213.327 433.687C213.569 433.299 213.904 433.105 214.333 433.105C214.476 433.105 214.594 433.124 214.687 433.163L214.683 434.103ZM215.059 435.386C215.059 434.693 215.221 434.14 215.545 433.728C215.872 433.313 216.305 433.105 216.844 433.105C217.353 433.105 217.753 433.283 218.044 433.637L218.09 433.188H218.993V437.514C218.993 438.099 218.81 438.561 218.444 438.899C218.081 439.237 217.591 439.406 216.972 439.406C216.645 439.406 216.325 439.338 216.011 439.2C215.701 439.065 215.464 438.888 215.302 438.668L215.776 438.066C216.084 438.432 216.463 438.615 216.914 438.615C217.247 438.615 217.51 438.524 217.702 438.342C217.894 438.164 217.991 437.9 217.991 437.551V437.25C217.702 437.571 217.317 437.732 216.836 437.732C216.314 437.732 215.886 437.525 215.553 437.109C215.224 436.694 215.059 436.12 215.059 435.386ZM216.057 435.472C216.057 435.92 216.147 436.274 216.329 436.532C216.513 436.788 216.767 436.916 217.092 436.916C217.496 436.916 217.795 436.742 217.991 436.396V434.433C217.801 434.095 217.504 433.926 217.1 433.926C216.77 433.926 216.513 434.056 216.329 434.318C216.147 434.579 216.057 434.964 216.057 435.472ZM219.838 435.377C219.838 434.94 219.925 434.547 220.098 434.198C220.271 433.846 220.514 433.577 220.828 433.39C221.141 433.2 221.501 433.105 221.908 433.105C222.51 433.105 222.998 433.299 223.372 433.687C223.749 434.074 223.952 434.588 223.982 435.229L223.987 435.464C223.987 435.904 223.901 436.297 223.731 436.643C223.563 436.99 223.321 437.258 223.005 437.448C222.692 437.637 222.329 437.732 221.916 437.732C221.287 437.732 220.782 437.523 220.403 437.105C220.026 436.685 219.838 436.125 219.838 435.427V435.377ZM220.84 435.464C220.84 435.923 220.935 436.283 221.125 436.544C221.314 436.803 221.578 436.932 221.916 436.932C222.255 436.932 222.517 436.8 222.704 436.536C222.894 436.272 222.989 435.886 222.989 435.377C222.989 434.927 222.891 434.569 222.696 434.305C222.503 434.041 222.241 433.909 221.908 433.909C221.581 433.909 221.321 434.04 221.129 434.301C220.936 434.56 220.84 434.947 220.84 435.464ZM226.09 432.103V433.188H226.877V433.93H226.09V436.421C226.09 436.591 226.123 436.715 226.189 436.792C226.257 436.866 226.378 436.903 226.552 436.903C226.667 436.903 226.784 436.889 226.902 436.862V437.637C226.674 437.7 226.454 437.732 226.242 437.732C225.473 437.732 225.088 437.307 225.088 436.458V433.93H224.354V433.188H225.088V432.103H226.09ZM228.902 432.103V433.188H229.69V433.93H228.902V436.421C228.902 436.591 228.935 436.715 229.001 436.792C229.07 436.866 229.191 436.903 229.364 436.903C229.479 436.903 229.596 436.889 229.714 436.862V437.637C229.486 437.7 229.266 437.732 229.055 437.732C228.285 437.732 227.9 437.307 227.9 436.458V433.93H227.166V433.188H227.9V432.103H228.902ZM232.424 437.732C231.789 437.732 231.273 437.533 230.877 437.134C230.484 436.733 230.288 436.199 230.288 435.534V435.41C230.288 434.965 230.373 434.568 230.543 434.219C230.717 433.867 230.958 433.593 231.269 433.398C231.58 433.203 231.926 433.105 232.308 433.105C232.916 433.105 233.385 433.299 233.715 433.687C234.047 434.074 234.214 434.623 234.214 435.332V435.736H231.298C231.328 436.105 231.451 436.396 231.665 436.61C231.882 436.825 232.154 436.932 232.482 436.932C232.941 436.932 233.315 436.746 233.603 436.375L234.143 436.891C233.965 437.157 233.726 437.365 233.426 437.514C233.129 437.659 232.795 437.732 232.424 437.732ZM232.304 433.909C232.029 433.909 231.807 434.006 231.636 434.198C231.468 434.39 231.361 434.658 231.315 435.002H233.224V434.928C233.202 434.593 233.112 434.34 232.956 434.169C232.799 433.996 232.582 433.909 232.304 433.909ZM235.925 433.188L235.954 433.703C236.284 433.305 236.717 433.105 237.253 433.105C238.182 433.105 238.655 433.637 238.671 434.701V437.65H237.669V434.759C237.669 434.476 237.607 434.267 237.484 434.132C237.363 433.995 237.163 433.926 236.886 433.926C236.482 433.926 236.181 434.109 235.983 434.474V437.65H234.981V433.188H235.925ZM245.706 435.464C245.706 436.154 245.55 436.705 245.236 437.118C244.923 437.527 244.502 437.732 243.974 437.732C243.485 437.732 243.093 437.571 242.799 437.25V439.365H241.797V433.188H242.721L242.762 433.641C243.056 433.284 243.456 433.105 243.962 433.105C244.506 433.105 244.933 433.309 245.24 433.716C245.551 434.12 245.706 434.682 245.706 435.402V435.464ZM244.709 435.377C244.709 434.932 244.619 434.579 244.44 434.318C244.265 434.056 244.012 433.926 243.682 433.926C243.272 433.926 242.978 434.095 242.799 434.433V436.412C242.981 436.759 243.278 436.932 243.69 436.932C244.009 436.932 244.258 436.804 244.436 436.549C244.618 436.29 244.709 435.9 244.709 435.377ZM249.224 437.65C249.18 437.564 249.142 437.426 249.109 437.233C248.79 437.566 248.399 437.732 247.937 437.732C247.489 437.732 247.124 437.604 246.841 437.349C246.557 437.093 246.416 436.777 246.416 436.4C246.416 435.924 246.592 435.56 246.944 435.307C247.298 435.052 247.804 434.924 248.461 434.924H249.076V434.631C249.076 434.4 249.011 434.216 248.882 434.078C248.753 433.938 248.556 433.868 248.292 433.868C248.064 433.868 247.877 433.926 247.731 434.041C247.586 434.154 247.513 434.298 247.513 434.474H246.511C246.511 434.23 246.592 434.001 246.754 433.79C246.916 433.575 247.136 433.408 247.414 433.287C247.694 433.166 248.006 433.105 248.35 433.105C248.872 433.105 249.289 433.237 249.599 433.501C249.91 433.762 250.069 434.131 250.078 434.606V436.619C250.078 437.02 250.134 437.34 250.247 437.579V437.65H249.224ZM248.123 436.928C248.321 436.928 248.507 436.88 248.68 436.784C248.856 436.687 248.988 436.558 249.076 436.396V435.555H248.535C248.164 435.555 247.885 435.619 247.698 435.749C247.511 435.878 247.418 436.061 247.418 436.297C247.418 436.489 247.481 436.643 247.608 436.759C247.737 436.872 247.909 436.928 248.123 436.928ZM253.628 436.437C253.628 436.259 253.554 436.122 253.406 436.029C253.26 435.935 253.017 435.853 252.676 435.782C252.335 435.71 252.05 435.619 251.822 435.509C251.322 435.267 251.071 434.917 251.071 434.458C251.071 434.073 251.234 433.751 251.558 433.493C251.882 433.234 252.295 433.105 252.795 433.105C253.329 433.105 253.759 433.237 254.086 433.501C254.416 433.765 254.581 434.107 254.581 434.528H253.579C253.579 434.335 253.507 434.176 253.364 434.05C253.221 433.92 253.032 433.856 252.795 433.856C252.575 433.856 252.395 433.907 252.255 434.008C252.118 434.11 252.049 434.246 252.049 434.417C252.049 434.571 252.113 434.69 252.243 434.775C252.372 434.861 252.633 434.947 253.026 435.035C253.419 435.12 253.727 435.223 253.95 435.344C254.175 435.463 254.342 435.606 254.449 435.773C254.559 435.941 254.614 436.144 254.614 436.384C254.614 436.785 254.447 437.111 254.115 437.361C253.782 437.608 253.346 437.732 252.808 437.732C252.442 437.732 252.116 437.666 251.83 437.534C251.544 437.402 251.322 437.221 251.162 436.99C251.003 436.759 250.923 436.51 250.923 436.243H251.896C251.91 436.48 251.999 436.663 252.164 436.792C252.329 436.918 252.548 436.982 252.82 436.982C253.084 436.982 253.285 436.932 253.422 436.833C253.559 436.731 253.628 436.599 253.628 436.437ZM257.991 436.437C257.991 436.259 257.917 436.122 257.768 436.029C257.623 435.935 257.379 435.853 257.039 435.782C256.698 435.71 256.413 435.619 256.185 435.509C255.685 435.267 255.434 434.917 255.434 434.458C255.434 434.073 255.597 433.751 255.921 433.493C256.245 433.234 256.658 433.105 257.158 433.105C257.692 433.105 258.122 433.237 258.449 433.501C258.779 433.765 258.944 434.107 258.944 434.528H257.942C257.942 434.335 257.87 434.176 257.727 434.05C257.584 433.92 257.395 433.856 257.158 433.856C256.938 433.856 256.758 433.907 256.618 434.008C256.48 434.11 256.412 434.246 256.412 434.417C256.412 434.571 256.476 434.69 256.606 434.775C256.735 434.861 256.996 434.947 257.389 435.035C257.782 435.12 258.09 435.223 258.313 435.344C258.538 435.463 258.705 435.606 258.812 435.773C258.922 435.941 258.977 436.144 258.977 436.384C258.977 436.785 258.81 437.111 258.478 437.361C258.145 437.608 257.709 437.732 257.171 437.732C256.805 437.732 256.479 437.666 256.193 437.534C255.907 437.402 255.685 437.221 255.525 436.99C255.366 436.759 255.286 436.51 255.286 436.243H256.259C256.273 436.48 256.362 436.663 256.527 436.792C256.692 436.918 256.911 436.982 257.183 436.982C257.447 436.982 257.648 436.932 257.785 436.833C257.922 436.731 257.991 436.599 257.991 436.437ZM263.773 436.268L264.482 433.188H265.459L264.243 437.65H263.418L262.461 434.586L261.521 437.65H260.696L259.476 433.188H260.453L261.175 436.235L262.09 433.188H262.845L263.773 436.268ZM265.942 435.377C265.942 434.94 266.028 434.547 266.202 434.198C266.375 433.846 266.618 433.577 266.931 433.39C267.245 433.2 267.605 433.105 268.012 433.105C268.614 433.105 269.102 433.299 269.476 433.687C269.853 434.074 270.056 434.588 270.086 435.229L270.09 435.464C270.09 435.904 270.005 436.297 269.835 436.643C269.667 436.99 269.425 437.258 269.109 437.448C268.795 437.637 268.433 437.732 268.02 437.732C267.391 437.732 266.886 437.523 266.507 437.105C266.13 436.685 265.942 436.125 265.942 435.427V435.377ZM266.944 435.464C266.944 435.923 267.039 436.283 267.228 436.544C267.418 436.803 267.682 436.932 268.02 436.932C268.358 436.932 268.621 436.8 268.808 436.536C268.998 436.272 269.092 435.886 269.092 435.377C269.092 434.927 268.995 434.569 268.8 434.305C268.607 434.041 268.345 433.909 268.012 433.909C267.685 433.909 267.425 434.04 267.233 434.301C267.04 434.56 266.944 434.947 266.944 435.464ZM273.274 434.103C273.142 434.081 273.006 434.07 272.866 434.07C272.406 434.07 272.097 434.246 271.938 434.598V437.65H270.936V433.188H271.892L271.917 433.687C272.159 433.299 272.494 433.105 272.923 433.105C273.066 433.105 273.185 433.124 273.278 433.163L273.274 434.103ZM273.637 435.386C273.637 434.698 273.796 434.147 274.115 433.732C274.434 433.314 274.861 433.105 275.398 433.105C275.87 433.105 276.253 433.27 276.544 433.6V431.315H277.546V437.65H276.639L276.589 437.188C276.29 437.551 275.89 437.732 275.389 437.732C274.867 437.732 274.444 437.522 274.119 437.101C273.798 436.681 273.637 436.109 273.637 435.386ZM274.639 435.472C274.639 435.926 274.725 436.281 274.899 436.536C275.075 436.789 275.323 436.916 275.645 436.916C276.055 436.916 276.354 436.733 276.544 436.367V434.462C276.36 434.105 276.063 433.926 275.653 433.926C275.329 433.926 275.079 434.055 274.903 434.313C274.727 434.569 274.639 434.955 274.639 435.472ZM279.521 435.885C279.521 435.519 279.567 435.228 279.657 435.01C279.748 434.793 279.927 434.555 280.194 434.297C280.463 434.036 280.633 433.85 280.705 433.74C280.815 433.573 280.87 433.391 280.87 433.196C280.87 432.938 280.805 432.741 280.676 432.606C280.55 432.469 280.363 432.4 280.115 432.4C279.879 432.4 279.688 432.467 279.542 432.602C279.399 432.734 279.328 432.914 279.328 433.142H278.325C278.331 432.656 278.496 432.271 278.82 431.988C279.147 431.704 279.579 431.563 280.115 431.563C280.668 431.563 281.098 431.703 281.406 431.984C281.717 432.264 281.872 432.656 281.872 433.159C281.872 433.607 281.663 434.048 281.245 434.483L280.738 434.982C280.556 435.188 280.463 435.489 280.457 435.885H279.521ZM279.451 437.167C279.451 437.005 279.502 436.874 279.604 436.775C279.706 436.674 279.843 436.623 280.016 436.623C280.192 436.623 280.331 436.675 280.433 436.779C280.534 436.881 280.585 437.01 280.585 437.167C280.585 437.318 280.536 437.445 280.437 437.547C280.338 437.648 280.198 437.699 280.016 437.699C279.835 437.699 279.695 437.648 279.596 437.547C279.499 437.445 279.451 437.318 279.451 437.167Z" fill="#6770E0"/>
<rect x="203.074" y="390.042" width="80.232" height="28.9559" rx="3.01624" fill="#EFEEF3"/>
<path d="M231.441 406.59H234.557V407.542H230.249V400.68H231.441V406.59ZM234.953 404.945C234.953 404.446 235.052 403.996 235.25 403.597C235.448 403.195 235.726 402.887 236.084 402.674C236.442 402.457 236.854 402.348 237.319 402.348C238.007 402.348 238.564 402.57 238.992 403.013C239.422 403.456 239.655 404.043 239.689 404.776L239.694 405.044C239.694 405.547 239.596 405.996 239.402 406.392C239.21 406.788 238.934 407.094 238.572 407.311C238.214 407.528 237.799 407.636 237.328 407.636C236.609 407.636 236.032 407.397 235.598 406.92C235.168 406.439 234.953 405.8 234.953 405.002V404.945ZM236.098 405.044C236.098 405.569 236.206 405.98 236.423 406.279C236.64 406.574 236.942 406.722 237.328 406.722C237.714 406.722 238.015 406.571 238.228 406.27C238.445 405.968 238.553 405.526 238.553 404.945C238.553 404.43 238.442 404.021 238.219 403.72C237.999 403.418 237.699 403.267 237.319 403.267C236.945 403.267 236.648 403.417 236.428 403.715C236.208 404.01 236.098 404.453 236.098 405.044ZM240.269 404.955C240.269 404.163 240.454 403.531 240.825 403.06C241.199 402.586 241.694 402.348 242.31 402.348C242.891 402.348 243.348 402.551 243.681 402.956L243.733 402.443H244.765V407.386C244.765 408.056 244.556 408.584 244.138 408.97C243.724 409.356 243.163 409.55 242.456 409.55C242.082 409.55 241.716 409.471 241.358 409.314C241.003 409.16 240.732 408.957 240.547 408.706L241.089 408.018C241.441 408.436 241.875 408.645 242.39 408.645C242.77 408.645 243.07 408.541 243.29 408.334C243.51 408.13 243.62 407.828 243.62 407.429V407.085C243.29 407.452 242.85 407.636 242.3 407.636C241.703 407.636 241.215 407.399 240.835 406.925C240.458 406.45 240.269 405.794 240.269 404.955ZM241.41 405.054C241.41 405.566 241.513 405.969 241.721 406.265C241.931 406.557 242.222 406.703 242.592 406.703C243.054 406.703 243.397 406.505 243.62 406.109V403.866C243.403 403.479 243.064 403.286 242.602 403.286C242.225 403.286 241.931 403.436 241.721 403.734C241.513 404.032 241.41 404.472 241.41 405.054ZM249.181 407.542H248.036V402.443H249.181V407.542ZM247.966 401.118C247.966 400.942 248.021 400.796 248.13 400.68C248.244 400.564 248.404 400.506 248.611 400.506C248.819 400.506 248.979 400.564 249.092 400.68C249.205 400.796 249.262 400.942 249.262 401.118C249.262 401.291 249.205 401.436 249.092 401.552C248.979 401.665 248.819 401.722 248.611 401.722C248.404 401.722 248.244 401.665 248.13 401.552C248.021 401.436 247.966 401.291 247.966 401.118ZM251.302 402.443L251.335 403.032C251.712 402.576 252.207 402.348 252.82 402.348C253.882 402.348 254.422 402.956 254.441 404.172V407.542H253.296V404.238C253.296 403.915 253.225 403.676 253.084 403.522C252.946 403.365 252.718 403.286 252.401 403.286C251.939 403.286 251.595 403.495 251.368 403.913V407.542H250.223V402.443H251.302Z" fill="#938FA8"/>
<path d="M242.253 298.592C243.564 298.592 244.368 297.714 244.368 296.267C244.368 294.819 243.56 293.941 242.253 293.941C240.941 293.941 240.133 294.823 240.133 296.267C240.133 297.714 240.937 298.592 242.253 298.592ZM242.253 297.838C241.481 297.838 241.048 297.265 241.048 296.267C241.048 295.269 241.481 294.691 242.253 294.691C243.02 294.691 243.457 295.269 243.457 296.267C243.457 297.26 243.02 297.838 242.253 297.838ZM245.436 298.506H246.323V295.829C246.323 295.199 246.797 294.766 247.469 294.766C247.626 294.766 247.89 294.794 247.964 294.815V293.982C247.869 293.961 247.7 293.949 247.568 293.949C246.983 293.949 246.484 294.267 246.356 294.708H246.29V294.027H245.436V298.506Z" fill="#706B8B"/>
<path d="M226.748 215.21H231.42V216.638H224.959V206.345H226.748V215.21ZM232.304 212.743C232.304 211.994 232.452 211.32 232.749 210.721C233.046 210.118 233.463 209.656 234.001 209.335C234.538 209.01 235.155 208.848 235.853 208.848C236.885 208.848 237.721 209.18 238.362 209.844C239.008 210.509 239.357 211.39 239.409 212.488L239.416 212.891C239.416 213.645 239.27 214.319 238.977 214.913C238.69 215.507 238.275 215.966 237.733 216.292C237.196 216.617 236.574 216.779 235.867 216.779C234.788 216.779 233.923 216.421 233.273 215.705C232.627 214.984 232.304 214.025 232.304 212.828V212.743ZM234.022 212.891C234.022 213.678 234.184 214.296 234.51 214.743C234.835 215.186 235.287 215.408 235.867 215.408C236.447 215.408 236.897 215.182 237.217 214.729C237.542 214.277 237.705 213.615 237.705 212.743C237.705 211.97 237.538 211.357 237.203 210.905C236.873 210.452 236.423 210.226 235.853 210.226C235.292 210.226 234.847 210.45 234.517 210.898C234.187 211.341 234.022 212.005 234.022 212.891ZM240.568 212.757C240.568 211.569 240.846 210.622 241.402 209.915C241.963 209.203 242.705 208.848 243.629 208.848C244.501 208.848 245.187 209.152 245.686 209.76L245.764 208.989H247.312V216.405C247.312 217.409 246.999 218.2 246.372 218.78C245.75 219.36 244.909 219.65 243.848 219.65C243.287 219.65 242.738 219.532 242.201 219.296C241.669 219.065 241.263 218.761 240.985 218.384L241.798 217.352C242.326 217.979 242.976 218.292 243.749 218.292C244.32 218.292 244.77 218.137 245.099 217.826C245.429 217.519 245.594 217.067 245.594 216.468V215.952C245.099 216.504 244.44 216.779 243.615 216.779C242.719 216.779 241.987 216.424 241.416 215.712C240.851 215 240.568 214.015 240.568 212.757ZM242.279 212.905C242.279 213.674 242.434 214.279 242.745 214.722C243.061 215.161 243.497 215.38 244.053 215.38C244.746 215.38 245.26 215.083 245.594 214.489V211.124C245.269 210.544 244.76 210.254 244.067 210.254C243.502 210.254 243.061 210.478 242.745 210.926C242.434 211.374 242.279 212.034 242.279 212.905ZM254.516 216.638H252.798V208.989H254.516V216.638ZM252.692 207.003C252.692 206.739 252.774 206.52 252.939 206.345C253.109 206.171 253.349 206.084 253.66 206.084C253.971 206.084 254.212 206.171 254.382 206.345C254.551 206.52 254.636 206.739 254.636 207.003C254.636 207.262 254.551 207.479 254.382 207.653C254.212 207.823 253.971 207.907 253.66 207.907C253.349 207.907 253.109 207.823 252.939 207.653C252.774 207.479 252.692 207.262 252.692 207.003ZM257.987 208.989L258.036 209.873C258.602 209.189 259.344 208.848 260.263 208.848C261.856 208.848 262.667 209.76 262.695 211.584V216.638H260.977V211.682C260.977 211.197 260.871 210.839 260.659 210.608C260.452 210.372 260.11 210.254 259.634 210.254C258.941 210.254 258.425 210.568 258.086 211.195V216.638H256.368V208.989H257.987Z" fill="black"/>
<g filter="url(#filter2_b)">
<path fill-rule="evenodd" clip-rule="evenodd" d="M130.081 63.0812H356.299V119.787H130.081V63.0812Z" fill="#F9F9F9" fill-opacity="0.94"/>
</g>
<line opacity="0.3" x1="130.081" y1="119.937" x2="356.299" y2="119.937" stroke="black" stroke-width="0.301624"/>
<mask id="mask0" mask-type="alpha" maskUnits="userSpaceOnUse" x="136" y="92" width="215" height="22">
<path fill-rule="evenodd" clip-rule="evenodd" d="M136.113 98.0696C136.113 94.7379 138.814 92.0371 142.146 92.0371H344.234C347.566 92.0371 350.266 94.7379 350.266 98.0696V107.722C350.266 111.053 347.566 113.754 344.234 113.754H142.146C138.814 113.754 136.113 111.053 136.113 107.722V98.0696Z" fill="white"/>
</mask>
<g mask="url(#mask0)">
<path fill-rule="evenodd" clip-rule="evenodd" d="M136.113 101.689C136.113 98.3106 136.113 96.6213 136.771 95.3309C137.349 94.1958 138.272 93.273 139.407 92.6946C140.697 92.0371 142.387 92.0371 145.765 92.0371H340.614C343.993 92.0371 345.682 92.0371 346.973 92.6946C348.108 93.273 349.031 94.1958 349.609 95.3309C350.266 96.6213 350.266 98.3106 350.266 101.689V104.102C350.266 107.481 350.266 109.17 349.609 110.46C349.031 111.595 348.108 112.518 346.973 113.097C345.682 113.754 343.993 113.754 340.614 113.754H145.765C142.387 113.754 140.697 113.754 139.407 113.097C138.272 112.518 137.349 111.595 136.771 110.46C136.113 109.17 136.113 107.481 136.113 104.102V101.689Z" fill="#767680" fill-opacity="0.12"/>
<path d="M147.679 106.546C147.93 106.546 148.055 106.446 148.155 106.171L148.796 104.398H151.75L152.396 106.171C152.492 106.446 152.622 106.546 152.872 106.546C153.143 106.546 153.318 106.386 153.318 106.136C153.318 106.051 153.303 105.976 153.268 105.865L150.914 99.6162C150.799 99.3057 150.594 99.1555 150.278 99.1555C149.963 99.1555 149.758 99.3057 149.647 99.6112L147.294 105.87C147.254 105.981 147.239 106.056 147.239 106.141C147.239 106.391 147.409 106.546 147.679 106.546ZM149.041 103.632L150.258 100.262H150.288L151.5 103.632H149.041ZM142.642 106.546C142.847 106.546 142.987 106.446 143.073 106.186L143.473 105.029H145.306L145.707 106.186C145.802 106.451 145.942 106.546 146.142 106.546C146.398 106.546 146.573 106.386 146.573 106.151C146.573 106.066 146.553 105.976 146.508 105.85L145.016 101.885C144.91 101.594 144.705 101.409 144.385 101.409C144.079 101.409 143.879 101.594 143.774 101.885L142.276 105.85C142.226 105.976 142.216 106.066 142.216 106.151C142.216 106.386 142.387 106.546 142.642 106.546ZM143.699 104.348L144.36 102.395H144.425L145.086 104.348H143.699Z" fill="black"/>
<path d="M340.199 102.468C340.324 102.468 340.419 102.428 340.489 102.353L342.552 100.28C342.642 100.194 342.677 100.094 342.677 99.9791C342.677 99.8689 342.632 99.7588 342.552 99.6786L340.489 97.5855C340.419 97.5054 340.319 97.4654 340.199 97.4654C339.973 97.4654 339.803 97.6456 339.803 97.876C339.803 97.9811 339.843 98.0813 339.913 98.1614L341.25 99.4733C340.965 99.4233 340.674 99.3932 340.384 99.3932C337.93 99.3932 335.957 101.361 335.957 103.815C335.957 106.273 337.93 108.246 340.384 108.246C342.837 108.246 344.805 106.273 344.805 103.815C344.805 103.574 344.635 103.399 344.39 103.399C344.154 103.399 343.999 103.574 343.999 103.815C343.999 105.828 342.392 107.44 340.384 107.44C338.376 107.44 336.763 105.828 336.763 103.815C336.763 101.807 338.376 100.199 340.384 100.199C340.764 100.199 341.115 100.229 341.415 100.295L339.918 101.782C339.843 101.862 339.803 101.962 339.803 102.067C339.803 102.298 339.973 102.468 340.199 102.468Z" fill="black"/>
<path d="M212.174 107.651H216.381C216.951 107.651 217.229 107.368 217.229 106.749V103.506C217.229 102.95 216.999 102.662 216.527 102.614V101.5C216.527 99.8347 215.435 99.0306 214.278 99.0306C213.12 99.0306 212.029 99.8347 212.029 101.5V102.636C211.596 102.702 211.326 102.985 211.326 103.506V106.749C211.326 107.368 211.605 107.651 212.174 107.651ZM212.74 101.408C212.74 100.299 213.451 99.711 214.278 99.711C215.104 99.711 215.815 100.299 215.815 101.408V102.609L212.74 102.614V101.408ZM225.017 106.752C226.385 106.752 227.281 105.645 227.281 103.958C227.281 102.26 226.39 101.163 225.017 101.163C224.276 101.163 223.62 101.529 223.325 102.11H223.245V99.1154H222.384V106.657H223.205V105.795H223.285C223.625 106.396 224.266 106.752 225.017 106.752ZM224.817 101.94C225.804 101.94 226.39 102.696 226.39 103.958C226.39 105.219 225.804 105.976 224.817 105.976C223.836 105.976 223.225 105.204 223.225 103.958C223.225 102.711 223.836 101.94 224.817 101.94ZM232.752 101.259H231.891V104.453C231.891 105.4 231.37 105.966 230.419 105.966C229.557 105.966 229.197 105.515 229.197 104.543V101.259H228.335V104.754C228.335 106.031 228.966 106.752 230.178 106.752C231.004 106.752 231.58 106.411 231.851 105.81H231.931V106.657H232.752V101.259ZM234.488 99.8615V101.259H233.616V101.98H234.488V105.255C234.488 106.286 234.933 106.697 236.045 106.697C236.215 106.697 236.38 106.677 236.551 106.647V105.921C236.39 105.936 236.305 105.941 236.15 105.941C235.589 105.941 235.349 105.67 235.349 105.034V101.98H236.551V101.259H235.349V99.8615H234.488ZM238.056 100.217C238.386 100.217 238.657 99.9467 238.657 99.6162C238.657 99.2857 238.386 99.0153 238.056 99.0153C237.725 99.0153 237.455 99.2857 237.455 99.6162C237.455 99.9467 237.725 100.217 238.056 100.217ZM237.625 106.657H238.487V101.259H237.625V106.657ZM240.873 103.617H240.793V99.1154H239.932V106.657H240.793V104.609L241.309 104.128L243.332 106.657H244.428L241.95 103.572L244.273 101.259H243.217L240.873 103.617ZM246.194 103.617H246.114V99.1154H245.253V106.657H246.114V104.609L246.63 104.128L248.653 106.657H249.749L247.271 103.572L249.594 101.259H248.538L246.194 103.617ZM253.849 105.26C253.623 105.735 253.152 105.991 252.456 105.991C251.54 105.991 250.944 105.315 250.899 104.248V104.208H254.78V103.877C254.78 102.2 253.894 101.163 252.436 101.163C250.954 101.163 250.003 102.265 250.003 103.963C250.003 105.67 250.939 106.752 252.436 106.752C253.618 106.752 254.459 106.181 254.71 105.26H253.849ZM252.426 101.925C253.283 101.925 253.854 102.556 253.874 103.512H250.899C250.964 102.556 251.565 101.925 252.426 101.925ZM255.885 106.657H256.746V103.462C256.746 102.515 257.302 101.94 258.163 101.94C259.024 101.94 259.435 102.4 259.435 103.372V106.657H260.296V103.161C260.296 101.88 259.62 101.163 258.408 101.163C257.582 101.163 257.056 101.514 256.786 102.11H256.706V101.259H255.885V106.657ZM262.337 106.707C262.698 106.707 262.988 106.411 262.988 106.056C262.988 105.695 262.698 105.405 262.337 105.405C261.982 105.405 261.686 105.695 261.686 106.056C261.686 106.411 261.982 106.707 262.337 106.707ZM264.423 106.657H265.285V103.462C265.285 102.515 265.84 101.94 266.702 101.94C267.563 101.94 267.974 102.4 267.974 103.372V106.657H268.835V103.161C268.835 101.88 268.159 101.163 266.947 101.163C266.121 101.163 265.595 101.514 265.325 102.11H265.245V101.259H264.423V106.657ZM272.383 106.752C273.92 106.752 274.872 105.69 274.872 103.958C274.872 102.22 273.92 101.163 272.383 101.163C270.846 101.163 269.894 102.22 269.894 103.958C269.894 105.69 270.846 106.752 272.383 106.752ZM272.383 105.976C271.362 105.976 270.786 105.235 270.786 103.958C270.786 102.676 271.362 101.94 272.383 101.94C273.405 101.94 273.981 102.676 273.981 103.958C273.981 105.235 273.405 105.976 272.383 105.976Z" fill="black"/>
</g>
<path opacity="0.35" d="M334.381 73.8391H344.435C345.157 73.8391 345.742 74.4243 345.742 75.1462V78.7657C345.742 79.4875 345.157 80.0727 344.435 80.0727H334.381C333.659 80.0727 333.074 79.4875 333.074 78.7657V75.1462C333.074 74.4243 333.659 73.8391 334.381 73.8391Z" stroke="black" stroke-width="0.603248"/>
<path opacity="0.4" d="M346.647 75.7494V78.1624C347.133 77.958 347.449 77.4826 347.449 76.9559C347.449 76.4292 347.133 75.9538 346.647 75.7494" fill="black"/>
<path d="M333.979 75.5483C333.979 75.1041 334.339 74.744 334.783 74.744H344.033C344.477 74.744 344.837 75.1041 344.837 75.5483V78.3635C344.837 78.8077 344.477 79.1678 344.033 79.1678H334.783C334.339 79.1678 333.979 78.8077 333.979 78.3635V75.5483Z" fill="black"/>
<path fill-rule="evenodd" clip-rule="evenodd" d="M325.129 74.9097C326.466 74.9097 327.752 75.4234 328.72 76.3444C328.793 76.4155 328.91 76.4146 328.982 76.3424L329.679 75.6386C329.716 75.602 329.736 75.5524 329.735 75.5007C329.735 75.4491 329.714 75.3997 329.678 75.3635C327.135 72.9267 323.123 72.9267 320.581 75.3635C320.544 75.3997 320.523 75.4491 320.522 75.5007C320.522 75.5523 320.542 75.602 320.579 75.6386L321.276 76.3424C321.348 76.4147 321.465 76.4156 321.538 76.3444C322.507 75.4233 323.792 74.9097 325.129 74.9097ZM325.129 77.1994C325.864 77.1994 326.572 77.4724 327.116 77.9653C327.19 78.0353 327.306 78.0338 327.378 77.9619L328.074 77.2581C328.111 77.2212 328.131 77.1711 328.131 77.1191C328.13 77.0671 328.109 77.0174 328.071 76.9812C326.414 75.4391 323.846 75.4391 322.188 76.9812C322.151 77.0174 322.13 77.0671 322.129 77.1191C322.129 77.1712 322.149 77.2213 322.186 77.2581L322.882 77.9619C322.954 78.0338 323.07 78.0353 323.143 77.9653C323.688 77.4727 324.395 77.1997 325.129 77.1994ZM326.525 78.74C326.526 78.7922 326.505 78.8425 326.468 78.8791L325.263 80.095C325.228 80.1307 325.179 80.1509 325.129 80.1509C325.079 80.1509 325.031 80.1307 324.995 80.095L323.79 78.8791C323.753 78.8425 323.733 78.7921 323.734 78.74C323.735 78.6878 323.757 78.6384 323.796 78.6034C324.566 77.9525 325.693 77.9525 326.462 78.6034C326.501 78.6384 326.523 78.6878 326.525 78.74Z" fill="black"/>
<path fill-rule="evenodd" clip-rule="evenodd" d="M316.887 73.7386H316.284C315.951 73.7386 315.681 74.0087 315.681 74.3418V79.57C315.681 79.9032 315.951 80.1732 316.284 80.1732H316.887C317.22 80.1732 317.491 79.9032 317.491 79.57V74.3418C317.491 74.0087 317.22 73.7386 316.887 73.7386ZM313.469 75.1462H314.072C314.405 75.1462 314.675 75.4163 314.675 75.7494V79.57C314.675 79.9032 314.405 80.1732 314.072 80.1732H313.469C313.136 80.1732 312.865 79.9032 312.865 79.57V75.7494C312.865 75.4163 313.136 75.1462 313.469 75.1462ZM311.257 76.5537H310.654C310.321 76.5537 310.051 76.8238 310.051 77.157V79.57C310.051 79.9031 310.321 80.1732 310.654 80.1732H311.257C311.59 80.1732 311.86 79.9031 311.86 79.57V77.157C311.86 76.8238 311.59 76.5537 311.257 76.5537ZM308.442 77.7602H307.839C307.505 77.7602 307.235 78.0303 307.235 78.3635V79.57C307.235 79.9031 307.505 80.1732 307.839 80.1732H308.442C308.775 80.1732 309.045 79.9031 309.045 79.57V78.3635C309.045 78.0303 308.775 77.7602 308.442 77.7602Z" fill="black"/>
<path d="M148.575 79.9234H149.715V73.5478H148.58L146.914 74.7186V75.7923L148.5 74.67H148.575V79.9234ZM152.849 77.078H153.649C154.435 77.078 154.912 77.4713 154.912 78.1119C154.912 78.7305 154.395 79.1458 153.662 79.1458C152.924 79.1458 152.425 78.7658 152.376 78.1738H151.285C151.338 79.327 152.288 80.0825 153.675 80.0825C155.054 80.0825 156.079 79.2872 156.079 78.1914C156.079 77.321 155.535 76.7599 154.669 76.6274V76.5523C155.345 76.3711 155.827 75.863 155.831 75.0942C155.836 74.1796 155.071 73.3887 153.715 73.3887C152.332 73.3887 151.466 74.1708 151.409 75.2886H152.478C152.526 74.6524 152.959 74.2989 153.653 74.2989C154.329 74.2989 154.731 74.7142 154.731 75.24C154.731 75.8188 154.28 76.2253 153.627 76.2253H152.849V77.078ZM157.98 75.7967C158.399 75.7967 158.687 75.5051 158.687 75.1119C158.687 74.7186 158.399 74.427 157.98 74.427C157.564 74.427 157.273 74.7186 157.273 75.1119C157.273 75.5051 157.564 75.7967 157.98 75.7967ZM157.98 79.0398C158.399 79.0398 158.687 78.7437 158.687 78.3549C158.687 77.9617 158.399 77.6701 157.98 77.6701C157.564 77.6701 157.273 77.9617 157.273 78.3549C157.273 78.7437 157.564 79.0398 157.98 79.0398ZM161.529 79.9234H162.668V73.5478H161.533L159.867 74.7186V75.7923L161.453 74.67H161.529V79.9234ZM164.273 75.4344H165.343C165.343 74.7628 165.784 74.3033 166.478 74.3033C167.145 74.3033 167.543 74.7496 167.543 75.3284C167.543 75.8144 167.348 76.1193 166.544 76.9322L164.335 79.1546V79.9234H168.762V78.9779H165.882V78.9028L167.251 77.5552C168.347 76.4816 168.67 75.9646 168.67 75.2223C168.67 74.1619 167.808 73.3887 166.54 73.3887C165.21 73.3887 164.273 74.2282 164.273 75.4344Z" fill="black"/>
<g filter="url(#filter3_b)">
<path fill-rule="evenodd" clip-rule="evenodd" d="M130.081 503.012H356.299V553.081H130.081V503.012Z" fill="#F9F9F9" fill-opacity="0.94"/>
</g>
<line opacity="0.3" x1="130.081" y1="502.861" x2="356.299" y2="502.861" stroke="black" stroke-width="0.301624"/>
<path fill-rule="evenodd" clip-rule="evenodd" d="M202.471 546.747C202.471 545.914 203.146 545.239 203.979 545.239H281.798C282.631 545.239 283.306 545.914 283.306 546.747V546.747C283.306 547.58 282.631 548.255 281.798 548.255H203.979C203.146 548.255 202.471 547.58 202.471 546.747V546.747Z" fill="black"/>
<path d="M333.122 520.143H334.32V521.258C334.32 522.593 335.001 523.267 336.355 523.267H343.276C344.63 523.267 345.311 522.593 345.311 521.258V514.369C345.311 513.041 344.63 512.367 343.276 512.367H342.077V511.317C342.077 509.982 341.39 509.308 340.043 509.308H333.122C331.761 509.308 331.087 509.982 331.087 511.317V518.141C331.087 519.476 331.761 520.143 333.122 520.143ZM333.135 519.1C332.487 519.1 332.13 518.756 332.13 518.083V511.376C332.13 510.702 332.487 510.352 333.135 510.352H340.023C340.665 510.352 341.034 510.702 341.034 511.376V512.367H336.355C335.001 512.367 334.32 513.034 334.32 514.369V519.1H333.135ZM336.375 522.223C335.727 522.223 335.364 521.873 335.364 521.2V514.428C335.364 513.754 335.727 513.41 336.375 513.41H343.263C343.905 513.41 344.268 513.754 344.268 514.428V521.206C344.268 521.873 343.905 522.223 343.263 522.223H336.375Z" fill="#007AFF"/>
<path d="M290.538 511.771C290.046 511.149 288.821 510.598 287.454 510.598C285.659 510.598 284.207 511.525 283.851 512.393V521.446C283.851 521.938 284.168 522.126 284.525 522.126C284.803 522.126 284.972 522.042 285.147 521.906C285.516 521.588 286.261 521.161 287.454 521.161C288.653 521.161 289.489 521.575 289.813 521.867C289.981 522.003 290.182 522.126 290.538 522.126C290.895 522.126 291.096 521.99 291.264 521.867C291.614 521.595 292.431 521.161 293.623 521.161C294.822 521.161 295.567 521.595 295.936 521.906C296.111 522.042 296.273 522.126 296.552 522.126C296.908 522.126 297.232 521.938 297.232 521.446V512.393C296.876 511.525 295.418 510.598 293.623 510.598C292.262 510.598 291.037 511.149 290.538 511.771ZM284.894 512.704C285.043 512.302 285.983 511.576 287.454 511.576C288.931 511.576 289.89 512.309 290.02 512.704V520.901C289.404 520.441 288.465 520.182 287.454 520.182C286.449 520.182 285.51 520.441 284.894 520.927V512.704ZM296.189 512.704V520.927C295.567 520.441 294.634 520.182 293.623 520.182C292.612 520.182 291.679 520.441 291.063 520.901V512.704C291.193 512.309 292.152 511.576 293.623 511.576C295.1 511.576 296.04 512.302 296.189 512.704Z" fill="#007AFF"/>
<path d="M243.492 518.096C243.771 518.096 244.004 517.862 244.004 517.59V510.935L243.965 509.963L244.399 510.423L245.384 511.473C245.475 511.576 245.611 511.628 245.734 511.628C246 511.628 246.207 511.434 246.207 511.168C246.207 511.032 246.149 510.928 246.052 510.831L243.862 508.719C243.732 508.589 243.622 508.544 243.492 508.544C243.356 508.544 243.246 508.589 243.116 508.719L240.926 510.831C240.829 510.928 240.77 511.032 240.77 511.168C240.77 511.434 240.965 511.628 241.237 511.628C241.36 511.628 241.503 511.576 241.593 511.473L242.578 510.423L243.013 509.963L242.974 510.935V517.59C242.974 517.862 243.214 518.096 243.492 518.096ZM239.773 523.17H247.205C248.56 523.17 249.24 522.496 249.24 521.161V514.693C249.24 513.358 248.56 512.685 247.205 512.685H245.397V513.728H247.186C247.827 513.728 248.197 514.078 248.197 514.752V521.102C248.197 521.776 247.827 522.126 247.186 522.126H239.785C239.137 522.126 238.781 521.776 238.781 521.102V514.752C238.781 514.078 239.137 513.728 239.785 513.728H241.581V512.685H239.773C238.418 512.685 237.738 513.358 237.738 514.693V521.161C237.738 522.496 238.418 523.17 239.773 523.17Z" fill="#007AFF"/>
<path d="M193.256 521.964C193.424 521.964 193.567 521.899 193.677 521.789L198.816 516.767C198.939 516.644 199.004 516.495 199.004 516.333C199.004 516.164 198.939 516.009 198.816 515.899L193.684 510.883C193.567 510.766 193.424 510.702 193.256 510.702C192.919 510.702 192.666 510.961 192.666 511.298C192.666 511.453 192.731 511.609 192.835 511.719L197.552 516.333L192.835 520.947C192.731 521.057 192.666 521.206 192.666 521.368C192.666 521.705 192.919 521.964 193.256 521.964Z" fill="#CBCBCB"/>
<path d="M150.337 521.783C150.447 521.893 150.589 521.958 150.758 521.958C151.095 521.958 151.348 521.705 151.348 521.368C151.348 521.206 151.283 521.057 151.179 520.947L146.461 516.333L151.179 511.719C151.283 511.609 151.348 511.453 151.348 511.298C151.348 510.961 151.095 510.702 150.758 510.702C150.589 510.702 150.447 510.766 150.337 510.877L145.204 515.899C145.081 516.002 145.01 516.164 145.01 516.333C145.01 516.495 145.075 516.644 145.198 516.767L150.337 521.783Z" fill="#007AFF"/>
</g>
</g>
<path fill-rule="evenodd" clip-rule="evenodd" d="M130.081 94.3536C130.081 83.1779 130.081 77.59 132.325 73.3523C134.136 69.9324 136.932 67.1357 140.352 65.325C144.59 63.0812 150.178 63.0812 161.353 63.0812H130.081V94.3536ZM130.081 521.646V552.919H161.353C150.178 552.919 144.59 552.919 140.352 550.675C136.932 548.864 134.136 546.068 132.325 542.648C130.081 538.41 130.081 532.822 130.081 521.646ZM325.027 552.919H356.299V521.646C356.299 532.822 356.299 538.41 354.055 542.648C352.245 546.068 349.448 548.864 346.028 550.675C341.79 552.919 336.202 552.919 325.027 552.919ZM356.299 94.3536V63.0812H325.027C336.202 63.0812 341.79 63.0812 346.028 65.325C349.448 67.1357 352.245 69.9324 354.055 73.3523C356.299 77.59 356.299 83.1779 356.299 94.3536ZM309.849 63.0812H305.626H180.754H176.531C178.863 63.0812 180.754 64.2877 180.754 66.0974V63.0812C180.754 67.5706 180.754 69.8153 181.291 71.6462C182.564 75.9797 185.953 79.3686 190.286 80.6411C192.117 81.1787 194.362 81.1787 198.851 81.1787H287.529C292.018 81.1787 294.263 81.1787 296.094 80.6411C300.427 79.3686 303.816 75.9797 305.089 71.6462C305.626 69.8153 305.626 67.5706 305.626 63.0812V66.0974C305.626 64.2877 307.517 63.0812 309.849 63.0812Z" fill="white"/>
<rect x="213.329" y="64.597" width="42.4417" height="5.45679" rx="2.7284" fill="#F0F3F5"/>
<path d="M268.807 71.5696C271.151 71.5696 273.051 69.6694 273.051 67.3254C273.051 64.9814 271.151 63.0812 268.807 63.0812C266.463 63.0812 264.562 64.9814 264.562 67.3254C264.562 69.6694 266.463 71.5696 268.807 71.5696Z" fill="#F0F3F5"/>
<defs>
<filter id="filter0_di" x="112.587" y="42.0034" width="264.79" height="529.616" filterUnits="userSpaceOnUse" color-interpolation-filters="sRGB">
<feFlood flood-opacity="0" result="BackgroundImageFix"/>
<feColorMatrix in="SourceAlpha" type="matrix" values="0 0 0 0 0 0 0 0 0 0 0 0 0 0 0 0 0 0 127 0"/>
<feOffset dy="1.2065"/>
<feGaussianBlur stdDeviation="1.2065"/>
<feColorMatrix type="matrix" values="0 0 0 0 0 0 0 0 0 0 0 0 0 0 0 0 0 0 0.25 0"/>
<feBlend mode="normal" in2="BackgroundImageFix" result="effect1_dropShadow"/>
<feBlend mode="normal" in="SourceGraphic" in2="effect1_dropShadow" result="shape"/>
<feColorMatrix in="SourceAlpha" type="matrix" values="0 0 0 0 0 0 0 0 0 0 0 0 0 0 0 0 0 0 127 0" result="hardAlpha"/>
<feOffset dx="10.2799" dy="-8.85216"/>
<feGaussianBlur stdDeviation="2.99831"/>
<feComposite in2="hardAlpha" operator="arithmetic" k2="-1" k3="1"/>
<feColorMatrix type="matrix" values="0 0 0 0 1 0 0 0 0 1 0 0 0 0 1 0 0 0 0.05 0"/>
<feBlend mode="normal" in2="shape" result="effect2_innerShadow"/>
</filter>
<filter id="filter1_dd" x="127.668" y="117.977" width="231.044" height="49.4664" filterUnits="userSpaceOnUse" color-interpolation-filters="sRGB">
<feFlood flood-opacity="0" result="BackgroundImageFix"/>
<feColorMatrix in="SourceAlpha" type="matrix" values="0 0 0 0 0 0 0 0 0 0 0 0 0 0 0 0 0 0 127 0"/>
<feOffset dy="0.603248"/>
<feGaussianBlur stdDeviation="1.2065"/>
<feColorMatrix type="matrix" values="0 0 0 0 0.0862745 0 0 0 0 0.0705882 0 0 0 0 0.145098 0 0 0 0.17 0"/>
<feBlend mode="normal" in2="BackgroundImageFix" result="effect1_dropShadow"/>
<feColorMatrix in="SourceAlpha" type="matrix" values="0 0 0 0 0 0 0 0 0 0 0 0 0 0 0 0 0 0 127 0"/>
<feOffset dy="0.603248"/>
<feGaussianBlur stdDeviation="0.301624"/>
<feColorMatrix type="matrix" values="0 0 0 0 0.0862745 0 0 0 0 0.0705882 0 0 0 0 0.145098 0 0 0 0.0498188 0"/>
<feBlend mode="normal" in2="effect1_dropShadow" result="effect2_dropShadow"/>
<feBlend mode="normal" in="SourceGraphic" in2="effect2_dropShadow" result="shape"/>
</filter>
<filter id="filter2_b" x="118.016" y="51.0162" width="250.348" height="80.8353" filterUnits="userSpaceOnUse" color-interpolation-filters="sRGB">
<feFlood flood-opacity="0" result="BackgroundImageFix"/>
<feGaussianBlur in="BackgroundImage" stdDeviation="6.03248"/>
<feComposite in2="SourceAlpha" operator="in" result="effect1_backgroundBlur"/>
<feBlend mode="normal" in="SourceGraphic" in2="effect1_backgroundBlur" result="shape"/>
</filter>
<filter id="filter3_b" x="118.016" y="490.947" width="250.348" height="74.1995" filterUnits="userSpaceOnUse" color-interpolation-filters="sRGB">
<feFlood flood-opacity="0" result="BackgroundImageFix"/>
<feGaussianBlur in="BackgroundImage" stdDeviation="6.03248"/>
<feComposite in2="SourceAlpha" operator="in" result="effect1_backgroundBlur"/>
<feBlend mode="normal" in="SourceGraphic" in2="effect1_backgroundBlur" result="shape"/>
</filter>
<clipPath id="clip0">
<rect x="130.081" y="63.0812" width="226.218" height="489.838" fill="white"/>
</clipPath>
<clipPath id="clip1">
<path d="M130.081 63.0812H356.299V552.919H130.081V63.0812Z" fill="white"/>
</clipPath>
</defs>
</svg>
