<svg width="487" height="616" viewBox="0 0 487 616" fill="none" xmlns="http://www.w3.org/2000/svg">
<rect width="486.381" height="616" rx="1" fill="#FFF4EC"/>
<g filter="url(#filter0_di)">
<rect x="115" y="48" width="256.381" height="520" rx="30.1624" fill="white"/>
</g>
<g clip-path="url(#clip0)">
<rect width="226.218" height="489.838" transform="translate(130.081 63.082)" fill="#938FA8"/>
<g clip-path="url(#clip1)">
<rect width="226.218" height="489.838" transform="translate(130.081 63.082)" fill="white"/>
<g filter="url(#filter1_dd)">
<rect x="130.081" y="119.787" width="226.218" height="44.6404" fill="white"/>
</g>
<path fill-rule="evenodd" clip-rule="evenodd" d="M172.508 133.059C171.731 133.059 171.102 133.688 171.102 134.464V147.132C171.102 147.909 171.731 148.538 172.508 148.538H177.08L178.341 149.793C178.472 149.926 178.652 150.001 178.839 150.001C179.026 150.001 179.205 149.926 179.336 149.793L180.597 148.532H185.17C185.946 148.532 186.575 147.903 186.575 147.126V134.458C186.572 133.684 185.944 133.059 185.17 133.059H172.508ZM175.723 137.282H181.96C182.276 137.281 182.538 137.522 182.564 137.837L183.064 143.869C183.078 144.037 183.02 144.203 182.906 144.327C182.791 144.451 182.63 144.521 182.461 144.521H175.222C175.053 144.521 174.892 144.451 174.777 144.327C174.663 144.203 174.605 144.037 174.619 143.869L175.119 137.837C175.145 137.522 175.408 137.281 175.723 137.282ZM176.429 139.091C176.429 138.758 176.699 138.488 177.032 138.488C177.365 138.488 177.635 138.758 177.635 139.091V139.695C177.635 140.361 178.175 140.901 178.842 140.901C179.508 140.901 180.048 140.361 180.048 139.695V139.091C180.048 138.758 180.318 138.488 180.651 138.488C180.985 138.488 181.255 138.758 181.255 139.091V139.695C181.255 141.027 180.174 142.108 178.842 142.108C177.509 142.108 176.429 141.027 176.429 139.695V139.091Z" fill="#6770E0"/>
<path d="M193.691 145.869V137.292H196.63C197.6 137.292 198.339 137.486 198.845 137.875C199.352 138.264 199.605 138.843 199.605 139.613C199.605 140.006 199.499 140.359 199.287 140.673C199.075 140.987 198.765 141.231 198.356 141.404C198.82 141.529 199.177 141.767 199.429 142.117C199.684 142.462 199.812 142.878 199.812 143.365C199.812 144.171 199.552 144.789 199.034 145.221C198.519 145.653 197.781 145.869 196.819 145.869H193.691ZM195.181 141.999V144.679H196.837C197.304 144.679 197.669 144.563 197.932 144.332C198.195 144.1 198.327 143.778 198.327 143.365C198.327 142.474 197.871 142.018 196.96 141.999H195.181ZM195.181 140.903H196.642C197.106 140.903 197.467 140.799 197.726 140.591C197.989 140.379 198.121 140.08 198.121 139.695C198.121 139.271 197.999 138.965 197.756 138.776C197.516 138.588 197.141 138.493 196.63 138.493H195.181V140.903ZM205.025 145.245C204.605 145.74 204.008 145.987 203.234 145.987C202.543 145.987 202.019 145.785 201.661 145.38C201.308 144.976 201.131 144.39 201.131 143.625V139.495H202.563V143.607C202.563 144.416 202.899 144.821 203.57 144.821C204.265 144.821 204.735 144.571 204.978 144.072V139.495H206.41V145.869H205.061L205.025 145.245ZM209.661 137.946V139.495H210.787V140.555H209.661V144.114C209.661 144.357 209.709 144.534 209.803 144.644C209.901 144.75 210.074 144.803 210.321 144.803C210.486 144.803 210.653 144.783 210.822 144.744V145.851C210.496 145.942 210.182 145.987 209.879 145.987C208.78 145.987 208.23 145.38 208.23 144.167V140.555H207.181V139.495H208.23V137.946H209.661ZM213.408 145.869H211.977V139.495H213.408V145.869ZM211.888 137.84C211.888 137.62 211.957 137.437 212.095 137.292C212.236 137.146 212.436 137.074 212.695 137.074C212.955 137.074 213.155 137.146 213.296 137.292C213.438 137.437 213.508 137.62 213.508 137.84C213.508 138.056 213.438 138.236 213.296 138.382C213.155 138.523 212.955 138.594 212.695 138.594C212.436 138.594 212.236 138.523 212.095 138.382C211.957 138.236 211.888 138.056 211.888 137.84ZM217.043 143.136L216.407 143.79V145.869H214.975V136.82H216.407V142.04L216.855 141.48L218.616 139.495H220.336L217.968 142.152L220.589 145.869H218.934L217.043 143.136ZM223.347 143.136L222.71 143.79V145.869H221.279V136.82H222.71V142.04L223.158 141.48L224.919 139.495H226.64L224.271 142.152L226.893 145.869H225.238L223.347 143.136ZM230.269 145.987C229.361 145.987 228.625 145.702 228.059 145.133C227.498 144.559 227.217 143.797 227.217 142.847V142.67C227.217 142.034 227.339 141.467 227.582 140.968C227.83 140.465 228.175 140.074 228.619 139.795C229.063 139.517 229.558 139.377 230.104 139.377C230.972 139.377 231.641 139.654 232.112 140.208C232.588 140.762 232.825 141.545 232.825 142.558V143.136H228.66C228.703 143.662 228.878 144.078 229.185 144.385C229.495 144.691 229.884 144.844 230.351 144.844C231.007 144.844 231.541 144.579 231.953 144.049L232.725 144.785C232.47 145.166 232.128 145.463 231.7 145.675C231.276 145.883 230.799 145.987 230.269 145.987ZM230.098 140.526C229.705 140.526 229.387 140.663 229.143 140.938C228.904 141.213 228.751 141.596 228.684 142.087H231.411V141.981C231.38 141.502 231.252 141.141 231.028 140.897C230.805 140.65 230.494 140.526 230.098 140.526ZM235.27 139.495L235.311 140.231C235.783 139.662 236.401 139.377 237.167 139.377C238.494 139.377 239.17 140.137 239.194 141.657V145.869H237.762V141.739C237.762 141.335 237.674 141.036 237.497 140.844C237.324 140.648 237.039 140.549 236.643 140.549C236.065 140.549 235.635 140.811 235.353 141.333V145.869H233.921V139.495H235.27ZM248.602 143.872H245.279L244.584 145.869H243.035L246.275 137.292H247.612L250.858 145.869H249.303L248.602 143.872ZM245.697 142.67H248.183L246.94 139.112L245.697 142.67ZM256.319 143.66C256.319 143.283 256.185 142.992 255.918 142.788C255.655 142.584 255.178 142.378 254.487 142.17C253.796 141.961 253.246 141.73 252.837 141.474C252.056 140.983 251.665 140.343 251.665 139.554C251.665 138.863 251.946 138.293 252.507 137.845C253.073 137.398 253.805 137.174 254.705 137.174C255.302 137.174 255.834 137.284 256.301 137.504C256.769 137.724 257.136 138.038 257.403 138.446C257.67 138.851 257.804 139.301 257.804 139.795H256.319C256.319 139.348 256.178 138.998 255.895 138.747C255.616 138.492 255.215 138.364 254.693 138.364C254.206 138.364 253.827 138.468 253.556 138.676C253.289 138.884 253.155 139.175 253.155 139.548C253.155 139.862 253.301 140.125 253.591 140.337C253.882 140.546 254.361 140.75 255.029 140.95C255.696 141.146 256.233 141.372 256.637 141.628C257.042 141.879 257.338 142.17 257.527 142.499C257.715 142.825 257.809 143.208 257.809 143.648C257.809 144.363 257.534 144.932 256.985 145.357C256.439 145.777 255.696 145.987 254.758 145.987C254.137 145.987 253.566 145.873 253.044 145.645C252.525 145.414 252.121 145.095 251.83 144.691C251.543 144.286 251.4 143.815 251.4 143.277H252.89C252.89 143.764 253.051 144.141 253.373 144.408C253.695 144.675 254.157 144.809 254.758 144.809C255.276 144.809 255.665 144.705 255.924 144.497C256.187 144.284 256.319 144.006 256.319 143.66Z" fill="black"/>
<path d="M329.757 135.471C329.424 135.471 329.153 135.742 329.153 136.074C329.153 136.406 329.424 136.677 329.757 136.677H331.095L332.679 143.011C332.813 143.549 333.294 143.916 333.847 143.916H340.766C341.31 143.916 341.772 143.556 341.916 143.03L343.48 137.28H333.376L333.678 138.487H341.916L340.766 142.71H333.847L332.264 136.376C332.13 135.838 331.649 135.471 331.095 135.471H329.757ZM340.012 143.916C339.02 143.916 338.202 144.734 338.202 145.726C338.202 146.718 339.02 147.536 340.012 147.536C341.004 147.536 341.822 146.718 341.822 145.726C341.822 144.734 341.004 143.916 340.012 143.916ZM334.583 143.916C333.59 143.916 332.773 144.734 332.773 145.726C332.773 146.718 333.59 147.536 334.583 147.536C335.575 147.536 336.392 146.718 336.392 145.726C336.392 144.734 335.575 143.916 334.583 143.916ZM334.583 145.123C334.922 145.123 335.186 145.387 335.186 145.726C335.186 146.065 334.922 146.329 334.583 146.329C334.243 146.329 333.979 146.065 333.979 145.726C333.979 145.387 334.243 145.123 334.583 145.123ZM340.012 145.123C340.351 145.123 340.615 145.387 340.615 145.726C340.615 146.065 340.351 146.329 340.012 146.329C339.672 146.329 339.409 146.065 339.409 145.726C339.409 145.387 339.672 145.123 340.012 145.123Z" fill="black"/>
<path d="M309.787 147.919L309.748 147.879L309.744 147.884M309.787 147.919L310.114 147.407M309.787 147.919C309.781 147.914 309.773 147.907 309.766 147.901C309.758 147.895 309.751 147.889 309.744 147.884M309.787 147.919L309.788 147.917C309.98 148.061 310.213 148.139 310.453 148.139L309.739 147.88L309.744 147.884M309.744 147.884L309.748 147.879L309.743 147.874L309.743 147.874L309.363 147.49L309.364 147.489L309.733 147.122L310.109 147.404L310.114 147.407M310.114 147.407L310.15 147.435C310.237 147.5 310.343 147.535 310.453 147.536C310.563 147.536 310.669 147.5 310.756 147.435L310.763 147.429L310.764 147.429L310.781 147.416C311.716 146.688 313.161 145.525 314.369 144.131C315.592 142.72 316.485 141.17 316.485 139.664C316.485 138.019 315.14 136.677 313.469 136.677C312.694 136.677 312.069 137.01 311.621 137.368C311.398 137.546 311.226 137.725 311.111 137.857C311.054 137.923 311.012 137.977 310.985 138.012C310.972 138.03 310.963 138.043 310.957 138.051L310.952 138.058L310.952 138.058C310.952 138.058 310.952 138.058 310.952 138.058L310.453 138.801L309.953 138.058C309.953 138.058 309.953 138.058 309.953 138.058L309.953 138.058L309.948 138.051C309.943 138.043 309.933 138.03 309.92 138.012C309.893 137.977 309.851 137.923 309.794 137.857C309.679 137.725 309.507 137.546 309.284 137.368C308.836 137.01 308.211 136.677 307.436 136.677C305.766 136.677 304.42 138.019 304.42 139.664C304.42 141.166 305.309 142.712 306.527 144.121C307.731 145.512 309.171 146.673 310.109 147.404L310.114 147.407Z" stroke="black" stroke-width="1.2065"/>
<path fill-rule="evenodd" clip-rule="evenodd" d="M286.926 138.487C286.926 139.154 286.386 139.694 285.719 139.694C285.053 139.694 284.513 139.154 284.513 138.487C284.513 137.821 285.053 137.281 285.719 137.281C286.386 137.281 286.926 137.821 286.926 138.487ZM288.132 138.487C288.132 139.82 287.052 140.9 285.719 140.9C284.387 140.9 283.307 139.82 283.307 138.487C283.307 137.155 284.387 136.074 285.719 136.074C287.052 136.074 288.132 137.155 288.132 138.487ZM281.046 146.933C281.581 144.851 283.471 143.313 285.719 143.313C287.968 143.313 289.858 144.851 290.393 146.933H281.046ZM285.719 142.107C288.638 142.107 291.072 144.179 291.631 146.933C291.71 147.323 291.752 147.726 291.752 148.139H290.545H280.894H279.687C279.687 147.726 279.729 147.323 279.808 146.933C280.367 144.179 282.801 142.107 285.719 142.107Z" fill="black"/>
<rect x="142.146" y="137.281" width="13.8747" height="1.2065" fill="black"/>
<rect x="142.146" y="141.504" width="13.8747" height="1.2065" fill="black"/>
<rect x="142.146" y="145.727" width="13.8747" height="1.2065" fill="black"/>
<path d="M159.037 254.312C159.037 252.623 159.037 251.778 159.366 251.133C159.655 250.566 160.116 250.104 160.684 249.815C161.329 249.486 162.174 249.486 163.863 249.486H322.517C324.207 249.486 325.051 249.486 325.696 249.815C326.264 250.104 326.725 250.566 327.015 251.133C327.343 251.778 327.343 252.623 327.343 254.312V273.616C327.343 275.306 327.343 276.15 327.015 276.795C326.725 277.363 326.264 277.824 325.696 278.113C325.051 278.442 324.207 278.442 322.517 278.442H163.863C162.174 278.442 161.329 278.442 160.684 278.113C160.116 277.824 159.655 277.363 159.366 276.795C159.037 276.15 159.037 275.306 159.037 273.616V254.312Z" fill="#FF5B24"/>
<path d="M189.236 267.509C191.051 267.509 192.353 266.457 192.56 264.882V264.844H191.182L191.176 264.871C190.975 265.738 190.234 266.293 189.236 266.293C187.896 266.293 187.062 265.176 187.062 263.384V263.373C187.062 261.585 187.896 260.468 189.231 260.468C190.223 260.468 190.975 261.084 191.176 262.016L191.182 262.038H192.56V261.994C192.375 260.386 191.018 259.253 189.231 259.253C187.002 259.253 185.623 260.828 185.623 263.378V263.389C185.623 265.928 187.008 267.509 189.236 267.509ZM196.44 267.432C198.221 267.432 199.306 266.266 199.306 264.337V264.326C199.306 262.408 198.216 261.242 196.44 261.242C194.669 261.242 193.573 262.414 193.573 264.326V264.337C193.573 266.266 194.652 267.432 196.44 267.432ZM196.44 266.332C195.497 266.332 194.957 265.596 194.957 264.343V264.332C194.957 263.078 195.497 262.337 196.44 262.337C197.377 262.337 197.916 263.078 197.916 264.332V264.343C197.916 265.596 197.382 266.332 196.44 266.332ZM200.547 267.312H201.904V263.841C201.904 262.948 202.406 262.381 203.212 262.381C204.035 262.381 204.411 262.85 204.411 263.776V267.312H205.768V263.46C205.768 262.043 205.043 261.242 203.714 261.242C202.853 261.242 202.28 261.629 201.997 262.266H201.904V261.356H200.547V267.312ZM209.593 267.34C209.854 267.34 210.105 267.318 210.301 267.28V266.234C210.137 266.25 210.034 266.255 209.843 266.255C209.276 266.255 209.042 266.005 209.042 265.411V262.408H210.301V261.356H209.042V259.896H207.663V261.356H206.737V262.408H207.663V265.732C207.663 266.882 208.225 267.34 209.593 267.34ZM212.229 260.359C212.671 260.359 213.036 260.005 213.036 259.558C213.036 259.117 212.671 258.757 212.229 258.757C211.782 258.757 211.417 259.117 211.417 259.558C211.417 260.005 211.782 260.359 212.229 260.359ZM211.548 267.312H212.905V261.356H211.548V267.312ZM214.452 267.312H215.809V263.841C215.809 262.948 216.31 262.381 217.116 262.381C217.939 262.381 218.315 262.85 218.315 263.776V267.312H219.672V263.46C219.672 262.043 218.947 261.242 217.618 261.242C216.757 261.242 216.185 261.629 215.901 262.266H215.809V261.356H214.452V267.312ZM223.126 267.432C223.987 267.432 224.592 267.045 224.87 266.408H224.963V267.312H226.319V261.356H224.963V264.828C224.963 265.721 224.494 266.288 223.617 266.288C222.799 266.288 222.456 265.819 222.456 264.898V261.356H221.099V265.209C221.099 266.626 221.786 267.432 223.126 267.432ZM230.406 267.432C232.024 267.432 232.82 266.501 233.01 265.732L233.027 265.683H231.735L231.719 265.721C231.588 265.994 231.169 266.364 230.433 266.364C229.512 266.364 228.934 265.743 228.918 264.675H233.081V264.228C233.081 262.43 232.035 261.242 230.34 261.242C228.646 261.242 227.561 262.468 227.561 264.343V264.348C227.561 266.244 228.635 267.432 230.406 267.432ZM230.357 262.305C231.114 262.305 231.664 262.79 231.757 263.765H228.929C229.032 262.817 229.599 262.305 230.357 262.305ZM238.306 267.312H239.711L240.867 262.997H240.959L242.12 267.312H243.542L245.155 261.356H243.809L242.823 265.83H242.73L241.575 261.356H240.284L239.139 265.83H239.047L238.055 261.356H236.693L238.306 267.312ZM246.915 260.359C247.356 260.359 247.721 260.005 247.721 259.558C247.721 259.117 247.356 258.757 246.915 258.757C246.468 258.757 246.103 259.117 246.103 259.558C246.103 260.005 246.468 260.359 246.915 260.359ZM246.233 267.312H247.59V261.356H246.233V267.312ZM251.48 267.34C251.742 267.34 251.993 267.318 252.189 267.28V266.234C252.025 266.25 251.922 266.255 251.731 266.255C251.164 266.255 250.93 266.005 250.93 265.411V262.408H252.189V261.356H250.93V259.896H249.551V261.356H248.625V262.408H249.551V265.732C249.551 266.882 250.113 267.34 251.48 267.34ZM253.474 267.312H254.831V263.841C254.831 262.948 255.332 262.381 256.139 262.381C256.962 262.381 257.338 262.85 257.338 263.776V267.312H258.694V263.46C258.694 262.043 257.97 261.242 256.64 261.242C255.779 261.242 255.207 261.629 254.923 262.266H254.831V259.051H253.474V267.312Z" fill="white"/>
<path fill-rule="evenodd" clip-rule="evenodd" d="M301.653 262.81C301.218 261.152 300.164 260.494 298.724 260.494C297.557 260.494 296.093 261.152 296.093 262.737C296.093 263.76 296.801 264.565 297.954 264.772L299.047 264.967C299.791 265.101 300.002 265.381 300.002 265.759C300.002 266.185 299.543 266.429 298.861 266.429C297.967 266.429 297.409 266.112 297.322 265.223L295.746 265.466C295.994 267.185 297.533 267.892 298.922 267.892C300.238 267.892 301.64 267.136 301.64 265.613C301.64 264.577 301.007 263.821 299.828 263.602L298.625 263.382C297.954 263.261 297.731 262.931 297.731 262.615C297.731 262.212 298.165 261.957 298.761 261.957C299.518 261.957 300.052 262.212 300.077 263.053L301.653 262.81ZM266.619 265.417L268.257 260.677H270.18L267.326 267.709H265.899L263.045 260.677H264.968L266.619 265.417ZM276.683 262.688C276.683 263.248 276.237 263.638 275.715 263.638C275.194 263.638 274.748 263.248 274.748 262.688C274.748 262.127 275.194 261.737 275.715 261.737C276.237 261.737 276.684 262.127 276.684 262.688H276.683ZM276.981 265.174C276.336 266.002 275.653 266.575 274.449 266.575C273.221 266.575 272.265 265.844 271.521 264.772C271.223 264.333 270.764 264.235 270.429 264.467C270.118 264.686 270.044 265.149 270.329 265.552C271.359 267.099 272.786 268.001 274.449 268.001C275.976 268.001 277.167 267.27 278.098 266.051C278.445 265.6 278.433 265.137 278.098 264.881C277.787 264.637 277.328 264.723 276.981 265.174ZM281.263 264.174C281.263 265.613 282.107 266.368 283.05 266.368C283.944 266.368 284.862 265.661 284.862 264.174C284.862 262.712 283.944 262.005 283.063 262.005C282.107 262.005 281.263 262.675 281.263 264.174ZM281.263 261.652V260.689H279.513V270.146H281.263V266.782C281.846 267.562 282.603 267.892 283.46 267.892C285.061 267.892 286.624 266.648 286.624 264.089C286.624 261.639 284.998 260.494 283.608 260.494C282.504 260.494 281.747 260.994 281.263 261.652ZM289.665 264.174C289.665 265.613 290.509 266.368 291.452 266.368C292.345 266.368 293.264 265.661 293.264 264.174C293.264 262.712 292.345 262.005 291.464 262.005C290.509 262.005 289.665 262.675 289.665 264.174H289.665ZM289.665 261.652V260.689H289.665H287.915V270.146H289.665V266.782C290.248 267.562 291.005 267.892 291.861 267.892C293.462 267.892 295.026 266.648 295.026 264.089C295.026 261.639 293.4 260.494 292.01 260.494C290.906 260.494 290.149 260.994 289.665 261.652Z" fill="white"/>
<path d="M173.364 327.881H170.39V330.313H173.844V331.053H169.485V324.191H173.797V324.935H170.39V327.141H173.364V327.881ZM176.455 328.494H174.156V327.782H176.455V328.494ZM177.936 325.953L177.959 326.519C178.333 326.079 178.837 325.859 179.472 325.859C180.185 325.859 180.671 326.132 180.928 326.679C181.098 326.434 181.318 326.236 181.588 326.085C181.861 325.935 182.183 325.859 182.554 325.859C183.673 325.859 184.241 326.451 184.26 327.636V331.053H183.388V327.688C183.388 327.323 183.305 327.052 183.139 326.872C182.972 326.69 182.692 326.599 182.3 326.599C181.976 326.599 181.707 326.696 181.494 326.891C181.28 327.083 181.156 327.342 181.121 327.669V331.053H180.245V327.711C180.245 326.97 179.882 326.599 179.156 326.599C178.584 326.599 178.193 326.843 177.983 327.33V331.053H177.111V325.953H177.936ZM188.535 331.053C188.485 330.952 188.444 330.773 188.412 330.515C188.007 330.936 187.523 331.147 186.961 331.147C186.458 331.147 186.045 331.006 185.721 330.723C185.401 330.437 185.241 330.076 185.241 329.639C185.241 329.108 185.442 328.696 185.844 328.404C186.249 328.109 186.818 327.961 187.55 327.961H188.398V327.56C188.398 327.256 188.307 327.014 188.125 326.835C187.943 326.652 187.674 326.561 187.319 326.561C187.008 326.561 186.747 326.64 186.537 326.797C186.326 326.954 186.221 327.144 186.221 327.367H185.344C185.344 327.113 185.434 326.868 185.613 326.632C185.795 326.393 186.04 326.205 186.348 326.067C186.659 325.928 187 325.859 187.371 325.859C187.958 325.859 188.419 326.007 188.752 326.302C189.085 326.594 189.258 326.998 189.27 327.513V329.86C189.27 330.329 189.33 330.701 189.449 330.977V331.053H188.535ZM187.088 330.388C187.361 330.388 187.621 330.318 187.866 330.176C188.111 330.035 188.288 329.851 188.398 329.625V328.578H187.715C186.647 328.578 186.113 328.891 186.113 329.516C186.113 329.79 186.204 330.003 186.386 330.157C186.568 330.311 186.802 330.388 187.088 330.388ZM191.391 331.053H190.519V325.953H191.391V331.053ZM190.449 324.601C190.449 324.459 190.491 324.34 190.576 324.243C190.664 324.145 190.793 324.097 190.962 324.097C191.132 324.097 191.261 324.145 191.349 324.243C191.437 324.34 191.481 324.459 191.481 324.601C191.481 324.742 191.437 324.86 191.349 324.954C191.261 325.049 191.132 325.096 190.962 325.096C190.793 325.096 190.664 325.049 190.576 324.954C190.491 324.86 190.449 324.742 190.449 324.601ZM193.545 331.053H192.673V323.814H193.545V331.053ZM200.101 331.053C200.051 330.952 200.01 330.773 199.979 330.515C199.573 330.936 199.089 331.147 198.527 331.147C198.024 331.147 197.611 331.006 197.288 330.723C196.967 330.437 196.807 330.076 196.807 329.639C196.807 329.108 197.008 328.696 197.41 328.404C197.815 328.109 198.384 327.961 199.116 327.961H199.964V327.56C199.964 327.256 199.873 327.014 199.691 326.835C199.509 326.652 199.24 326.561 198.885 326.561C198.574 326.561 198.313 326.64 198.103 326.797C197.892 326.954 197.787 327.144 197.787 327.367H196.911C196.911 327.113 197 326.868 197.179 326.632C197.361 326.393 197.606 326.205 197.914 326.067C198.225 325.928 198.566 325.859 198.937 325.859C199.525 325.859 199.985 326.007 200.318 326.302C200.651 326.594 200.824 326.998 200.836 327.513V329.86C200.836 330.329 200.896 330.701 201.015 330.977V331.053H200.101ZM198.654 330.388C198.928 330.388 199.187 330.318 199.432 330.176C199.677 330.035 199.854 329.851 199.964 329.625V328.578H199.281C198.213 328.578 197.679 328.891 197.679 329.516C197.679 329.79 197.77 330.003 197.952 330.157C198.134 330.311 198.368 330.388 198.654 330.388ZM201.798 328.461C201.798 327.678 201.983 327.05 202.354 326.576C202.725 326.098 203.21 325.859 203.81 325.859C204.407 325.859 204.88 326.063 205.229 326.472V323.814H206.101V331.053H205.3L205.257 330.506C204.908 330.933 204.423 331.147 203.801 331.147C203.21 331.147 202.728 330.905 202.354 330.421C201.983 329.937 201.798 329.306 201.798 328.527V328.461ZM202.67 328.56C202.67 329.138 202.789 329.59 203.028 329.917C203.267 330.244 203.597 330.407 204.018 330.407C204.571 330.407 204.974 330.159 205.229 329.662V327.32C204.968 326.839 204.568 326.599 204.027 326.599C203.6 326.599 203.267 326.764 203.028 327.094C202.789 327.424 202.67 327.912 202.67 328.56ZM207.053 328.461C207.053 327.678 207.238 327.05 207.609 326.576C207.98 326.098 208.465 325.859 209.065 325.859C209.662 325.859 210.135 326.063 210.484 326.472V323.814H211.356V331.053H210.555L210.512 330.506C210.163 330.933 209.678 331.147 209.056 331.147C208.465 331.147 207.983 330.905 207.609 330.421C207.238 329.937 207.053 329.306 207.053 328.527V328.461ZM207.925 328.56C207.925 329.138 208.044 329.59 208.283 329.917C208.522 330.244 208.852 330.407 209.273 330.407C209.826 330.407 210.229 330.159 210.484 329.662V327.32C210.223 326.839 209.823 326.599 209.282 326.599C208.855 326.599 208.522 326.764 208.283 327.094C208.044 327.424 207.925 327.912 207.925 328.56ZM214.985 326.736C214.853 326.714 214.71 326.703 214.556 326.703C213.984 326.703 213.596 326.946 213.392 327.433V331.053H212.52V325.953H213.368L213.383 326.543C213.668 326.087 214.074 325.859 214.598 325.859C214.768 325.859 214.897 325.881 214.985 325.925V326.736ZM217.62 331.147C216.928 331.147 216.366 330.921 215.932 330.468C215.499 330.013 215.282 329.405 215.282 328.644V328.484C215.282 327.978 215.378 327.528 215.57 327.132C215.764 326.733 216.035 326.422 216.38 326.198C216.729 325.972 217.106 325.859 217.511 325.859C218.174 325.859 218.689 326.078 219.057 326.514C219.425 326.951 219.608 327.576 219.608 328.39V328.753H216.154C216.167 329.256 216.313 329.662 216.592 329.973C216.875 330.281 217.233 330.435 217.667 330.435C217.975 330.435 218.235 330.373 218.449 330.247C218.663 330.121 218.85 329.955 219.01 329.747L219.542 330.162C219.115 330.819 218.474 331.147 217.62 331.147ZM217.511 326.576C217.159 326.576 216.864 326.704 216.625 326.962C216.386 327.216 216.239 327.575 216.182 328.036H218.737V327.971C218.711 327.528 218.592 327.185 218.378 326.943C218.165 326.698 217.876 326.576 217.511 326.576ZM223.398 329.7C223.398 329.464 223.308 329.282 223.129 329.153C222.953 329.021 222.644 328.908 222.201 328.814C221.761 328.72 221.411 328.607 221.15 328.475C220.892 328.343 220.7 328.186 220.575 328.004C220.452 327.821 220.391 327.604 220.391 327.353C220.391 326.935 220.567 326.582 220.919 326.293C221.274 326.004 221.726 325.859 222.276 325.859C222.854 325.859 223.322 326.008 223.681 326.307C224.042 326.605 224.223 326.987 224.223 327.452H223.346C223.346 327.213 223.244 327.008 223.04 326.835C222.839 326.662 222.584 326.576 222.276 326.576C221.959 326.576 221.711 326.645 221.532 326.783C221.352 326.921 221.263 327.102 221.263 327.325C221.263 327.535 221.346 327.694 221.513 327.801C221.679 327.908 221.979 328.01 222.413 328.107C222.85 328.205 223.203 328.321 223.473 328.456C223.743 328.591 223.943 328.754 224.072 328.946C224.204 329.135 224.27 329.366 224.27 329.639C224.27 330.094 224.087 330.46 223.723 330.737C223.359 331.01 222.886 331.147 222.304 331.147C221.896 331.147 221.535 331.075 221.22 330.93C220.906 330.786 220.66 330.585 220.481 330.327C220.305 330.066 220.217 329.785 220.217 329.483H221.089C221.104 329.776 221.22 330.008 221.437 330.181C221.657 330.351 221.946 330.435 222.304 330.435C222.634 330.435 222.898 330.369 223.096 330.237C223.297 330.102 223.398 329.923 223.398 329.7ZM228.182 329.7C228.182 329.464 228.092 329.282 227.913 329.153C227.737 329.021 227.428 328.908 226.985 328.814C226.545 328.72 226.194 328.607 225.934 328.475C225.676 328.343 225.484 328.186 225.359 328.004C225.236 327.821 225.175 327.604 225.175 327.353C225.175 326.935 225.351 326.582 225.703 326.293C226.058 326.004 226.51 325.859 227.06 325.859C227.638 325.859 228.106 326.008 228.464 326.307C228.826 326.605 229.006 326.987 229.006 327.452H228.13C228.13 327.213 228.028 327.008 227.823 326.835C227.622 326.662 227.368 326.576 227.06 326.576C226.743 326.576 226.494 326.645 226.315 326.783C226.136 326.921 226.047 327.102 226.047 327.325C226.047 327.535 226.13 327.694 226.296 327.801C226.463 327.908 226.763 328.01 227.197 328.107C227.633 328.205 227.987 328.321 228.257 328.456C228.527 328.591 228.727 328.754 228.856 328.946C228.987 329.135 229.053 329.366 229.053 329.639C229.053 330.094 228.871 330.46 228.507 330.737C228.142 331.01 227.669 331.147 227.088 331.147C226.68 331.147 226.318 331.075 226.004 330.93C225.69 330.786 225.443 330.585 225.264 330.327C225.088 330.066 225 329.785 225 329.483H225.872C225.888 329.776 226.004 330.008 226.221 330.181C226.441 330.351 226.73 330.435 227.088 330.435C227.418 330.435 227.682 330.369 227.88 330.237C228.081 330.102 228.182 329.923 228.182 329.7Z" fill="#938FA8"/>
<rect x="159.338" y="313.128" width="167.703" height="28.3527" rx="2.71462" stroke="#C9C6D7" stroke-width="0.603248"/>
<path d="M170.39 362.148V364.834H169.485V357.972H172.016C172.767 357.972 173.354 358.164 173.778 358.547C174.206 358.93 174.419 359.438 174.419 360.069C174.419 360.735 174.21 361.249 173.793 361.61C173.378 361.969 172.782 362.148 172.006 362.148H170.39ZM170.39 361.408H172.016C172.5 361.408 172.87 361.295 173.128 361.068C173.386 360.839 173.514 360.509 173.514 360.079C173.514 359.67 173.386 359.343 173.128 359.098C172.87 358.853 172.517 358.726 172.068 358.717H170.39V361.408ZM178.336 364.834C178.286 364.733 178.245 364.554 178.213 364.297C177.808 364.718 177.324 364.928 176.762 364.928C176.259 364.928 175.846 364.787 175.522 364.504C175.202 364.218 175.042 363.857 175.042 363.42C175.042 362.889 175.243 362.478 175.645 362.185C176.05 361.89 176.619 361.742 177.351 361.742H178.199V361.342C178.199 361.037 178.108 360.795 177.926 360.616C177.744 360.434 177.475 360.343 177.12 360.343C176.809 360.343 176.548 360.421 176.338 360.578C176.127 360.735 176.022 360.925 176.022 361.149H175.145C175.145 360.894 175.235 360.649 175.414 360.413C175.596 360.175 175.841 359.986 176.149 359.848C176.46 359.71 176.801 359.64 177.172 359.64C177.759 359.64 178.22 359.788 178.553 360.083C178.886 360.376 179.059 360.779 179.071 361.295V363.642C179.071 364.11 179.131 364.482 179.25 364.759V364.834H178.336ZM176.889 364.169C177.162 364.169 177.422 364.099 177.667 363.957C177.912 363.816 178.089 363.632 178.199 363.406V362.36H177.516C176.448 362.36 175.914 362.672 175.914 363.298C175.914 363.571 176.005 363.785 176.187 363.939C176.369 364.092 176.603 364.169 176.889 364.169ZM183.214 363.481C183.214 363.246 183.124 363.064 182.945 362.935C182.769 362.803 182.46 362.69 182.017 362.595C181.577 362.501 181.227 362.388 180.966 362.256C180.708 362.124 180.517 361.967 180.391 361.785C180.268 361.603 180.207 361.386 180.207 361.134C180.207 360.717 180.383 360.363 180.735 360.074C181.09 359.785 181.542 359.64 182.092 359.64C182.67 359.64 183.139 359.79 183.497 360.088C183.858 360.387 184.039 360.768 184.039 361.233H183.162C183.162 360.995 183.06 360.789 182.856 360.616C182.655 360.443 182.4 360.357 182.092 360.357C181.775 360.357 181.527 360.426 181.348 360.564C181.169 360.702 181.079 360.883 181.079 361.106C181.079 361.317 181.162 361.475 181.329 361.582C181.495 361.689 181.795 361.791 182.229 361.888C182.666 361.986 183.019 362.102 183.289 362.237C183.56 362.372 183.759 362.536 183.888 362.727C184.02 362.916 184.086 363.147 184.086 363.42C184.086 363.876 183.904 364.242 183.539 364.518C183.175 364.792 182.702 364.928 182.121 364.928C181.712 364.928 181.351 364.856 181.037 364.711C180.722 364.567 180.476 364.366 180.297 364.108C180.121 363.847 180.033 363.566 180.033 363.265H180.905C180.92 363.557 181.037 363.789 181.253 363.962C181.473 364.132 181.762 364.217 182.121 364.217C182.45 364.217 182.714 364.151 182.912 364.019C183.113 363.884 183.214 363.704 183.214 363.481ZM187.998 363.481C187.998 363.246 187.908 363.064 187.729 362.935C187.553 362.803 187.244 362.69 186.801 362.595C186.361 362.501 186.01 362.388 185.75 362.256C185.492 362.124 185.3 361.967 185.175 361.785C185.052 361.603 184.991 361.386 184.991 361.134C184.991 360.717 185.167 360.363 185.519 360.074C185.874 359.785 186.326 359.64 186.876 359.64C187.454 359.64 187.922 359.79 188.28 360.088C188.642 360.387 188.822 360.768 188.822 361.233H187.946C187.946 360.995 187.844 360.789 187.64 360.616C187.438 360.443 187.184 360.357 186.876 360.357C186.559 360.357 186.31 360.426 186.131 360.564C185.952 360.702 185.863 360.883 185.863 361.106C185.863 361.317 185.946 361.475 186.113 361.582C186.279 361.689 186.579 361.791 187.013 361.888C187.449 361.986 187.803 362.102 188.073 362.237C188.343 362.372 188.543 362.536 188.672 362.727C188.804 362.916 188.87 363.147 188.87 363.42C188.87 363.876 188.687 364.242 188.323 364.518C187.958 364.792 187.486 364.928 186.904 364.928C186.496 364.928 186.135 364.856 185.82 364.711C185.506 364.567 185.26 364.366 185.08 364.108C184.904 363.847 184.817 363.566 184.817 363.265H185.688C185.704 363.557 185.82 363.789 186.037 363.962C186.257 364.132 186.546 364.217 186.904 364.217C187.234 364.217 187.498 364.151 187.696 364.019C187.897 363.884 187.998 363.704 187.998 363.481ZM194.327 363.632L195.308 359.735H196.179L194.695 364.834H193.988L192.748 360.969L191.542 364.834H190.835L189.355 359.735H190.222L191.226 363.552L192.414 359.735H193.116L194.327 363.632ZM196.646 362.237C196.646 361.738 196.744 361.288 196.938 360.889C197.136 360.49 197.41 360.182 197.758 359.966C198.11 359.749 198.511 359.64 198.96 359.64C199.655 359.64 200.215 359.881 200.643 360.361C201.073 360.842 201.288 361.482 201.288 362.28V362.341C201.288 362.837 201.193 363.283 201.001 363.679C200.812 364.072 200.541 364.378 200.186 364.598C199.834 364.818 199.428 364.928 198.97 364.928C198.278 364.928 197.718 364.688 197.287 364.207C196.86 363.726 196.646 363.09 196.646 362.298V362.237ZM197.523 362.341C197.523 362.906 197.653 363.36 197.914 363.703C198.178 364.045 198.53 364.217 198.97 364.217C199.413 364.217 199.765 364.044 200.025 363.698C200.286 363.349 200.417 362.862 200.417 362.237C200.417 361.678 200.283 361.225 200.016 360.88C199.752 360.531 199.4 360.357 198.96 360.357C198.53 360.357 198.183 360.528 197.919 360.87C197.655 361.213 197.523 361.703 197.523 362.341ZM204.654 360.517C204.522 360.495 204.379 360.484 204.225 360.484C203.653 360.484 203.265 360.727 203.061 361.214V364.834H202.189V359.735H203.037L203.051 360.324C203.337 359.868 203.742 359.64 204.267 359.64C204.437 359.64 204.566 359.662 204.654 359.706V360.517ZM204.96 362.242C204.96 361.46 205.145 360.831 205.516 360.357C205.887 359.879 206.372 359.64 206.972 359.64C207.569 359.64 208.042 359.845 208.391 360.253V357.595H209.263V364.834H208.462L208.419 364.287C208.071 364.715 207.585 364.928 206.963 364.928C206.372 364.928 205.89 364.686 205.516 364.202C205.145 363.719 204.96 363.087 204.96 362.308V362.242ZM205.832 362.341C205.832 362.919 205.951 363.371 206.19 363.698C206.429 364.025 206.759 364.188 207.18 364.188C207.733 364.188 208.137 363.94 208.391 363.444V361.101C208.13 360.621 207.73 360.38 207.189 360.38C206.762 360.38 206.429 360.545 206.19 360.875C205.951 361.205 205.832 361.694 205.832 362.341Z" fill="#938FA8"/>
<rect x="159.338" y="346.91" width="167.703" height="28.3527" rx="2.71462" stroke="#C9C6D7" stroke-width="0.603248"/>
<path d="M206.543 435.106H204.127V437.65H203.083V431.646H206.898V432.487H204.127V434.273H206.543V435.106ZM207.351 435.378C207.351 434.941 207.438 434.548 207.611 434.199C207.784 433.847 208.028 433.577 208.341 433.391C208.654 433.201 209.015 433.106 209.421 433.106C210.024 433.106 210.511 433.3 210.885 433.687C211.262 434.075 211.465 434.589 211.496 435.23L211.5 435.465C211.5 435.905 211.415 436.298 211.244 436.644C211.076 436.991 210.835 437.259 210.518 437.448C210.205 437.638 209.842 437.733 209.43 437.733C208.8 437.733 208.296 437.524 207.916 437.106C207.54 436.685 207.351 436.126 207.351 435.428V435.378ZM208.353 435.465C208.353 435.924 208.448 436.284 208.638 436.545C208.828 436.804 209.092 436.933 209.43 436.933C209.768 436.933 210.03 436.801 210.217 436.537C210.407 436.273 210.502 435.887 210.502 435.378C210.502 434.927 210.404 434.57 210.209 434.306C210.017 434.042 209.754 433.91 209.421 433.91C209.094 433.91 208.834 434.041 208.642 434.302C208.45 434.56 208.353 434.948 208.353 435.465ZM214.683 434.104C214.551 434.082 214.415 434.071 214.275 434.071C213.816 434.071 213.507 434.247 213.347 434.599V437.65H212.345V433.188H213.302L213.327 433.687C213.569 433.3 213.904 433.106 214.333 433.106C214.476 433.106 214.594 433.125 214.687 433.164L214.683 434.104ZM215.059 435.386C215.059 434.694 215.221 434.141 215.545 433.729C215.872 433.314 216.305 433.106 216.844 433.106C217.353 433.106 217.753 433.283 218.044 433.638L218.09 433.188H218.993V437.514C218.993 438.1 218.81 438.562 218.444 438.9C218.081 439.238 217.591 439.407 216.972 439.407C216.645 439.407 216.325 439.338 216.011 439.201C215.701 439.066 215.464 438.889 215.302 438.669L215.776 438.067C216.084 438.433 216.463 438.615 216.914 438.615C217.247 438.615 217.51 438.525 217.702 438.343C217.894 438.164 217.991 437.901 217.991 437.551V437.25C217.702 437.572 217.317 437.733 216.836 437.733C216.314 437.733 215.886 437.525 215.553 437.11C215.224 436.695 215.059 436.12 215.059 435.386ZM216.057 435.473C216.057 435.921 216.147 436.274 216.329 436.533C216.513 436.789 216.767 436.916 217.092 436.916C217.496 436.916 217.795 436.743 217.991 436.397V434.434C217.801 434.096 217.504 433.927 217.1 433.927C216.77 433.927 216.513 434.057 216.329 434.318C216.147 434.58 216.057 434.964 216.057 435.473ZM219.838 435.378C219.838 434.941 219.925 434.548 220.098 434.199C220.271 433.847 220.514 433.577 220.828 433.391C221.141 433.201 221.501 433.106 221.908 433.106C222.51 433.106 222.998 433.3 223.372 433.687C223.749 434.075 223.952 434.589 223.982 435.23L223.987 435.465C223.987 435.905 223.901 436.298 223.731 436.644C223.563 436.991 223.321 437.259 223.005 437.448C222.692 437.638 222.329 437.733 221.916 437.733C221.287 437.733 220.782 437.524 220.403 437.106C220.026 436.685 219.838 436.126 219.838 435.428V435.378ZM220.84 435.465C220.84 435.924 220.935 436.284 221.125 436.545C221.314 436.804 221.578 436.933 221.916 436.933C222.255 436.933 222.517 436.801 222.704 436.537C222.894 436.273 222.989 435.887 222.989 435.378C222.989 434.927 222.891 434.57 222.696 434.306C222.503 434.042 222.241 433.91 221.908 433.91C221.581 433.91 221.321 434.041 221.129 434.302C220.936 434.56 220.84 434.948 220.84 435.465ZM226.09 432.104V433.188H226.877V433.931H226.09V436.422C226.09 436.592 226.123 436.716 226.189 436.793C226.257 436.867 226.378 436.904 226.552 436.904C226.667 436.904 226.784 436.89 226.902 436.863V437.638C226.674 437.701 226.454 437.733 226.242 437.733C225.473 437.733 225.088 437.308 225.088 436.459V433.931H224.354V433.188H225.088V432.104H226.09ZM228.902 432.104V433.188H229.69V433.931H228.902V436.422C228.902 436.592 228.935 436.716 229.001 436.793C229.07 436.867 229.191 436.904 229.364 436.904C229.479 436.904 229.596 436.89 229.714 436.863V437.638C229.486 437.701 229.266 437.733 229.055 437.733C228.285 437.733 227.9 437.308 227.9 436.459V433.931H227.166V433.188H227.9V432.104H228.902ZM232.424 437.733C231.789 437.733 231.273 437.534 230.877 437.135C230.484 436.734 230.288 436.2 230.288 435.535V435.411C230.288 434.966 230.373 434.569 230.543 434.219C230.717 433.868 230.958 433.594 231.269 433.399C231.58 433.204 231.926 433.106 232.308 433.106C232.916 433.106 233.385 433.3 233.715 433.687C234.047 434.075 234.214 434.624 234.214 435.333V435.737H231.298C231.328 436.105 231.451 436.397 231.665 436.611C231.882 436.826 232.154 436.933 232.482 436.933C232.941 436.933 233.315 436.747 233.603 436.376L234.143 436.892C233.965 437.158 233.726 437.366 233.426 437.514C233.129 437.66 232.795 437.733 232.424 437.733ZM232.304 433.91C232.029 433.91 231.807 434.006 231.636 434.199C231.468 434.391 231.361 434.659 231.315 435.003H233.224V434.929C233.202 434.593 233.112 434.34 232.956 434.17C232.799 433.997 232.582 433.91 232.304 433.91ZM235.925 433.188L235.954 433.704C236.284 433.305 236.717 433.106 237.253 433.106C238.182 433.106 238.655 433.638 238.671 434.702V437.65H237.669V434.76C237.669 434.476 237.607 434.268 237.484 434.133C237.363 433.995 237.163 433.927 236.886 433.927C236.482 433.927 236.181 434.109 235.983 434.475V437.65H234.981V433.188H235.925ZM245.706 435.465C245.706 436.155 245.55 436.706 245.236 437.118C244.923 437.528 244.502 437.733 243.974 437.733C243.485 437.733 243.093 437.572 242.799 437.25V439.366H241.797V433.188H242.721L242.762 433.642C243.056 433.285 243.456 433.106 243.962 433.106C244.506 433.106 244.933 433.309 245.24 433.716C245.551 434.12 245.706 434.683 245.706 435.403V435.465ZM244.709 435.378C244.709 434.933 244.619 434.58 244.44 434.318C244.265 434.057 244.012 433.927 243.682 433.927C243.272 433.927 242.978 434.096 242.799 434.434V436.413C242.981 436.76 243.278 436.933 243.69 436.933C244.009 436.933 244.258 436.805 244.436 436.549C244.618 436.291 244.709 435.901 244.709 435.378ZM249.224 437.65C249.18 437.565 249.142 437.426 249.109 437.234C248.79 437.567 248.399 437.733 247.937 437.733C247.489 437.733 247.124 437.605 246.841 437.349C246.557 437.094 246.416 436.778 246.416 436.401C246.416 435.925 246.592 435.561 246.944 435.308C247.298 435.052 247.804 434.925 248.461 434.925H249.076V434.632C249.076 434.401 249.011 434.217 248.882 434.079C248.753 433.939 248.556 433.869 248.292 433.869C248.064 433.869 247.877 433.927 247.731 434.042C247.586 434.155 247.513 434.299 247.513 434.475H246.511C246.511 434.23 246.592 434.002 246.754 433.791C246.916 433.576 247.136 433.408 247.414 433.287C247.694 433.166 248.006 433.106 248.35 433.106C248.872 433.106 249.289 433.238 249.599 433.502C249.91 433.763 250.069 434.131 250.078 434.607V436.619C250.078 437.021 250.134 437.341 250.247 437.58V437.65H249.224ZM248.123 436.929C248.321 436.929 248.507 436.881 248.68 436.784C248.856 436.688 248.988 436.559 249.076 436.397V435.556H248.535C248.164 435.556 247.885 435.62 247.698 435.749C247.511 435.879 247.418 436.061 247.418 436.298C247.418 436.49 247.481 436.644 247.608 436.76C247.737 436.872 247.909 436.929 248.123 436.929ZM253.628 436.438C253.628 436.259 253.554 436.123 253.406 436.03C253.26 435.936 253.017 435.854 252.676 435.782C252.335 435.711 252.05 435.62 251.822 435.51C251.322 435.268 251.071 434.918 251.071 434.459C251.071 434.074 251.234 433.752 251.558 433.494C251.882 433.235 252.295 433.106 252.795 433.106C253.329 433.106 253.759 433.238 254.086 433.502C254.416 433.766 254.581 434.108 254.581 434.529H253.579C253.579 434.336 253.507 434.177 253.364 434.05C253.221 433.921 253.032 433.857 252.795 433.857C252.575 433.857 252.395 433.907 252.255 434.009C252.118 434.111 252.049 434.247 252.049 434.417C252.049 434.571 252.113 434.691 252.243 434.776C252.372 434.861 252.633 434.948 253.026 435.036C253.419 435.121 253.727 435.224 253.95 435.345C254.175 435.463 254.342 435.606 254.449 435.774C254.559 435.942 254.614 436.145 254.614 436.384C254.614 436.786 254.447 437.112 254.115 437.362C253.782 437.609 253.346 437.733 252.808 437.733C252.442 437.733 252.116 437.667 251.83 437.535C251.544 437.403 251.322 437.222 251.162 436.991C251.003 436.76 250.923 436.511 250.923 436.244H251.896C251.91 436.481 251.999 436.663 252.164 436.793C252.329 436.919 252.548 436.982 252.82 436.982C253.084 436.982 253.285 436.933 253.422 436.834C253.559 436.732 253.628 436.6 253.628 436.438ZM257.991 436.438C257.991 436.259 257.917 436.123 257.768 436.03C257.623 435.936 257.379 435.854 257.039 435.782C256.698 435.711 256.413 435.62 256.185 435.51C255.685 435.268 255.434 434.918 255.434 434.459C255.434 434.074 255.597 433.752 255.921 433.494C256.245 433.235 256.658 433.106 257.158 433.106C257.692 433.106 258.122 433.238 258.449 433.502C258.779 433.766 258.944 434.108 258.944 434.529H257.942C257.942 434.336 257.87 434.177 257.727 434.05C257.584 433.921 257.395 433.857 257.158 433.857C256.938 433.857 256.758 433.907 256.618 434.009C256.48 434.111 256.412 434.247 256.412 434.417C256.412 434.571 256.476 434.691 256.606 434.776C256.735 434.861 256.996 434.948 257.389 435.036C257.782 435.121 258.09 435.224 258.313 435.345C258.538 435.463 258.705 435.606 258.812 435.774C258.922 435.942 258.977 436.145 258.977 436.384C258.977 436.786 258.81 437.112 258.478 437.362C258.145 437.609 257.709 437.733 257.171 437.733C256.805 437.733 256.479 437.667 256.193 437.535C255.907 437.403 255.685 437.222 255.525 436.991C255.366 436.76 255.286 436.511 255.286 436.244H256.259C256.273 436.481 256.362 436.663 256.527 436.793C256.692 436.919 256.911 436.982 257.183 436.982C257.447 436.982 257.648 436.933 257.785 436.834C257.922 436.732 257.991 436.6 257.991 436.438ZM263.773 436.269L264.482 433.188H265.459L264.243 437.65H263.418L262.461 434.586L261.521 437.65H260.696L259.476 433.188H260.453L261.175 436.236L262.09 433.188H262.845L263.773 436.269ZM265.942 435.378C265.942 434.941 266.028 434.548 266.202 434.199C266.375 433.847 266.618 433.577 266.931 433.391C267.245 433.201 267.605 433.106 268.012 433.106C268.614 433.106 269.102 433.3 269.476 433.687C269.853 434.075 270.056 434.589 270.086 435.23L270.09 435.465C270.09 435.905 270.005 436.298 269.835 436.644C269.667 436.991 269.425 437.259 269.109 437.448C268.795 437.638 268.433 437.733 268.02 437.733C267.391 437.733 266.886 437.524 266.507 437.106C266.13 436.685 265.942 436.126 265.942 435.428V435.378ZM266.944 435.465C266.944 435.924 267.039 436.284 267.228 436.545C267.418 436.804 267.682 436.933 268.02 436.933C268.358 436.933 268.621 436.801 268.808 436.537C268.998 436.273 269.092 435.887 269.092 435.378C269.092 434.927 268.995 434.57 268.8 434.306C268.607 434.042 268.345 433.91 268.012 433.91C267.685 433.91 267.425 434.041 267.233 434.302C267.04 434.56 266.944 434.948 266.944 435.465ZM273.274 434.104C273.142 434.082 273.006 434.071 272.866 434.071C272.406 434.071 272.097 434.247 271.938 434.599V437.65H270.936V433.188H271.892L271.917 433.687C272.159 433.3 272.494 433.106 272.923 433.106C273.066 433.106 273.185 433.125 273.278 433.164L273.274 434.104ZM273.637 435.386C273.637 434.699 273.796 434.148 274.115 433.733C274.434 433.315 274.861 433.106 275.398 433.106C275.87 433.106 276.253 433.271 276.544 433.601V431.316H277.546V437.65H276.639L276.589 437.189C276.29 437.551 275.89 437.733 275.389 437.733C274.867 437.733 274.444 437.523 274.119 437.102C273.798 436.681 273.637 436.109 273.637 435.386ZM274.639 435.473C274.639 435.927 274.725 436.281 274.899 436.537C275.075 436.79 275.323 436.916 275.645 436.916C276.055 436.916 276.354 436.734 276.544 436.368V434.463C276.36 434.105 276.063 433.927 275.653 433.927C275.329 433.927 275.079 434.056 274.903 434.314C274.727 434.57 274.639 434.956 274.639 435.473ZM279.521 435.885C279.521 435.52 279.567 435.228 279.657 435.011C279.748 434.794 279.927 434.556 280.194 434.298C280.463 434.037 280.633 433.851 280.705 433.741C280.815 433.573 280.87 433.392 280.87 433.197C280.87 432.938 280.805 432.742 280.676 432.607C280.55 432.47 280.363 432.401 280.115 432.401C279.879 432.401 279.688 432.468 279.542 432.603C279.399 432.735 279.328 432.915 279.328 433.143H278.325C278.331 432.657 278.496 432.272 278.82 431.988C279.147 431.705 279.579 431.564 280.115 431.564C280.668 431.564 281.098 431.704 281.406 431.984C281.717 432.265 281.872 432.657 281.872 433.16C281.872 433.608 281.663 434.049 281.245 434.483L280.738 434.982C280.556 435.189 280.463 435.49 280.457 435.885H279.521ZM279.451 437.168C279.451 437.006 279.502 436.875 279.604 436.776C279.706 436.674 279.843 436.624 280.016 436.624C280.192 436.624 280.331 436.676 280.433 436.78C280.534 436.882 280.585 437.011 280.585 437.168C280.585 437.319 280.536 437.446 280.437 437.547C280.338 437.649 280.198 437.7 280.016 437.7C279.835 437.7 279.695 437.649 279.596 437.547C279.499 437.446 279.451 437.319 279.451 437.168Z" fill="#6770E0"/>
<rect x="203.074" y="390.043" width="80.232" height="28.9559" rx="3.01624" fill="#EFEEF3"/>
<path d="M231.441 406.591H234.557V407.543H230.249V400.681H231.441V406.591ZM234.953 404.946C234.953 404.447 235.052 403.997 235.25 403.598C235.448 403.196 235.726 402.888 236.084 402.675C236.442 402.458 236.854 402.349 237.319 402.349C238.007 402.349 238.564 402.571 238.992 403.014C239.422 403.457 239.655 404.044 239.689 404.777L239.694 405.045C239.694 405.548 239.596 405.997 239.402 406.393C239.21 406.789 238.934 407.095 238.572 407.312C238.214 407.529 237.799 407.637 237.328 407.637C236.609 407.637 236.032 407.398 235.598 406.921C235.168 406.44 234.953 405.801 234.953 405.003V404.946ZM236.098 405.045C236.098 405.57 236.206 405.981 236.423 406.28C236.64 406.575 236.942 406.723 237.328 406.723C237.714 406.723 238.015 406.572 238.228 406.27C238.445 405.969 238.553 405.527 238.553 404.946C238.553 404.431 238.442 404.022 238.219 403.721C237.999 403.419 237.699 403.268 237.319 403.268C236.945 403.268 236.648 403.418 236.428 403.716C236.208 404.011 236.098 404.454 236.098 405.045ZM240.269 404.956C240.269 404.164 240.454 403.532 240.825 403.061C241.199 402.587 241.694 402.349 242.31 402.349C242.891 402.349 243.348 402.552 243.681 402.957L243.733 402.444H244.765V407.387C244.765 408.057 244.556 408.585 244.138 408.971C243.724 409.357 243.163 409.551 242.456 409.551C242.082 409.551 241.716 409.472 241.358 409.315C241.003 409.161 240.732 408.958 240.547 408.707L241.089 408.019C241.441 408.437 241.875 408.646 242.39 408.646C242.77 408.646 243.07 408.542 243.29 408.335C243.51 408.131 243.62 407.829 243.62 407.43V407.086C243.29 407.453 242.85 407.637 242.3 407.637C241.703 407.637 241.215 407.4 240.835 406.926C240.458 406.451 240.269 405.794 240.269 404.956ZM241.41 405.055C241.41 405.567 241.513 405.97 241.721 406.266C241.931 406.558 242.222 406.704 242.592 406.704C243.054 406.704 243.397 406.506 243.62 406.11V403.867C243.403 403.48 243.064 403.287 242.602 403.287C242.225 403.287 241.931 403.436 241.721 403.735C241.513 404.033 241.41 404.473 241.41 405.055ZM249.181 407.543H248.036V402.444H249.181V407.543ZM247.966 401.119C247.966 400.943 248.021 400.797 248.13 400.681C248.244 400.565 248.404 400.507 248.611 400.507C248.819 400.507 248.979 400.565 249.092 400.681C249.205 400.797 249.262 400.943 249.262 401.119C249.262 401.292 249.205 401.437 249.092 401.553C248.979 401.666 248.819 401.723 248.611 401.723C248.404 401.723 248.244 401.666 248.13 401.553C248.021 401.437 247.966 401.292 247.966 401.119ZM251.302 402.444L251.335 403.033C251.712 402.577 252.207 402.349 252.82 402.349C253.882 402.349 254.422 402.957 254.441 404.173V407.543H253.296V404.239C253.296 403.916 253.225 403.677 253.084 403.523C252.946 403.366 252.718 403.287 252.401 403.287C251.939 403.287 251.595 403.496 251.368 403.914V407.543H250.223V402.444H251.302Z" fill="#938FA8"/>
<path d="M242.252 298.592C243.563 298.592 244.368 297.714 244.368 296.271V296.263C244.368 294.819 243.559 293.941 242.252 293.941C240.941 293.941 240.133 294.823 240.133 296.263V296.271C240.133 297.714 240.937 298.592 242.252 298.592ZM242.252 297.846C241.481 297.846 241.048 297.265 241.048 296.271V296.263C241.048 295.269 241.481 294.687 242.252 294.687C243.019 294.687 243.456 295.269 243.456 296.263V296.271C243.456 297.26 243.019 297.846 242.252 297.846ZM245.436 298.506H246.331V295.83C246.331 295.182 246.797 294.761 247.481 294.761C247.65 294.761 247.803 294.782 247.964 294.815V293.99C247.873 293.97 247.716 293.949 247.572 293.949C246.974 293.949 246.557 294.23 246.397 294.704H246.331V294.027H245.436V298.506Z" fill="#706B8B"/>
<path d="M226.748 215.211H231.42V216.639H224.959V206.346H226.748V215.211ZM232.304 212.743C232.304 211.994 232.452 211.32 232.749 210.722C233.046 210.118 233.463 209.657 234.001 209.336C234.538 209.011 235.155 208.848 235.853 208.848C236.885 208.848 237.721 209.181 238.362 209.845C239.008 210.51 239.357 211.391 239.409 212.489L239.416 212.892C239.416 213.646 239.27 214.32 238.977 214.914C238.69 215.508 238.275 215.967 237.733 216.292C237.196 216.617 236.574 216.78 235.867 216.78C234.788 216.78 233.923 216.422 233.273 215.706C232.627 214.984 232.304 214.025 232.304 212.828V212.743ZM234.022 212.892C234.022 213.679 234.184 214.296 234.51 214.744C234.835 215.187 235.287 215.409 235.867 215.409C236.447 215.409 236.897 215.182 237.217 214.73C237.542 214.278 237.705 213.615 237.705 212.743C237.705 211.971 237.538 211.358 237.203 210.905C236.873 210.453 236.423 210.227 235.853 210.227C235.292 210.227 234.847 210.451 234.517 210.898C234.187 211.341 234.022 212.006 234.022 212.892ZM240.568 212.758C240.568 211.57 240.846 210.623 241.402 209.916C241.963 209.204 242.705 208.848 243.629 208.848C244.501 208.848 245.187 209.152 245.686 209.76L245.764 208.99H247.312V216.405C247.312 217.409 246.999 218.201 246.372 218.781C245.75 219.36 244.909 219.65 243.848 219.65C243.287 219.65 242.738 219.532 242.201 219.297C241.669 219.066 241.263 218.762 240.985 218.385L241.798 217.353C242.326 217.979 242.976 218.293 243.749 218.293C244.32 218.293 244.77 218.137 245.099 217.826C245.429 217.52 245.594 217.068 245.594 216.469V215.953C245.099 216.504 244.44 216.78 243.615 216.78C242.719 216.78 241.987 216.424 241.416 215.713C240.851 215.001 240.568 214.016 240.568 212.758ZM242.279 212.906C242.279 213.674 242.434 214.28 242.745 214.723C243.061 215.161 243.497 215.38 244.053 215.38C244.746 215.38 245.26 215.083 245.594 214.49V211.125C245.269 210.545 244.76 210.255 244.067 210.255C243.502 210.255 243.061 210.479 242.745 210.927C242.434 211.374 242.279 212.034 242.279 212.906ZM254.516 216.639H252.798V208.99H254.516V216.639ZM252.692 207.003C252.692 206.739 252.774 206.52 252.939 206.346C253.109 206.171 253.349 206.084 253.66 206.084C253.971 206.084 254.212 206.171 254.382 206.346C254.551 206.52 254.636 206.739 254.636 207.003C254.636 207.262 254.551 207.479 254.382 207.654C254.212 207.823 253.971 207.908 253.66 207.908C253.349 207.908 253.109 207.823 252.939 207.654C252.774 207.479 252.692 207.262 252.692 207.003ZM257.987 208.99L258.036 209.873C258.602 209.19 259.344 208.848 260.263 208.848C261.856 208.848 262.667 209.76 262.695 211.584V216.639H260.977V211.683C260.977 211.198 260.871 210.839 260.659 210.609C260.452 210.373 260.11 210.255 259.634 210.255C258.941 210.255 258.425 210.568 258.086 211.195V216.639H256.368V208.99H257.987Z" fill="black"/>
<g filter="url(#filter2_b)">
<path fill-rule="evenodd" clip-rule="evenodd" d="M130.081 63.082H356.299V119.787H130.081V63.082Z" fill="#F9F9F9" fill-opacity="0.94"/>
</g>
<line opacity="0.3" x1="130.081" y1="119.939" x2="356.299" y2="119.939" stroke="black" stroke-width="0.301624"/>
<mask id="mask0" mask-type="alpha" maskUnits="userSpaceOnUse" x="136" y="92" width="215" height="22">
<path fill-rule="evenodd" clip-rule="evenodd" d="M136.114 98.0696C136.114 94.7379 138.815 92.0371 142.146 92.0371H344.234C347.566 92.0371 350.267 94.7379 350.267 98.0696V107.722C350.267 111.053 347.566 113.754 344.234 113.754H142.146C138.815 113.754 136.114 111.053 136.114 107.722V98.0696Z" fill="white"/>
</mask>
<g mask="url(#mask0)">
<path fill-rule="evenodd" clip-rule="evenodd" d="M136.114 101.689C136.114 98.3106 136.114 96.6213 136.771 95.3309C137.35 94.1958 138.272 93.273 139.408 92.6946C140.698 92.0371 142.387 92.0371 145.766 92.0371H340.615C343.993 92.0371 345.683 92.0371 346.973 92.6946C348.108 93.273 349.031 94.1958 349.609 95.3309C350.267 96.6213 350.267 98.3106 350.267 101.689V104.102C350.267 107.481 350.267 109.17 349.609 110.46C349.031 111.595 348.108 112.518 346.973 113.097C345.683 113.754 343.993 113.754 340.615 113.754H145.766C142.387 113.754 140.698 113.754 139.408 113.097C138.272 112.518 137.35 111.595 136.771 110.46C136.114 109.17 136.114 107.481 136.114 104.102V101.689Z" fill="#767680" fill-opacity="0.12"/>
<path d="M147.965 106.532C148.225 106.532 148.36 106.432 148.456 106.156L149.102 104.384H152.056L152.702 106.156C152.797 106.432 152.927 106.532 153.188 106.532C153.453 106.532 153.623 106.372 153.623 106.121C153.623 106.036 153.608 105.961 153.568 105.851L151.22 99.6016C151.105 99.2911 150.899 99.1409 150.579 99.1409C150.268 99.1409 150.058 99.2911 149.948 99.5966L147.599 105.856C147.559 105.966 147.544 106.041 147.544 106.126C147.544 106.377 147.704 106.532 147.965 106.532ZM149.347 103.628L150.564 100.258H150.589L151.806 103.628H149.347ZM142.632 106.617C142.837 106.617 142.967 106.512 143.053 106.266L143.468 105.04H145.426L145.842 106.266C145.937 106.517 146.057 106.617 146.267 106.617C146.518 106.617 146.688 106.462 146.688 106.236C146.688 106.136 146.668 106.041 146.623 105.936L145.066 101.8C144.95 101.494 144.74 101.334 144.445 101.334C144.154 101.334 143.954 101.489 143.829 101.8L142.271 105.936C142.231 106.031 142.216 106.131 142.216 106.236C142.216 106.467 142.377 106.617 142.632 106.617ZM143.689 104.389L144.39 102.301H144.505L145.206 104.389H143.689Z" fill="black"/>
<path d="M340.199 102.468C340.324 102.468 340.419 102.428 340.489 102.353L342.552 100.28C342.642 100.195 342.677 100.095 342.677 99.9798C342.677 99.8696 342.632 99.7595 342.552 99.6793L340.489 97.5862C340.419 97.5061 340.319 97.4661 340.199 97.4661C339.973 97.4661 339.803 97.6463 339.803 97.8767C339.803 97.9818 339.843 98.082 339.913 98.1621L341.25 99.474C340.965 99.424 340.674 99.3939 340.384 99.3939C337.93 99.3939 335.957 101.362 335.957 103.815C335.957 106.274 337.93 108.247 340.384 108.247C342.837 108.247 344.805 106.274 344.805 103.815C344.805 103.575 344.635 103.4 344.39 103.4C344.154 103.4 343.999 103.575 343.999 103.815C343.999 105.828 342.392 107.441 340.384 107.441C338.376 107.441 336.763 105.828 336.763 103.815C336.763 101.808 338.376 100.2 340.384 100.2C340.764 100.2 341.115 100.23 341.415 100.295L339.918 101.782C339.843 101.863 339.803 101.963 339.803 102.068C339.803 102.298 339.973 102.468 340.199 102.468Z" fill="black"/>
<path d="M212.169 107.652H216.375C216.945 107.652 217.224 107.37 217.224 106.751V103.508C217.224 102.951 216.994 102.664 216.521 102.615V101.502C216.521 99.8363 215.43 99.0322 214.272 99.0322C213.115 99.0322 212.023 99.8363 212.023 101.502V102.638C211.59 102.704 211.321 102.987 211.321 103.508V106.751C211.321 107.37 211.599 107.652 212.169 107.652ZM212.735 101.409C212.735 100.3 213.446 99.7126 214.272 99.7126C215.098 99.7126 215.81 100.3 215.81 101.409V102.611L212.735 102.615V101.409ZM225.012 106.753C226.379 106.753 227.275 105.647 227.275 103.964V103.954C227.275 102.262 226.384 101.165 225.012 101.165C224.271 101.165 223.625 101.536 223.33 102.111H223.249V99.117H222.378V106.658H223.249V105.797H223.33C223.66 106.398 224.261 106.753 225.012 106.753ZM224.812 105.982C223.83 105.982 223.229 105.211 223.229 103.964V103.954C223.229 102.707 223.83 101.936 224.812 101.936C225.798 101.936 226.384 102.697 226.384 103.954V103.964C226.384 105.221 225.798 105.982 224.812 105.982ZM230.188 106.753C230.979 106.753 231.525 106.428 231.79 105.852H231.87V106.658H232.742V101.26H231.87V104.455C231.87 105.401 231.364 105.982 230.413 105.982C229.552 105.982 229.201 105.517 229.201 104.545V101.26H228.33V104.755C228.33 106.032 228.961 106.753 230.188 106.753ZM236.039 106.698C236.21 106.698 236.375 106.678 236.545 106.648V105.907C236.385 105.922 236.3 105.927 236.145 105.927C235.584 105.927 235.363 105.672 235.363 105.036V101.981H236.545V101.26H235.363V99.8631H234.462V101.26H233.611V101.981H234.462V105.256C234.462 106.288 234.928 106.698 236.039 106.698ZM238.06 100.219C238.391 100.219 238.661 99.9482 238.661 99.6178C238.661 99.2873 238.391 99.0169 238.06 99.0169C237.73 99.0169 237.46 99.2873 237.46 99.6178C237.46 99.9482 237.73 100.219 238.06 100.219ZM237.62 106.658H238.491V101.26H237.62V106.658ZM239.936 106.658H240.808V104.61L241.313 104.119L243.336 106.658H244.433L241.924 103.529L244.278 101.26H243.221L240.888 103.619H240.808V99.117H239.936V106.658ZM245.257 106.658H246.129V104.61L246.634 104.119L248.657 106.658H249.754L247.245 103.529L249.599 101.26H248.542L246.209 103.619H246.129V99.117H245.257V106.658ZM252.481 106.753C253.753 106.753 254.524 106.032 254.709 105.301L254.719 105.261H253.848L253.828 105.306C253.683 105.632 253.232 105.977 252.501 105.977C251.54 105.977 250.924 105.326 250.899 104.21H254.784V103.869C254.784 102.257 253.893 101.165 252.426 101.165C250.959 101.165 250.007 102.307 250.007 103.974V103.979C250.007 105.672 250.939 106.753 252.481 106.753ZM252.421 101.941C253.217 101.941 253.808 102.447 253.898 103.514H250.914C251.009 102.487 251.62 101.941 252.421 101.941ZM255.889 106.658H256.76V103.463C256.76 102.517 257.306 101.936 258.167 101.936C259.029 101.936 259.429 102.402 259.429 103.373V106.658H260.301V103.163C260.301 101.881 259.625 101.165 258.413 101.165C257.617 101.165 257.111 101.501 256.84 102.071H256.76V101.26H255.889V106.658ZM262.342 106.708C262.702 106.708 262.993 106.413 262.993 106.057C262.993 105.697 262.702 105.406 262.342 105.406C261.986 105.406 261.691 105.697 261.691 106.057C261.691 106.413 261.986 106.708 262.342 106.708ZM264.428 106.658H265.299V103.463C265.299 102.517 265.845 101.936 266.706 101.936C267.567 101.936 267.968 102.402 267.968 103.373V106.658H268.839V103.163C268.839 101.881 268.163 101.165 266.952 101.165C266.155 101.165 265.65 101.501 265.379 102.071H265.299V101.26H264.428V106.658ZM272.388 106.753C273.925 106.753 274.876 105.692 274.876 103.964V103.954C274.876 102.222 273.925 101.165 272.388 101.165C270.85 101.165 269.899 102.222 269.899 103.954V103.964C269.899 105.692 270.85 106.753 272.388 106.753ZM272.388 105.982C271.366 105.982 270.79 105.236 270.79 103.964V103.954C270.79 102.677 271.366 101.936 272.388 101.936C273.409 101.936 273.985 102.677 273.985 103.954V103.964C273.985 105.236 273.409 105.982 272.388 105.982Z" fill="black"/>
</g>
<path opacity="0.35" d="M333.074 75.1477C333.074 74.4259 333.659 73.8407 334.381 73.8407H344.435C345.157 73.8407 345.742 74.4259 345.742 75.1477V78.7672C345.742 79.4891 345.157 80.0743 344.435 80.0743H334.381C333.659 80.0743 333.074 79.4891 333.074 78.7672V75.1477Z" stroke="black" stroke-width="0.603248"/>
<path opacity="0.4" d="M346.647 75.75V78.163C347.132 77.9586 347.448 77.4832 347.448 76.9565C347.448 76.4298 347.132 75.9544 346.647 75.75Z" fill="black"/>
<path d="M333.979 75.5504C333.979 75.1062 334.339 74.7461 334.783 74.7461H344.033C344.477 74.7461 344.837 75.1062 344.837 75.5504V78.3656C344.837 78.8098 344.477 79.1699 344.033 79.1699H334.783C334.339 79.1699 333.979 78.8098 333.979 78.3656V75.5504Z" fill="black"/>
<path fill-rule="evenodd" clip-rule="evenodd" d="M325.13 74.9109C326.466 74.911 327.752 75.4246 328.721 76.3456C328.794 76.4167 328.91 76.4158 328.982 76.3436L329.68 75.6398C329.716 75.6032 329.736 75.5536 329.736 75.502C329.736 75.4503 329.715 75.4009 329.678 75.3647C327.135 72.9279 323.124 72.9279 320.581 75.3647C320.544 75.4009 320.523 75.4503 320.523 75.5019C320.523 75.5535 320.543 75.6032 320.579 75.6398L321.277 76.3436C321.349 76.4159 321.465 76.4168 321.538 76.3456C322.507 75.4245 323.793 74.9109 325.13 74.9109ZM325.129 77.2004C325.864 77.2004 326.572 77.4734 327.117 77.9663C327.19 78.0363 327.306 78.0348 327.378 77.9629L328.075 77.2591C328.111 77.2222 328.132 77.1721 328.131 77.1201C328.13 77.0681 328.109 77.0184 328.072 76.9822C326.414 75.4401 323.846 75.4401 322.189 76.9822C322.151 77.0184 322.13 77.0681 322.129 77.1201C322.129 77.1722 322.149 77.2223 322.186 77.2591L322.882 77.9629C322.954 78.0348 323.07 78.0363 323.144 77.9663C323.688 77.4737 324.396 77.2007 325.129 77.2004ZM326.525 78.7409C326.526 78.793 326.505 78.8434 326.468 78.8799L325.263 80.0959C325.228 80.1316 325.18 80.1517 325.13 80.1517C325.079 80.1517 325.031 80.1316 324.996 80.0959L323.791 78.8799C323.753 78.8433 323.733 78.793 323.734 78.7408C323.735 78.6886 323.758 78.6392 323.797 78.6042C324.566 77.9534 325.693 77.9534 326.462 78.6042C326.501 78.6392 326.524 78.6887 326.525 78.7409Z" fill="black"/>
<path fill-rule="evenodd" clip-rule="evenodd" d="M316.887 73.7402H316.284C315.95 73.7402 315.68 74.0103 315.68 74.3435V79.5716C315.68 79.9048 315.95 80.1749 316.284 80.1749H316.887C317.22 80.1749 317.49 79.9048 317.49 79.5716V74.3435C317.49 74.0103 317.22 73.7402 316.887 73.7402ZM313.469 75.1482H314.072C314.405 75.1482 314.675 75.4183 314.675 75.7515V79.572C314.675 79.9052 314.405 80.1753 314.072 80.1753H313.469C313.135 80.1753 312.865 79.9052 312.865 79.572V75.7515C312.865 75.4183 313.135 75.1482 313.469 75.1482ZM311.256 76.555H310.653C310.32 76.555 310.05 76.8251 310.05 77.1582V79.5712C310.05 79.9044 310.32 80.1745 310.653 80.1745H311.256C311.59 80.1745 311.86 79.9044 311.86 79.5712V77.1582C311.86 76.8251 311.59 76.555 311.256 76.555ZM308.441 77.7615H307.838C307.505 77.7615 307.235 78.0316 307.235 78.3647V79.5712C307.235 79.9044 307.505 80.1745 307.838 80.1745H308.441C308.775 80.1745 309.045 79.9044 309.045 79.5712V78.3647C309.045 78.0316 308.775 77.7615 308.441 77.7615Z" fill="black"/>
<path d="M148.619 79.9238H149.759V73.5482H148.623L146.958 74.719V75.7927L148.544 74.6704H148.619V79.9238ZM153.692 80.052C155.106 80.052 156.074 79.2699 156.074 78.1477V78.1388C156.074 77.2552 155.451 76.6985 154.514 76.6101V76.588C155.278 76.4289 155.848 75.9032 155.848 75.1123V75.1034C155.848 74.1049 154.996 73.4201 153.683 73.4201C152.398 73.4201 151.527 74.1447 151.43 75.2492L151.426 75.2978H152.486L152.491 75.2537C152.548 74.6837 153.012 74.3258 153.683 74.3258C154.364 74.3258 154.757 74.6704 154.757 75.2537V75.2625C154.757 75.8192 154.289 76.2169 153.586 76.2169H152.857V77.0652H153.608C154.426 77.0652 154.921 77.4363 154.921 78.1079V78.1167C154.921 78.7088 154.43 79.1197 153.692 79.1197C152.946 79.1197 152.446 78.7353 152.384 78.1963L152.38 78.1477H151.293L151.298 78.2007C151.382 79.292 152.296 80.052 153.692 80.052ZM157.984 75.7927C158.39 75.7927 158.686 75.4834 158.686 75.0946C158.686 74.7014 158.39 74.3965 157.984 74.3965C157.581 74.3965 157.281 74.7014 157.281 75.0946C157.281 75.4834 157.581 75.7927 157.984 75.7927ZM157.984 79.0711C158.39 79.0711 158.686 78.7662 158.686 78.373C158.686 77.9798 158.39 77.6749 157.984 77.6749C157.581 77.6749 157.281 77.9798 157.281 78.373C157.281 78.7662 157.581 79.0711 157.984 79.0711ZM161.555 79.9238H162.694V73.5482H161.559L159.893 74.719V75.7927L161.479 74.6704H161.555V79.9238ZM164.321 79.9238H168.749V78.9783H165.863V78.8855L167.14 77.6484C168.302 76.5306 168.651 75.9562 168.651 75.2316V75.2183C168.651 74.1447 167.759 73.3891 166.517 73.3891C165.187 73.3891 164.26 74.2198 164.26 75.4083L164.264 75.4216L165.324 75.426L165.329 75.4083C165.329 74.75 165.784 74.3037 166.46 74.3037C167.123 74.3037 167.525 74.7279 167.525 75.3155V75.3288C167.525 75.8192 167.282 76.1417 166.416 77.0166L164.321 79.155V79.9238Z" fill="black"/>
<g filter="url(#filter3_b)">
<path fill-rule="evenodd" clip-rule="evenodd" d="M130.081 503.013H356.299V553.082H130.081V503.013Z" fill="#F9F9F9" fill-opacity="0.94"/>
</g>
<line opacity="0.3" x1="130.081" y1="502.862" x2="356.299" y2="502.862" stroke="black" stroke-width="0.301624"/>
<path fill-rule="evenodd" clip-rule="evenodd" d="M202.471 546.748C202.471 545.915 203.146 545.24 203.979 545.24H281.798C282.631 545.24 283.306 545.915 283.306 546.748C283.306 547.581 282.631 548.256 281.798 548.256H203.979C203.146 548.256 202.471 547.581 202.471 546.748Z" fill="black"/>
<path d="M333.38 520.131H334.488V521.123C334.488 522.458 335.162 523.132 336.523 523.132H343.029C344.377 523.132 345.058 522.458 345.058 521.123V514.565C345.058 513.23 344.377 512.556 343.029 512.556H341.915V511.565C341.915 510.23 341.234 509.556 339.886 509.556H333.38C332.02 509.556 331.346 510.23 331.346 511.565V518.123C331.346 519.457 332.02 520.131 333.38 520.131ZM333.393 519.088C332.745 519.088 332.389 518.738 332.389 518.064V511.623C332.389 510.949 332.745 510.599 333.393 510.599H339.867C340.509 510.599 340.871 510.949 340.871 511.623V512.556H336.523C335.162 512.556 334.488 513.223 334.488 514.565V519.088H333.393ZM336.536 522.088C335.895 522.088 335.532 521.738 335.532 521.065V514.623C335.532 513.949 335.895 513.599 336.536 513.599H343.01C343.651 513.599 344.014 513.949 344.014 514.623V521.065C344.014 521.738 343.651 522.088 343.01 522.088H336.536Z" fill="#007AFF"/>
<path d="M290.545 511.422C290.007 510.761 288.692 510.165 287.221 510.165C285.283 510.165 283.728 511.156 283.345 512.096V521.829C283.345 522.361 283.689 522.568 284.071 522.568C284.376 522.568 284.544 522.477 284.732 522.335C285.186 521.959 285.937 521.525 287.221 521.525C288.517 521.525 289.385 521.952 289.761 522.289C289.942 522.438 290.163 522.568 290.545 522.568C290.927 522.568 291.135 522.419 291.323 522.289C291.731 521.978 292.573 521.525 293.863 521.525C295.152 521.525 295.917 521.965 296.351 522.335C296.546 522.477 296.714 522.568 297.012 522.568C297.394 522.568 297.738 522.361 297.738 521.829V512.096C297.356 511.156 295.8 510.165 293.863 510.165C292.398 510.165 291.083 510.761 290.545 511.422ZM284.466 512.426C284.622 511.992 285.639 511.215 287.221 511.215C288.815 511.215 289.845 511.999 289.981 512.426V521.265C289.307 520.766 288.303 520.481 287.221 520.481C286.138 520.481 285.134 520.766 284.466 521.291V512.426ZM296.617 512.426V521.291C295.949 520.766 294.945 520.481 293.863 520.481C292.781 520.481 291.783 520.766 291.102 521.265V512.426C291.238 511.999 292.275 511.215 293.863 511.215C295.45 511.215 296.461 511.992 296.617 512.426Z" fill="#007AFF"/>
<path d="M243.492 518.097C243.77 518.097 244.004 517.863 244.004 517.591V510.936L243.965 509.964L244.405 510.424L245.384 511.474C245.475 511.578 245.611 511.629 245.734 511.629C246.006 511.629 246.207 511.435 246.207 511.169C246.207 511.033 246.155 510.929 246.058 510.832L243.868 508.72C243.738 508.59 243.621 508.545 243.492 508.545C243.362 508.545 243.245 508.59 243.116 508.72L240.926 510.832C240.828 510.929 240.77 511.033 240.77 511.169C240.77 511.435 240.971 511.629 241.237 511.629C241.366 511.629 241.502 511.578 241.593 511.474L242.578 510.424L243.019 509.964L242.973 510.936V517.591C242.973 517.863 243.213 518.097 243.492 518.097ZM239.772 523.171H247.205C248.559 523.171 249.24 522.497 249.24 521.162V514.694C249.24 513.36 248.559 512.686 247.205 512.686H245.397V513.729H247.185C247.827 513.729 248.196 514.079 248.196 514.753V521.103C248.196 521.777 247.827 522.127 247.185 522.127H239.785C239.137 522.127 238.781 521.777 238.781 521.103V514.753C238.781 514.079 239.137 513.729 239.785 513.729H241.58V512.686H239.772C238.418 512.686 237.737 513.36 237.737 514.694V521.162C237.737 522.497 238.418 523.171 239.772 523.171Z" fill="#007AFF"/>
<path d="M193.256 521.965C193.424 521.965 193.567 521.9 193.677 521.79L198.816 516.768C198.939 516.645 199.004 516.496 199.004 516.334C199.004 516.166 198.939 516.01 198.816 515.9L193.684 510.884C193.567 510.767 193.424 510.703 193.256 510.703C192.919 510.703 192.666 510.962 192.666 511.299C192.666 511.454 192.731 511.61 192.835 511.72L197.552 516.334L192.835 520.948C192.731 521.058 192.666 521.207 192.666 521.369C192.666 521.706 192.919 521.965 193.256 521.965Z" fill="#CBCBCB"/>
<path d="M150.337 521.784L145.198 516.768C145.075 516.645 145.01 516.496 145.01 516.334C145.01 516.166 145.081 516.003 145.204 515.9L150.337 510.878C150.447 510.767 150.589 510.703 150.758 510.703C151.095 510.703 151.348 510.962 151.348 511.299C151.348 511.454 151.283 511.61 151.179 511.72L146.461 516.334L151.179 520.948C151.283 521.058 151.348 521.207 151.348 521.369C151.348 521.706 151.095 521.959 150.758 521.959C150.589 521.959 150.447 521.894 150.337 521.784Z" fill="#007AFF"/>
</g>
</g>
<path fill-rule="evenodd" clip-rule="evenodd" d="M130.081 94.3544C130.081 83.1787 130.081 77.5908 132.325 73.3531C134.136 69.9332 136.932 67.1365 140.352 65.3258C144.59 63.082 150.178 63.082 161.353 63.082H130.081V94.3544ZM130.081 521.647V552.92H161.353C150.178 552.92 144.59 552.92 140.352 550.676C136.932 548.865 134.136 546.068 132.325 542.649C130.081 538.411 130.081 532.823 130.081 521.647ZM325.027 552.92H356.299V521.647C356.299 532.823 356.299 538.411 354.055 542.649C352.245 546.068 349.448 548.865 346.028 550.676C341.79 552.92 336.202 552.92 325.027 552.92ZM356.299 94.3544V63.082H325.027C336.202 63.082 341.79 63.082 346.028 65.3258C349.448 67.1365 352.245 69.9332 354.055 73.3531C356.299 77.5908 356.299 83.1787 356.299 94.3544ZM309.849 63.082H305.626H180.754H176.531C178.863 63.082 180.754 64.2885 180.754 66.0983V63.082C180.754 67.5715 180.754 69.8162 181.291 71.647C182.564 75.9805 185.953 79.3695 190.286 80.6419C192.117 81.1795 194.362 81.1795 198.851 81.1795H287.529C292.018 81.1795 294.263 81.1795 296.094 80.6419C300.427 79.3695 303.816 75.9805 305.089 71.647C305.626 69.8162 305.626 67.5715 305.626 63.082V66.0983C305.626 64.2885 307.517 63.082 309.849 63.082Z" fill="white"/>
<rect x="213.33" y="64.5977" width="42.4417" height="5.45679" rx="2.7284" fill="#F0F3F5"/>
<path d="M268.807 71.5704C271.151 71.5704 273.051 69.6702 273.051 67.3262C273.051 64.9822 271.151 63.082 268.807 63.082C266.463 63.082 264.562 64.9822 264.562 67.3262C264.562 69.6702 266.463 71.5704 268.807 71.5704Z" fill="#F0F3F5"/>
<defs>
<filter id="filter0_di" x="112.587" y="42.0034" width="264.79" height="529.616" filterUnits="userSpaceOnUse" color-interpolation-filters="sRGB">
<feFlood flood-opacity="0" result="BackgroundImageFix"/>
<feColorMatrix in="SourceAlpha" type="matrix" values="0 0 0 0 0 0 0 0 0 0 0 0 0 0 0 0 0 0 127 0"/>
<feOffset dy="1.2065"/>
<feGaussianBlur stdDeviation="1.2065"/>
<feColorMatrix type="matrix" values="0 0 0 0 0 0 0 0 0 0 0 0 0 0 0 0 0 0 0.25 0"/>
<feBlend mode="normal" in2="BackgroundImageFix" result="effect1_dropShadow"/>
<feBlend mode="normal" in="SourceGraphic" in2="effect1_dropShadow" result="shape"/>
<feColorMatrix in="SourceAlpha" type="matrix" values="0 0 0 0 0 0 0 0 0 0 0 0 0 0 0 0 0 0 127 0" result="hardAlpha"/>
<feOffset dx="10.2799" dy="-8.85216"/>
<feGaussianBlur stdDeviation="2.99831"/>
<feComposite in2="hardAlpha" operator="arithmetic" k2="-1" k3="1"/>
<feColorMatrix type="matrix" values="0 0 0 0 1 0 0 0 0 1 0 0 0 0 1 0 0 0 0.05 0"/>
<feBlend mode="normal" in2="shape" result="effect2_innerShadow"/>
</filter>
<filter id="filter1_dd" x="126.081" y="116.787" width="234.218" height="52.6404" filterUnits="userSpaceOnUse" color-interpolation-filters="sRGB">
<feFlood flood-opacity="0" result="BackgroundImageFix"/>
<feColorMatrix in="SourceAlpha" type="matrix" values="0 0 0 0 0 0 0 0 0 0 0 0 0 0 0 0 0 0 127 0"/>
<feOffset dy="1"/>
<feGaussianBlur stdDeviation="2"/>
<feColorMatrix type="matrix" values="0 0 0 0 0.0862745 0 0 0 0 0.0705882 0 0 0 0 0.145098 0 0 0 0.17 0"/>
<feBlend mode="normal" in2="BackgroundImageFix" result="effect1_dropShadow"/>
<feColorMatrix in="SourceAlpha" type="matrix" values="0 0 0 0 0 0 0 0 0 0 0 0 0 0 0 0 0 0 127 0"/>
<feOffset dy="1"/>
<feGaussianBlur stdDeviation="0.5"/>
<feColorMatrix type="matrix" values="0 0 0 0 0.0862745 0 0 0 0 0.0705882 0 0 0 0 0.145098 0 0 0 0.0498188 0"/>
<feBlend mode="normal" in2="effect1_dropShadow" result="effect2_dropShadow"/>
<feBlend mode="normal" in="SourceGraphic" in2="effect2_dropShadow" result="shape"/>
</filter>
<filter id="filter2_b" x="118.016" y="51.0171" width="250.348" height="80.8353" filterUnits="userSpaceOnUse" color-interpolation-filters="sRGB">
<feFlood flood-opacity="0" result="BackgroundImageFix"/>
<feGaussianBlur in="BackgroundImage" stdDeviation="6.03248"/>
<feComposite in2="SourceAlpha" operator="in" result="effect1_backgroundBlur"/>
<feBlend mode="normal" in="SourceGraphic" in2="effect1_backgroundBlur" result="shape"/>
</filter>
<filter id="filter3_b" x="118.016" y="490.948" width="250.348" height="74.1995" filterUnits="userSpaceOnUse" color-interpolation-filters="sRGB">
<feFlood flood-opacity="0" result="BackgroundImageFix"/>
<feGaussianBlur in="BackgroundImage" stdDeviation="6.03248"/>
<feComposite in2="SourceAlpha" operator="in" result="effect1_backgroundBlur"/>
<feBlend mode="normal" in="SourceGraphic" in2="effect1_backgroundBlur" result="shape"/>
</filter>
<clipPath id="clip0">
<rect width="226.218" height="489.838" fill="white" transform="translate(130.081 63.082)"/>
</clipPath>
<clipPath id="clip1">
<rect width="226.218" height="489.838" fill="white" transform="translate(130.081 63.082)"/>
</clipPath>
</defs>
</svg>
