<svg width="487" height="616" viewBox="0 0 487 616" fill="none" xmlns="http://www.w3.org/2000/svg">
<rect width="486.381" height="616" rx="1" fill="#FFF4EC"/>
<g filter="url(#filter0_di_309_125)">
<rect x="115" y="48" width="256.381" height="520" rx="30.1624" fill="white"/>
</g>
<g clip-path="url(#clip0_309_125)">
<rect width="226.218" height="489.838" transform="translate(130.081 63.082)" fill="#938FA8"/>
<g clip-path="url(#clip1_309_125)">
<rect width="226.218" height="353.276" transform="translate(130.081 63.082)" fill="white"/>
<rect width="226.218" height="45.8469" transform="translate(130.081 63.082)" fill="white"/>
<path fill-rule="evenodd" clip-rule="evenodd" d="M237.055 77.5586C236.279 77.5586 235.649 78.1879 235.649 78.9642V91.6324C235.649 92.4087 236.279 93.0379 237.055 93.0379H241.628L242.888 94.2927C243.02 94.4257 243.199 94.5005 243.386 94.5005C243.573 94.5005 243.752 94.4257 243.884 94.2927L245.145 93.0319H249.717C250.493 93.0319 251.123 92.4026 251.123 91.6263V78.9581C251.119 78.1842 250.491 77.5586 249.717 77.5586H237.055ZM240.27 81.7813H246.508C246.823 81.7803 247.086 82.0221 247.111 82.3363L247.612 88.3688C247.625 88.537 247.568 88.7031 247.453 88.8269C247.338 88.9507 247.177 89.0209 247.008 89.0203H239.77C239.601 89.0209 239.44 88.9507 239.325 88.8269C239.21 88.7031 239.153 88.537 239.166 88.3688L239.667 82.3363C239.692 82.0221 239.955 81.7803 240.27 81.7813ZM240.976 83.5911C240.976 83.2579 241.246 82.9878 241.579 82.9878C241.913 82.9878 242.183 83.2579 242.183 83.5911V84.1943C242.183 84.8607 242.723 85.4008 243.389 85.4008C244.055 85.4008 244.596 84.8607 244.596 84.1943V83.5911C244.596 83.2579 244.866 82.9878 245.199 82.9878C245.532 82.9878 245.802 83.2579 245.802 83.5911V84.1943C245.802 85.527 244.722 86.6073 243.389 86.6073C242.056 86.6073 240.976 85.527 240.976 84.1943V83.5911Z" fill="#6770E0"/>
<g clip-path="url(#clip2_309_125)">
<path d="M314.186 85.8821C315.611 85.8821 316.766 84.6214 316.766 83.0779C316.766 81.558 315.611 80.3504 314.186 80.3504C312.766 80.3504 311.599 81.5757 311.605 83.0897C311.611 84.6273 312.76 85.8821 314.186 85.8821ZM314.186 84.8512C313.373 84.8512 312.683 84.0794 312.683 83.0897C312.677 82.1236 313.367 81.3813 314.186 81.3813C315.01 81.3813 315.688 82.1118 315.688 83.0779C315.688 84.0676 315.004 84.8512 314.186 84.8512ZM310.51 91.3608H317.856C318.875 91.3608 319.364 91.0368 319.364 90.3417C319.364 88.7216 317.343 86.5655 314.186 86.5655C311.028 86.5655 309.001 88.7216 309.001 90.3417C309.001 91.0368 309.49 91.3608 310.51 91.3608ZM310.327 90.3299C310.185 90.3299 310.132 90.2827 310.132 90.1767C310.132 89.2754 311.588 87.5964 314.186 87.5964C316.778 87.5964 318.233 89.2754 318.233 90.1767C318.233 90.2827 318.18 90.3299 318.038 90.3299H310.327Z" fill="#777777"/>
<path d="M334.444 91.2666H341.372C342.509 91.2666 343.169 90.6068 343.169 89.3461V83.2488C343.169 81.9881 342.503 81.3283 341.231 81.3283H340.4C340.371 80.0087 339.245 78.9129 337.837 78.9129C336.435 78.9129 335.304 80.0087 335.275 81.3283H334.444C333.172 81.3283 332.506 81.9881 332.506 83.2488V89.3461C332.506 90.6068 333.172 91.2666 334.444 91.2666ZM337.837 79.9556C338.644 79.9556 339.239 80.5624 339.263 81.3283H336.412C336.435 80.5624 337.03 79.9556 337.837 79.9556ZM334.521 90.0942C333.979 90.0942 333.678 89.8115 333.678 89.24V83.3548C333.678 82.7893 333.979 82.5065 334.521 82.5065H341.154C341.69 82.5065 341.997 82.7893 341.997 83.3548V89.24C341.997 89.8115 341.69 90.0942 341.295 90.0942H334.521Z" fill="#777777"/>
</g>
<path d="M144.029 83.1192L145.154 82.4594C145.384 82.318 145.378 81.9763 145.154 81.8467L144.029 81.1633C143.746 80.9984 143.452 81.0985 143.452 81.4284V82.8659C143.452 83.184 143.746 83.2841 144.029 83.1192ZM147.469 82.7009H155.057C155.375 82.7009 155.628 82.4535 155.628 82.1354C155.628 81.8172 155.381 81.5698 155.057 81.5698H147.469C147.157 81.5698 146.904 81.8172 146.904 82.1354C146.904 82.4535 147.151 82.7009 147.469 82.7009ZM144.029 86.7363L145.154 86.0706C145.384 85.9351 145.378 85.5934 145.154 85.4579L144.029 84.7805C143.746 84.6096 143.452 84.7098 143.452 85.0397V86.4771C143.452 86.7952 143.746 86.8954 144.029 86.7363ZM147.469 86.3239H155.057C155.375 86.3239 155.628 86.0765 155.628 85.7584C155.628 85.4403 155.381 85.1928 155.057 85.1928H147.469C147.157 85.1928 146.904 85.4403 146.904 85.7584C146.904 86.0765 147.151 86.3239 147.469 86.3239ZM144.029 90.3652L145.154 89.7054C145.384 89.564 145.378 89.2223 145.154 89.0927L144.029 88.4094C143.746 88.2444 143.452 88.3446 143.452 88.6745V90.106C143.452 90.43 143.746 90.5302 144.029 90.3652ZM147.469 89.9469H155.057C155.375 89.9469 155.628 89.6995 155.628 89.3814C155.628 89.0633 155.381 88.8159 155.057 88.8159H147.469C147.157 88.8159 146.904 89.0633 146.904 89.3814C146.904 89.6995 147.151 89.9469 147.469 89.9469Z" fill="#777777"/>
<line opacity="0.2" x1="130.081" y1="109.38" x2="356.299" y2="109.38" stroke="black" stroke-width="0.301624"/>
<path d="M205.986 171.568H214.781V169.221H208.833V157.967H205.986V171.568ZM220.951 171.776C224.004 171.776 225.956 169.815 225.956 166.516V166.497C225.956 163.227 223.967 161.257 220.941 161.257C217.925 161.257 215.945 163.245 215.945 166.497V166.516C215.945 169.806 217.878 171.776 220.951 171.776ZM220.96 169.617C219.603 169.617 218.745 168.496 218.745 166.516V166.497C218.745 164.546 219.612 163.415 220.941 163.415C222.28 163.415 223.156 164.546 223.156 166.497V166.516C223.156 168.486 222.298 169.617 220.96 169.617ZM232.333 175.075C235.368 175.075 237.262 173.538 237.262 171.286V161.464H234.51V163.189H234.454C233.907 162.011 232.804 161.257 231.381 161.257C228.826 161.257 227.243 163.17 227.243 166.394V166.403C227.243 169.542 228.808 171.427 231.334 171.427C232.795 171.427 233.926 170.758 234.454 169.702H234.51V171.248C234.51 172.379 233.756 173.114 232.333 173.114C231.183 173.114 230.448 172.681 230.231 172.181L230.203 172.115H227.526L227.535 172.2C227.799 173.821 229.552 175.075 232.333 175.075ZM232.286 169.41C230.91 169.41 230.042 168.288 230.042 166.469V166.46C230.042 164.65 230.919 163.538 232.286 163.538C233.624 163.538 234.52 164.659 234.52 166.46V166.469C234.52 168.279 233.634 169.41 232.286 169.41ZM244.026 175.075C247.061 175.075 248.956 173.538 248.956 171.286V161.464H246.204V163.189H246.147C245.6 162.011 244.497 161.257 243.074 161.257C240.52 161.257 238.936 163.17 238.936 166.394V166.403C238.936 169.542 240.501 171.427 243.027 171.427C244.488 171.427 245.619 170.758 246.147 169.702H246.204V171.248C246.204 172.379 245.449 173.114 244.026 173.114C242.876 173.114 242.141 172.681 241.924 172.181L241.896 172.115H239.219L239.228 172.2C239.492 173.821 241.246 175.075 244.026 175.075ZM243.979 169.41C242.603 169.41 241.736 168.288 241.736 166.469V166.46C241.736 164.65 242.612 163.538 243.979 163.538C245.318 163.538 246.213 164.659 246.213 166.46V166.469C246.213 168.279 245.327 169.41 243.979 169.41ZM256.488 160.163C257.318 160.163 257.959 159.513 257.959 158.73C257.959 157.948 257.318 157.298 256.488 157.298C255.659 157.298 255.018 157.948 255.018 158.73C255.018 159.513 255.659 160.163 256.488 160.163ZM255.112 171.568H257.865V161.464H255.112V171.568ZM259.944 171.568H262.696V165.762C262.696 164.442 263.478 163.538 264.713 163.538C265.948 163.538 266.57 164.292 266.57 165.611V171.568H269.322V165.046C269.322 162.68 268.059 161.257 265.835 161.257C264.308 161.257 263.271 161.964 262.753 163.123H262.696V161.464H259.944V171.568ZM271.298 171.568H274.05V165.762C274.05 164.442 274.832 163.538 276.067 163.538C277.302 163.538 277.924 164.292 277.924 165.611V171.568H280.676V165.046C280.676 162.68 279.413 161.257 277.189 161.257C275.662 161.257 274.625 161.964 274.107 163.123H274.05V161.464H271.298V171.568Z" fill="#1D1D1F"/>
<g clip-path="url(#clip3_309_125)">
<path d="M178.115 205.525C178.115 205.525 178.115 205.525 178.115 205.525C178.115 197.529 184.597 191.047 192.593 191.047C192.593 191.047 192.593 191.047 192.593 191.047H293.788C293.788 191.047 293.788 191.047 293.788 191.047C301.784 191.047 308.266 197.529 308.266 205.525C308.266 205.525 308.266 205.525 308.266 205.525C308.266 205.525 308.266 205.525 308.266 205.525C308.266 213.521 301.784 220.003 293.788 220.003H192.593C192.593 220.003 192.593 220.003 192.593 220.003C184.597 220.003 178.115 213.521 178.115 205.525C178.115 205.525 178.115 205.525 178.115 205.525Z" fill="#FF5B24"/>
<path d="M193.557 201.6V208.723H194.805V205.867H197.857V204.748H194.805V202.718H198.237V201.6H193.557ZM201.395 203.098C199.918 203.098 198.691 204.184 198.691 205.975C198.691 207.767 199.918 208.864 201.395 208.864C202.882 208.864 204.11 207.767 204.11 205.975C204.11 204.184 202.882 203.098 201.395 203.098ZM201.395 204.119C202.22 204.119 202.915 204.727 202.915 205.975C202.915 207.235 202.22 207.843 201.395 207.843C200.581 207.843 199.886 207.235 199.886 205.975C199.886 204.727 200.581 204.119 201.395 204.119ZM207.882 204.379C208.175 204.379 208.381 204.423 208.588 204.499L208.707 203.174C208.588 203.12 208.425 203.098 208.284 203.098C207.741 203.098 206.883 203.413 206.438 204.575V203.25H205.254V208.723H206.438V206.323C206.438 204.803 207.111 204.379 207.882 204.379ZM209.972 201.925V203.25H208.951V204.206H209.972V207.224C209.972 208.234 210.471 208.864 211.568 208.864C211.894 208.864 212.285 208.777 212.567 208.69L212.382 207.735C212.165 207.789 212.035 207.811 211.807 207.811C211.329 207.811 211.155 207.593 211.155 207.17V204.206H212.524V203.25H211.155V201.741L209.972 201.925ZM213.44 204.792C213.44 205.552 213.874 206.106 214.808 206.312L215.796 206.529C216.448 206.67 216.632 206.888 216.632 207.213C216.632 207.659 216.209 207.919 215.568 207.919C214.808 207.919 214.298 207.55 214.222 206.877L213.168 207.072C213.353 208.343 214.537 208.864 215.601 208.864C216.654 208.864 217.772 208.277 217.772 207.083C217.772 206.323 217.327 205.813 216.361 205.606L215.275 205.367C214.765 205.259 214.58 204.966 214.58 204.683C214.58 204.292 214.938 204.043 215.46 204.043C216.111 204.043 216.6 204.282 216.632 204.998L217.696 204.803C217.382 203.587 216.556 203.098 215.449 203.098C214.558 203.098 213.44 203.587 213.44 204.792ZM221.253 204.119C222.013 204.119 222.61 204.477 222.719 205.357H219.755C219.928 204.531 220.471 204.119 221.253 204.119ZM223.848 206.247V205.856C223.848 204.238 222.784 203.098 221.297 203.098C219.711 203.098 218.506 204.206 218.506 205.965C218.506 207.767 219.766 208.864 221.373 208.864C222.382 208.864 223.599 208.288 223.805 207.018L222.708 206.833C222.578 207.463 222.22 207.843 221.329 207.843C220.341 207.843 219.798 207.213 219.711 206.247H223.848ZM225.3 201.925V203.25H224.279V204.206H225.3V207.224C225.3 208.234 225.799 208.864 226.896 208.864C227.222 208.864 227.612 208.777 227.895 208.69L227.71 207.735C227.493 207.789 227.363 207.811 227.135 207.811C226.657 207.811 226.483 207.593 226.483 207.17V204.206H227.851V203.25H226.483V201.741L225.3 201.925ZM229.267 201.925V203.25H228.246V204.206H229.267V207.224C229.267 208.234 229.767 208.864 230.863 208.864C231.189 208.864 231.58 208.777 231.862 208.69L231.678 207.735C231.461 207.789 231.33 207.811 231.102 207.811C230.624 207.811 230.451 207.593 230.451 207.17V204.206H231.819V203.25H230.451V201.741L229.267 201.925ZM241.691 204.173C242.375 204.173 242.885 204.553 242.885 205.563V208.723H244.069V205.052C244.069 203.587 243.167 203.098 242.168 203.098C241.56 203.098 240.8 203.337 240.388 204.151C240.105 203.38 239.443 203.098 238.737 203.098C238.107 203.098 237.358 203.359 236.978 204.075V203.25H235.795V208.723H236.978V205.595C236.978 204.618 237.51 204.173 238.227 204.173C238.857 204.173 239.334 204.553 239.334 205.563V208.723H240.529V205.595C240.529 204.618 241.017 204.173 241.691 204.173ZM247.909 204.119C248.669 204.119 249.266 204.477 249.375 205.357H246.411C246.584 204.531 247.127 204.119 247.909 204.119ZM250.504 206.247V205.856C250.504 204.238 249.44 203.098 247.953 203.098C246.367 203.098 245.162 204.206 245.162 205.965C245.162 207.767 246.422 208.864 248.029 208.864C249.038 208.864 250.255 208.288 250.461 207.018L249.364 206.833C249.234 207.463 248.876 207.843 247.985 207.843C246.997 207.843 246.454 207.213 246.367 206.247H250.504ZM256.712 201.361H255.528V204.314C255.148 203.456 254.54 203.098 253.812 203.098C252.531 203.098 251.272 204.021 251.272 205.932C251.272 207.93 252.542 208.864 253.66 208.864C254.648 208.864 255.257 208.343 255.528 207.68V208.723H256.712V201.361ZM254.008 204.119C254.811 204.119 255.528 204.759 255.528 205.997C255.528 207.268 254.811 207.832 253.997 207.832C253.248 207.832 252.466 207.235 252.466 205.997C252.466 204.727 253.259 204.119 254.008 204.119Z" fill="white"/>
<path fill-rule="evenodd" clip-rule="evenodd" d="M293.788 204.61C293.421 203.211 292.531 202.656 291.317 202.656C290.332 202.656 289.097 203.211 289.097 204.548C289.097 205.412 289.694 206.091 290.668 206.266L291.589 206.43C292.217 206.543 292.395 206.78 292.395 207.098C292.395 207.458 292.008 207.664 291.432 207.664C290.678 207.664 290.207 207.397 290.134 206.646L288.804 206.852C289.013 208.301 290.311 208.898 291.484 208.898C292.594 208.898 293.777 208.26 293.777 206.975C293.777 206.101 293.243 205.464 292.249 205.278L291.233 205.093C290.667 204.99 290.479 204.713 290.479 204.445C290.479 204.106 290.846 203.89 291.348 203.89C291.987 203.89 292.437 204.106 292.458 204.816L293.788 204.61ZM264.228 206.81L265.61 202.811H267.233L264.825 208.744H263.621L261.212 202.811H262.835L264.228 206.81ZM272.72 204.507C272.72 204.98 272.343 205.309 271.903 205.309C271.463 205.309 271.086 204.98 271.086 204.507C271.086 204.034 271.463 203.705 271.903 203.705C272.343 203.705 272.72 204.034 272.72 204.507H272.72ZM272.971 206.605C272.427 207.304 271.851 207.787 270.835 207.787C269.799 207.787 268.992 207.17 268.364 206.266C268.113 205.895 267.725 205.813 267.443 206.008C267.181 206.194 267.118 206.584 267.359 206.924C268.228 208.23 269.432 208.99 270.835 208.99C272.123 208.99 273.128 208.374 273.913 207.345C274.207 206.965 274.196 206.574 273.913 206.358C273.652 206.152 273.264 206.225 272.971 206.605ZM276.584 205.761C276.584 206.975 277.296 207.612 278.092 207.612C278.846 207.612 279.621 207.016 279.621 205.761C279.621 204.527 278.846 203.931 278.102 203.931C277.296 203.931 276.584 204.497 276.584 205.761ZM276.584 203.633V202.821H275.108V210.8H276.584V207.962C277.076 208.62 277.715 208.898 278.437 208.898C279.788 208.898 281.107 207.849 281.107 205.69C281.107 203.623 279.736 202.656 278.563 202.656C277.631 202.656 276.992 203.078 276.584 203.633ZM283.673 205.761C283.673 206.975 284.385 207.612 285.181 207.612C285.934 207.612 286.709 207.016 286.709 205.761C286.709 204.527 285.934 203.931 285.191 203.931C284.385 203.931 283.673 204.497 283.673 205.761H283.673ZM283.673 203.633V202.821H283.673H282.196V210.8H283.673V207.962C284.165 208.62 284.804 208.898 285.526 208.898C286.877 208.898 288.196 207.849 288.196 205.69C288.196 203.623 286.824 202.656 285.652 202.656C284.72 202.656 284.081 203.078 283.673 203.633Z" fill="white"/>
</g>
<line opacity="0.2" x1="153.004" y1="239.156" x2="333.376" y2="239.156" stroke="black" stroke-width="0.301624"/>
<rect width="35.3039" height="8" transform="translate(225.84 234.402)" fill="white"/>
<path d="M238.129 241.475C239.102 241.475 239.692 240.924 239.833 240.365L239.841 240.334H239.175L239.159 240.368C239.048 240.617 238.704 240.882 238.145 240.882C237.409 240.882 236.938 240.384 236.919 239.53H239.891V239.269C239.891 238.036 239.209 237.202 238.087 237.202C236.965 237.202 236.238 238.075 236.238 239.35V239.354C236.238 240.648 236.95 241.475 238.129 241.475ZM238.083 237.795C238.692 237.795 239.144 238.182 239.213 238.998H236.931C237.004 238.213 237.471 237.795 238.083 237.795ZM240.818 241.402H241.484V235.636H240.818V241.402ZM242.657 241.402H243.323V235.636H242.657V241.402ZM246.142 241.475C247.115 241.475 247.705 240.924 247.846 240.365L247.854 240.334H247.188L247.172 240.368C247.061 240.617 246.717 240.882 246.158 240.882C245.422 240.882 244.951 240.384 244.932 239.53H247.904V239.269C247.904 238.036 247.222 237.202 246.1 237.202C244.978 237.202 244.251 238.075 244.251 239.35V239.354C244.251 240.648 244.963 241.475 246.142 241.475ZM246.096 237.795C246.705 237.795 247.157 238.182 247.226 238.998H244.944C245.016 238.213 245.484 237.795 246.096 237.795ZM248.793 241.402H249.459V238.844C249.459 238.239 249.911 237.837 250.547 237.837C250.692 237.837 250.818 237.853 250.956 237.876V237.229C250.891 237.217 250.75 237.202 250.623 237.202C250.064 237.202 249.677 237.454 249.52 237.887H249.459V237.274H248.793V241.402Z" fill="#777777"/>
<g clip-path="url(#clip4_309_125)">
<g clip-path="url(#clip5_309_125)">
<path d="M153.004 261.627C153.004 258.961 155.165 256.801 157.83 256.801H328.55C331.215 256.801 333.376 258.961 333.376 261.627V280.931C333.376 283.596 331.215 285.757 328.55 285.757H157.83C155.165 285.757 153.004 283.596 153.004 280.931V261.627Z" fill="white"/>
<path d="M163.523 274.453H167.737V273.69H164.372V271.352H167.562V270.598H164.372V268.416H167.737V267.652H163.523V274.453ZM168.906 272.097H172.073V271.333H168.906V272.097ZM173.336 276.15H174.156V273.652H174.231C174.51 274.194 175.117 274.543 175.815 274.543C177.106 274.543 177.945 273.511 177.945 271.918V271.908C177.945 270.325 177.102 269.283 175.815 269.283C175.108 269.283 174.543 269.618 174.231 270.183H174.156V269.373H173.336V276.15ZM175.626 273.817C174.703 273.817 174.137 273.091 174.137 271.918V271.908C174.137 270.735 174.703 270.009 175.626 270.009C176.555 270.009 177.106 270.725 177.106 271.908V271.918C177.106 273.101 176.555 273.817 175.626 273.817ZM181.122 274.543C182.569 274.543 183.464 273.544 183.464 271.918V271.908C183.464 270.278 182.569 269.283 181.122 269.283C179.675 269.283 178.78 270.278 178.78 271.908V271.918C178.78 273.544 179.675 274.543 181.122 274.543ZM181.122 273.817C180.16 273.817 179.618 273.115 179.618 271.918V271.908C179.618 270.706 180.16 270.009 181.122 270.009C182.083 270.009 182.625 270.706 182.625 271.908V271.918C182.625 273.115 182.083 273.817 181.122 273.817ZM186.287 274.543C187.442 274.543 188.323 273.916 188.323 273.011V273.002C188.323 272.276 187.861 271.861 186.905 271.63L186.122 271.442C185.524 271.295 185.269 271.079 185.269 270.735V270.725C185.269 270.278 185.712 269.966 186.316 269.966C186.928 269.966 187.324 270.245 187.433 270.645H188.238C188.125 269.816 187.385 269.283 186.32 269.283C185.241 269.283 184.43 269.919 184.43 270.763V270.768C184.43 271.498 184.859 271.913 185.811 272.139L186.598 272.328C187.225 272.478 187.484 272.719 187.484 273.063V273.072C187.484 273.534 186.999 273.859 186.316 273.859C185.665 273.859 185.26 273.581 185.123 273.157H184.284C184.379 273.996 185.156 274.543 186.287 274.543ZM191.161 274.491C191.321 274.491 191.476 274.472 191.637 274.444V273.746C191.486 273.76 191.406 273.765 191.26 273.765C190.732 273.765 190.524 273.525 190.524 272.926V270.051H191.637V269.373H190.524V268.058H189.676V269.373H188.875V270.051H189.676V273.134C189.676 274.104 190.114 274.491 191.161 274.491Z" fill="#777777"/>
</g>
<path d="M157.83 257.404H328.55V256.198H157.83V257.404ZM332.772 261.627V280.931H333.979V261.627H332.772ZM328.55 285.153H157.83V286.36H328.55V285.153ZM153.608 280.931V261.627H152.401V280.931H153.608ZM157.83 285.153C155.498 285.153 153.608 283.263 153.608 280.931H152.401C152.401 283.929 154.832 286.36 157.83 286.36V285.153ZM332.772 280.931C332.772 283.263 330.882 285.153 328.55 285.153V286.36C331.548 286.36 333.979 283.929 333.979 280.931H332.772ZM328.55 257.404C330.882 257.404 332.772 259.295 332.772 261.627H333.979C333.979 258.628 331.548 256.198 328.55 256.198V257.404ZM157.83 256.198C154.832 256.198 152.401 258.628 152.401 261.627H153.608C153.608 259.295 155.498 257.404 157.83 257.404V256.198Z" fill="black" fill-opacity="0.12"/>
<g clip-path="url(#clip6_309_125)">
<path d="M153.004 295.408C153.004 292.743 155.165 290.582 157.83 290.582H328.55C331.215 290.582 333.376 292.743 333.376 295.408V314.712C333.376 317.377 331.215 319.538 328.55 319.538H157.83C155.165 319.538 153.004 317.377 153.004 314.712V295.408Z" fill="white"/>
<path d="M163.523 308.234H164.372V305.807H166.087C167.364 305.807 168.269 304.907 168.269 303.616V303.606C168.269 302.315 167.364 301.434 166.087 301.434H163.523V308.234ZM165.87 302.188C166.841 302.188 167.402 302.72 167.402 303.616V303.625C167.402 304.521 166.841 305.053 165.87 305.053H164.372V302.188H165.87ZM170.569 308.324C171.253 308.324 171.785 308.027 172.106 307.485H172.181V308.234H173.001V304.756C173.001 303.701 172.308 303.064 171.069 303.064C169.985 303.064 169.212 303.602 169.08 304.398L169.075 304.426H169.895L169.9 304.412C170.032 304.016 170.433 303.79 171.041 303.79C171.799 303.79 172.181 304.129 172.181 304.756V305.218L170.725 305.308C169.542 305.378 168.873 305.902 168.873 306.806V306.816C168.873 307.74 169.603 308.324 170.569 308.324ZM169.712 306.797V306.788C169.712 306.283 170.051 306.01 170.824 305.963L172.181 305.878V306.34C172.181 307.066 171.573 307.612 170.739 307.612C170.15 307.612 169.712 307.311 169.712 306.797ZM176.051 308.324C177.205 308.324 178.087 307.697 178.087 306.792V306.783C178.087 306.057 177.625 305.642 176.668 305.411L175.886 305.223C175.287 305.077 175.033 304.86 175.033 304.516V304.506C175.033 304.059 175.476 303.748 176.079 303.748C176.692 303.748 177.087 304.026 177.196 304.426H178.002C177.889 303.597 177.149 303.064 176.084 303.064C175.004 303.064 174.194 303.701 174.194 304.544V304.549C174.194 305.279 174.623 305.694 175.575 305.92L176.362 306.109C176.988 306.26 177.248 306.5 177.248 306.844V306.854C177.248 307.315 176.762 307.641 176.079 307.641C175.429 307.641 175.023 307.362 174.887 306.938H174.048C174.142 307.777 174.92 308.324 176.051 308.324ZM180.816 308.324C181.97 308.324 182.851 307.697 182.851 306.792V306.783C182.851 306.057 182.39 305.642 181.433 305.411L180.651 305.223C180.052 305.077 179.798 304.86 179.798 304.516V304.506C179.798 304.059 180.241 303.748 180.844 303.748C181.456 303.748 181.852 304.026 181.961 304.426H182.767C182.654 303.597 181.914 303.064 180.849 303.064C179.769 303.064 178.959 303.701 178.959 304.544V304.549C178.959 305.279 179.388 305.694 180.34 305.92L181.127 306.109C181.753 306.26 182.013 306.5 182.013 306.844V306.854C182.013 307.315 181.527 307.641 180.844 307.641C180.193 307.641 179.788 307.362 179.651 306.938H178.813C178.907 307.777 179.684 308.324 180.816 308.324ZM186.019 308.324C187.466 308.324 188.361 307.325 188.361 305.699V305.689C188.361 304.059 187.466 303.064 186.019 303.064C184.572 303.064 183.676 304.059 183.676 305.689V305.699C183.676 307.325 184.572 308.324 186.019 308.324ZM186.019 307.598C185.057 307.598 184.515 306.896 184.515 305.699V305.689C184.515 304.488 185.057 303.79 186.019 303.79C186.98 303.79 187.522 304.488 187.522 305.689V305.699C187.522 306.896 186.98 307.598 186.019 307.598ZM189.44 308.234H190.261V305.086C190.261 304.342 190.817 303.847 191.599 303.847C191.778 303.847 191.934 303.866 192.103 303.894V303.097C192.023 303.083 191.849 303.064 191.693 303.064C191.005 303.064 190.529 303.375 190.336 303.908H190.261V303.154H189.44V308.234ZM194.658 308.324C195.365 308.324 195.93 307.989 196.241 307.424H196.317V308.234H197.137V301.137H196.317V303.955H196.241C195.963 303.413 195.355 303.064 194.658 303.064C193.366 303.064 192.528 304.096 192.528 305.689V305.699C192.528 307.282 193.371 308.324 194.658 308.324ZM194.846 307.598C193.918 307.598 193.366 306.882 193.366 305.699V305.689C193.366 304.506 193.918 303.79 194.846 303.79C195.77 303.79 196.336 304.516 196.336 305.689V305.699C196.336 306.872 195.77 307.598 194.846 307.598Z" fill="#777777"/>
</g>
<path d="M157.83 291.185H328.55V289.979H157.83V291.185ZM332.772 295.408V314.712H333.979V295.408H332.772ZM328.55 318.935H157.83V320.141H328.55V318.935ZM153.608 314.712V295.408H152.401V314.712H153.608ZM157.83 318.935C155.498 318.935 153.608 317.044 153.608 314.712H152.401C152.401 317.71 154.832 320.141 157.83 320.141V318.935ZM332.772 314.712C332.772 317.044 330.882 318.935 328.55 318.935V320.141C331.548 320.141 333.979 317.71 333.979 314.712H332.772ZM328.55 291.185C330.882 291.185 332.772 293.076 332.772 295.408H333.979C333.979 292.41 331.548 289.979 328.55 289.979V291.185ZM157.83 289.979C154.832 289.979 152.401 292.41 152.401 295.408H153.608C153.608 293.076 155.498 291.185 157.83 291.185V289.979Z" fill="black" fill-opacity="0.12"/>
<path d="M153.004 327.381C153.004 325.715 154.355 324.364 156.021 324.364H330.359C332.025 324.364 333.376 325.715 333.376 327.38V351.255C333.376 352.921 332.025 354.271 330.359 354.271H156.021C154.355 354.271 153.004 352.921 153.004 351.255V327.381Z" fill="#6770E0"/>
<path d="M224.029 342.317H228.365V341.295H225.245V335.517H224.029V342.317ZM231.396 342.421C232.937 342.421 233.875 341.413 233.875 339.744V339.735C233.875 338.076 232.933 337.067 231.396 337.067C229.865 337.067 228.917 338.081 228.917 339.735V339.744C228.917 341.413 229.851 342.421 231.396 342.421ZM231.396 341.469C230.581 341.469 230.114 340.833 230.114 339.749V339.739C230.114 338.655 230.581 338.015 231.396 338.015C232.207 338.015 232.674 338.655 232.674 339.739V339.749C232.674 340.833 232.212 341.469 231.396 341.469ZM237.124 344.127C238.627 344.127 239.579 343.378 239.579 342.19V337.166H238.406V338.015H238.344C238.052 337.43 237.496 337.081 236.785 337.081C235.455 337.081 234.645 338.109 234.645 339.598V339.607C234.645 341.068 235.455 342.077 236.761 342.077C237.473 342.077 238.033 341.775 238.33 341.224H238.41V342.209C238.41 342.869 237.944 343.241 237.143 343.241C236.488 343.241 236.096 343.01 236.016 342.68L236.012 342.666H234.838L234.833 342.68C234.951 343.547 235.767 344.127 237.124 344.127ZM237.124 341.144C236.309 341.144 235.847 340.517 235.847 339.607V339.598C235.847 338.688 236.309 338.057 237.124 338.057C237.934 338.057 238.429 338.688 238.429 339.598V339.607C238.429 340.517 237.939 341.144 237.124 341.144ZM243.087 344.127C244.59 344.127 245.542 343.378 245.542 342.19V337.166H244.369V338.015H244.308C244.015 337.43 243.459 337.081 242.748 337.081C241.419 337.081 240.608 338.109 240.608 339.598V339.607C240.608 341.068 241.419 342.077 242.724 342.077C243.436 342.077 243.997 341.775 244.293 341.224H244.374V342.209C244.374 342.869 243.907 343.241 243.106 343.241C242.451 343.241 242.06 343.01 241.979 342.68L241.975 342.666H240.801L240.796 342.68C240.914 343.547 241.73 344.127 243.087 344.127ZM243.087 341.144C242.272 341.144 241.81 340.517 241.81 339.607V339.598C241.81 338.688 242.272 338.057 243.087 338.057C243.898 338.057 244.392 338.688 244.392 339.598V339.607C244.392 340.517 243.902 341.144 243.087 341.144ZM249.867 336.304C250.248 336.304 250.564 335.997 250.564 335.611C250.564 335.229 250.248 334.918 249.867 334.918C249.48 334.918 249.164 335.229 249.164 335.611C249.164 335.997 249.48 336.304 249.867 336.304ZM249.278 342.317H250.451V337.166H249.278V342.317ZM251.748 342.317H252.922V339.315C252.922 338.542 253.356 338.052 254.053 338.052C254.765 338.052 255.09 338.458 255.09 339.259V342.317H256.263V338.985C256.263 337.76 255.637 337.067 254.487 337.067C253.742 337.067 253.247 337.402 253.002 337.953H252.922V337.166H251.748V342.317ZM257.504 342.317H258.678V339.315C258.678 338.542 259.111 338.052 259.809 338.052C260.52 338.052 260.846 338.458 260.846 339.259V342.317H262.019V338.985C262.019 337.76 261.392 337.067 260.242 337.067C259.498 337.067 259.003 337.402 258.758 337.953H258.678V337.166H257.504V342.317Z" fill="white"/>
</g>
<path d="M217.2 375.884C218.647 375.884 219.586 374.976 219.586 373.575V372.89H217.319V373.583H218.739V373.705C218.732 374.555 218.115 375.126 217.211 375.126C216.174 375.126 215.523 374.306 215.523 372.985V372.978C215.523 371.676 216.17 370.849 217.192 370.849C217.951 370.849 218.479 371.216 218.678 371.871L218.69 371.909H219.547L219.54 371.871C219.341 370.803 218.448 370.09 217.192 370.09C215.645 370.09 214.646 371.228 214.646 372.981V372.989C214.646 374.766 215.634 375.884 217.2 375.884ZM220.618 375.75H221.449V369.96H220.618V375.75ZM224.339 375.83C225.404 375.83 225.978 375.218 226.116 374.67L226.124 374.636L225.324 374.64L225.308 374.67C225.209 374.885 224.891 375.149 224.359 375.149C223.673 375.149 223.237 374.685 223.221 373.889H226.17V373.598C226.17 372.35 225.458 371.511 224.297 371.511C223.137 371.511 222.387 372.38 222.387 373.678V373.682C222.387 374.999 223.122 375.83 224.339 375.83ZM224.301 372.193C224.864 372.193 225.281 372.553 225.347 373.295H223.233C223.306 372.579 223.734 372.193 224.301 372.193ZM227.065 375.75H227.896V373.196C227.896 372.652 228.267 372.223 228.769 372.223C229.259 372.223 229.569 372.522 229.569 372.997V375.75H230.396V373.119C230.396 372.618 230.745 372.223 231.273 372.223C231.817 372.223 232.077 372.507 232.077 373.081V375.75H232.904V372.882C232.904 372.017 232.414 371.511 231.576 371.511C230.997 371.511 230.519 371.806 230.308 372.254H230.243C230.059 371.806 229.657 371.511 229.091 371.511C228.547 371.511 228.141 371.775 227.957 372.231H227.896V371.591H227.065V375.75ZM235.542 375.777C235.703 375.777 235.856 375.758 235.99 375.735V375.072C235.875 375.084 235.802 375.088 235.676 375.088C235.266 375.088 235.098 374.904 235.098 374.456V372.246H235.99V371.591H235.098V370.542H234.251V371.591H233.6V372.246H234.251V374.655C234.251 375.455 234.627 375.777 235.542 375.777ZM238.917 377.136H239.748V375.091H239.809C240.031 375.539 240.518 375.819 241.088 375.819C242.145 375.819 242.811 374.992 242.811 373.675V373.667C242.811 372.357 242.137 371.519 241.088 371.519C240.506 371.519 240.051 371.791 239.809 372.246H239.748V371.591H238.917V377.136ZM240.855 375.111C240.162 375.111 239.733 374.563 239.733 373.675V373.667C239.733 372.779 240.162 372.231 240.855 372.231C241.548 372.231 241.965 372.771 241.965 373.667V373.675C241.965 374.567 241.548 375.111 240.855 375.111ZM244.859 375.819C245.41 375.819 245.847 375.582 246.092 375.16H246.157V375.75H246.98V372.905C246.98 372.032 246.391 371.511 245.345 371.511C244.4 371.511 243.745 371.967 243.645 372.648L243.641 372.675H244.442L244.445 372.66C244.545 372.365 244.848 372.196 245.307 372.196C245.87 372.196 246.157 372.449 246.157 372.905V373.272L245.031 373.338C244.04 373.399 243.481 373.832 243.481 374.574V374.582C243.481 375.336 244.066 375.819 244.859 375.819ZM244.308 374.548V374.54C244.308 374.165 244.568 373.958 245.142 373.923L246.157 373.858V374.214C246.157 374.751 245.701 375.156 245.081 375.156C244.633 375.156 244.308 374.931 244.308 374.548ZM249.572 375.83C250.56 375.83 251.295 375.306 251.295 374.536V374.528C251.295 373.927 250.912 373.586 250.112 373.399L249.453 373.25C248.986 373.138 248.794 372.978 248.794 372.717V372.71C248.794 372.376 249.124 372.151 249.579 372.151C250.047 372.151 250.341 372.369 250.422 372.66V372.667H251.215V372.664C251.142 371.986 250.533 371.511 249.583 371.511C248.641 371.511 247.967 372.032 247.967 372.756V372.759C247.967 373.368 248.331 373.724 249.116 373.904L249.779 374.057C250.261 374.169 250.456 374.345 250.456 374.605V374.613C250.456 374.954 250.1 375.187 249.587 375.187C249.093 375.187 248.791 374.976 248.687 374.663L248.683 374.659H247.852V374.663C247.933 375.359 248.569 375.83 249.572 375.83ZM253.63 375.83C254.618 375.83 255.353 375.306 255.353 374.536V374.528C255.353 373.927 254.97 373.586 254.17 373.399L253.511 373.25C253.044 373.138 252.852 372.978 252.852 372.717V372.71C252.852 372.376 253.182 372.151 253.637 372.151C254.105 372.151 254.399 372.369 254.48 372.66V372.667H255.272V372.664C255.2 371.986 254.591 371.511 253.641 371.511C252.699 371.511 252.025 372.032 252.025 372.756V372.759C252.025 373.368 252.389 373.724 253.174 373.904L253.837 374.057C254.319 374.169 254.514 374.345 254.514 374.605V374.613C254.514 374.954 254.158 375.187 253.645 375.187C253.151 375.187 252.849 374.976 252.745 374.663L252.741 374.659H251.91V374.663C251.991 375.359 252.627 375.83 253.63 375.83ZM258.013 375.83C259.231 375.83 259.978 375.015 259.978 373.675V373.667C259.978 372.327 259.227 371.511 258.013 371.511C256.796 371.511 256.045 372.331 256.045 373.667V373.675C256.045 375.015 256.792 375.83 258.013 375.83ZM258.013 375.137C257.297 375.137 256.895 374.597 256.895 373.675V373.667C256.895 372.744 257.297 372.204 258.013 372.204C258.725 372.204 259.131 372.744 259.131 373.667V373.675C259.131 374.594 258.725 375.137 258.013 375.137ZM260.876 375.75H261.707V373.265C261.707 372.664 262.14 372.273 262.776 372.273C262.933 372.273 263.074 372.292 263.224 372.323V371.557C263.14 371.538 262.994 371.519 262.86 371.519C262.305 371.519 261.918 371.779 261.769 372.219H261.707V371.591H260.876V375.75ZM265.333 375.819C265.915 375.819 266.37 375.551 266.612 375.095H266.677V375.75H267.504V369.96H266.677V372.25H266.612C266.39 371.802 265.903 371.519 265.333 371.519C264.276 371.519 263.61 372.35 263.61 373.667V373.675C263.61 374.98 264.287 375.819 265.333 375.819ZM265.57 375.111C264.873 375.111 264.456 374.567 264.456 373.675V373.667C264.456 372.775 264.873 372.231 265.57 372.231C266.259 372.231 266.688 372.779 266.688 373.667V373.675C266.688 374.563 266.263 375.111 265.57 375.111ZM269.551 374.035H270.344V373.801C270.344 373.407 270.486 373.204 270.98 372.913C271.485 372.61 271.784 372.193 271.784 371.603V371.595C271.784 370.78 271.102 370.178 270.091 370.178C268.981 370.178 268.387 370.837 268.353 371.703V371.71L269.142 371.706H269.149C269.18 371.201 269.521 370.883 270.049 370.883C270.574 370.883 270.915 371.201 270.915 371.63V371.637C270.915 372.028 270.75 372.25 270.287 372.53C269.762 372.844 269.528 373.188 269.548 373.728L269.551 374.035ZM269.996 375.834C270.348 375.834 270.585 375.604 270.585 375.264C270.585 374.919 270.348 374.689 269.996 374.689C269.643 374.689 269.402 374.919 269.402 375.264C269.402 375.604 269.643 375.834 269.996 375.834Z" fill="#6770E0"/>
</g>
</g>
<path fill-rule="evenodd" clip-rule="evenodd" d="M130.081 94.3544C130.081 83.1787 130.081 77.5908 132.325 73.3531C134.136 69.9332 136.932 67.1365 140.352 65.3258C144.59 63.082 150.178 63.082 161.353 63.082H130.081V94.3544ZM130.081 521.647V552.92H161.353C150.178 552.92 144.59 552.92 140.352 550.676C136.932 548.865 134.136 546.068 132.325 542.649C130.081 538.411 130.081 532.823 130.081 521.647ZM325.027 552.92H356.299V521.647C356.299 532.823 356.299 538.411 354.055 542.649C352.245 546.068 349.448 548.865 346.028 550.676C341.79 552.92 336.202 552.92 325.027 552.92ZM356.299 94.3544V63.082H325.027C336.202 63.082 341.79 63.082 346.028 65.3258C349.448 67.1365 352.245 69.9332 354.055 73.3531C356.299 77.5908 356.299 83.1787 356.299 94.3544ZM309.849 63.082H305.626H180.754H176.531C178.863 63.082 180.754 64.2885 180.754 66.0983V63.082C180.754 67.5715 180.754 69.8162 181.291 71.647C182.564 75.9805 185.953 79.3695 190.286 80.6419C192.117 81.1795 194.362 81.1795 198.851 81.1795H287.529C292.018 81.1795 294.263 81.1795 296.094 80.6419C300.427 79.3695 303.816 75.9805 305.089 71.647C305.626 69.8162 305.626 67.5715 305.626 63.082V66.0983C305.626 64.2885 307.517 63.082 309.849 63.082Z" fill="white"/>
<rect x="213.33" y="64.5977" width="42.4417" height="5.45679" rx="2.7284" fill="#F0F3F5"/>
<path d="M268.807 71.5704C271.151 71.5704 273.051 69.6702 273.051 67.3262C273.051 64.9822 271.151 63.082 268.807 63.082C266.463 63.082 264.562 64.9822 264.562 67.3262C264.562 69.6702 266.463 71.5704 268.807 71.5704Z" fill="#F0F3F5"/>
<defs>
<filter id="filter0_di_309_125" x="112.587" y="42.0034" width="264.79" height="529.616" filterUnits="userSpaceOnUse" color-interpolation-filters="sRGB">
<feFlood flood-opacity="0" result="BackgroundImageFix"/>
<feColorMatrix in="SourceAlpha" type="matrix" values="0 0 0 0 0 0 0 0 0 0 0 0 0 0 0 0 0 0 127 0" result="hardAlpha"/>
<feOffset dy="1.2065"/>
<feGaussianBlur stdDeviation="1.2065"/>
<feColorMatrix type="matrix" values="0 0 0 0 0 0 0 0 0 0 0 0 0 0 0 0 0 0 0.25 0"/>
<feBlend mode="normal" in2="BackgroundImageFix" result="effect1_dropShadow_309_125"/>
<feBlend mode="normal" in="SourceGraphic" in2="effect1_dropShadow_309_125" result="shape"/>
<feColorMatrix in="SourceAlpha" type="matrix" values="0 0 0 0 0 0 0 0 0 0 0 0 0 0 0 0 0 0 127 0" result="hardAlpha"/>
<feOffset dx="10.2799" dy="-8.85216"/>
<feGaussianBlur stdDeviation="2.99831"/>
<feComposite in2="hardAlpha" operator="arithmetic" k2="-1" k3="1"/>
<feColorMatrix type="matrix" values="0 0 0 0 1 0 0 0 0 1 0 0 0 0 1 0 0 0 0.05 0"/>
<feBlend mode="normal" in2="shape" result="effect2_innerShadow_309_125"/>
</filter>
<clipPath id="clip0_309_125">
<rect width="226.218" height="489.838" fill="white" transform="translate(130.081 63.082)"/>
</clipPath>
<clipPath id="clip1_309_125">
<rect width="226.218" height="353.276" fill="white" transform="translate(130.081 63.082)"/>
</clipPath>
<clipPath id="clip2_309_125">
<rect width="37.652" height="14" fill="white" transform="translate(307.186 79.0059)"/>
</clipPath>
<clipPath id="clip3_309_125">
<rect x="153.004" y="191.047" width="180.371" height="28.9559" rx="4.82599" fill="white"/>
</clipPath>
<clipPath id="clip4_309_125">
<rect width="180.371" height="97.471" fill="white" transform="translate(153.004 256.801)"/>
</clipPath>
<clipPath id="clip5_309_125">
<path d="M153.004 261.627C153.004 258.961 155.165 256.801 157.83 256.801H328.55C331.215 256.801 333.376 258.961 333.376 261.627V280.931C333.376 283.596 331.215 285.757 328.55 285.757H157.83C155.165 285.757 153.004 283.596 153.004 280.931V261.627Z" fill="white"/>
</clipPath>
<clipPath id="clip6_309_125">
<path d="M153.004 295.408C153.004 292.743 155.165 290.582 157.83 290.582H328.55C331.215 290.582 333.376 292.743 333.376 295.408V314.712C333.376 317.377 331.215 319.538 328.55 319.538H157.83C155.165 319.538 153.004 317.377 153.004 314.712V295.408Z" fill="white"/>
</clipPath>
</defs>
</svg>
